<mxfile host="app.diagrams.net" agent="Mozilla/5.0 (Windows NT 10.0; Win64; x64) AppleWebKit/537.36 (KHTML, like Gecko) Chrome/134.0.0.0 Safari/537.36" version="26.1.1">
  <diagram name="Page-1" id="e-KKXxpbjaOFMGh1mGDR">
    <mxGraphModel dx="1434" dy="784" grid="1" gridSize="10" guides="1" tooltips="1" connect="1" arrows="1" fold="1" page="1" pageScale="1" pageWidth="850" pageHeight="1100" math="0" shadow="0">
      <root>
        <mxCell id="0" />
        <mxCell id="1" parent="0" />
        <mxCell id="FIYXRa1nBwu99BXQIc-x-2" value="" style="shape=image;verticalLabelPosition=bottom;labelBackgroundColor=default;verticalAlign=top;aspect=fixed;imageAspect=0;image=data:image/png,iVBORw0KGgoAAAANSUhEUgAAA2EAAAIICAIAAABo4nFOAAAgAElEQVR4Aey9Z1gUW7cuuv/sv3uf555797nnPvfc/a31fWtLzhnBiDnnnHNgmUFUUARzRAUxEVTMouScc46dc845VXdX9T2zWwEBFYtg+63qpx6orq5Rc8x3VHhrzDHG/BcL9sEQwBDAEMAQwBDAEMAQwBDAEPgSgX/58iv2DUMAQwBDAEMAQwBDAEMAQwBDwIJxROwkwBDAEMAQwBDAEMAQwBDAEBiMAMYRByOCfccQwBDAEMAQwBDAEMAQwBCwU46IIIhSqVSr1TrsgyGAIYAhgCGAIYAhgCGAITA+CCiVSq1WiyDIUE5spxxRqVRGR0dv3rx5K/bBEMAQwBDAEMAQwBDAEMAQGB8ENm3alJqaqtVqfxmOKJPJAgICNmzYEBcXd3H8P/Hx8cePH9+3b198fPz4t4a1MF4IxMfH79u37/jx45gdxwviiTpuXFzcli1bYmJiLly4MFFtYu2MPQIXLlw4ffr09u3bJ+ZOPvYdwI74GYH4+PgjR44cPHgQu7t+huSX/B8XF7d79+7IyMi+W2tsbGxoaGh4eLharbYM+dipH1GtVgcGBr5+/Vqj0RjG/6PT6YhEYnV1tVarHf/WsBbGCwGtVltTU0MgEHQ63Xi1gR13QhDQaDRZWVkikUiv109Ig1gj44KAXq/ncrn5+fkTcycflz5gB7UioNPpuru7GxsbsafkL31GaDSasrIyKpXad2v933F9R48ePXz4sF6vH0IR7TWvWaPRBAYGZmZmmkymoUqP+RYYhul0emNj48Q0N+b6Ywe0IWAymRobG2k0GgzDGCa/NAJGozE/P1+hUAwbIvNLd+0vpTyCIBKJpKSkBLu1/up2h2GYSCS2tbWZzeZfvS9/Zf1NJlNNTQ2bze57Sur1+oiICIwjfuuswDjit9D5dX7DOOKvY6vvaIpxxO8A9Iv8jHHEX8RQ31cT44jfx+hX2APjiGishHFENKjZnwzGEe3PJig1wjgiSuDsTAzjiHZmEPTqYBwRPXb2JIlxRDTWwDgiGtTsTwbjiPZnE5QaYRwRJXB2JoZxRDszCHp1MI6IHjt7ksQ4IhprYBwRDWr2J4NxRPuzCUqNMI6IEjg7E8M4op0ZBL06GEdEj509SWIcEY01MI6IBjX7k8E4ov3ZBKVGGEdECZydiWEc0c4Mgl4djCOix86eJDGOiMYaGEdEg5r9yWAc0f5sglIjjCOiBM7OxDCOaGcGQa8OxhHRY2dPkhhHRGMNjCOiQc3+ZDCOaH82QakRxhFRAmdnYhhHtDODoFcH44josbMnSYwjorEGxhHRoGZ/MhhHtD+boNQI44gogbMzMYwj2plB0KuDcUT02NmTJMYR0VgD44hoULM/GYwj2p9NUGqEcUSUwNmZGMYR7cwg6NXBOCJ67OxJEuOIaKyBcUQ0qNmfDMYR7c8mKDXCOCJK4OxMDOOIdmYQ9OpgHBE9dvYkiXFENNbAOCIa1OxPBuOI9mcTlBphHBElcHYmhnFEOzMIenUwjogeO3uSxDgiGmtgHBENavYng3FE+7MJSo0wjogSODsTwziinRkEvToYR0SPnT1JYhwRjTUwjogGNfuTwTii/dkEpUYYR0QJnJ2JYRzRzgyCXh2MI6LHzp4kMY6IxhoYR0SDmv3JYBzR/myCUiOMI6IEzs7EMI5oZwZBrw7GEYfBDkEMJJIFhof5yV43YRwRjWUwjogGNfuTwTii/dkEpUYYR0QJnJ2JYRzRzgyCXh2MI36BHYKY5XJ+7HliYBD/XKxJKrUgyBc72OsXjCOisQzGEdGgZn8yGEe0P5ug1AjjiCiBszMxjCPamUHQq4NxxD7sEJNJ193NWL+B4O2Dm+RA8PZhrN+g6+hAjMa+fex2BeOIaEyDcUQ0qNmfDMYR7c8mKDXCOCJK4OxMDOOIdmYQ9OpgHNGGHaxWy9++o8yZi3f3wE1ysC14N3fK7Dmy16/NKhV6iCdEEuOIaGDGOCIa1OxPBuOI9mcTlBphHBElcHYmhnFEOzMIenUwjmixWGCDQV1ZRZ46DefgCJbPHNH2lTRlqqqsHNbr0aM8/pIYR0SDMcYR0aBmfzIYR7Q/m6DUCOOIKIGzMzGMI9qZQdCrg3FEi8WCmGFddw8xeHI/OxxAE8kzZuo6uxCzGT3K4y+JcUQ0GGMcEQ1q9ieDcUT7swlKjTCOiBI4OxPDOKKdGQS9OhhHtMCwkccT3rw1cJS5nyw6OApv3jJJpOghnhBJjCOigRnjiGhQsz8ZjCPan01QaoRxRJTA2ZkYxhHtzCDo1fmLc0RYp9M0NnKOHiNNmYpzdALZKgPHmic5kEJCte3tiMmEHuIJkcQ4IhqYMY6IBjX7k8E4ov3ZBKVGGEdECZydiWEc0c4Mgl6dvy5HRBCjQCB7/pxuTWQmh80SXrvOj78wmCNOmaon/gK1EjGOiOYawDgiGtTsTwbjiPZnE5QaYRwRJXB2Jja+HBGGjQKBnfX4n1advyZHRAyQrqOTHxdPmTOX4O3D3LFTkZ1tFAgMVKro5k3hDbDwL14kBgUTPDxFt26bJBI7PwMwjojGQBhHRIOa/clgHNH+bIJSI4wjogTOzsTGiyMiiFmlUmRmciMiFNk5dp5Jamc2QanOX5AjmiQSRVY2a89eYkAgedp0/oUL2uZmBIJA8goMmyQS22Lk88WJiQQ/f/K06YrMTDsvf4NxRDQXAMYR0aBmfzIYR7Q/m6DU6NfliGaVCtbpUHb7n05sPDgiYjZDDKbozh3qgoU4B0fq4iXi+8lGHu/XmhLtlzP1uHJExGAwKxT2gwliMukJBNHdu7Slywg+vvR166RPn0Is1tc0NIlE3KhTBC9v+uo1mro6xGD42p4/fTvGEdGYAOOIaFCzPxmMI9qfTVBq9CtyRMRs1nV1i5MfyJ4/h+h0jLIAdwuCSITCso8fTWMUyw/rdNrGRt7pM0T/gE8BYQ6OtvnQdO3tNh8PynPun0IMVqvHyas6XhwRho1crvzNG9Gdu9rWVnsoHGNWKFXlFdyICFJIKCkklBsRAaoeajTfPkF0vb3MLVvxHp6cw0f0BII9dGRYhTGOOCws39mIccTvAPSL/DzeHBHW6WCt9hcB49dW85fjiLBarS4r4xw+Aoalps/gnz+vbWn9qzsUEcQklfLfv28+dkxVX/8DKZ8IgkCQWS43crkGMlnX2ampr1eVliqysiSPHrN27sI5OX+RMeDohHdyZu3brycSf6CVX/sSGaw9Yjbr8Xhpaqr8zRuIyRzzV5Tx4IiIwaDv7hZeuUqZNZvg48vau09ZUPAzx2phGGIwpE+f0tetJ/j6UZcsFd29qycQRgimqrCQunARwcdXeP26kcsdbCH7+I5xRDR2wDgiGtTsT2YcOaL13iF/+07++jVEo43wlmF/CP0yGv1aHNHI48levaKvXvOpcJqDI8HbBzzw8gtMUnuvlzZO5wRiMkF0uuTBQ8rCRXh3D8a27crcPLNS2d8cDMNarUkigdhsA4lkJYINqrJyZW6e/M1baWqq6M4dQfwFbkQke98+xoaN1EWLSVOn4T08+yvS9ZUvtq4Q/fw1jU2/xJy5/SCM0Rqs1Wqqa7gnIohBweQZMwUXL+k6OsbWoTjmHNGsUKjLyzlHjhB8/WyMH+/qRl20WJqWDrHZYwTMDxwGuKhbWgTx8eTpM4iBQay9exVZWWaZbOSHQCBI8vAhaeo00rRpsowMs1w+ctkJ2xPjiGigxjgiGtTsT2acOCKs1+va2wXxF8jTppOmTOWfi9W2/uVdRONs/V+II5pVKnHSffK06ThHp37nloMjzsmZtnSZ/P37v6DvGdZqtS0t/HOxxIDAT5g4u5BnhkkePlKXl6srKpQFBfJ376SpaaKEO/y4OO7xE6zdu+lr1lLmzSdNnox3c8c5OOJdXAk+vqSQUErYLOqiRfRVqxmbNjO3bactXToMTXRwJM+aDQrUGY3jfG7a3eFNAqEiM5O+bv3AVxT2gYOqkpIfojjf7tjYckRYr1cWFtHXrhvqEiYGBgmvXTMrBrxOfFuzsfjVKBAosrKYO3YQfP0os+fw4y/oOjpQ+KRNUinv7DmifwBt5UpVSYkdjiRgHBHN+YJxRDSo2Z/MeHBEs0ymKilh7d1L8PIGTzsHR4KnF3PHTmVh4V/WRTQBlrd/jogYjSax2EAkyT98JIfNGoa1THLAOTgyd+xU19QaeTwQz4QgEwDdT28CgYzapmbW7j3g8e/o1I+MlTeTZ8wkh80i+Pnbria8uwfRz58UOoUyaxZ14SLaipWMDRuZ23ew9h/gRkQKLl4UJybKnmcoc3I1NTW67m4DiST/8GFoBWNwYfr48s+dU1dXA/8NDP90HCZGAVitkTx6TJ4x8wuyZXtFWb5C8fHjWNGUMeSICAxDTCYvOuaL06PPK+zgSJ4ZBkZ4J+SDGI229BTK7NlEXz/G+g2yjAyjUIi6cT2BwN67j+DhyT4Yjo5oom56JIIYRxwJSoP3wTjiYER+ze9jzhFhnV7+7j118ZKh91/q/AWyV6/G6v77a+I9jlrbJ0dETCaTRGKgUnWtbcqCAvG9e+w/D1HmzsO7uvUzob5H3SQHnKMTacpU1t69witXZK9eqaurdV1dEJ1ukkjsOfNxlHY1q1SS1FS8i8swmDg44t09aEuX0deuY27Zwtqzx0oEL4mT7stevlQWFGgaGvQEglEgAFfWVyi1kctl7dnb77K1cnHq0mWUsFl4F1fq0qWS1FQ9gfBXuDZBFGx1DWXuvGGgtp6HjC1b1VVVJqEQgUbrXh0DjoggsFoN0ema+npJWhpj02a8i+swmjs5k8PCpBkZmsZGA4UK8p3HjfGD8e7qanZ4ONHPjzxlKvf4CU19AzzqrGRVaSl99RqCl7cg/gKIDf3KmTzKCw2dOMYR0eCGcUQ0qNmfzJhzRCNfwN5/YNiXXbyzC2v3HiOfb38w/DNoZC8cEUEQo9Esk0FMpr67W1VWLr6fzDl0mDJnLs7JGe/uQQqeTJkzl7ZyFWlyCN75C1aEd3UjTZlKmTePFDqF4O2Dd3Yh+PjSVqzknjghvn9fVViobW83kMlGHs+sVI4kCxIxGu1/IBXW6QwUiujePYK397CPf8a27ZqmZohGMysUI+n10LMZ1utV5eW0ZcsHLqqqavmr18ytW4mBQQRPL3Z4uLKoGHCjMcqnHqrGz9wCwyaxWNeLk799ywoPB/F8A99MBqwTfHwZGzaIbt9WlZUbSCSTWIz6FBoNR4S1WiOHq+vokL9+zT0RQZ45E+/mTgwIJAYFD36/cnTCe3gS/Pzxzi6k0CmcPw9J09I+kUWpdCytCcNGNlv2/Dll/gKClzd1wULx/WSIwxkTPoeYzdK0NMqs2aSQUMnjx2M44j/6sw7jiGgwxDgiGtTsT2ZsOSKs1eopFPahQyA6asBtF6w7OJJCp4juJSL29II4vEFg+Fd0WY0rRwSAfMMzYeOFCoWRy9UTCOrqavHDh5zDRz7xQlc3YmAQeWYYdfES9oED4nv3VGVlEI8nvHGTFBLa79xycKTMnSd+8EBdVSV58oQXdYqxYQN1/gIQDh8QCOLGnJxJwZOZm7fwz5+XvXihaWgwEIlGNtsslQIH2CD1EMQsl2ubmzUNDeB5Y5dnHWIwGLlcZWEhOzyc4OOLd3Ub7CVycCQGBGo7OkevP2w0QjSagUq1LRCNZqObRjZbePUaddFigocnadp04Y0bus5OWK0efYvDX1wTvhXW641crra1DZSHXLIUMC1fP8qs2eCkcnIeeJvCu7iSpk6jLlgA3l7cPQje3owNG8R372pqayE63SyT/SjfQsEREYPBJBTqiURlTg7vTDR51mybwuSZYYyNmwRXrgiuX6cuWtx/1UxyIPj4Mnfu4p0/T1+9hhI2C1Q4cnIm+Pqxdu6UJCdr6usNVCpww0PQaGwK6/T63l7eqdMEH1+ifwBzxw5VRcXYxg2bFQrBpcvEgEDakiWK7OyxzR8azXn3C3NEBEHgzx+lUhkYGPj+/Xuj0YiM/8dsNtNotMbGRpPJNP6tYS2MFwI2jkilUs1m82jagCHIyOcrcnIYm7cQvLyBf2hgWJWVL1IXLlJ8/GhWqUbT0HjLwnq9gUIBg01iMQLD493cGB4fgqD8/HyFQgGPrdpWB4y6utpAocA63UCFYchoVqmMQqGBRgNjYU+ecI4cBbzQ2QXv6kawxczNncfcuUt4+7aypBQSCJABp5meSGKH/0meGda3CC5fgdicvibMOp2eRFLk5gpv3mLt209ZsBDwxaBgm4sR5+RMmT2HfeCAKCFBmZ+v6+2FWCyTSGRWKoEPhsuVPH5CmTuPMmu2+P59iMOBJ+TG2Kf8t1dgo9EkkahrargnTxKDgggenuQ5c+mbNlOsNa77iAvezZ0VHj7GBh2iGWw2q2pqWPsPAG7k4kpfs1b+7r2Ry4UN0JB9f50NZrNZqYSYTFVJCefYcRsFJwYGUeYv4MWeV9fX8+MvECeH9JMtB0fKnLnSjAwdHi95ksLcs5ccNgvwSDd3vIcnfcMGUVKStrXVyOEAb+7Innpms5lIJLa1tX33KQnOB5nMwGSqysv58fEgGMPNneDpRQoJpS5bzjt3TllaZpRIwLuYQChKTOq7ZAB33LJV19uLwLBZpVJVVQmuXaOtXkOeMZPoH4B3cQUJ8mvXiW7eVFdVG2ggZgPW679zZ4Nh2GAYaGmTTKYsKqYuXoJ3cyeFhPIvXjIwGAOv5YE7j2bdQKGwDx8Gp/3OXZqmphHiPJoWRyJrNBqrq6vZbHbfU1Kn0504ceLw4cN6vX4o+/yXoZt+1hahUNjd3d1p/dTX17u7uz9//lwikSjG/yOTyXA4XE1NjVQqHf/WsBbGCwGpVFpTU9Pb2yuTydC1oZTL1Xy+oraW9eefBF/fHle37qnTeucvwPWlZ9ocig6Ovc4u5HnzROnpahZbibY5dEqOSEouV/F4sqIi2voNBF8/TnS0ikxR/jqnt0Qiyc3N5XA4crl8RP0dwU5KqVRFJnOiYwh+/rR162WFhSoORyUUqrlcDY2mrK8XPUlhHT5CnjUb5+zS6+Tc4+7R7e3TFTwZt2oV9Xwc98NHCZn8jXYkeLyopUVoXUQtLVIa7as7y+UyDkdQWcl8+JB07FjPwkVdAYFd3j7dHp69Lq4gpdfTi7p0GTsiUvT4iTQri338+Kf6INbMDNaRo4q2NqVY/NXjT9QPSrlcJRAompu5cXGkKVN6nV26AwKJu/fwC4ukVCrz/v0uP7++pWfadEFFxcSoJmOxmIlJvfMX9Li6EXx82ceOy2tqgKpjdzpNTEeUUqmay1X39IgePqSuWIGb5NDj6tbl49u7ZCnzXqKEQFBYbz7C5mbCli19UHf5+VGjosS9vTYl5SKRsKWFfjsBt3Zdl58/OM2cnPGubrR16wWJSaqODg2LpRIKv30fk8lknZ2djY2NX3tKKmUylUCgYbGU9fX8q1dBzSMX114X124v7+4pU0nh4ZzXryUUyiATSFmsvqtG2NIi7ukZdMnLJRJBZRX9ytXeFSu6AoO6Pb16nV1wzi6UBQu552JlBQVqIlHN5arE4kFHVigU4JKnUhVVVWoeTyGXAzDpDN6VK3hPrx5Xt55ZszmvXsu43PEzJS8vn7h6Dc7VjX3ypAKPH7+GRn5kqVRaUVFBIpH6cBYKhYcOHfoFOOKtW7d+++23/9v6+Y//+I9//dd/jY6OzsnJyZ+QT05OTlZW1oQ0hTUyjghkZWWhPmfyMjPzHj2q3b6jy8sbvLMGBLbu3Fn26FFpSmrb5i3EgIC+BTd9Rs+cuQQPzx53j8blKwru3s3LzBzHXv3ooXNy8p89qzx2rMvXr9fBETxXnF3awmYV3k7I+/DhRw/2s/b/+PFjXl7eWLWe9+FDYUJC66xZPdaowV4Hxy4f39odOyr/PNSwek1nUDB4ajq7gFgoXz9CSGj30mXNfx6qunGj+NWr/LFT42vdKX79uvLW7YYTER0bN+JmhhECg4CvyN0D5+jUO8mhd2Cog4Njr6NT68yZpRcv5k/U7XEYtfPywDn/6FHVgQOdgUEAOj+/zlWrq65fL/h8Iy388KE0JaXk8eP85OTSJ09K09ImAMmBqpamprbs3o2zOhQ7g4Krwv/MT0nN+/hx4D52up6bm5eZmfvsWdHVq/UbNnR7eYMhV08vQvDk9q3bKhMSCrKzB2lekpFRlpLStxS9eTNoh/z8/IKcnNK0tIbIk91LlxEDAm2DJOB0mjO36tCh/MTE3IwXee8z83Nzh8rm5+fnZGdnD0XPpuqLF/n37lUdDG+bPuNT3SJvH8LkkI4NG2vjL4zNRZSXV5qaWn/mTOfqNYTQKTZnKs7RqSMgsH7t2tKYmLxHj3JfvQK3uNzcfOv5WXjzZvOChT1u7nWbNuc+eVJw+3Zr2CycoxPB26d90+aS9PSCr/R02O6j2ZiXV3sutnvqtG4v75r9+/PevkVzkLGWycrKyh3Q8aysrJUrV/4CHBGCINXnD5/P9/Pze/v2rU6nM47/x2AwUCiU+vp6vV4//q1hLYwXAnq9vqGhgUwmGwyGH2tDp9OLRMKHD0lTpoLcAncP5q7dyupqSKWyHUfH4ai7u/sWLYulpdP5V6+C8m/OLsQpU0WPHxukUuOPtvtjWo5sbwjS4PGcqCgQDTZwiNzJmegfIH750i6U/F5XdDpdfm6uRCKBIOh7+w73OwQZDQZIp4M0GkitNigUkpcviYFBXwDymXjhnZwJ7h7EoGDaunX8K1flxSU6Lne4g07UNr1eQyJJP2ZxomNI06b3DyB+Vtg2ektbs1aNw/0Ua0I6nY7HEz1JIc+dB8bi3T3AhLaZmeAS+PIDQZBAICguLp6YO/mXjYNvkFYrLyqib9mC9/AEnrP162X5+QaF4qfgNlS9YbYYDJBaraHRROnptDVrQWqUswvBy5uyYKHwfrKOzR5GBMUmvV5LJImSH9DWrgPRDm7u4NJwdqGtWy9MfqDu7TXIZJBWOxAlvUZDrKnpzMvT2e6KEARptQa5XEMgiB4+otkqHTo5g2FlH1/Gjp2SFy91HM7AI6BQ82siOhZL+v49+8gR8vQZBA9P272OGBDI2L1H/OyZGo/XcTiSV69IoVM+XfLOLsSgIFCA3dGJGDxZkvHCoFR+7eBju92gUAhuJxD8/MmzZ4szMqAJoTTf6IJOp6uqqmIwGH23VrVafezYsV+AI1oGfDQaTWBgYGZm5ljN8jng2MOsYjkrw4BinWx1+O32uhVNzgqCwEajqqiIMn+BrZwbdeEiZU4OiHP/3gc2GNS1tfR163GOTng3d+aWLXo8fnC2wfcOMua/myRS4a3bfUFgg1YI7h661lYQrg7Down6HnO1Bx3QaDCUPn6sFIu/nxWEIKAjMGyBYRBUZDYjEGQUCrWtrYqsbPH9+7zTZ2grVw6K6O+HxcGRsW2bIicHhGzaWS4IgiCihARi8ORhaKKDI2nqNMGVq58mKZ4wayIIrNMpMjOpS5faHszUhYtkz5+bJJJBFrR9BfM1SyQlJSUTcycfVgeLxWISiyUPH4Eylo5ORD9/3qnTBgrlZ16qw55pMAym+mhv5509B8iNgyPQ1tePHR6uKi9HnY/8NUz6thvoDPHDh7SVq2x+a+AFdHWjr98geZJioFBBdggMw3q9IjeXunQZefYcydNnsFpt5HBkL14yt26zFTy33QPp69ZL09ONPN6EYQuK11RU8M+eo8ye8ylw3Ko/wdd3cHlOa64hOWyWgUyeMPVsIBu5XF50NM7JmbF+g6a29ufeeH/hnJW+U9ZisWAccSAaP2vdQCaP341pPDr1oxwRMZl0Xd2MbdvAzcXBkRgUJHn4CDzt4BEX4EUQo1AoTkoi+PiCIQz/APH9++Cu+vM+RoFAePPWpxkXvvQ8AWLk4Ij38WXt2y99+tRAofxobuPEdAvWarnRMXgPT1b4nxCL9VVzIIhZqTQQiarSMml6uuDiRfaBA9QlS0F4u7ML3skZ8EJHJ7BYB9z7eWEfLNZqvcr8AmTkFp8YCD63osfjmTt2DqO51ZTgwezuQVm4UAxmlSWON8dFYFhdXk5fvx74YxwcydOmi5NAAs030LMTjgheeM1mXU8PNyKSYHUmUWbPkaanj20q62ejff8/xGINegs1iUTyd+9AyUCrenhnF8rsOeJ79wy2lO1hOeX32xnZHtZXLNhk0pPI4gcPwAuVu4eNoRI8vRgbNgpvJ3Css/zZLiVQ9tw/AJQxt86aDbyzS5aKkx98yi6f+EsJQSxms1mt1ra2Cm/cpC5ZChTru8YHrTg4alvb0BVdGhmaw+2FINrWVtau3TgnZ/bBcFAx8ed9MI6IBnvMjzgINVinE8THEwMCuSciQMmoib/sByk0sq8j54iI2QwxGLzoaDDOYg3f5seeB9ltBsMPv+QhCJh5rLWVuWUrYGDuHvTVa3SdXRN8G0IQxECjie7cpS5YOLjkWN9d0prxAJR0dgFDQl5elIULeWfPKvPyQCU5s3lkMI/nXjBsIJFoy1fYnlJg/tYFC9WVlSaZHGIyNfX18rdvRQkJ3MhIxqZN5LAwEDvo6QUGm9zcQQipLQPdOskEaXIIfeUq9qHDwqtXpc+eixMTwVOtD4rPK4ILF40cznh2aVTHRsxm0d17xKDgfpprrSDDjYiQvXnD2r0HTP/j6IR3dSP6+tFXr5E8ejxONXt1ra2svXuJfv44J2diQKDg0mU9ifTd68V+OCIwAwybFQplXj599RrwRufjw9i2TVNfP97ceuAZAOv1kuQHlFmzWXv26trbYYNB19kpuHiRMmcu3t0D7+RM9PVj7dmjyMv7VOFlIu+9MIxAkFmj0fX0iJOT6atWgyvLenu0vUX3Xz7Wewhl9hzRrdu6jk6zRmNzNw7s6cSvgzEEA2RWKuWZH8Al8/ka719xcqYtW27W6uZ2cCcAACAASURBVH6Kbsq8fOrCRWA2oNjzZo1m4nWwtYhxRDTIYxyxHzUYNpDJ9LXrbFPP4T08acuXa2pqkOGy4vul7GNtRBwRQUwCoTgxiTx9BrgpO7uw9u7TdnSYVarRUGHEZDLyBdLUVJsTixgYJLp92zQhpeyAg6Szk3/+PGX2HIKnF97FlTJnLnPnTtIU63DV5xsl3s2dsXETxOdramqEN28xbLO7WgtBE33BrLjMbdtEd+9qGhoneKbUvnMHMRjkmZmk0NAv6uo5OYO52oKCiYFBRD9/grcP6KOb+yc66OhE8POnLlrM2r2Hf/acOPmBIjtb29JiZLFMEolZLjcrVbBGA+v1Zq2WsWXrF6UuHRzJM2Yqi4rtghz3oTBkRd/TAzwQn+2Im+TA2LRZ29aOGAxmudxAJEnT0m1DfrbANWJgEHPbdtmzZ8DDN3rejyAGCoUbeRKUknF1JXh6cU+d1lmvl5Ec3L44ojV+BoEgA5UqunPXVhyHPG06Py5+YorhG9lszuEjIC7WGrdHmjadMmcuKSQEuDadXShz5wmv39C2tYF6NKOr/zfkJPqxDYjZDOt0Jus0pPQ1awaeewPXacuW63F4OxyLMHJ5witXB6pqW8e7uikLCkdy3v4YXiPb26xWS9PSQHXV6TMkj59M5JvJQAUxjjgQjZGuYxzRhhRiMCg+ZpFngCL4fX4LMF3E1GmSJ0++FnI0UpTHf7/vckSTTCZ/+5a2apUtJ462apWyoAC8r4/JZAzWmaZ0HZ1gojBr6hxj/QZ1dc34VU+F9Xp1dTX3+HFKWBhgTlYXpm0Q2UAkCi5cHHiXJAYGqYpLLAgCXAUqlUkk0pNI8sxM3ukzlHlgNjlQBdDHlzQ5hLpwEefYcdmLFwYC4dvvBojZbKDR0BkWzGsnFus6O5V5+ZJHj/nnYhkgeTyw78QbqDxukgPe3YM8azZj8xZuRITw1i3Zi5fq8gp9by/EZpsEAhsjhNVqUC/NZBrWGawqLiEFTx54WDBTFtt+nYifrkqjUY/Dq0rLVKWl1qVM190N98UzmM2wRgMqFXd3Sx48oK9fD/iHqxvRz588bTo7PFz+5q2Rx0PzXIRhI4cjuHSZPG2ajcSww/9U19b+0PVidxzRiiliLTeoaWgAFfJd3QjePrRly+Vv3w4KrYGYzDGMGwHD9CtWEjy9PmVRDIgWYG7bLn/3Dsw9o1SOzb0I3TU5RAo2GIS3bgNSOyhawzoiwY06BRtHO8XfkDbHYANiNqurq8Ec1gPUxru40lau+pkzNCKIkcsVXLmKd3OnLV+hKikZg67++CEwjvjjmIEhCJhOp9tqaKOR/6eQQYxGbXPLp7kiBlxa4Jnq4EgMDFJ8+Aj/PA/5SDD+BkeE1RpVeQV7/37brAOgwGxKCsRkjvktAzgUeTzZ8+fkqdPwbu7kadOFV68a2ezROCmH9t2sUCpzctj7D5BnzgSDrdbJCeTvMw00Omx1iCImE8RkKvPzFXl5irw8ZV6+urzcrNV+cSgYhrVak1gMMRiaunrJg4esfftJoVPwLsBdBGaZC5sFpkO4dFlZWGgcFHaGICaxWHD5CmXOXOHNW9+eygIxGk1Coa6jQ5mfL3mSwo+PZ+8/QF+5ijJnLnnGTFLoFFCGw9vnG0PkpOkzFNnZEINh5HJBZWm5HFarEYPhh6iPWatVV1Qo8z5jkp8PMRh29Uj+wjoDvoDquwYDbF1Ar4d7MNt4j5HD0Ta3CG/fpq1YCezoAWYLpM5fwI2MVGRlGQWCYWMHYbXaJBT2NwjDIMo2OZm6YCHROs8bY8tWZUGhkcv9Uf+WfXJEW08RCIJYLPmbN9RFi20zv7HD/9T39FgQBNbrQfcXL+HHnv9WRGw/ZNY1a0IPxOHoOjtVZeXyN2/F95MF8Rc4R48xNmwkT5sOnN8D/MGf1h2d+OdiobG+RQxSDfVXXXsHc/uOoWrTlixV19SiPux4Cxp5fOHVawPVJnh5K7Jzxrvdbx8fjPl093AOH8G7ujG379CTSN/efzx+xTgiGlQxjghQQxCIzSZNnzHwuvq0bh2V09TV/9AjGY0lRiczLEdEIAikCsacJYfNAtQnNFRw6bKuqwtMFT9ukeBmpVLb2so5fITg4Un0D7A9Ys2q7+dKfxcAo0Agzchgbt9BnjHDVrGFc+yYMj8fotMBgx/QI9uAEazTfVq+GS0AZiWWyyE2W9fTo8jJEVy6xFi3nujnj3dxBR6pGTNpy5azw/+UPHykaWwySSS6zk7Wrt02tx8xKJi9/4CBRALxQCaTUSAAdLCgQJqaJrh0mXPoMGP9BtriJZS5c8nTZ5AmhxB9/UC4oZMz3sWFFBoKogbDwwUXLogfPBBc/ML32XcqCq5eMwoE3wXnuzsgen0/IDqdnZ/P3+3OsDsAB61EYqBSVeXlgkuXqYsXW2NPvcnTptNWrgKzXBQWAkZoPVXAQ6u9gxcVxdyxQ/HxI5g8TSKRvXjJWLeeFDwZ7+xCW7ZM/uYNRKOBt6kBZ9ewTQ/daM8cEWgLw7Bare3sFFy6DGJbPTyp8+YLLl9hHzhgK5tC9PNnbtuuqavrGw1ATCazTGagULRNTcqCAlnGC/Hde/zY8+A837yFtmw5ddEiytx5YO6QKVNBjISfP/DxD8sOra/fpJBQ2ctXw/L+oXhO/BZYrxfdvfuFK9HqROSdPvOzMn5GAgJ4SWYwFB8+yD8vytw8EFD0sz+IwaCuqKCvBGNZ3JNR4DE0sR+MI6LBG+OIFovFrNXK373DDxfXj5vkwNq7T08mowF3AmVMJlNLSQkDj4dtgd7W2EpRwh3aihVEXz+QgnP8hLqi4mvelLHV1JoWw/w0Z7ynF2X2HMGlS3oiIFLoGjJQqeLkZMbmzcAh4epGnjmTfy5WVVr6yRv648/v4dWwpuAYBQIDkaiprZWmp3MjIkAejLsHwd0DzKa1YCF99Rowk5W7Rx+HA3Gry5azdu9hbN5CX7WaumgxmM9+ylSQ/2jL03RzJ0+ZSl+1in3woCAuTvLggeLjR3VNra6jw0AgQHS6kc83SaUGOp0ye07/YJz1IUqePgMkFoxJPMDwff7n3IpAkEkg0PX2KnJy+OfOUebPBxmpvn6U2XOYm7cILl9R5uZJ058yNm4i+Prh3dwp8+azDxxk7toNTjA3d8rceZKHj3Q43LedxN/Gzt45olV7xGw28niqomJbCvmnCbU/j6Xg3dypCxayDx3mnjrN+fMQc8tW+uo1gAsuWEiZPZs8bTopeDLRyi9BHr01a400dRpt6TLmtu2co8f48fHixETZi5eiO3fB7MND/Iico8f0eMK3Yfy5v2pb2wYl19OWLVdXVv1crb7bOnhJ1mj6l0GjKN+VH7cdzCqV7M0b0pSppNAp4rv3JvjOhnFENIb9i3NExASiygQXLlLmgMfzp8IHX97LSCGhnGPH1dXVg0o2oIF7fGQQo1GRX4DfsYN++oy2qwtis2XPnzO37yBNDiH4+oGIn7fvIBp9DAOMRtIPs0KhqW8A89j6B4Bkgu3AW2OWyUYia9vHlpIivHGDsX4DGAh2cqYuWiS8fkNdVWVks2GDYeSH+tE9gctEoYDodG1bmzI3T3TrFmvnLlCu78tzo++rLfkR8Nep0wAdPHCAf+6cOClJ/vatuqxM29Sk7+42kMlgllipFEyXPCRnE4EgSUrqFxxxkoPgylWjYMBI6I924y+/P6zTGdlsbWub/NVr7skokNvk7kEMCATurukz+of4rWU+8e4epNApwmvXtM3NJql0lOD9EhwR9NH6aqTIyu47mb9YsTI/MCvJ51rTRD9/yuw59NVrWLv3cCMiBZcuiZPuy16+VOYXqKurtU3Nus5OPZ4A0WggOkIsBlOBi0SMTZtxrm59R+6d5EAMnix79arPSTlKtMdJHNZqQSxKWhr+2vXOCxfFqWmq4pIxGRWxKaw0KIsZxcmdyQwlY5y6YF+HRRAjny+6c4fg6UVdsECZmzuR6mEcEQ3af2WOCKvVqqJi1u49ROv0X7xTp4U3bw0M9cVNcqAtX2H7lbZsufDqVV1XF6h5YU8fk0QiefgIlIH18CQGBNI3bmJu30EJmwWi0VesFD94qOvq/lnsFiR2UKnSZ89oK1YSvH0o8+YLLl4EGA6IKgNxgYOex9bYJnVNrSA+nr52HTEoCOfsQl+7VpyUpKmrM/L5E/z2CZxSQqG+t1ea8eJTgd9BTNHBkRQ8WZycrCwo0FTX6NragIPQml8MhimH0MHhTx8EMQqEksePhcnJtceOc+7clTx8pP/V6nQO3zU72Aqr1RCNpqmpFd9LpC5a3EdWvlhxcCSHzdK2tKIYWR7axV+GI1ppopHPJ88MG/SKAsCxjq5yjh4TJyfLXr5S5Oapyss19fW6tjY9DmegUgERlEhgjebbVyU+7W5PcOBAtDv3bhF3NQ/Fzd62wAaDUS4ntra2V1dDMtnYhnF3CDt2Fe2a927ew66HPyvbd4IBBw8FEokbEYl3dWNs2Kjv7R2kgEpvLMEJuHKdGUYG/TTKrxhHRAPgX5MjgsFQOl109x5t2TIQiLN4ifTpMwONBnG54sRE0b17ortgEd+7p66qkmdmsv88BJxhQUGMrdskjx8bqFTUw6ZojPR1GT0Ox489T545s79mirVsMil4Mu/0GXVNDcjIHquh2K+r8e1fgEOxupp3JpoUEkoMDGLt3CV/+9YkEoGbBYEoup3AOxOtrqwEzxgYNslkysJCXkwMfdVqonXeXtaOHZInKZrGRpNUOtT99u2mx/ZXI1/APx838DnXt251+A2fFfEDOiCIWaHQi8WFb9/KWCyTXG4np9kPdMHOd0UQk0gkvH4DFDv8PKLaZ0QwY9DWbWalckw68StxRIsFgSBx0v1hKzBzjp/QtraarPQI3QWIIMj1wjPRR3xjdjj1LUdvzikl5BrN9pgdPOgE0EHG0hb8u4pWtX4s5whQGBRpPWn+z/090j22FWxjKsewvjRigbQWIc7CabFIqBZkxDMjDOr5+HxFDAZNQwNj3TqChyfn6DGT+IuZiuhizYZHDZVEkd6IMjbpa1pjHPFryHxr+1+QI8JqtbqyknPsOMgq9fPjHj8O8l5tE9AhiFkmM31ezDIZYjLBBgPwIaWmMjZtJvj6kafPYB86LH/33sjjfwvZ8f/NKBRyIyJB9uXAuYmtLi6Cj6/w2jWT9AcGdsdVX0AHKVTp06eM9esJPr7U+fP558+Lkx9wDh0GA+Je3oyNG0WJidIXL7lRp2jLlhM8vYj+AezwcOnz57q2NmCdn810gbcFgjT1DYNdidap4XQ9Pd/2o4wcXqPRmJ+fr1Ao/iJ+he8iYzCZ8XxlD1cxVs8MTWMjc9v2PmrYt0KaMlX28tV39RnhDuPHEREEkWmgUrxQqTOOmacF5O1xyGFhX9BEB0fS5BBlfsEoR4SpcuqSD0sCk90CE136Fp/H7tsKthXQC5TQ2JDyEdoFxW4StT6hsOf0mxae/MvyCCiO9VlEa9QWM4o35G5wSXVxSXWZ9mrao65Hn38c3X+90kIqsuQeszxbaUlbbHm53lIaZ+F3je6gYywNq9WK7Gzy9BlEP3/RrdsD46DwfFXAhZLsTq4OwjjicLBjc/ENh8oYbYNhiMmUpqTQ160n+PhQFywQ30sc4UTDZqVK09AgvHmTtnQpkJ2/gH/unKqszCyXj5FyP3YYk1gs//CRNG163xOuf8U6PCS6nfATK9oP2xmzUqmuruadPQtmo/f1I4WE9AWAgiTi4MnkWbNBLcBp07knImSvXul7egbeO4Y95gRvNIlE/HOxX7igHBwFV66OYdrgL8oR9UZzN0dBFakh0xg7LaQa6H4F5VYxSawemzAPs1IpTkwCL1cDXInAibh9h3FgHZzRnVvjxxFNMNLNUaxIqqMI1WP4IoHAsOjO3UG11rmRJyHGqELlEAS51Hgp4HmAjQwN/OuR7rEme01aTxpbxR4d2OMiDSOISm+kizXFvfxdaU0rk2qz2tmtTFknW4HjKclCNV2sYct0fKVeojYodUYtZIbM8LctooJUvZLeTHLmteZrm/I2eT31sgHime65MW8jUUocbU/0Ckv3O8vjWZa4/2GJ+TewnP13y6X/BExR0GNXDkWTVCpOuk/w9iFPny7/mCVRG5rp0pxObnwOzjWm8Ek1jSpS8xR6uRYymcfmVQjzI6I5u/46fkQQfdzQwD97ljwzjOjnz9q/X5GdbR4UCfc9CE1CIRgJjY6mzJpN8PGlr14jup2gbW0d5Xv295rt/x3W6XQdHbIXL/lnz9LXrsN7evVTw74gOQdHxoaN6uqafjG7WUNgWNfZxdq3bxi1rfoTg4LFDx6A+bLRJkGPa18RCNJ1d/PPxfLPnfu8xIKowbHTVq7R33mZzxJKxzwcZ1yRESr1l/Pxz+oZCt2oRg/NMKKDzHItJFDqmVItSaCqJIp2P23ZkdbcwpDKNNCYcFDgSty6bSBHJE+bLn2eMYYQjR9HNJrhWrL4j6i8TrYcHlP/OsRiCS5e/Hxin+Ofi9U0NY3y5qbQK+a/n++W5jaQHdrW3dLc3FLd5r6be7npcqeo0wiP6swZpe0QxKLSGxkSTStDVtgryGhk3iklncvq+fNl+9oH9f7xxV6xRSsSa7c8adqe1rz7acv+561/vmg/+rrjxNvOqPdd0R97YrN7L+TiLufjrxcRE0pJieXkB1XUJzW09HrG00ZcSktlcuuLSw1XD5YeXJi50PeZ7yBAAjMCT1adbOA1GMyo34UQC7vZkrboEzu0cUTw998t5/675cN+iwn1kUeJ7jDisNkso9Bb9x/BObuQli5LeZK7+XHDvNtVnueKfovMXZFUe/hl+/E3nRmNTIFSP4z8j2/COOKPY/YXqaFtLfIuf/2auX07wc8flD6+fEXb1oZucBCBYYjBkL18xT4YDgLs/ANYu3ZL05/qicQxJAqDbIkYjQYKVZmfL7x9m7VnL2nqNLyLKzlsFmvvXsqcOf3pmbYYc28f4c1bJtnPcXAO0nzoV7NKJbx5yzbh4SCmiHdxZazfYBKJhkrZzxZrHUShlMGpa8ArWFyjUIguSOtrPaIIFMtuFNSTBJBpjIdavtbimGxnSbU70pov5uEHevvMMKIFhM8oVBrYMi1FpMbxlB0seRNNWk0Sl+KF+d38j+3c182sZ/WMJzW0pHLK7RLSlQLC+Zze0x+6j7/pDH/RtiWlKfhSacjlsoMZbbHZvTeKiA8qKRmNzI8d3BK8sIEq6eYoaGKNSGXQQuZve3H6empWKBTZ2azIqI6Dx2p3H2KcOCm6e9fI4/XtMPqVMeeIRjPMkmpryOI3LeyT77p+P5kb/aH7SQ3tRSMzq4NbThA10aU9XCVNrBEo9Sq90WT+YYcuYo3XVLK5Tc0EAZUFCQSjd+R/JH8Mygia/GLy4fLDZ2rOnKntX+Lq405Unpj3bl7Iy5DD5YdLmaUqaILK+CHAR2hiSLXtTHkpXvimhZ1cSb2Yhz/2umNrStOiOzXBl0odz+T/LSLnP4csfz+Z63a20Deu2DO2yDWm0PFM/h+n8n6PzO3b8/eTuf91Ks8pOt/9/Hvfa4+C714KeXA06Ml679Tpbilezo8CHO/PcnoYOogjuqS6+Dz12V6w/Un3kx5xD4wiiBBSW5of93sQ+zmilSZe/F8WEfHnuhJNMCLVQD1cZTFOkFZHv5TdffLiq9dBc7sdnJKnr5p89EXo5dJZNyv/iMpbkVR3+BXGEYe7D2FjzcOhgn4brNfr2juEV69R5s6zVoXdJnv5cvRTlCIQpO/tFSfdZ2zcRPQPIIWGciMiFDk5Ri4Xva5DJEFNYIFAU1snTUvnRkRSFyzEOTkTA4MY6zfwoqNlL1/qurvFSffJU6f1ky0HRzqYB696yMHsaIOqvIK+Zu1AL45Nf9LkEPHDMQrKGc/ummAEx1VuS2miizVj6scBSnexpO5nCwu6uGMVfjdOSBhMsEwL0cSadpa8liJ+2cRadKdma0pTSg3tZRPraT0jpYZ2v9LK+fIJsdm9pzK7j73uOJjRtjOtedPjxlX36xbfrZlzq3La1fLAi6VesUXO0QV/j8r9W0TO3yJy/h6V+8epvN8GPHf7HsB/i8yZdCrPJ6542rXyxXdrNjxq2Pus9cTbzrgc3O0S0uNq0Hp2B7fUSh+72AqKSM1X6JV6o/FLxyys0cgZ7I/F7deeVXFJjB8dUvguqmPCEWEYUWiNeJ6yFC9Mq6NHve9anVwfernsH1F5/xmR8/vJXJeYAr/44hnXKpYl1m5+0rjvOYDiXHbv9SJiciXlaT3jbSs7r4tXThA20CSdbAVZqObIdFINpDd+lU+zpNrwF22NNIlh1GEDPA1vY95Gz3TPs7VncRIcX8MXaAR9i1QvpSlo6b3p63LXBWUErc9d/wL/gqNGM0UkZIKpItA143DM2AwjSr2RKdV2shWVRNGHdk5qLf16ETHyfdeOtObFdwEjnHQ673cr+Qu9Urbobs3mJ417n7UezGgLf9G2I6156pUy//iSrSmN4S/aTrzpvFZIeFhFTSynJJSSbhQRL+fj43Nx57J6z3zoPvm+c+ezsvnJT71uXJh0/aDDnZVOD0JcUzwDnoXOebVq5dvwNS/jpz866Zw8ZyhHdEl1cUt1D8wIPFx++B3pHUPJ+DGmqOBYiqKHOBGtI842b2LvR8uEJwlBZlio1HeyFUW9gvQ6xv9+jdz/vHXhnWrP2KLfT+b6x+RGH7vbETK1y9E5Yf3RZyU9T2qoIac/pFVTsbHm4W8yGEccHhdUW8HQcG4ea/9+YkAgeWYYLzpGU1/fP98rqmMOFII1Gk19g+DCRdrSZQRvb8rs2YJLl9XVNaMNUoRhs0Kh6+pSfMwSXr4Moie9vEFBqUWL2eF/ihOTNDW1oEi9tagKxGILr1xlHTjQtX4DYdt21oGDslevB1eTGai0HaybJBLh9etg/ta+8fFJDsCJuGEjxGTZgYLfUcFohusokj9O5XVzFH2DfQhigRHEZIYNJlhnNGsMJpXeqNAZZRpIooZEKoNAqefKdWyZlinV0iUaqkhDFqqJAhWOp+zhKluZsnqqpI4iSaulOUcX3CkhNtAkNreQSGVQG0zWUKfvKPbtnw1GM0mgkmrAkb69p+1X2OoFFKsNLKmWwFe1MQEXLMYJsjq4L5uYj6ppN4qIJ9917khrXnW/bub1CqfoAqfofK/YIvezwLny95PAs/K3SED4HM/ku50t9D5fHHChJPRK2YzrFXNvVS26U708qXbNg/pNjxu3pzbvedpy8EXb0dcdke86Yz72nMrsDn/Rtvtpy6bHjcGXSgMulGx81LgrvWVnWvOOtOYtKU2rk+sX3qmeeb0i6FKpZ2yRw+l8G21yP1cYerlsfkL1ugf1e5622OhjQikppZb+poWd28UrIwDvYydb0cyQxWb3rkmup4jGYB6gQZCi5og2FxdVpK6jSN63cm6XkP580bYgodrtbOHfT+Z6xRbNvF4x62bl3yJzFt2ptlHthXeq592umn6tIugigMLxTP5vJ3N/i8xxPJPvayXTi+7UrHvYsPtpy7HXHWezeq4DXyz1eQPjfRsnr5tXThDVUyUdLDmBr2JKtbUUsW9ccU4nb5RJAzAC3++87/PUZ3Hm4i5Rlwk2DYLI9lUFqYoZxeGl4SEvQ+a8nXOj5UaPpOdrOw97BIvFIlYb7pSSXzezlIAlAkbIkml7uMpaijivm5fRyEwoJZ3O7N6d3rL0Xk3QpdL/Am8gOW5nC0Muly1IqF73ELxpnHzXdb2I+LSeUdgraGfJaWI1W6blyHVtDOmRV20bHzXUU0RcuU6o1GuhwX2BEVigETZyW1/hPsTVXtucuyvkxVSvp14zXs/YmLcxoiryVvP9F11FBXhCKZ53pvShV2rwMBwxxdXtSYDfk0Ve6T5TXk45W3e2iF4k1ApHyhQVbEvh6a9zxH+zZIVb6DUWjciCjGqMArFYtJCpi63QGEzD3kr0RjNXrutgyYtxgqf1jIt5uN1PW+bcqnKNKfhHVJ5vXPG821VbnjQdf9OZUErKaqBSExIJXt5E/wBF5gdcTunlDZE16ZlaiWxsUxWxseavXT7f2v7PGo+IGI16PF6cmEhdsJDg60dfsxZMUswel8hoUK6loIBz/Dhl9mww68byFZIHD3WdnSjieGCtFqJS1eXl4uQHrL37SCGh1mlFwphbt/Hj4pQ5uWA4bIjnyiQW65jMptxcSn29gcX6lKP9LbP//N/ApEyr1wx0JYLK+8kPRjhW+FM6ACOIxmDiynWNNOntEtLfo3LvlZM/tHM/tHPet3HetrBfNbMyGpnp9YyUWvqjatr9Csq9cnJCCfA0XC0kXPrkbOiJ/tgdldkd8bbz2OuOw6/aD2a07X3Wuulx48r7dcsTa2der/j9ZG7YjYpNVk/Gyfdd1woJDyqpzxqATyi7k1vYwy8nCGvI4ia6tIMlt4XPM6VavkIv1UBqvclggvuY60CgeArd2ayeKqKo79mPWCxGM6zUG4VKPUOixfNV7Sx5HUVShhfmdvFeN7MeW4lgzMeeQy/bt6Q0LbtXM+NahU9c8R+n8v4WkfPHqTyXmALP2KKACyWBF8HYnFds0ZxbVUvv1a5Jrt+e2rT/edvhV+2R77rOZvVezsffLiElV1LT6xivW4Crr7hXUE0WNzOkPVwFRajmyIF/C0SoWymsDjILlXq2TNfCkB3MAL6cRpoU0GuxhibWEPiqRpq0qFfwtoVtY6s2Jfc8bdn8pHFVct2iO9VhNypDLpf5nC8GHkrAmQBVDbhQMvtm5ar7dTvTmg9ktC2+WzPtWvm9cnJeN7+KJOpky5lSrVxrNI2MRg+Ed9D6j3JELWRmy7RtTFl+N/9hFTXiXefypFqv2KJ/ROV6ny+ec6tq46PGo687bhUTXzWzHlRS/h6V+7qZKpvbZQAAIABJREFUVU+VlOKFRb383C7eyybWwyrqjSLiuazeY6879j9v3Z7avOFRw4qkugUJ1TNvVIRcLvONK3Y9W/hfp/L+FgnckG5nC4Muls6+VbXyft221KZDL9vOfOiOfNfpHF1wOR9fT5UwJBob6xrUu+9+hREYJ8XNejPL56lPWm+a2vgtFm6CTV3irgsNF+a+mxv8IvhIxZFqTrUa+pbIQAWMZriTLd/wqGH/89a3Ley3LeykCsrZrJ69z1qX3qsNutjvIwy+VDr3VtWq+3U70pqPvGq/nI9PraUXdPPbmHKeQv+1UFeBQnfuY/fu9GameLBKJtgk0Arahe251Nxbrbd2Fe0KeRHile4V9ibMSg0jHnc/rufWS/XSPp4HI3A5q+JYxbF9Jft2Fu5Z8HqL/+O1m3N3bczZNSVtk9Pt3X437njc2+mTMsctzX3eu3k3W27WcevkennfEQb2/Yt1rdRSdQMkqXwxytznR/w3S9z/BJnOZRcsvR9BprNegW7oGUYQmki9O72FLFD1vXBqDCaWVNv+mRfG5eC2pzZPv1bueCZ/0mlw3S1IqN78pPH4m867ZeS8Lh6er9QYrFTbWvOLGxmJc3ahzF+AW7YK5+reu3CJOC0dYrPRhYR9AcvnLxhH/IzEj/z/p+SIZpkMVLc5fIQYEEiaMpVz9Ji6onJsa58OxhiGjXy+bTZhkK7r5s7csVP+PhMaUkkR1mqHhi0iEGTk87WtrfI3b3inTlHmzsO7uZOCg2krV3KOHpM+fabH44dKDdRh2PmaB+5gb+smsVians7cspWxZQtjyxbmlq286BgDfVQZlOPaR4MJpojUb5pZ8bm9ax/Uu58t/M+InEmnwe3vjyjgs+kbDAXOs4ic3yJz/34y94+ovP86ledwJt8pusAlpsD1bKH7uULP2CKv80U+ccV+8SU2dhV8qTToInCVBV0s9Tlf/FskeHh7xha5nS10ji6YdDr/d6tP7veTuU7RBb5xxVOvlM+7XbUyqQ4MLz5rPfamI+Zjz5UCwt0yckot7VUzK7uTW9QrsFHJRpq0nSnv4SqKewVTr5ZfLyTUUSQNNGklUVTQw3/bwn5cTbteSDjzoftgRtvGx40L71SHXilzO1v4u9UXNel0vvu5Qv/4kilXymffrFx0t2bV/bpNjxt3pjcftTqlrhQQEsvJN4uJc25V7khrftfKriGLO9lyrlynMXwifKMxjUCpP5XZffhlO1eu+/ZxzDAiBcPf6jamrIwgfN/GSamh3ygixnzs+dM6YmgjTNOvlTudAU7HvuXvJ3M9zxXNulG5NaUxJqvnfgUls41TThA202V4vootA6xx0FD1tzWx1qVGJBJJSUmJ6etTKUImWKDU9/KUVSRRRiMzNrt3/cMGv/iSP07luZ0tnHatfEVS3f7nrdcKidmdPKJAZbCGqH5yY0fldbH73diD9DHDiFoP3mfwVjJdjBO8a2Wn1NBvl5DOZ/cee9O552nLlpSmdQ8alifW2hikm/WU7sPEJ6547cP605ndqTW0OoqEIdGqDaZh3z0GNQ36bkFUkCqqOso9zX1L/haehjeSdz+ehpfak7oya2XA84DV2avfkd4JNF+dqdxohsVqA56nrCGLM9s4N7NbVl55Nzv29ZT43Emn8v5+Mtc1pjDwYumsG5XLEms3PW48mNEWl4N7VE3N7eK1MWU8hX7k2bJsuSwmt2jPy/dk0adJjyAzxNfwO0Wd+bT8m603txdsD3ge4JnuGfYmbH3u+uMVx590P2nmNysh5bAd15v1Iq2IrWL3imhXS2sXJH2ophOa2eQ7lY2bUyuCLpb8HvXe//ZVl3trvVKmuqa6rclZ86T7SaeoU21UI5ZhPXcWixkCmcu5xyxn/9swHPHsf7M8nGF5NNNy3dFy7v+wXHewvNpoqbtnoZRaJGQL9MV890MNOmiLGUbamLLfInPLCUKqSN3OkpfhhU/rGeeyejY+bgy6CNy0TtEFQRdL5ydUb3wMeGFSBaWoV0AVaQzDVj00mzV19XgPTzCyZKs24OBIDAwSXL6s6+waq2c3xhEH2XFEX//JOKJ1pmCG9OlT6uIlBG8f6qLForv3IDp9qO9tROj84E6IyWSg0UQJCbTlKwg+vngvb25kpLqyEkwNAsNANxpNkZmpbW4GpVIQBIFhs1xuIBJVxcXC6zfoq1aDMWUfX8rcecydO4U3b4GRcY1mJFr8chwRTJOtVEJMJsRggIXJNAmFw95PR9L98dvHDINadL1cZU4nN+p9l/d5kHPnEgOI2t8ic6ZYudqChOplibVrH9RveNSw8XHjpseNW1OadqaBwdMDGa2HXrYfe90R8a7zVGZ3zMee89m9F/NwVwoI14uIt0tIieWU5ErKoypaciU1qZz8oJJ69mO3w+n8/c9a4nJ6Yz72nHzXefhl+650MOS69kH9yqS6Jfdq5idUz75ZOeNaReiVssCLpb5xxR7nilxiAJv8NMIbkeN4Ot8nrmjKVSubvF+39UnTpseNrjGFc61Oozm3Kv0vlEw6nW8bC3Y6k+8ZW+RvHQgOu1G5IKF6eWLt2ocN21KbjrxqP5/de7eM/LyBmdfFq6NI8HyVQKk3mMwDPdrD5qyMiV3EasONImJ8Lk44ivRGGEHUBhNHpuvmKF40MsMz2pYn1S66UxNwocQ5uiDsRoXN6egfX+J+tvAfUcDN5hNXvOhO9Z5nLbHZvTZuUUsRd7DlZKGap9ApdN9hjWYYZvFFr3JKtF8WXraF7VNE6maGLLuTe72QsCOtOdg6+ukcXRB8qXRBQvWWlKZzWb2vm1ldHIXa5msZAKUJRtqZspnXKwh81QhJ2wDpT6tGMyzTQHRrOKktRC/qfdeKpLrlSbWzb1b+IyrP0xoz8Hdr+sXCO9WnMrufNzBryGI8XyVUGYZ/0n9uxggby1nlXk+9gjKCSpmlkHmkpafVRnUps3R30e7gjODpr6ffabtDkVHMnwdGTTAi0UBUkbqFIcvr5t0pJe1Ob154JXvF6TsRUUdun9p849TWP6MiZ0cmTovP3v+8NbmSmt0JGCEfMMIfzuD53BtLK79jX8HRDR935FNKeBpel7irgF5wo+XGprxN/s/9vZ96h70JW5uz9nD54dSe1HZhu86k+yqT6zuodUWlN75qYu173sqSgsqLZhhhybTJlZQ1yfX+F0p+i3rlkxDtlLjEPSXIM91rV9Gud6R3ZDlZZxrysmTUWliNlo8HLRf/P8vl3y233Cyx/+dnpvjvlvj/BxBERo2F1WCpvmHJWGNJDLZc+R0kOyd4g3zntqdAXMG2GL+VQYwgFr3RLFEbyEL1i0bmb5G557J6bDGy3ueL/m6Njg2+VDrvdtW6hw0RbzsfVlEriCKOfPgg0X4kEMQklQkuXMS5uA6MPgKz4zq7sA8e1LV3DJyaq1/wB9cwjviDgFl3/2fiiLBGo21v50adsk0QzNq1W1VcMvHT0IHyKB0dvFOnKXPm4l3dSEHBwuvXtS0tmsZG7vETBB9f2spV8jdvdT09mqZmSWoqa9duYmAQqAsIpvpdzTtzRpmXZxQIfogw/YocEc35OlEyCGLRQmaWVFtPlTyoom541OASU+BwJn/y5bIVSbWRbztjs3v/EZWbUkOvp0pa6DKKUC3TQBqDyWAygxJpo9Bz2JwVBEEMJrNMA7GkWhxP2USXlhOE2Z3cF41gePFmMTEupzfiXdeBDJAFvOp+3bLE2kV3a+bdrpp1s9IrFvDaPv9Q34prTOGsG5VgkDGl6ejrjvhcXFI55WUTq6iX38yQUsVqmXakkYsWi4Un10W87Uwsp0g1IyUEIwRJB5lbGbJGmnRoENgIjzBoN73RzFfoaWJNC0N25kP3gjvVH9s5RT385w2Me+XkmKyenenNyxJr596qmnq13C++xNXKGn+LzPE5X7zoTs2+Z63xubi0Onpxr6CFIcPxlHRrKrEtLaavLb3RXIPn7n9YypaoYaQ/Qq6cILxfQTmY0TrtWvkfp/IcTuf7xZfMvF6x8n7diTedqbX0ZoZUrv0WhjCCiFT6t61smQYazZnWp6rV62mRaUAGEk2syevieZ0vOvK6/cyH7i1PmhYkVE++XOYaA6iz/4WSLSlNN4qI+d0827i8whr/N/BQMAJz1dxNeZtcUl2iqqK0xh+rO22CTXgpPqY2ZsbrGX7P/A6XHW7itVLE0i6OoowgTKqghGe0zbxe8cepvEmn84Ji3kecPtF6xssQ899tlEgT83+VnJ5y/8HdFtLYRBbpTLqU7pSQFyGBzwP3Fu290nRlbc5a32e+Ps98wt6ErcpedaT8yNPep73i3h+NobRYLJAJJvJVpXihSt9f9wdGEI5Md6+cvPRejU9c8e/R6Z4JR5zvz3NN8fV/HnC04mgRo4ir5vYzb73SQi62vFhnif+flru+loIoS9Mjy/OVlsQgy10/S/IUy7tdFmZ9v40Magu5BGS3pC6wJHhaLvy/lvP/w5IUAgR7PwJnpEY0KLXFFmZDF2sKuvmJ5eTwjLaQy6V9d5L/jMjxjC1anlgb+a4rtRbcEsVqQ98YdH+7X1lDzGYdDjdspQvcJAe8u4f0ecaYBFBhHPErFvjm5l+VIyLIF9F+CGISChVZWbQlSwkenuQZM4VXrhhotLEtSvJNIAf/CEOQqqyMuXMXacpUnKMTOWwWMST004x5Do4EXz/qkiWk0FC8mzsxIJAydx5r/wHp06cGCuXbY8qDm/n8HeOIn5EY7X+jGZZoIAJfldXBPf6mI/hS6T+iQKLArJuV+563vmlh8a1PxaE5K6Nt+LM8jiMLuVBYhuN921Xzefdh/ptgRKEzsmVaPE/VTJfG5+LmJ3wKzvvDmhE8/Rpwmx193VFHlehAvZhhDvKjmzQGUyVR1M6S23k69sB+STVQQglp7YN6huQLbz2CWP5/9s7DL4prffjvX5Dk3uT2e9MTFVh6tyLYe40ajTHGxBJNNLE3qiCgYleU3nuR3nvvbfsuC8susL23mTnv77BmRYpSFoVk5zMfPTs7c+ac58zufnmqQKZuYwqz2liPSimXUtq/Capdf6fc+UbJQh/oDGAy5Hr/6VAEyca7FceiGn2y8JE1jGLCYBsTxg738uXdXGlEFc3OqyCnra+ezous6T6d2LomoOzzC1lfXMwyd89bfL1o7e2yo5GN94sp5SQOR6Kc3h8Xw2c2rTaeLbLzKtDGrKg0KIEtjq/vuZjctuNRlZNfsbVn/nzoYpHlfKPkVFxLWBW9hsalDsLcQ0PPEiZTy8I7w3GhOKc4JzKf/HovupcHq/WRpfLY1yoeWoU4m4ZaOsWs+z4xyCUgU5tTxsI9b9H1otUBZYfC6sOf3hy4hsNedr/Drr6rerpOSSp+uePJvUIxVKqWsqXs4p7iw/mHdfElVhFWzvHO29O3nyo+FY2PJvKJOjXn5G4wgbP7BPI7haSN98ot3XM/d3uMu/uDSaCzSYjlsrhlHtUe1axqrpyrkQ6C1njwdChpdqATqA8Gajm09ivFMFcitRgy33hpdCQDoCMVah8DnaAN2vOfkBeDV4MSX0AtATwaIhOI5cpevry1V5DU2PtrfIuFW+7HZzPmX8y0uZJifjZ2qUf6ihvFK26Wuj/r6BPIp/xNgioUPUePvVTjRxvOOH8BfdduWVPTBKT1+lMMjPh6GY0+Yy4yIqZWq3p6xIWFmoEBgKKYUqWk0fq9vAjWNgQra/pXu0RZWaj4DeXZGi3S4UdQuYIbGoa3tHpJhT4smJeyZu2An7+sqWmaLhcGRhwu9im0tX8os4SKGhovIJ+44W75/EvZRpdz7K8VbH9UdSuf2NIr0DkwqRG0ns6zv1aAZ4n0/rs+IJRdCc0hMrnTsY4NlwBfqqIMSsgDkqw21hLfIt8cfBODDw2mAvmUMXR4/3O3LZCpnpRRf4xo0Fr6XjERDMOEMlU7U5jZxnpQTDmb2LY7sHrlUEyMnVeBuVue0RUYsPnp+Uwzt9wNd8t/imr0eNb5S2zjlxezVt4smT+UV8X4So6tV8Eyv+J9T2t8c/B5nex+kWLi6pZXDE+/b5EHJKsDyvI6+0fgvkiurqXxHpZQfghvWHET+ipolYvGV3O2Paj0zOjKbGMR2IL6vvYVCSusIqwetz4eoVpDhv56GUq7M3LIGgQVKzQDIgWVI62mcoPKaSdia5bce2D0cC0uxMo4yOpL31M4j9i9T6v8cgi5Hew+oVyjkEBt2Quj6svBGbkXgeZVltORIxh6jWCIVC0dkA0QeIR0SvrlisurElfpABEXituUsimiM4ImpE2Wfce83UQO9vBlt/KJa2+Xmblmf+l5y/jeHpOni01CzNckrbnTENBR5iO+b4d6DQWj4DMAOvmAZQwDPDpoDANx34C7NtBU7f43cP1jELldUnq/pqLAPbrQ2Tvz03MZxldy7DzzVl5LO+IfFnTH/dqFw+WxN4ktVeTunkGhbFphXigqq6snWFkPj2KESkScKTckdLp5Qn6XsoERf5fEZP6fY4yIYahMJmtoYHx/CI8zZZ76VUmlSsrKaVu24nGmRHsH1uXLUH2ov6IXk5Hl2OcqSCSivcOIR1+LjHhjk8F79xC+HqoqGxhxbOlP4KgaQYVyNZUjSWjoORReb+Ge98WFLDPX3OX+UE2S18kWjCocgmIYSyAPraRzJUp96OBeGuXM1eIjD0j+Lz9tVA1DrBiZueOlEfxpXijUSHOPILudJRq1xK+VAaRGuaqjT5jR1neviHw6oWXHo6qlvkVWHvlfXoTJC4fvH5/LwLnmHI5sSGtm9vBks5ALh8+XL1XF1DJoHKnuj6Lh72rd5lgCRXY72yOjc/vDKrtrBeZuufMvZX92IdPMM9El7AQu1HRp1AYSZ5AvUw3Zop9/SrgSZWAptZrK1dKnBiZX0vCkKqZA3tDNC6uin4xtdr5R8vmFzM8vZBlfybHyyF10I25N9A+O0Y6mYaaHco4ReUQlonzu7dfbAO7b/+51NwwQtWrF6N1gkDBi5OO9RFCIhhw5h8AjxBHiThWfcopzMg83Nwszw4XhdIxoEmqyJ3NPPbt+vH5m7ng3V+qfS1x1q9TENf1Lby+T+5ssgyzNQ0y2PZ4XcfO/jKgtCnrZpNyTRg9VrVKJulv6s673Bqzov/qx+Mo/1Ff/2n/lw5RLa05cOL/eLfxcRHFGeb0w3w/4fvZC7L6fgbIbQMwaV1s5+k5jHcEQpOeHH0fUg6Bt3yFvbR3r9KkcMzDiVKQ2lxgRRTU8njA1DaaMXmAEMWuBEdHWrsvYBG9sQlm1WpiWNsEIj6lIaqrXYBjWc/jIS1VQf9eiU9atFxcVTbXjl64zMOJL4pjACxTD5Gro4VdF4bqldy66Dm3K8y9lW3rk7QmsDq6g0zhSvesIJzAuMHOM+H8RiJvuVcTX90gMjDiRlZjkOUPF3DQF+IEDIXUW7nnmbjBJ5CfnMnFD6YFsvPIflVBmOR1OcsbwdKUGJQ+Io2oYP8c0LfHLned10zjYwiTY9nMvn2V+xWcSW5Mae6mDEt6Qty6BLd5wt/xhCaWXL+dIlC09gojq7pNxzdA18wIMRp4/lEfT/lrBjkdV3llduR1stlAhVUmD24MXxy42DYOF+4p7isUqMYahgJAF7li+gJWXLc4gZB20tGqUrwhY1KAamUYmUAo6OB0h7SHf535vH2VvFmZmE2mzMGbhxpSNa5PW2kba4kKfYyIuFOcY7ehZ7al+45motUtD50j9cggr/ApWXLn9o++a7Y8WWAXjLELNv8nc+4zyjCvnTraeIYbB7FcSpWZArKyicG/kETffr7C8nLbt4u1gt2+7vW0wn49g4Rb397GbxiDlCEj/GVb2e0nU78IjpX5AxpvC8/PiEgyT1taRly8n2jvodl5kFCIQvjhnei0DI05FfnOGEYfq6fX7+kGXPi0gDrfYrls/o6XwpiLZYddIa+uIDo4jzc0LjAZu3FT3P0+mMOz0qTQNjDhxqWlQTKGG8SjBFbTN9yu0scDzLmU7+RW7pnc0dPNGmNgm3rNezpw5RtTqhzr7hOPlgdPL+P/knSjVCJMP44rq6Tz/nC4bz/zEekYXS4RniQbF+tc6zx5pYxhG5tO/Sv/WNNRiUch+3NXs+ZeyP78Ai+V8eTFr28NKvxxCbB3D5UbJgZC6I5GNS31htZhPhvJDwb/N3PO23K/wyuzUcuEIlRiCIfXs+g3JGyzCLawjrQNbAwd5ZDT3MgzOfYlXhmkTvf4NwjZDXz0xe4gUnxthMYAhKKJElBKVpGmg6U7TnR3PdliEW5iFmVlGWNpG2u58ttO/3r+WVVvPrv+p8KfhSkRt+6tnXzUN6MdDbirLh2rYHSXch+vUrh+0eXxy/OYi08DFJiFmNpG2R/KPlDPL5Ro5iqEYwNSoWq6Rj+kuiWFAg8CvQa5EWYQfcE3vcB4KA9J6fJq75W57UBmQT2oiMZTEAsiFAaaQFN3+Mo6034Waxb7m6aoSMUxJIinweN2OTCytxwTFaGDECQrqpdPmCiMiYjE/KnpMiy1kr/kLJKVl0y8t+pJo9PcCqhJ/+BFvZv4CE+cvoKxeIykt1ddNDIw4WpLawie64xiAdVCUGrSYMHAiusnkSs7H52AWwwWXs78LqUtr6eNKZkXB+5ljRJ0oDI03IAGpUpNUz1joU9jJ1IMzyRsY8DRvIVKJYvAxuFCcc7wzmU/mS1VZ7ayLye1LfYu1lQOHG9+17XmXstbfKfd41pXX2d8vVIzgwtHj4cm5Pxcctwq3MAk1OfFoPtnrAwTmAhyh1hrCRNf3INBo/w0whTG8rBYMUSOoRqKSVDArvGq8ViauxIXicGE40zBTy3DLfVn7AlsD8Ty8EoHfAxiGBbYGLo1dOpoRHaId3KvcXzva0ePXwxEMBfgM8HARcH1PcdM8/KHXcu/Mz64+nXfrkHGQncmQmvN82fkubpdAKUgiJe3P3j/CMo5iGIJiXInqWWvfybhmW0+YjfWT3xOq731aG1JBJw9IXlJ4wywPfEjbQavGYcQhmdcHw6Tcs3gzMOJUFmeuMCLAMFlzM2XN2tFKxK4FRtTNW9QczlTm/6aukVZVkxYtfsGI8+YP3ArQlxIRAGBgxBErqdKgHUxheFU3Twq/8REUo3GkN/MI2lq32lwwK2+V3ikgUQYlqnEKk4zo8828NDDim5HzTN/lT8WIGIa1c9pXJ652iHa403RH6y+IYfBzp0ZQ76wuk6s5oxlxf1BtLY0HiwJN0KsXUasaQoIDrRyDjXGhJuuDTAqT98lvLHgZE4dMn5HbQUMoTCh90xhcfRd1fY/r/e+s4CVnU3YsjV1qFmZmGmaKC8VZRVgdzj8cg4/pFfWqEJVW/aZ9MDSoxrfO1ybSZjQjWoZb/lz082Stunp43lAEVD8Et3BwvkErAbkA1ajIA+L/M8o7eOd+6npv3p09JiEWpmGmTnFOR/KPrklcaxVhdSTvJ518WUJ5VE33d6F1v2fIhymxrD3yj0U1Jjf2aqtdj7saMi7MrTie1vbqO6D4OkyaM4s3AyNOZXHmDCMCoOHxOI8Dh2OWri1Mf4YqZ4USaLw1wDQaeWurtK5Ou8vq6zUcjh5T8xgYcYTkJUpNQkPv6oDSejo3sbF3f3Ct0ZWcL2CR1kyca85v8S1lJA5fpppVdKidgoERRyzlHH2p1CB1JNbZ0AKW4KXEOnN0Oq8eNkvK8qn1sQi3+OrZVzzFSL80FgxJ4dfQuFE1jGV+xeeT2vI7+2toXAJbPFHXWI0CtCWAhwuB5z9Vbu9VBczfFmZtEWa6MNLmYfaRgadOlOv/8bz94eOb/2H5fgSSfwTMRoCoNSoJg1kbW3D6eJj90qAF1qE48zBT01Dc4nCrs9mHnlHS+6X9co1cjap1FDV8mhw5p53TXt9fX8uqTalPiSmLqe2rre+vbxlsYUlYw898E22VBOScB35fQOVo/H44waH619A2okbwLJF3dofj9fTPPHzn39+MCzXVcrBJqMnC6MVBTcn3i4g7H1Xp0ux/fBbm/7+Q3JbX2c8WyuUqqGJ9DakrxTD2+RWM6P0RTMRIzAZywZsQyOTvYWDEycsMgDnEiBiKyhoaCbZ2OjSEjQVG1I2bNFzeKxyTpyKXGbgG02iG7/odsIERtSumLadB50hLiYOXU9u/uJjl4F2gy2a381FVeFV3N0+qTXc8QeXFDDwLr+rSwIivks7ceQ/FsP5BTlZugUr1Ij2yfoavVoDuKmhzZNSMyHWsn/4n2YsSURYwChbGLHSOd06npI/mLRTDNCimQTBtzEpgKZUrgWV6IJa89kOokoHOVJi0z/t/0Hx8/WNQ4KbmEOl88unS0/ZR9rYRlqeyvvsldadzhM36qIWZzU/lYnbHYMuTtieHcg85xS6zj7C2CMVZhJmuC7fxfGxScP0f/e5/FV/7lzJoJdYQCmTc8b6KMWiWRTSoRqVRdRG66hvrlWqlBtVoUM0bS3zzfClETJDwHfD5CHj8HeReBBySFhB1C4WgsJR8O1NwLavdwTfxc59zMHIo1MQk1AQXhrONtLcJW2byYNuXtw4teuh2LCU6pa21ly8WKzSqiZZXBNDXkN025AA6jnHf9V04PJ8PYe7unPOguxIoR5a31g34rTQMjDgVsc8hRkSlUkFS0sg0m/MXCFLT9FKoZyrimzXXzFFGhMlHGILsdrZ4MslHNL+Xai0jDSY3MQNLqV6ZXSdjm/c+rVkdULbQBxY+tvbMN74CzVufnc+08yo4Fdec28EeECtlk/hSfDura2DEtyN3fd8Vw15fr3nS91RKQFs8zHjs9yWMEvD/EtZY60yfQiLASd96/AtIfNJPhT/ZRtn+VvLbq6uqUAclG+9VBJXThBP5vKskkIMjtkEucf8AMmLOBcBuh2oqiJcoV84NagtakbDCOsLaOsLSNMzULMx0Y8qGr5595Rzv7BB1L/rYAAAgAElEQVTtYBFuYRtpuztjd0BjQAWzgiXuFfLIypYYLGonTAHo/gEkzjtWIOsMZG6YenrsDUVRIpHY1NSEvJWsaqxWELoB1tPz+QRU3QVC5nhJEDUoNiBSPGsjfh3vbfJ7LPbvtnKcSYi5cbClWYidbcSiZbHLN6ZsOpJ/xLvWO6orqpxZzhAxFK9NJynnw/hl6AA6HBOHXhZ6wIJ+qceA/3woWK9/Q5Vn8FpQ6gtYLTBmaMJbO6f9t5Lf8rvzpWo9K+ANjDjhRRh24lxhRAxBZI2N1M1bCBaWvUeOCrOyhFlZoqwsUXa2tvbxsDn9GZtzlBEFMlVgGfVwREPvULlS3cphGJCrkF6+vLmHn9/ZH1vXc6+I7JbecTy6aU9g9ZqAsuX+JUuuD5Uq9sq3cM/DucI8I1pT8gi3p4/PZnx+IdP+WkFwBU3X/2xuGBhxNq/OxMemf0ZUiEBTJPCfB9z++sLk5/Y+rJDRngQmWfJu3ImgKGC1wlptPbWwVgd4jaJPoBSEd4bbRNpsSt3UONA4brdDb3DEyofFlEoyR65+ZapnpRgQc2FKZ1j84x9Qf5ZxClYNkXJG4JFIJSroLtiRvkOXnsYszMwszGxRzKJDuYeetD6pZdX2insFSsHzynUYClRSWJi4uxLkXYWV6Nz+CouL3DIBkdtB3RMgYIy4BcAwVNDbWxFLyQ9GOJRphu6+Wj5jvEvMAY+WAI+/gdvmoCUWSmC8oilDF9MGJZezM62CNhiHvEjraBxiahK4/GDSDc/qa8fyj21I2WAVYWUaZmoVYWUfbb8kdolLgsva5LU7n+08Xnj8et31aHx0GbOMLqSPLAyNoUDUB0p8Ed/PGq99cOL+p/XX/qbx/QwUewNhD1BJgKQfQnxDCIj9+jnZQwq3ANG7QW0g4BBHynbUhDEMO1923jHa8dvsb2lCPX9jGxhxlLwncGCuMKKKTmedv0CwsKDv3q0kkVC5XLdPYJZ//FPmKCOyRQqfrK7VAaUhlbSI6u6AAtKV1PZjUY27n1Svv1O+6lbpcv+SxdeL7K8VWHnkmw6B4OcXsj4+B7WDFu55LjdKvnpcdSSy8VJK+808YlglPamRmdzITGzohXnXYpttPPMD8olJjb1pzX0EtmhOPAcGRpwTy/TaQeqbETFYVO3hwhd0+MIz7F1Yk5ff/dohveYEDAP0cvjrft8OEsldKxC2EbTEAPlI/0JdPyiG1rJqd6TDQJDbjbe1EcG6d0c3NEMRta/S5SslgFIIHQoDzGD1YZ+PQepPsC6ciDXCuqrrvIPTsTdz7+/aMmhd/Tb720xqJkPEECgF40aWoBogGYAibYwAMV+Da/+DNYv954HHy0D2WUApAoqhrwsuFZRcB09d1DdMlH5G2ONl0Ira36G7+ww2UATUBYK71pBin64AxBw4pNfZ5nuFHK/yh8Yh5sMFYhKKMw+1jWrNYUv7e8Q9ZAG5dbA1vzs/tDPUq8braMHRTSmbbKNszcLMrCKsFkYvXB6/fE3Sms2pm/dm7j1ZfNK/3j+GEFPOLKcJaQq1DEg5MkbV8cil1iHGxyKXiullQ+T6O/RjKFCK4NNIrwDlt6AGVJth0X8ehN3kw6A1DjL6OBNp58AiPbgwGE6UQk6RqPVprTYw4lQe1znBiAifzwsLJ9rZk1esFGVnz6oyKlMR+gxcM7cYUaZC2nqFwRW0I5GNDt4F8y9lL/QpdPQutPaEIDj/cvZn52HA3bxL0Jtw3e3yfU9rT8Q0uaZ33CkkRVR3Z7axKsicxm5+O1NI7BfTOFKmQD4oVgrlaqlSo937RYrQSrqTf3FzjwAeUWnUCDoDgtd/lwZG1L9M30aP+mREjRIMEkGRN3B/fyxGfAda92L3gvyroOI21OJ0JEPSYjYALhlIBoFaMd5P8gvBoAiglUFPMs9/vLAkun8AWa3uKXTaG2vrFfder7tuG2l7MPcgXUQf65QJH1NJAa0UpuK7ZwsVe9c/hgEQ+Ewg6H6FzyWGYY9bHzvHO+v0iLhQ3IaUDank1IneWCmGUiIXQOlpp+/zERxD7F5Q6Aniv4U2U11eQNe/QINvwoEZxkQMyIUg3w3cMoYRKnHfgO7q51WYXzerxv6mPRl7ddLQkaJZmNnPhSefK1OhchhTIkqBUsCWsmlCWie3s45dl03LDmoP8qj2OJJ/ZFPqJvsoe9MwU+sI60Uxi1YkrNiYsnHns50Hcg78VvrbpfKLthHWJqEmthFWN+tvxOBjYvAxUfioiM6I8I7w0I7Q4Pbgpy2PAqu9H+f/8iBl9/0I57uPTG/f+fTWQ6Mb4Uv9k7b5Zv/gU3zmWpW7Z7Wne7W7a5Xr1cqrlyou7cnYbR4OARcXijuYe5DMJ79uxpN438CIkxCW7tTZz4iYWi0pLqFu2kx0XDjg6wcty4ZtlATmCiPKVUhjN98nC7/tQeVCn8IFl7OHm4aNLmd//aTmXhE5qoaR2cYqJQ7W0LjNPYIulog6KGEO1WYQKaDf+Oti8IBEqYmt63G5UULqn2MPjIERRz3dc/LA1BkRw6CRdxAPCNmg5iFUa8V+DTVJN43GBkStQtHzn9BD8cYCSHV3bSDuBC6DGVJC1oPwrZB4Uo6C7HOgyAv6tDWGg84UqC3rrYcBEGI2RMmwTZBIXqgntfmo34Xqn+6q0ZSpRJTPqM9WJq5cm7Q2gZgwZq7mCa2cWgZ1TllnwaPFwPtDcP0TSGZtiRDdXufHRhfSv8/9XksVOh6yirByrXJlS9kTurv2JFQDrag9daAuCEYN+30BPP8J/D4HXv8ZQyDXPwW5l19t853ErUeciiFQCZf2E1xNt/ehryS7/RWUPPxqFEMLGYVLYpfoRKFr4EJxqxJWvcLDD8MwBaLgK/hMMZPEJ7UMtlQwK9Ip6YGtgW5VbofzD29O3ewQ7aBNGGQfZa/reWns0lWJq1YlrlqZuHJlwsoVCStcElxcElyc452Xxy9fHr/cKXbJsij7paFmS4OMlgQtWBy0YHGw0aJQ04UR1o7RDo7Rjg7RDvZR9jD8COoyTXU9/1+Fm6S6WxLJZNZxuDhGtQ2MOEokEzgw+xlR0dXFPHmKYGXdc/iIkqZnB4UJSGhunDLLGRHDQA9PltLEPJ/UtvVBpZVH/hcXshb6FO4Lqtl0r2Lx9SKPZ52PSiihlfRKMocjUUqUGg06LbWfQo1UkjnuzzrZwnFd0Wfn0hoYcXauyyRHhWFKiZBQUZ98X9OPfw1PwBzFXOja35kOKu+CzNMQ6ULWwVTJt3DQVOf+/lDE6EejeGVYWZGILbBUWsIB6FcXtAoy4i0T4P0R5Iyr70B7pec/YVd+X0Dt1B1L8MAeWqifrgCh60HEVniV59/H7t/9AziqUZXWOrmdJ4tPOkQ7XCi/wJFPID0thgIeHVIpqxUmW4a1PhQwNDvvCnjiAhWH1z+BZt+mCDDQ9YoIEt1CaNNcL49frqMKXWNL6pZ0SrruzEk0FEIw0Am60kH6LxC4RxKzNkH3X6DcBvCT6HaCpyIqmNQmbh8M0PH+EJT6Ax4NYL+bcV/XCQawXnFvPDE+uD34SWuQT9WDw+n+dxsDg9uDg9uDU8mp41rex+oZgxUHlFw5lyFidHG76th1RT1FsYTYU8WndHLWNranbz9acPTnop9/Kf7lVPGp30p+O1N65mzZ2fPl5y+WX7xUcelK5ZWrlVfdqtw8qj28qt2vFZ/xSd7h+9TK7/aHN25/ePP2hwF3P7sd7OD8dIFpiLGuc1yI8Y/RywitkUCunyz0BkYca51fd2yWM6JmYIBz/z7R3oG2ebO4sFCPCQVfJ5g59v6sZUSpSlNL490tIh+OaFhxs9ToSo6le96+oNrbBaTcDnb5EMbteFTV0iMQyFQiOdQR6kX0KIYJZCrKoERfHeplVBPpxMCIE5HSrD5HIYSlhNOOq5+uFdx0wCK2gbzLEAF1G4oMaa1qQXsiqAgAGb9Be2LoBgiFN03Atf9AsPP5CDx0BNFfwUTQFQGgORraka/994Uh+AW+vAuRAp8JBgnQBspshGo/ShHMVNeZCh0K64NA5W1Q5An1iKnHoJ4sYit4uhI8cBhi0I9hkO+L3oZxp+7gfXtIn1lnQbEPqHkEWmMFXSnBlR6LYxbvStte3l3w+hw2/Z2g+BqI3gVC1kI3x5QjEIByL0JC9f0M0mHUDlD7BEpJNVEXNARFThWfsh4yeurAQttwiHa423R36qpNRA1IeRAEdRIY0fD+EFJ1znlQeQcmbuyugDA3fmS0buVfamAYZOX+DtDXBGNllBLodBi+GdJ8gBmofwpTUo/jt/dSP8NeIBgiVUuFSiFfIWCKuG0s1qCUL1QKhUrhyACUYVdNsIlhGEvCOlZwDBf2IiAGF4bbk7GntLe0i9uF5+EJPAKRTyTxSWQBmSKgUAVUqpBKE9LoQnq3qJshZvSIGL08EpNZ00dI76u4wYrdzb7xJdvzg7KALxYGGeGG8vVoFxEXamIfbJQYs17SU/Pa2KmJTMHAiBOR0shzZjMjogqF8FkGdf168jInzoMHqF5LN44UxBx/PdsYEcOwbq4spZl5JbV91+NqG8/8+ZezV94qPZfUFl3LaOjmc6UqFMN4UtXtAtKeJzXdXD2nOZi762lgxLm7dnDkcgH0yg90gpo/LVi4vgt1QpHbYVxqSwwouwGjdOP3D0GhI7gxH0ZLuH8AAyYCnaAGMfssxMGWGIgpzAbAp0OSQBGIEck/jp15JO0EjMAYc4PVTlQwjEAyAHvgEAG7FRpVaaWw/650WGOtIQSqzUZg0IiXrn8Bnv+CPBeAw+7bl4c6741asixowZ0gW2niAUifxd6g+gFojoIJa+gV0EIq6IH3RVGomUs8CK/V2bLd/wYT93h/CFE4fDPUU/bWPw8TGXMWYx1EMTSXnvug5cHtxtsj9setj2tZta8n17G6fX6M3Q7T7owQwvCXru/BDC83jaDKNmQtiNkDwTfvKhRCRxKMm+ZRYQz1eGHIUg4k+Gc/g8htUAJx34D041Cf6vF3mM+oLXHirPyKSej3LRWiquqrWhSzaLi/Iy4UtzBmYWlv6WsjlkYOBkOgcrq3HjRHqeL2u9/5yGyYElEH/Ucfz+9qCp7sszHyXkOvDYw4plhec3D2MiKGyZqaeo4cJdrY9p0+raJPzyH6NWKY82/PHkaUqjQ1VN6jEsqJ6KZVt0rnX8q29sz/Jqj2Rh4xu51N40iVw9JeiBXqlCamTxZ+QKSY82ugpwkYGFFPgnwr3WCgpwYSw3CY0LZd3wP37eHu9zm0/Hr8HdqCn66EsJh9HkJhczSEtr6moTQi0jEUSFrLbNw3UNGo6//a/yB+9TVP0GVtbKGgCOjvBN5jKinfgfHFKUegIyNUQx4FsXt7g128A80cgo2PPZ7fdf0/wPVdqIn0+RgWvrtnC0k3dANUGSYeBOkn4Oxivoad6Masa7h/AANT6BVTrsyh0CgESgFXwR2xC5VCXXzG2FN+7VEZDzoFjqlhdXsfcmGxD1Txxn0DglZD2z1U8b4zRI3GUB8cthGu7LNfoNzqnoDONMCohtSoFENqlHJAffDzpDbPH493ofLY42/QT4CYO63VfO3UpnrCgGzgYvnF4YCoI7lzZecm5wA6fAxqhaTu6Zon83BjMaLT0/mlZV6YsHf4FVNrGxhxKnKbtYyoZjL7r/sS7ezpu/dISsvG+MacynT/sNe8dUZEUIzOkaa19Hlldn39pMbSI2/exazVAWW/JbSEVtLr6DyBTD060ESDoEyBHM8WDQfHP+wiTWxiBkacmJxm5VlKMcwDB0ODx7LYXn0HskXCAYhN5begyo2cD53zxGygUU1oPholtMZW3hkyGX8L/626D42VQ2XZJtTDeCep5ZDnXP8yypb9LtSAMhsh3IhZgENS9lQnl7luiLRfn7g6rvSKpvI2KPSAoRUpR6ASNGwTCFwOM7b4z4PABJMtvzeqz9+F4/4+jB3Wk7fZeDOb4nEMA62x0Bz/Ur7od+DLmyZQ8anNs8hqgSHkbfGwknKhB4zLjtkD0f+2BaRG179AIdwyAY+XQPt+0iFory/1gyEvjxaP8ZB4/B1EffXaJIJTnNH0LsMARhFQVias1HHh8MbKhJUEHkFbp3vS90FUio7kB7f+53nno9H77Vv/Ixd7YCLmpLsddYGBEUeJZAIHZicjolIpPzaOsnoNecUKXmgoKptjYQcTELyeT3lbjIhimFCmrqFxgytov8a3rLxV+tn5TBvP/H1Pa69ldj1r7evmSudK0hk9L8lUuzMw4lQl97avQxEIfInfj/Hb/xwZ34UYwW6DESroRAMRRs8K0Si66cWJZa69jHJs+nSovQGGQlVi/H5o/HX9vYqG57+gRhCfMZRM+/lAdKEqVyuvMiVM+Ne7RgE953hUyK/0cuiL2RoLlWflN0G+K4jYDtVj40Fz6jHApYye46w4ImZDFnyw8IU20e19CH8FbtBqP3pTK2Dmv74mqA9ujoJepLmXIDpH7YTm49vmQ+UE/wpN9l7/fmF2Hy4Z1/fAPRvYyezbMIANyAZu1N+4XHl59H6j/gZLypoiI6II1t8p9v7vgPtfRu/Ca//SNATrpayfgRGn8ljNQkbEUFRaXc347juirR3b1U3VOxs/MFOR9Uxe8+YZUalBqIPSrHa2fy5h39Mac7fcL6HisPRETNPjUmodjSdRaibpbz2TApo7fRsYce6s1e8jRTUQGjrToG3xpvG4POT6LjwHmW75Zolacqvh1vL45fea700qUvX34Y73/1Ca7lLfoeDoHVApmHcF5q8eVnVXpBI9bn3sFOe0J3NPUU/R65kARUBHGuTO4SQ0vJ16FOa4mbWbmA3aErBnJ6VPN4oercFSj4GGUJiycYKbWg6Bj9kAubkhFJT4QoVr1E7ohDpcCMPbfp8DSvEEu3/Dp6EYKlQK+6X9o3ehUjj1CCEAYLhP4sEhNfbvOubnMnkXRjX11htiVl6stVQqdXBwSElJ0Wg0L47OWGsWMqKKwWBdvUqwtWMc/F5aUzNjU/9DdTyjjKhGUCZf3sOTqREUQWGgSX03L6qGcSaxdcXN0i8uZNl65e8OrL6S2pHWzGTyZaNtyn8oWc/wZAyMOMMC1mv3iBoGtHamQV+9B47Q604blXz1HbXru3TPv5Zc/wfHXZt08F2oPervmHgqkzEHqkE1bYNtLgkuuFDcioQV3cJudLyoiDGvf+1BmKGGBh0cBwkjAnUxDCtnlu/P3r8kdsn95vsi5cQKF3EpIMB0bLWZ+9+gYnVUVp3XjvGNnoBhqGSQUZdFKElEhH3T9XpSy6H/ZfSucRnR9zPogfBn2zAUPnIR26GqVafG9vgH9FtoS4AxW/rYDHrEqUhxtjEiKhZzg4LIzi6UNWv5CQmYamJuOlOZ+h/qmhllRIFMFVnd/aCY0sTg53f13y4g7R1SHBpdzl51q/RwRMP9YnI9nTfnsszMzifAwIhvbF0UGgWJT2robxAqJ/8jhKigdbUzFQYu3LWG/HfHYihM4STMO3j13X73v/gF/G9z4Jdx/kPhGm7vQ83cK/0OUQxVISqxSsyVc/skfXQRncgntnPaG/obKvsqi3uKc+m5icTEyxWXda5g95vvTz+nyQQF3i/t96j2cIx2PFF0onWwdYJXwRCNtJ+gfIZry2D7XRjbgc+YLnVNdBxTPw9FUSKR2NTUhCBT9xB4cXspB+ZCcv9glEDegSR92wJwZrFi9cU09N7CICbmXoL+r8FroGNr+onnFQj1dCsDI05FkLOKETEEkZSU0HftJtrZDfj7a/r7pzKlP+U1M8SICIpJlJrWXsFP0U2rA8qORjU6+RfPu5hl51Ww/WHV+aS2tJY+1lxLUj3LHxADI76xBSLxSVcrr36X810Bo2ASN9UooXm0Mw2msIFlhf8N7lhBOqwPgjmipVzQGKa+b1/p+x/np/MtQoz3Pf6C5/0fNHiNsrtCrBTxFDy2lM0QMygCShevq2WwpZ5dr0XAHHpOMik5ojPiYctDv3q/q5VXfyv57XD+4X1Z+7akbVmRsMIh2sF0WCEKk1AT53jnkp4SoVKoZ23iKHGoUXUSKWlTyqY1SWsSiAmTixpmtUDNmc/HL7SJ7h9AoVXehfE6s37TMyNiGCyWeM9uVDTMO7CsS+qxcdPlzHpB6WGAGAoL//TUwtxJKpleTMy6URkYUSeKSTRmFSOqaDTmqV8JVta9x4/LW4alnJ3EhP6kp+qFEbVEOCBW0jjSdqawhsbL6+yPqum+nNq+3L/447MZ8y/Dwsq7A6tv5hObGAKD4nAmnjYDI86EVEf3qdAoEomJS+OW2kbani87L1QKNahGjaqViFKhUcg0MqlaKlFJRCrRUEZiPk/B40hYgwPtA/h0duYvrNsmTO9/9d78ghGysrvEk84opwqoFAGFxCcRmTXVJW7ugc/zDDuEmDwNtCyu8s2gZsTgYwJbA2823HSvcj9devpowdF9Wfs2p212SXCxj7I3CzPDheLMw81tIm0cox2Xxi11SXBZk7RmY8rGbenbdmXs2pG+wybSZkTykU2pm8I7w9s4bSKVaOZIkcwnnyg8YRtl61HtwRCNFbExWsTDj7BaoDk+ZC2M5328DAb/NkUAydzQAuiZEQGAGdTL/KEJXleA2/U9WBQncgfUpRm2mZGAgRGnItfZw4iIWDx4+w5pyVLqho2izEzsjbhjTkVks/KaKTAigmJSpYYjUfbwZMR+cXOPoJQ4GFffcyOPeCqueeejKgfvwi8uZunqKX9yLsPeq+BwRENEdbch5fXMPQUGRpw52Q7vmcgnni07qzXarkteF9kVWdJTUsAoyKHnZFIz0yhpyaTkeEJ8ND46ojMipD3kSduTh7XX7yXvCnho7H/7Q5/bH3o+NnVL2nq56OSF8gtnSs+cKjn1c9HPxwqO/Zj3465nu4bX/9Aq/3T85xDtsCR2yfL45bDYcfLaTambtAi4N3PvgZwDxwqOnSs7d63m2p2mO6HtoYnExNzu3CpWVctgSxYta0XCiuFVLrTjx4Xi9mfvj8HHdHG7xCqx3klRrpE/aH6wPH75roxdxT3Frw9VGS5oXRuqiMgwuTSzAea7mTsRbfpnRIiJLFD3FERsgel17tvBwOeMX2FMtGGbMQkYGHEqop0ljIhpNKKcHOqmzURbO86jxwhfP/UZpyKRuXmNUq0urKjtJFE143jMICgmUyE8qYolVNA40i6WqIbGTWrsDSgg/hrf8tWjKkfvgs/OZ356PnPB5WwL9zwH78IlvkVO/sUuN0qW+RXjXHNNruYs8ytecbP0UFh9EX6cog5zU3qzatQGRnwDy6FCVPGEeKc4pxE6OZNQE1wozjTM1CzMzDzc3CLcwjLcwirU1DrE2CbY2DbYyC4UZx9h7RBl7xjtuChm0eKYxUtilyyNXbosbplTnNPy+OXO8c5LYpeYh5vrXAa1fdpG2u7J2PND3g+/lfzmXuUe0BAQ3B6cQEzIoedU9VV1cDt6xD0CpUA9ftQzT8F70PxgeLe6tmWEpV2UnUW4xbfZ3yYQE0h8kkQt0RcpYgCrYdV8nfm1fZT949bHAqXgDSzQrLrFjDAiAJCSZVxoV6WVQQOrfmOPZpUEZ8dgDIw4lXWYJYyopFIZh37Am1v0nTmrIBCnMpM/9zWDIrlPck1yDUmsgJk1EBSTqxGhXD0oVvby5ZRBSSODn97Sd7eIfDqhFeoIrxV8ci7j0/OZ8y9lm7rm2njmL/QpdPIv3vqg8ueYJv9cQkJDbylxsLGb38USlZM4P0Y0HAipKyUOkgckDK5Me5c/t8hnavYGRhwpWVhKTgJT9CF6i2Aj8Uk6JaKWtEzDTB2iHTanbt6etn1Xxq69mXu/Tf/q+/jVh8MXHn9qdvL+Z6cDTc5HLLmcvN2t4IRXldv12us3Gm7cabzzoPlBYGtgcHtweGd4FD4qGh+tDewYTp/mYeY70neIVeKRU5vMawKPsD55/fButSPHheJWJa46U3Jma9pWh2gHi3CLA9kHkknJdCFdppZNqx7d0PCEKuHlisv2UfbHC49PIlRlMlOb5efOFCPO8mn/4YZnYMSpLOlsYERUKmV7eBDt7albtkpKSmF9T8M2SQmQ2MLdgVUezzrwLGEvX97GFGa1se4Xk88MEaGd13Md4ZcXs4yv5Ji75WmhcO3tsmORjX45+ISGnjo6b1CsRFBs9J37RYoLyW0n45r7BIZk5qPFo+cjBkZ8IVBEBasM08thbrmGEJirT9wPNMoXJ0yppUE1sYTY5XHLh/OWbZTtryW/whhhDIM5X0RM0JEKgyvd/gI8/wmrhiT9APU9atmr79kn6fOr99Np+HQNqwirLFrWlHV7GIZ1cbu2pm1dHr989L4tbVu3qJvEJ/nW+W5K3WQXZWcZYXkg+0AqObVX3KvQKKZoHQYAxdBUcuqGlA1OcU6p5NTJhaq8WlJz510DI86dtXrVSA2M+CrpjPfeW2dEDEGEySmUlasI1jb86GhUIhlvqIbjIySAAaDUoCKFmiNWpjf3rgkodfYv3nS33Noz/9PzmZ+cy/ziYtb8y9kmV3PM3XJtvfJX3Sr9MaLhejY+rr6nvpvHlSgnqGMYEClc0zvOJbWxhYaqyiMWQf8vDYz4XKaIGmaSi937otSv5z9hXgxK0TTTUJMF5LOlzz0RdQxnEmqyNmltZU8pjCdojQNBK2FqEs9/AN/PYJFiZuNEtJgYwMp7y1cnrh5On9pbmIWZ7Xy2czqMpUbVLCmLyCeO3tlSNjJUuAXDMBKfdL3u+rrkddaR1pYRlt9mf5tOSR+QDSgR5RRIkSVlHco9ZBluea3mWo+4R/+P+1zo0cCIc2GVXj9GAyO+Xkajz3jrjKikUOg7d+KNTdju7irG5MPlRk/pj34EqjkQVK5GuBJVahPzl5jmRT6Fn1/I1AWXfHQ244sLWUt9i+6lq9IAACAASURBVA6F1ftk4ePrexomQ4Sj5SdVakoIAwVd/RLFm8jrPnoAf6ojBkZ8vtyMGlhiYXRSvSfOULM41Q3DsFh8zPL45bhQk+GAaBJqYhtudSpuNfZoCUxK4v4BjDN99gsYIEy8bh6KoQXdBc7xzraRtraRtjaRNlZhVtq2XZTd2qS1stepIac6rZeuwzCMyCN613qvSlwFXSojLPdn78+gZvAVfM1kavehGHq36e6yuGWbUzdX9lVOATFfGtacfWFgxDm7dC8N3MCIL4ljgi/eLiNiSiXz118JFpa0nTtlTYaQrlctGoYBFMMQFGMJ5XH1PUciG8xccz85l/HxuYxPzsFYE13js/OZewKrK8icV3VneG+2SsDAiHBlUARk/gqNvCMZ8R14MPlHqErE0AnvGLQgD+0Iqn7adN8+3HIolMTENNTELOT5bhVi/N3Dz9Wuf4GZ/LLPTaLk2rBnSaFR9Ih7urhdnZzOKmpVaFZo20BbF7cLz8P3S/vfJGZpSdGrxmt5/HLTMFPLCMtvsr7JpmVL1dIJGhDaBtu2pm01DTMN7QidSprxYWKZ000DI87p5dMN3sCIOlFMovF2GZEXEUlavIRgZS3MzEQVBjvmuAunRtAOpuheEXnrg8ovLmZpifCjsxmW7nn7g2pvF5CCy6lrb5f9EtNU0NXf3COgDEgMYSXjSnN2v2FgRLg+A3gQvmkMQNQi401jWPe2IgAmYa56AGoegdonMIV1QyjMutccDY3F7YkwU3FnGqzkQcgGxFxALoB2amqx6NnPT+98sSRowZbAeRH+/2679r527/R6v9/vU5DvCgS9QxXzxvDNncizo6VRFEU5HE5+Qb5ardYemci1+j0HAxiCIgQe4VrNtWWxy3ChOJtIm/1Z+3PoOUrkNW6dGlRzuuS0TaTNkfwjXbwu/Q5sbvVmYMS5tV7jjdbAiONJ5lXH3yIjKrq6KGvXdS0wGggIUBtKqoxaJQwDApmqoKv/Slq7y80So8s5Xw7R4UdnM1bfKvXM6CwjDnLESpkKUWlQElu0J7DaL7trQCRHUAydoKJg1E0NB966BAyMCJeAUQ2CVo3LiK7vQVuwx9+Ax99H7p7/gE6EL+3/hKrHYfug19+v3fnILMT4wt1PhG7voVff0e3YLRPQXQU1jtPeMAzjcrkFBQWat53qFcVQhUbRwenwqvFaGrfULMzMIdrhQPaBXHquGoVpEMbcMqmZqxJXOUQ5TAQox+zhD3PQwIh/jKU0MOJU1vFtMSIqkzN++BFvasb49oACjzfEMusWT42gNI40upbxU1TToutFpq658y5lwyQ1l7P3Pa19VEJtYwq5EqVUqVEjqO63jDog/vpJtX8OniM2qGN1spyTjT87I2IoLDWR/gvw/XxcRrz+CYjYBhIOgLj9MKglejeI2gkit4HwrTASOXQ9rOcRtAo8WQECl8PqyY8WgweO4L49uGcLbpqU3fx036Mv1jyZH+v/b2yELfvGAlgiVh8bZEQOpyA//60zonY2CIqIVeKWwRavGi9tBsfFsYsP5h7Mo+eNdlLkK/jfZH1jHm7uVePVK+nVhzzmcB8GRpzDizds6AZGHCaMCTffFiNyHj4k2tmTHBdKSkow5WusHhOezRw+UaLQ1NN5dwtJ+4JqHL0Lzd3y5l3K/vxClqN34cm45vj6HvKAeFCslCg1Y6anGRTJfVNqUmpIkqH8iHNYEH/6of95GVEuhAbi2L2wRpnXv1/U9h2BcR7/gMWRxWwg5Qztg0A6tEsGYKIcuPfDXcz+fWcBMQtGKw/tanr548wfbIONfnrwGcHr/ZEYessEMGqm8wyiSqWaxZJ3dvGTU0ibt7SuW9931ZUfHy9radFwuXrRUE5neBpUI1AKmgaaPGs8F8cutgi3cIpzOpR7KL87X0eKbZy2/dn7rSKs1ievr++v1x2fzn3n9LUGRpzTy6cbvIERdaKYROOtMKKsvp7s7NJlZMx98gTh8d769+Yk5DW9U4UydVpzH6lfrEZgDkgMw1gCeXY7yy29Y/vDqoU+EA2/vJhldDl7070Kr8yunA42ZUAyIIJawxc6w7HGoFJrSipr8eRx66yMdZHh2GyUwJ+OETEM9HeCkuvgiQu4MR+aib3+BcI3g5zz4OFiGGL8EiO+Cx4tmY6qjzDYejL/qEOQ0d1b/1O5vty52/sgaDVQSafzWKhodLanF9llBWnR4i4j4y4jY4KVNWnhIrKLC33vXl5EpKKjA1XpLRn41IaqRtUcOaeeXe9R7bEoZpFlhKVLgsuR/COFjEKlRvlL0S82kTYmoSYhHSF/wqoqo0VqYMTRMpmLRwyMOJVVe/OMiAiF3fu+wRub9P70k4pO/1NZmekc6a7A6oT6ngY6L6qGcTKuZeO9ikU+haauuZ9fyLL2zD8QUne/iFxGHKQMSgbFSrkamaBj1BTqNU/lcTFcM/MS+NMwIgZpDP8MJB+GhmDfz4DbX0GAGaxaS8gCXDLUAnY9AxFbX0Q3e/4DhKwHHSlANfUsqonExLVJa/Y8+rLYZ0TQ9LvgpjFoiQFggp+5sR8FRCSSVFayrlztWmDUbmHRsGcPff9+yIvz5uNNcKTFS6hr13Z/802/j48oM0vV04up31o+KTWq7pf2V/dVu1W5OUY7WkZYrk5cfTjvsH2UvTa/YzQ+WqQSjT3PyR/FMEzW0CDKyZV3dCDSaYH45G8+rSsMjPiS+DAMVShUvb1KKlVJJiuIRAUeL+/slLe3y1tb5c3NssZGWX29tLZWWl0trayUlJdLSkvFxcXiwkJxfr4oN1eUnS3KyBQ+eyZMSxOkpAiSkvjx8fzYOH5MDD8yihcRwQsL07DZemcDAyO+tI4TfPGGGRFDkAE/f4KFJXm5s7SuDnvbf09PUEr6Oi27jbXIp9D5RvHqgLKFPoVGV2AYivONklPxLRHV3dVULmVQwpWqtFrGSd3UwIiTEtdsPvmPz4ioBlanrbwLwraAO5bg2r+B+99AyDpQeRt0VwJhL9AonoOaSgIG8aA9CZTdAKX+oDUeahyVU69ox1PwPKo9rCKsXFO/GozdDS3aWiWl+wfg4SIYGS2fdjFiFFXg8b0//0KwtOr89kBxTIwUT5A3NYkyMwd8/bq/2U+wtsEbmxDt7CkrV9G272CePMUJDJRWVWl4POxtlJhSo+o+SV85s/xq5VX7KHvLCEstIOLCcN/nfk8RUKb/YUGEQlV3Nzc4hL5rN2XVauqmzd0Hvuu7dJkXHi5rbkFmfd2EPy0joiqVms2Wt7WJi4r4cXGDd++yLl7qOXy4e8/XtO07aFu30bZupW3ZStu8hbZ5M3XTZurGTXDfsJG6YQN1/QbquvXUdesoa9dR1qyF++o1lFWr4b5yFWXFSvKKlWSXFWQXF7KzC3m5M9lpOdyXOZGXOZGWLhNlZyspFCWdrh4cxNTjRlZN6uE0MOKkxPX85DfJiJhGIy4pIS1ajDc24UVGzf6vhqkIdKxrhHI1gydLaWJuf1j55cWsj89lGF3OWX2r9HRCS2wdo47Oo3GkIjkMQRnr6gkdMzDihMQ0F076wzIihgGFEJDyYOrBpyvBTSOoOPT/EqQchalqWM1Axh07W7Va9tzjEFqBp/4ZAQBUMCv2Ze1blbgqvj0U6e8AbQmg2AcUeoC6p6CnFsh4039AUIVC+CyD6OBIXrWKkZz8PK55SPWiZrMVXV2S8nJeeHjfufPUzZvxZuYEM3PSkqW0TZsZ3x1ku3sIEhKgMfqNq9k0qIYhYjxseWgZATNHanfbSNtkUrJkGlpbrTyF6c8Y3x8iL3PCG5t0zZsP9yETPNlpOW3b9p4jR/t9rguSk6F+UTx1DfH01268Hv7wjIhpNBoeT0kiSSurhOnp3ODgAV+/vrNne378sXvvPtr2HdT1G7TuEwQr6xeLqF3KoX/xFpakJUsh6rmsIK9cRVm9GkLhuvUQFjdtghy5bRtt+w76zq/ou3bRd++hf723e9833fv3M749wDh4kHHwe/LKlV3zFzx/PObNp67fQN+1m757z+Dde+pe5nhLM6njc5gRNRqN/PdtcHDQzs4uKSlJoVAgM7+p1WoKhVJTU6NUKmf0bhq1WtHdTftqV9f8BT2nflUwmRq1ekbvOHs6T23q/S60zuVGyRcXs7TVUD6/kGXpnnc6obm9l6/RaKY/VKVSWVNTQ6FQ1H8aqU5faLOzB4VCkZWVxefr58GYFXNUyZEBIlr7BEv4DoYY+3yMuX+APXFBCjyQrkykH48oJIg+PgWvnqxCrbjXeG9RzKLjBcdbB1rhHRUSRNCH8HsRKU9fA5ARCL2nfiVYWfeePsOmUvPz80d8k2vUahWPJyORxTU1vNRU9s2bjB8Pk5yW403NCDa2lFWru/d8zTz16+Dde8LcXDmNpnkjPwQIgqjUqgtlF4YzIi4M92Pej12crul8R6nl8r7LVwiWVl0LjLq/O8i+dWvgwUOW1zXGsZ+oW7YS7OzxOFOoVV29pnvP170//9zv789PSZG2tqoFglcv6Bt7V6VS4fH4xsbGmf6VnOkZaTQalUAop9Ik9Q3C3FxedMzgvfssdw/myVM9P/zQvW8fbdt26tp1ZKflRHsHvJl51wIjvKkZaelS6pYt3Qe/7/31N+aly30env237ww8fjx858bFCQsLhaVlwrIyUXm5qKJCVFkpqqwSVVWJq6vFNTXi2lpxXZ24rl5cXy9uaJA0NkqamiRNzZLmZklLi6SlhZ+ZOfA4cHif2ragoEDJ4ehFMkqlsry8nMFg6H4lpVLp6dOnT548qRgrPfP/mxSBzujJKSkp33777a6hbfv27R988IGfn19NTU39zG91dXUlJSW5ubl1dXUzerfGsjLyufNdxiYtixdXhYXVv5HZzeiMJt65Z0zxgkuwVp7V1Wefn89Y4/3s4O30w3fTfKJys0uqJt7PK86sq6vLzc0tKSmZ6XV8xRgMb+lFArW1tenp6VVV+nkw9DKkCXRS116VRypNIJYltVYX685vqS7pLgoVp51Hwrdit80xj78rPD9kBqxofXq8IelOQ3FGff3Mfu3oRlJfX59RnXEg9YB1mPX59POlVaXD39JXu7Gysv32baKjY5uTU/X9+xUVFRkZGa/4SNZVV1dnZVWEhZX4+5eeOVO1f3/j6tXtVlYQmxYuom7e0n3oh+6LF8l37nTExTUVvxCsvgas66euvi69On1JzBLTMFOdHhEXirOPsr9ddLuirkJ35qQaDVVVZD8/krNLJ860+uuvKx89rs7KqsnLr05Lq4iIKLt3v9jLq/Tkqeq9+xpXrW6zsu7SWuHXrqPv+4bxy0ma1zXCkydtqamNFVMcwKRGO97JdXV1RUVFeXl5r1jK8a59a8fr6hpLS9tS0zqjoomBgZRbt+ienoxz53tO/Nz9/SH6nq+pm7eQV64iLloM8d3IuNPIuM3KqnnJkoY1a2u376ja/2350WMlZ84UubqW+PmV3btfHhxSGRNbmZhYlZpak5NTU1AwfK8tK6ufHkLUlZcP71DXri0tra+t1YsY6+rqsrOzy8rKdL1VVlZ+8803c4AR6+rq7t+/HzC0Xb9+/eOPP3748CGBQKDM/EYmk7UfABKJNHN3I3d0tN27125ljTe3YIaHU9/I1GZuOpPqOa+mdYNf5mfnM9beLvXLaLX3yvdJbahqI7XiKR1ECok8qc7GPZlEIhUVFdXV1ZHJeupx3FsZ3qAQycSshqyzqWfzm/LJFD0LnEgkZmRkdHR0zBVBU+vzaTFnm+6vf/JoRewDl/aHW2nJntTiSFqKV8/DHVxfa6XH/zDPf2KPliIZpxV14Zz2Ijqp883P7m7JXZdolx1pO+Ib42fo7vjs7LZvviFY29BOn6Z2dLS2tmZnZ0/wq5XW2cmorWXl5Q3ExfUHBPT8/DNl/Qa8pVWHCa7VcWHDmjW1u/fUnTzVfPdeZ2YmWd+PRyex82jKUdPQF4CoI8XdCbtzGnOmIDFSW1vD2XNtDo54M/PeS5cYJSVUInFkP2QyraOjp7qalZs3kJDQf/9+79mztF27iAsXdRoZt1taNS9dVr9hY83Xe+t+O91y717ns2ekllbKm/2WI5PJ1dXVpaWlE1zKkXN8Y6/JZGJ9fVt0dOO1a7U/Ha/5alf9ho2NK1c1L13Wau/QbmHZaWTcNX8BwdqG7LKCun1H96FDvadPs7yuDTx4MBgRMZCYyM7I6MvP7y0rY9TW0ltaaHj8Gxb1jIqKRCLl5+c3NjbqfiU7Ozt/+OGHOcCIUM//+8bn8+3t7ZOSkpRKJTrzm0ajoVKpNTU1KpVqhu6GqFTStjbqjh14Exzr0iW1QIAiyAzda1Z1q0GQbo7kRHSjNjAlubG3qZu34mZJVHW3UKZnaatUqpqaGiqVqtFoZpUQ/pCDEcgFbpVui2MWe9d4K9V6/pwqlcqsrCzBkKFtDkiPQ0Yzz2I3TdJu/HfX4y8OP/isxve/2F0bNHQDds8WBoX4zwPRu0CpH0bMRfndKPJ2nk++nH+l4opNpI1ntSdTzJwJwWrEYl50DNFxIXXLVnFZGYIgg4OD+fn5k/0mR9RqNZcr7+wU5RdwQ8PY7h6M7w6SlzvjcabQGL1xE+PHw32ubpygYFlnp5LJVPb1QbPsND74CIoI5II1iWu00So6OtQ2nOKcSntKNZNaOARRcbn9AbdhqVVLK7aHp4JIQl73E4NoNGqhUEEmSyoqBIlJg3fu9p0+Q/9qF2nhoq75C4h29tRNm7oP/cC8dHnw0WNBVpasvUMtEE5n4hN8DNRqNYFAaGxsVKvVE7zkjZ2GIIhaJJLj8cLsnMHHj5kXLtD37iO5rIDawWH+gl0LjGhbtw34+XOfPuXHxYsys8SlZdLGRjmRqOrr04hEyOybmt5lqFKpysvLe3p6dL+SMpnszJkzc4ARhxuypVKpg4NDSkrKm8nOP+MxKxim7u9nXbmKN8HRduxUkEh/kmyIKIb1CeQXktu+vJi1+HpRTC1DotAw+bLTCa2F+AG5Chm+6NNvG2JWpi/DCfagRtUN7IalsUtxoTinOCcSn4RiMNulvra5FLOCYaDMH/jPG3D/y9l7n1iHGNsHGz289V+h23swr2GAKUg9BsNBeuuBQm8pVKYm52pW9d7Mvc7xzkmkpBlKCq3o6Og9foJoa8d290AlEr3U4sNUKjWLJaurEyQn9/v4UFavef7Dv8CItHhJ70/H+y5c6LtwUZiRiUplU5OM9iqFRvGg+YFnjadn9cj9duNtsoA8ieqeKKru7x+4eYto70Cwtun39lExGBgyyW88FEUlEiWZLCkt5cfEDvjfYJ48Rdu5k+i4sGuBEdHBkbZ1W++xn9ieXryQUHF+gQKPR4RCvWdL0QpnFsasoHK5ik6XlJXxo6L6r1/vPXGCtm070XEh9FKwd6Bu2sz44Ye+CxfYbm7Pdw8PQVoajJ1/25Uhp/OUTvPaORyzMnzmfyRGxNRqVW8vPy6OaO9AWrxEkJY2iS+a4UKZa20Uw9hChVdG17xL2bZeBcEVNIkSZkGTq5AmhqBfpJhOCPOYwjAw4phi0e9BDGAyjayWVXuq+JRWxYILxfnX+8s1cj3eaC4xoogFq965/TXF718bAueZhJrgQk0OPvy8xufvkBEjt0M6RN9a/j/doiAocrfp7tLYpScKT7Rz2nXH9dhAJRJeRARp4SL6zq+klZXaDPn6rNeMYZrBQV5kZN+Fi33nL/T+dFybc7Fr3nyys7MgPmGaodAYwMQq8YBsYPQuVAonTtUYgqh6evp9fYk2tkRbuwE/fzVr2onuMAyVSpVEoriwkBce3n/Nu/f4Cdr2ISQywUFe3Lad+fMv/b5+sJ5NQ4OKyUQEAj0mVpsljIip1WomU1pXJ0xJ4dy713f2XPfXX5OWLMWbmhHtHWhbtvb+dLzf25sbEirKypY1Nql6etQDA7p9buWk1ONnU9eVgRF1ophEY6b0iBim4XBEmZlsV1fa1m1acwMq1+dP6SQm+WZPRTFsQKy8mUc0uZJj4Z53r4gsUWimlbFjAuM3MOIEhDT1UyAdqmWtg61hHWGH8w/r/PpxYTjneGcCj4Bgk1STjD+WucSI1BJw17rf/S8n739qFWykZUTHYKP7t/4ncnsPRH8F+jvGn+ibe6dH3HMk/4hdlN2Ttid6TAo9fALylpbeI0eJdvb93j5aXNOLHnH4LTAEQUQiNZutZrEUXXju0yD67j1dRsaUVasH796biq5ueO/6aGMajZJCYV/zhqVlFi0evHVrJspoIRKpgkAQ5eVxg4IYB74jWP1uVF1gRFq6jHHoEMvVlRsUJO/Q27P3NhkRRTUDA/LWVlFuLjc4hO3mxvjuO7KzizYKnrpuPeP771mXL3MePRbl5EBlqnjq2UP18QjM6j4MjDiV5ZkJRsTUaiWFwnnwkLp+A7SMzF9AXu4sb22dyvjm2jUYBjhi5aMSirlbrrlb3vVs/BsARACAgRFn7kmRqqUdnI6orqjjhccdox1H+2zdarg1/RxyuvHPDUZEEZjdOucC5vtplP+/Vz2ZP9yJDaoSvf8OonYA9qz41KeQUtYnr9+evr20txSbXoZF3TINbyASCTcoiOS4kL7na2lVtfYtvTPi8DtCPaVGIykt7T1xgmBjS3Rw7Pe6JmtsQsdK4THiwhl6ianVCjye7eaGt7AkOy0fvHsPnfnk2JLSUtbVq73Hj/f+dJzx3UHK2rUEC8uuefNJixazrlyVVFSq2exJm7lHCegNMyKGogifryAQJKWlgvj4AT+/nqPHKGvWQC60sKSsWNm9dy/z1K8DN28Jk1PkLS0Inz9DRvZRkpjbBwyMOJX10zsjohKJtKaGdfky0c7+eUrMoT/veOHhqt7eqQxx7lyDYYAnVYVU0G08883ccl3TO0Ry/SSIf60MDIz4WhFN4QSpWtrF7YojxP1c9POimEV2UXYrElaYhpmOwESXBJdObufE7XGvGgmGaQR9JanhYhYZQ/T88KAKhZrNhup8bHp6bREL4DNg7uvrn3Zd+9veR1+YhjzPuvxclRi04M6dj8VpR2E9vbe9SdXSS+WX7KLsvGq8esQ9MzEcWWMT44cfiHb2A/7+qOy5X+BMM6J2Iio6vd/rGnnFSrypWc+Ro6LsbA2PN931nbyMMKVS3tbGungJb25BWbmS+/jxm7EaoVKpms1WMZmqXqa8vV2QlMR2dYMW2EWLCFbWtO07Bvz9xfn5Khp9OqbnN8GIKIqIxUoaTVpbJ3yWMXj/AfPUr9RNm/Bm5nhTM/IyJ9r2HT1HjrA9PfnR0bLaWg2HM332nfw6z+0rDIw4lfXTLyNiKpW0spJx8HtYzH5YzvSuBUYEK+v+69cR0Vt2XZ+KjCZ2DQYAX6aKqWM4+hTiXHPPJrbypKqJXaqHswyMqAchDutCqpYS+cQkUtIvRb8sjl3sGO24J2PPmdIz3+d+P1xhpmv71PrwFNOr0oGhQMQExGykyJv+aLcy5wroSAZcCkCm+xShSiUiEimpVOGzZwM3bohyc9UsFiISoTLZpH9mlGLAqAaFnjAexfOfvNumlx8tcBiyMutEoW18F2RWW+n75mFl2Bo+bzYNNH317KvFsYvTKelqfWM3AACRSDiPHhMdHLv375fV1uoG8GYYEQCASqW88HD67j14cwvqho3c0FBVd7e+ypfppvOKBqZQyBqb+s6cwZuaUdet4wYHY0rlK86f0bdQmUzW2Dh45w7j4EGyswvB3ILs7MK6fFn47JkCT5iaanOmGBHDUJlMzWTKW9ugq2VYGOviJdrOr7S1TEgLF1E3bGT8f/auAy6qK+uv7ia7yX5fymZ3s5u2KSYqbei9KxbsJfaW2JLYYsXYCxbs2LtUaYIoTRFEpEgTBIEpMDAwtClM7/Peu993HEU6M8OgmOX93k9fu/eee+5j5j+n/M+iRfWbN3MvXxanp6saGv6bM056/9oMYER9dGhYjIgJRdzLV4CfvXXWveZ4uBHN1U3BqOkPXxv6aKqnNgKZKvox0+NImsnOO6vDChsE8p5aGPL+AEY0lDalKimdT79deXtd2jrXcFeH6w4z4mb4PvLNrs8uYhWNje6cH8QmxOZ+zX05FBrWayNwJKhF93ahQ1+jXe8/LyJ84At0ezVqeNJLmCgtKuJdv17vs5nq4Fg+bHjl+Amso0ebg4JEaWlqLldbcdUKxCpHBdfQRU+05yN0zFgeMjUsYbnXdad26FBz6hJid7HwtEFy1AgMw+Vy/exAOIGfKjzlHuG+ImVFH2WrSPPyaxYvodrZs/39WxvPXhlG1OTHiDMyIavawZHq4Ni41xf8zr3LdNbyxcBlMmlubt2aXwEgTprMCw3tDzgGIiOrqpqDgpgrVlaO9aZYWVNs7Zi/rOCFh8tKSuC118WUbliMSCiVajZbTqZIsrP5N2407tvPWLBQk6+tYS6snjmrduVKtr+/8O5dgPv/xZnIWr6EWj42gBG1VFSbxwyLERFCkuzsqhkz2xgRn2FEMsm8fvNvBvnOaDOB/nEilqvji+tHH0832nHnp+ACBlfyiuUawIi9V7hMLasR1iRWJa5/sN413NU+1H7qram7sndl12crMAVBEDQebendpTPiZrTbvaO9SYGkhYkLCxoLlPqZ/ZRilHYAcoF3vtdqfx+uxP2KeNV6zo4g1E1NdZt8yGak8mHDaU7OUGLL2IRsZlY5ekzTQT9FZWXPPeNqJGAiSiIKnwcVlg9+iS6NwLNOZlJjJsaMtwu1m3BzwozbM2bETJwRNXpcuLttsBUpkOQd7R1GDutNKg+hVuMyGSYWy8vLhQmJ0pxcjMfDJRJcJtP+W5MtYy++s9g62Prq06t8Bb/nyer4BC6RsE+eoto71CxeLM3Pb936VWJEzbiq2tqm/QcqR40mk8xrliwV3rkDfmfckMRMrScIJkypVJKZVfvzz2RTs6ppds7vdgAAIABJREFU0/g3buhsmW7Xo2FPCULN5QoTE+t9NtMnTKTa2ZPNSFXTv+ecPy8tLFQ1NGr5IhkAI2IYLhKp6urkZWWilFT2yVM1Py6mubiWDzdqsaeQTc3oEyex/U/KqVQtBTOstn73vQ1gRH2W2OAYUc3lcs6eI5uatbz6cPAsJFFW0iesE/pM26BtpEp1clnTpNOZw7YnLbqWR216DZllAxixN0sqx+T14vp7jHsbHmxwCXfR4J7tmduz67NbmwbVuJolZVUJqtrtiVWJ029NNw8yX5m6soRTosJ1jCMkcPAp+33VCh22IMX30YEvECUJ6eokJQhcLpdTqaxDh8hW1hRLK/qkyezTZ5r2H6C5uVOdXbhXrypravDufYIEjmQ8VJuLkjaDGHs/Rict4ZhTQedR5yfOtwmx+Sn5pwe1D+i8yqqazKrymLuPzy2Om20bYrsne0+DpKE3i6KqrxelpfGiompXrCSTzKu/n8G9dIkfGytKTdU+sjmOHucd7T0+Znx2fbbhs1UIQvIoh7FwIdXOnnP2XDsH66vHiADaZLLm69erZ86C5IYxY7mXr0C+s0rHF1K7ZcMlElFaWs0PP5LNSNUzZwni4vqtCQCMnQUFTfsP0CdPoTk5k01MaW5ujb77JI8eqZjMHiN09cSIz/4G1VyuspohffyYHxHRsG0bfeIkirkFsBja2lW4e1SOGUsfN75lZ8yZK4i9pZ36B57SWQMDGFFnlcFnCo5XV1fn5uYakLJb8iinauq01hiRYmFZt3FTv/0E0UdxL9rIVVgahTXjQvbQbYlzL+cUMwUv7rzS/wcwon7qVmJKlpT1oPbBxvSNzmHOtiG2Y6LHbMnYkl2frRPrYTozfeqtqeZB5pvSN5U3l+uWv6KSoafRnQHEF0gx/RASs7SfIIFhajZbmHyPPmky2ciY5uxSt36DnEwm1GpMIGSuXkMhmdetWycnk7v0uBEEUkkRm4KyT6OTFmA+PDoMXZ+NGNmIwHhy3sYHG21DbKfemlrQVNB6smpcfa30mnuE+5yEOfdr7/fmT16ckVG7dJkmTRX8EsONyMYmYLFbslSUel8bbahw1eaHm+1C7fY+2tsX2Sq4VMo6fIRqY1u7bLm0sLCdSK8FI2r8zpLcPPA729lTbG3rt22TPXnS2gneTk79TnGJRJicXD1nDtmMxJg7T5SS0pu11k8GXVtpuBu5ly5D7RYXV7IZCYoErlotTEpSVjNwkYjowuaqE0YEiiKRSN3UpKiki1JSWMeOgyvZ1o5sbAKUQC6uld7japYsbfI7xI+OkT4uVFRUvNyrqtR8w1u7dVXU7/X5AYyoz8r2BUZUs9ks/5PlQ4eRTc1orm40V7eqKVOlT/oFC4Y+Ouq6jRLDsyu5C67kDtmSOON8dm5177IWuh6oxzsDGLFHFbV7QIWreHLe/2PBTembnMKcrIOtR0SO8Hnooys6bOk2sSpx4s2JpEDSzqydFfwKHdysSgnKv9odRoz6ATGykJQDuK37mi7PTBcKGq3J15dsYkommVeO9ebfiG5JtkUIiR88qJoylWJp1RwU1HkIP6ZEwnpUehP4sXd9gA5+ATGIT8I0tkwFpjhTdMY+1N413DWZkdwRSVOaKesfrLcOsd77aG9v3LuYSCS6f58xbz58jLi505xdaE7OUNWNQtGSBI7cTJ5ya4pNiE1SVZKeMQAtq9vZgSQrizF3LtXWjnvpcsdwydeFETWSqhoam44cBSI9UzPG3HnCpCTIF9QlCK+zGT+/hkskgri4qqnTyGakmoWLxJnAGf7GbASBicWCuLiaJUuhVKC5Rfmw4dUzZzUHBSkqKjCBoKOft2eM+OzvDhMI1E1NsuLi5sCgujW/Ars1xHWQqLZ2NFfXqhkzGnfvEcTHK5nM/uWRf2NWrreCDmBEfTTYFxgREwq5166VGxlXz50nJ5PlFIqyqqr//8rUVX1qnMiv5i0JzP/mt4SpZ7IeUHWw9Og6Vo/PD2DEHlXU8gCGYyKlKL8xf2P6RvtQe8tgS5cwlw0PNjyqf9QR8bS06vGAIIhIaqR3jDcpiHQw9yBDyNC2Rp9aDtF+uz7oAiY+C1I8OgxF/QhAjUNFMj5SyzuCRTAfcrmChIRK73FQr8zOvm79BlVdXbuINALDmg4epNrZV8+ZAxVBWttOcAyK5lVnohuLke/HaO8/kb85euCHpM9//GAEdo9xz+G6g1Ww1bXSawJFJ1ZznMAjKBEjokZMuz0tsSpR7z98XCYDK52tXfWs2fzoaNaJE2Rzi6pp00WpqW1k7mJhCEScfXLWLdxtafJScjO5i6f0v4zL5E3791OsrJkrVnRK/vp6MSL4iBQKQWxs9YwZQJ7i6ck+c0bV2NR7dIJLJPyoKPr48cC2s2y59PFj/ZX4WlsSBCEtLGzYtr3C3QPM1cONKjw8mw76AeMgnw8O+heQunOMSBAQMiuVYny+qrZWmJjUuHsPfcJEspExmAzNLcCbPNKLuWp1c1CQvLy8K1MuQSBd6xS+VrW9wYMPYER9Fq8vMKKytrbR1xfqlvr66iPTm9AGJ4iSOsGK0MdfbU6YcCoj6elr5oHrU4yIE7gCUygwhbagp7+uIE7gcrW8mFO8MX2jTYiNeZC5Xajdr/d/zWnI6Q06bJkuQRDXSq+NujHKIsjC/7F/g6RB2xg4cROwybRJWHnhaN7/CTrwH7Tv32jP3wFHHvoGhc1BjwMRh4aUEkh5JnBEEIRSqaBS67duLTcxJZuaVY71FiZ0ic8UtIqaRT+UDzdq8jukamoC+eGbSgnO5Xs70eEh4Fw+/C26+TNiUVpmhxN4Jb/SM9LTPMh8a8ZWrqzLnOhqYfW2zG0WQRabH27myXktPehwQBDC5GQo0WRtw710GWIry8rqfl1LNjGt/elnZU3PNIcSlWRuwlzzIPOA0gC+3PD+O/HDhxD2Z2vXHBTUacDfa8eIGr+z7OnTuvXrKRaWFAtL5ppfZaWlHe1k2q8L8OyEhDyjYzRjrlwlLyvTvm2/fVJVV8c5e7bSexzFwpJsZEyxsq5b8ytk/Tc3a5BiG4yI44RKhcvlGI8nLXjMPnOWsXAR+ZkxUmO5p1hZV8+ewzp2TJyV1aPtVq1GDQ2opAR1Hxjcb1X3Zgk2gBH1Wa++wIjy0tLan36u8PBsDgrWR6Z+34ZAiNokWhtR9NVvCaOPP7xZWKe3scRQc+1TjMgQMvzy/PY+2kvn0w0l8CvoBydwjMA0KI1AhBpXU3iUTQ82WQRZmAaamgear0pdldeY1zorpfdSYTh2puiMR4SHVbDVuSfnugFSbcZSy9HjoA4Y8X20628o/QhqrkKV91HCJkgZ0SDFnc9yWYKmoLxLiFOB8Zr50TEVXqPKhw2nWNvUb92mYnPa9N/hpDkouGKkV4XnCMGtWwSOIQkb5V1GZ+wgk9r3XyhwIqpoY64jECFQCL6//b1ZoNnMuJn14vru4W8cPW5M9JgJNydE06I7DN7zBTWbzVy9hmxsUrdho4JKgwYEIUpNpY+fQLWxbdyzt6Nvt12n92rueUV5eUZ6FrIKuxe1XUNtTnGlsmHnToq5BXP1Gnlp5zipP2BEzVwgj/DceU0WLX3SJEgu0YtOBZdKOZcu0dzcyaZmdRs2aJUUr402+8cz4EC/dYsxbz7F0grSjY2Mq2fO4oWHqxobMZWKSqEUFhSopVJldTUvMqpu7TqamxvE3GsiZU1Mae4e9Zs3C27dVrFY2ti5EUJKJUpJQe7u6JNP0J49SCJpMVz2D4387qQYwIj6LGlfYERJVhZ9/AT6+Ani9HR9ZOr3bRhcic+N4iFbEj2PPAjLrcHw3lWtMMR8+w4jEgRxnXx9ROQIjwiPq0+vvnY0rKW2+Ap+FDXq53s/P2E/AXTYTNn8cLNFsIWm1PIv937Ja8yTqWUGRw8IIQWmOFpwFLgVQx2uPL3SqUO2/SyUEpR+GDDirg9fIsVDQ1DWKUBviIBvDwJDCjGqzkJ3twOY2/0R2vU+sfND2brP6iaYlRuDh4s+cZIoJVUbf6Kax69bv4FsYlq3ZrX8tj8KmPAMfX6IzjigggCkELX7vpKqpFsytpgGmrqEuZCbyRjeQ33qBnHDvpx9ZoFma+6vYUvZ7efb7TlBEIBpXN0qx4wVJiW1vHJgxAoOgYzdUaP5UVHd9oE2pW+yCbHZlbWrTlzX/ZN63IWYzmnTKLZ2vIiIrvBW/8GIALAVClFqavXMWRoKpKaDfpiOuRGYRML2PwlJwWakhu3blTW/R6ZbHIcyELm5LWSiUA7ba1Tj/gPUM2cer1gJSWBmpOcVIp79HqtZvIR7+Yq8tBRXKuHvrnXkRrcvVnMzOnkSffYZ+uMf0aBB6H//F02ciOhv0m/wbqfXL28OYER9lsXwGJEghAmJFAvL6lmzlQyGPjL17zZ1fNnWmyXDtye5HUoLyKpWqHr4snw1s+k7jFgtqN6Uvsk00NQ00HT1/dVviimxhF0y9dZUu1C7RUmLtmZsdQh1MA8yNw0w/eneTzkNOWKlWIecEt2XUKgQ7s/Z7xTm5B7hHlQWJFF1y5ep4b459A3a/SF6dFZddrsk0EdaGEUIG5Ba0RarEQjH4KKsGdU8Ut/e2bzSpdLmW/LwYVSz75qmfK067ESkHUKNJZ18V+E4qi9C5AREf4CkXITjopTUqunfU0jG3LlfETv+ho6bQAGV5qpnuSltfvbI1LLg8mCLIAtSICm5Olmb/A+CIFJqUibHTh59Y3RwmW7+BGlBQfWs2WQTU/apU8Dw17IRhLK2tsnXt3y4UfXMmfLy8pY77Q5qhDVjo8eaB5qn1qRqI2275t2fEgpF/W9byOYWdevWyykvffHtWvUrjAgwUa2WUyj127dD2V9Lq5olS2VPtSUjwwSCpoN+VEcniqVV0/79Kiazkxes3fzf2FMNZzvwRh0/DrZ5I2OyiWm5qVmZsQkk10MtmfGNe/aI0tJUbDawdSqVumqjrAwtX47eew8A4h/+APugQegvf0Gmpuj27TdWcf1e8AGMqM8SGRwjwm/9gMByI+Papct69AfpI/FrbcMSKXbdLjPbddfpYOrFh3SxQv1axXk5eB9hRIIgAksDPSM9NcUz3CPcLzy5gGv9W/mlfK/2iCvjXiy+SAokmQaYmgeZWwVbWQRZLL+3PLMuU6AQtOZq6SO5CEQ0SZp2Z+92uO4w5saYcEp4dx5tGR8l74QQwNN2SC5QySV3E24JeRyi6xRmQq2W5mQzf1pKIRmTTU2qxzqKfnPBd/wLOtn3CTo0BF0cgdL2I2Y+wp69ovQHKHAShBge+AId/A86ZY3ubsEjl7PmWVFNv2O4D5P4L4Uie0pJx1QYJabMqMtwvO5ICiSdLjotVT2vR9yj6tgy9vHHx0mBpOXJy7WnnsGl0nofH4qFZe3y5dKiorYQGci6pAUFjPkLKOYWdb+uxcTiTsW4UnLFKcxpQeKCSn6lwU3FopQU+qTJVAdHfnR0Nx9x/Q0jAkzEMFVTU3NwcIW7B9nElD5uPC8yskers5rDady1m2rvQLGxZR07rqpv0BUSdbpG/fwigWGi5OSq72e0JnHTOJcrR4/hR0a1TmrRaS5NTWjTJvTOO4ALNQCx5d8//hENH45+F0GeOqnkFT08gBH1UbTBMaKqvr7pwAGKtU3jrt3tP9/1EbAfteFJlPsTyq32JtvtTzlzv4InUbYxtrxWSfsII+Y15i25u0TjnzUJMDELNHMKc5oTP2dX9q7Q8tDchlyOlNPiCnyNClBgihpRTVpt2pWSK1szts6Km+V43VGDa80CzUbdGJVak8qVcQ1uUupmyjiB1whrtmVusw+1nxQ7KZoW3Tm3Nq5G9YXI7xvIIy66jghcpVIlJSUJBIKuFKtqbOScv0D3HkcmmVd4eLKOH1fSK4hmJiDCjBOABX2fgcUDn6EjQ9FFDxS9DB0zBldySx2XXR+g/Z8i33/L135SO+IbsvHwxh1b1E31HaeD4RiZS54UO8kiyGLN/TUChUB7yIUTeGZd5qz4WZ6RnheeXOhqOu0G5YVHVHqNojm78GNjcXkntQ1xmUwYn0BzcaW5uHLOnOnYrRJTzoqfRQoi9UVtFVwmq9uwkWxuUe/jo6A9C5RsN4EXp/0QI4JoOI6JROL0hzWLfgDuTDf3hp27uinJqKpvqP9tC9XOnubgyDl7TtXY+N8AEDVrqOZwJPn5otRUwb175ODgJ5cuC+7dE6WmAvN2g/788DU1aM0asBq2QMOWg7feQk5OSKrtr7AXr9rv7v/Kyj5J4hnAiPq8KQbHiPKyMubKVRUentwrV/URqL+2EclVR+5S7PanWO29d/wetUkof0GM0C8k7guMWMgqXJW6yjrEul1BXk06sGu466ioUZNuTvrxzo++Ob5h5LC8xrxmebP2GKI3ipOoJJRmyp3qO+eenNuUvmlOwhzvGO+RUSNdwlxsQ2zNg8xby+wR4ZHf2KZOWm+G1r4tRmA0Hs3noY9tqO2MuBlx9LhOwvgkbBS/HgDcldFIDhV6usGIhFIpTk9nrlgJRh1Lq9ply0X372M83vOvbVyN5HzErwGwmH0GhXwPNkWwLP77ZQ3o1qnTez4iErfxzh+r9BpVOWYsPzq63Y86giCYIuaKlBWWwZbTb09nCHQOHeHJeReKL1gGWS5KWkTjdYeoNFpVVFUx5i8gG5s07T8ADs1ON4JQs9mcc1DMiT5+vPjhw3ZPZdRluIW7uYW7lbBLDB5RILx7lz5uPNXZBTI/lMp2Q7c+7acY8ZmIhEIhLyfDj3lzC4qNbc2iRZ1S2CgZDMiJBno/N+7Vq2qtszFa6+GVHTc2Ip5eOfRdSUg8C0/EFQq1VEp9+rQwN1clleIKBaEJPeyqWRfXMQzyl/fsQc7O6KOP0ODBnWDEQYPAAe3tja5cQZwess66GOYNvyyToQMHkLk5WrkSVVYa+PfIAEbU5+0wOEaUZGVVTZ1GnzBRlHxPH4H6ZRuZEjuVWuHsd998T/KhO2QmT4r3K4SIkGExIk7g9xj3lt5dahti2xpsaY69orw2PNjw/4F9Y26MMQ8ytwiycLju4BnpOS5m3PTb03++97Nfnl8UNaqgqaBZ3tzdlzRBNPPoNx+fOZm5q5qZ3dHL2fIuEATBk/OK2EWxFbH+j/3Xpa2bmzB3UuykUTdGuYa72obYkgJJdqF2U2Kn/Hr/11Wpq1zCXEwDTVsktw2x3ZqxtaPBqaX/vjtQ4+oSdsnatLU2ITbzE+cnM5Lb8AdhSlSVjvy+Rgc+R6WxGjG6wojK2lq2/0lNLa/KMWM5Z88qKio6tbRBzKKMB5GFtXkocRPa+4+XeTCtMeKu91HyDhW5oGHbNnDdrvm1XXQdW8o+nH/YNtTWK8oruz67jeTaqQwn8Pym/IVJC13DXY8XHO9+CQi1unHfPqqdXdWMmZJHj7rKBdH4TBUUKnPNr0AQ/cOPqsZn9D0vRNqSscU62HpLxpYmaZvrL+7r/z8mkTDX/Eoxt6jfslVBr+q+o/6METXhiar6el54eKXXqGdoe0JzUHBr1Kug0ZirVlOsbSpGjOSFhqo5HAN/Y3evPl3uKpUoMhJNmIDmz0cPHiC9kra7G68N9013D3Z+TyJBycnol1+QlRX65z/BgjhsGNgL//GPNkjxrbcAO773Hjzw+efIxgb99hvKzUV9U0mxc1Ff79XqajR37vM8nr/9DXl5gd4MaFUdwIj6rK/BMaIgPoHq4MiYM1dO7jKaWx9BX18bpRq/mE73OJxmtuuub3xZFUfSHxKZ2+nDgBhRjskjKBGz42dbB7e3IGpQl3uE+6G8Q3Q+vYRd8pD5MLQ8dF/OvqXJS0fdGGUWaGYRZOEU5jTqxqgpsVPmJsxdm7b2eMHxGFpMIauQK+O+NKQJmOjRuezwqfNCnccG210O8yaSfFDD82I8alzdIGnIacyJpEYezT+65v6a+Ynzp96aOubGGNdwV+sQa7NAM5cwl1nxszalbzpddPpW5a2chpxybnkhq/BQ3iGLIIsWgKhxkXtFeZVxO+coaadJg58qMWVeY97K1JU2ITZL7i5JZ6a/hEoCJnAQ7v0nCpkBqcTPto4YEVcohHeTmStW0JycKTa2zDVrRKmpWn1nEzjQbvv+q3OMuPM9dHsNwaKK7t2rnjGT5uTMOXO2peiwQCEIp4S7hru6hLmEk8MVmEI/zQgUgqCyIJsQm9nxs0vYJd10AtQ248ZRrKx5oaGYoBN27tZtCYVCnJEJnHY2to2++1oAZYO4wSvKixRISqlJ6S4GtHVfWh8Lk5IqR4+huboJk+60KKqr1v0cI4LYOI4JhVDzcPny8mHDK9w9GrbvUD4jXZc/fVr7008USyswMEdGgjO6n/0qblF7UxPauxcsT+++i95/H6x0V64Y2KCoN0ZsbERBQWjWLGRigj78EJKXXV3RoUMoIwPdu4fmzGljSvziC3ThAkpMROvXA4gcNAhAJIkEsCk0FPVvG27Lauh5gGEwcTc3WMEWC+u778L0T59GGgpXPbtu1WwAI7ZShtaHhsWIuFzeHBhENjap/elnLetlaS3p63lQheGB2dVex9KNd97ZcesptUmk7gdMNx11YSiMyJfzzz05Nyl2kk2IjXWwtXlgG6etBnjZhNjsyNyhQXtqXC1UCOvEdZRmSkFTwT3GvWul13Zn7158Z7FXlJcmX8Q13NU72ntG3IzFdxdvfrj5dNHp208Dn9xZTzttcfrkV9bXjM2vGf9w4btM/6EPI2eEFvj75fmtub9mYdLC6benj4ke4xLmYhlkSQokjYwauShp0bbMbeefnI+rjMuuz37KeVotqGbL2FK1VGPlym3InZ8wvzVA1BxbBVttz9z+Epx11GBfXpGr5Rl1GcuSl9mF2q1IWZHbmAujqWSIHI/8voJUEuqdlvHbYURlVRXr6LGqyVMo5hb0iZM4Fy7KKdSuaja0dPLigECVqeBxbm0+bH2csBHxazAej33qFNXOnjFvniQzEyEkU8vu196feHOiw3WHg7kHe8NBjRN4CadkefJyx+uO+3P2v/yR8EJEzf9qDqd2+XIyybx+4yYg3tMiLwoTCHjXr1MsrSo8PAW3bmn6CSkLsQmxmRE3o0ZUY9jlxsVi5sqVZJI5ACktGBveAIz4TGWEUikvK2MdPky2sKRY29QsWdIcEsJYtOjZ+zZREBsLwQz9FSAWFKClS9EXX6C33nqOt/78ZwBYW7eirjPO2755WpzpihEJAj19ig4fRuPHo+++Q3/9K/rXv9D336NLl1B+PmKzobCKTIYePQL6m5Y9NBQ1N4PVsLYWQOTJk+B0/utf0f/8Dxo6FI0Zg/bvR48fQ8Pf2YZhoC4zM/SnP7XJ4xk0CPDi118DzhY9/wXdq6kPYER91GdYjKhqamIdOkyxsGzYuVObT3l9JH6FbXCciMivHev/0Gh7ks+N4tJ6gQrDX+H4OgxlEIxYK6o9mHvQK8rL8brj7uzdEZSIkPKQq0+vtttDykNyGnI6/QLGcIyv4NcIa55ynmbVZ8XR4y4UX9ieuX1R0qKRUSMtgyytgq3cI9wnRo2aF2i76NyQsZeGajCc/RWjGRe++/6y8ZhwN6cwJ/Mgc8tgy/Ex45clL9udvftSyaV4enxmfWYJu6RaUM2VcRWYoqMAOIHH0+Ndw107YkRSIGly7ORXkNHc1ZpJVJKUmpRFSYvsQ+3Xpa0rZhcjLh1FLoRgwagfgfjwxdaCETGpVBgXz1yxkubkDIX1NmwUpaRoZT580RX8L2aj46adF/rb9wnKOfesBjQhe/Kk9udfINVs5y4Fm1XEKlp8Z7FdqN3q+6sZQp3DEFuPjxASKUVR1Cj76/ZTb03tNDAUCBEvXqQ6OlaOGi1+8ADXsugEjqvq6hp37iIbm1RNm66oqFDhqtnxs0mBpAtPLoiUhvhWaTUTQXxCxYiRFe4eopQUbSR8UzAiTBHHVfX13MtXKjxHkE1MK0Z6abKeuZcvy0pL1Vxup4VkWunmVR+KxZD8GxYG/uUPPugEWHzyCdqwAVX1EA6grdjaY0SFAt2/j3x80MiRgFzffhvylFesQOHhEIzYrmK2QoH4/Jd7axhEEHD98WOY408/oSFDwAH92WdgJV21CkVHo99H7hCGgX00NRXt3PkS5bdk8PzhD4ARP/kERUUB33jvtwGMqI8ODYsR5WTyMwJ6d86Fi/pI05/aEAQR96R+4qnMYduT1oQVFtXylep+ChCRIeIRSzglWzK2uIS7jIgcceLxiQpehUQlESlFAoWg3S5SirRMEFbj6mZ5c5WgqpBVmFabdoN641Thqc0pqxdcd/O8PMz8mnFrMGd5zXjcpaErrpB8U9ZcKbkSVxmXUZdRzC5mCBk8OU8beEcgopJfGVwWfO7JuXb7heILMbQYPSLqDPhKipSieHr87PjZjtcdN9//lZp9HIyIJ8yAsLDVpsGI7IKCpsOHqyZPIZPMq6ZN5166LKdQOo8+bNW2k0OCQGkH0L5PXyY1P7cjvo9CZyBmnqYJLpXywiMqRoys9B73+OrhrQ+32Ifaz02Ym9+U3/skJIIgaDzaqtRVdqF22zK3dXx5ZCUl9MnATsw5e7abHNuOsyNUKllxcfXMWWRTM+aGDYWMLLsQW6cwp6ecp9q8MB077OoKJhTWLv+JTDJv3L0bSmBrsb1JGBEhQqXihYVT7eyhcMjQYeVDh9EcnRjzF9QuW869fEXVYLBaoyyWzpYwHAcDW2Ehio1F/v7gip0zB40eDWyC77zTxl3bGl58+imaOhVt24aCgyGqj8PR3xjaI0YkCOg/IgJYD52cIKzw3XcBz23fDnyHlZWoswR9Ld4hyGBDNBpKSIBklxEjwBX74YfIwgI04O+PnjzRWZlajdqXD6nVAHAfPEDnz6O1a9GUKaCxb755SRXZehEHDUI//GAwk/AARtRnYQ2LESVZWdUSnO6kAAAgAElEQVSz59AnTBQmJOojTf9oI5KrHlBZMYXMqWezhm5L+im4IL+6WdGPAWIvMSJO4OnM9JWpK21DbSfenBhQGlAvru8u10TfZVJiSq6MW0GLz7s++aD/Fy5XhpsGmLTARLurRmvOfF1yyrS2NEKkFOmH59S4WqwU8+S8djtfwTdIRWZ9p/68HV/Bj6ZFT7011TnEdmeIB+Pwl+jWKqRsw3WhFAgyffdVLFlKtbenOjjWb94sSknBmpv1/4rj16K729Axo5dFXPZ9AlnPlKSWIEioDFbNaNy1i2JpFT/DZfZplwk3J8TR4zrn69FdCxKVJI4e5xzm7B3tnVkH7uyWDQgRN/lQzC1qfvhRTib3SNfX0lBzAFQ4CYlUR6dyK6tb+5dZXDNdm/arnkWi23Xd6lQQF0dzdavw8BSnP+wxElHT7g3DiBgmzspmHT/BOnacdfQY/PtiFyYmtWEyb6UWnQ5VKhQXByjKzw9VVHTnZ1IqUV0duGIjI9HRo4Ak5s4FZ6u1NfrqK4jqGzQI/e1v4J10cAA7YmtUoTn+n/+B62+/jf7+d4gFHDkS0lm2bEFXr6KHD1F9vW5/TN1gRJUKkcno7FmQ0NwcMOtHH6FJk9CRI2Aea2oyWAINiwUO6DNn0IIFgKj++ldQxdixMKmEBBioYziASgVorD9smrLU6eno8mUwss6aBaGH334LCTp/+hNMZPRoyOn5z3/gtGU1Bw0CH31kpMFw8ABG1OdlMCxGFMTFV7h7MObNlz15nnygj0yvu00VRzLvcs7o4+nfbk1ceDU3u5Ir7x/FVLpRjN6+ZiWmjK2IXZC4wDLIcl7ivBhaTF/x12BqyLQtv43i1/FOkvxPfG531ag1RrS4ZvzjuSF1J81aB+d1M+U39BZXxr3+NGB8mJvrFaMDgc4N5TdhIgSBiUSqxkYFg9F49GiJ54gyYxP6hIlNBw5I8vO1jj7sWiU8BiSv3NkCKTK316Csk6g2pzVABBFUKnZyYvGE0ZnWw86sdr9UcNaA7loCEQwhY0P6BpsQm/UP1rcm4hbcuk1zcqY5OgoTEnA9khgJAuPzWceOlxkZZTmZf7/XOIV+V+8Mm041iAkENUuWks1Ijb6+QBCo3fZmYUREELhUquZyYedwnh88O8XEYl2Be0cNcTiQfODqCuDmiy8giDA9/XnKKkEgsRjK0D18CK7VI0fQunVo3jzADZaWkOH7zjtgZPr3vwEjTpyIfv4ZklQuXQKz4p07gJPeffelu3nQIECHc+agc+fQjh2AqJydwUv79ttghBs+HKxxCxYAtLp0CWBcdXXPfkwcx4uL6RkZTzHseVUtgoAIuYwMdPAgmjYNfMGDB8O/ixbBuLm5MKOOoK2jWnS9IpNB6N716+BJd3aGmX70EXJ0BH/0lSuotPQ5rSCOo4YGkGT5ctBSX2RGE0QPUFuthgcyMlBAANhTFywAzQ8dCrjwz38GXDhy5PMfDGFh8FhlJXicWxuGBw1CCxeCGdVQ2wBG1EeTBsSIhErVHBBINiMxf1kBUVNv7BbzmGm8485/fOJnXsh+QGHLlP2i2l736tQDIxKIECqFQWVBk2InWQZZ/pLyS2pNag9V47oXotO7OI74tYiWjDKOo5jl6II7OvB5xsGPF5z/tsWC2HLgcXlYwJnhKOYngIlSg3KddSrba7lIEKyqtKtXnUZdHuYW5nQi7zBXxiUUCuGdO/VbttRt2ECxsQF/37DhlWPGMtf8yo+6oea2qkent8zwtdaIOFTEq4YYxA6bHJM/eBJ7fq1XHmlY0eQxlfefZ4F0eFDPCzK1LKUmxS3CzTPSM7UmVdOLklkHnmJjk8bdu4F+T7/vVRyXVVelfz+yfOiwkPFGbHoZ/uK7XE9Z2zYT3LpFdXCs8BwBjDxaB0a9YRix7ZQNe/b0KdC4DBnyPOZMwwI4diwArEuXABRu2AB2vlGjII/1X/8CPPfOO2BVcnAAX+Qvv4Cn9eJFdOsWyskBVCeVvnxTrl4F5NFSs2TQIECiSUlgpxQIIGzxzh0YZft2ABzu7oBONP1/+y3y9ISLW7dC53fvgk9TInnZs0YJz3gN8W3b+KtXcx49gkjUhgbwIG/dCij2448hUtDWFsIEg4PBpmhw5p2OawFlNethXvv3A0L96ivIa/nuOzRzJtho79xBaWlo40a48uc/A4L094dEGUNtBAFaiowEoB8R0QYNa3BhVhYkYvv6wgOjRwMuf+89WNCvvkIeHujHH2E1AwNBSDq9jReeTodAghUrXu4PHgxw33RYN4lE4uDgcPPmTfUreNcgWBmvrq7Ozc3t/XBqLheS46Di+44WKooO8+unF+C9V6hZIkVRDX/2xUdDtiQ4H7wfmsNgcCUiuaofkt2006OuGBEn8Hpx/ZmiM54RnrYhtj4PfR43Pe4YKNZuFB1ONYikKh3lXkBxv6Iro6AE3L5P0Bk7PGJ+YPgEl2sv+QtbMKLVNeMVZ4dgez9Gl0eiu9tReRwSd+ZE0UGO/veolEtknWw89J8z50w8Itw9Ij0uFl8UiDjCxMSqyZMBHRoZ50+azFi/oX7LlvotW/k3DIQRu9UERmCFrMLVqavnHLKJnWxDtbFt2L6jRwKabrvs5GajpHF75nbLYPhBIlKKCJWKdfQYkPNNmCgrLu7Nh4ZIxt9ybNwD22FPjYezT57ChMJOhtfrEsbnMxYuJJuYNh04qGbr8NN3ACNq9N3UhBYvBotXC6eJpjzx4MFAFvjVV+A1fustgBHffgu2sWnTABTu3g24LS4O/X/mcn19d5awujrAmosXA/j48Uc4uHatPQE1QQDUoNGAcebSJQhSXLQIzFrffQc2yLffRl9+Cd7PBQvg1sWLADGfPoWsEaEQpaSgxYuJTz8l/v53YsoUwtcXrV6N7O1B4L//HTj8fvsNbHVa25f1egu7aCQWQ17LhQto2TLgU/zgAxDJ1RXQdksqzx//CLbYTZsgaUYLtoAuRnpxGcMg7frwYYiJHDQI3Ot+figvD2VlAV48dAjg3bhxyMgIQgLefRcU6+oKPwC2bgXNp6S0x4UvOob/CQLUWF//ctcye611J90cD9gRu1FOl7cMiBEVVGrdho00ZxfO2XNdjtdfbyjVeGp50964siUB+V//lvAfn3j3w2lbYkp848tvP6nnSQ2RVdWXc9cJI6pxNbmZfCDngF2onUuYy75H+yr5lV2RkugmNXwYc8GPWRgCns2ACZCW4fsvdNISMiTubkPF4XhTaXplwq7UtT5hXj7nvvM5/RXsZ4b4XLPbmrj4atpvWNhsqB23+0N0zhk6KYuF2iH4G2DN7VlXBI6qM9CVMcShIfW3Vx7JO+wS5jIyamRwSQCvMK965szyYcOrf/wx2f9kM5WqbGhQNTZiAkHvPX09Ckbn0/dk73G67rQ4Zvb9c9torm6Vo0YL4uLbG1V67KjbB5SYMrshe0TkCMfrjokV8ZK8PJqLK9ncojkkFJdIum3a3U01ri5kFdoHWu9ZZVVqTqK5uonu3tUnv6ezQQSxsRQr6wpPT2nBY53Se/9rMSKGAT0hjYays8HetncvwKmWILPWB2+/DcGC06aB+3j3bghWS0xExcWA8HQyBHO5iMl8uff4A0GlQgwGJCBfuQLYZeFCgHpGRoCr3noLEmkdHcHZvW0beD+9vMBKp7FT/ulPYJn785/BeT1lCtq3D3IvevHmdvbC6X5Ng9uio9Gvv0KMZmsNa44HDwZj55w5oOGQEEiyjoyE5OibN2GBEhIAEycng+f9wQPw+GdlQTBoXh4A0KIiAJdlZWAiLSuDh9esAeJGjUIGDQJn99SpgAuNjSGQ4J13ABc6OYFRc+NGiNS8exf8yP2BsmcAI+r+chnUjijJzmbMX0AfP0EQa2AvlT4T07GNXIVF5dc6HEj9j0/80G1JX/rETzqduTQwf3lwQWB2NVukJ4GwjlLo/7j2GFGuluc25vo89LEIshh9Y/TJwpMcWa9rLhMEkgtQfRF6GoPu+6KQ6ejQECjvcdwUBU5E8etQQQBqeIKUz3GAAlNwuNSGJ8EN8WsawmY0XJ/WELOkIet4U32+WNaMWGUo+zQKn4v8SVBE7rQNFAspjUHcCoT1d7DewxKKWeiBH9RKDhiPNzypFdXuebTHMdRhylUPyk4f8C+P9RZkZibevt1NveYehtD9NkvKOvfk3IjIERNvTgynhAsrKQ07dlAsLGuXLVd2VRBP91E0LZrlzftz9lsEmv8SPrv255/LhxvV/vSz/l7mZ52KleIj+UdIgWarbi2uWr2CbGLKmDdfXlbWG8OkRlqMx6ueMxdqA/r5AU2gLtsbjRH5fG1RGo4DSGIyAdulpaEbN8CstXs3WLbGjQM7U7tqIq0RjLU1JGGQye1JYXRRc2+fJQjwHWdmQtjctm1gSvTygozpjz56TtfX4sVukVxTVTk9/VW4lXWaHosFVr3333/peW+RWXPwj39AMOjXX4MBdfhwmKaFBUR52tsDqnNzA9vqqFEQ4jlhAoDg6dMhv2TuXIDRixfDvw4OEBvaUSd/+AN4/CdOBJ+7vz+Azt5kc+s0a+0fHsCI2uvq5ZMGtCMK4uIqR41mzJsvzXsNtXFfTkmvIzVOFDP5Y048/HJz/LzLOd9uSQzNYVSyxUyejCdR9k/e7NYT1QYjEogQKUUpjJRlyctIQaTpt6cHlwVrUYuCAPY+YR0S1CGFECHi5bgEDnkPrDJESUQZxwDVHRkGybNHh0H14Zjl6NE5qB2sFLdp1dKeIKBkXONTAJcCZhuTFY5B2FzeJRQ+D52yRns+Arh5ew0qiUIsMrBPv4kbroa4zIse6Ohw9PAIInCMwBgCxq57PhtWmxSaGRVam3GuhzY01564dYLWRDMse0tXChMrxTeoN6bETvGM9DxdeBoyllQqKGEyfjxUXjl/ofdIq/XQalxdzC72vj5y7RqjciNjmosrBPn1IqgeJ3CGkDEuZpxlsGU8PV5SWlI1ZSoEOPruUzU0tHmpWsuhzTGOC2JiyGakCg9PWXGJrnp4QzGiWg0GpCNHwPwjEHSiP4UCgttoNMjMuHsXskz8/cFiNGsWeIq//BLMbH/6E2CsIUMAf3h5AX3055+3IcAbNAh8kb6+7Z3C2ixLnz7D5QLNdUgI2BdtbMD81g5m/eEPMMExY8Af2g+3vDwIAeyI4QYPhkqAI0cCCnR3B/+vszOYS+3tYZpWVgAWSSQw6xoZAQn5d9/B8n39NUSFfv45+vRTyBn66KMuGWo++AAc0BTK86SZfqgZDftHZmYmk8nEXzjd5XK5j4/P2rVr5Z2xE/2hf07jDY1HJDCs+VoAxdKKuXKllvxh/Uf/BEJCmepYMvXLzfFuh+/fflJnsvNOKpnVz/luWiuwR4yIEzhHxomhxXx/+3urYKuFSQsTqxJ75peR8wHk5V9B93ai5J0o9xL4kaXNAPu4FajyPsq5gG4sRidIwNJ8aAi64AZIMeMoYmQCstQvBeHlxAiIR3wchCIWotN2aO/H6MhQFLMMUnSbSg3R/8uRXsWRsB4l70C+/wa3O/t5pUq1TMq4E5PuYFxkMvzsAsvMqvuBTwNHXB9xsuBkb6qbaDkdFaZ6yHy4KGmRw3WHXdm7qgTPSYfVHA7n/HmKpRV90mR5aamWvWn5mEjGvxj12z3HYaVGw6n7tmOdfTpr2ZWmJExcZZxZoNnY6LF8BZ9ABD8yiubmTrWx5UVE6B+YSBBqLrd6+vflRsasI0f06OdNxIhCIYqPB/vfO+9AHsbFi5Ag0twMIWilpeCCTEyEbIP9+yEjdexYcC9+8AHghv/9X4ARRkZgZxozBs2eDQFwZ85AQGFJCQT2bdoEoXIteGvQIOTiAt7efrsRBHiihw9vj7cGDQJTnJ9frz/b+mbmfD6oXUMP1KLtwYMhE+j2beBTLCx8Hj6Yng7O5eRkcB/fugWu54gIyDUJDISJX7gA/fj7A/eQnx941XfvhoQSR8eXi9i6/ylT4FXp59uAHVGfBTKUHRETCiFhxdgEEla0Tv3TR+I+aKNU4xk0juXeZKMddwKyqskNwvEnMx5VcvszaXY7NXSPEdW4milmBpQGjL4x2j7U/peUX/Ian5Mnt+unzalcgEoi0TVv5Pvx82Jue/8J2SdZpwC3xa4AC9/uvyG/L9EZexQ0BaXuhcpvUHe4la2xTY/6nsj4IEnUjzDQvk8gxjFiPoQ8NpaAj7u3SFRfqXRqh6tQ2S101hFIs3POaWQm1Gp5aSnjhx/KjI2zZo51O0uadmua9w1vUiBpVNSoEnZJn5oScQIv45atTVtrH2q/MmVlQVPBywkRhJxMZixYSLGybti2vTfBgi/71BwRhJLDrti2qXTYsEQ3o4iH51TqXsUPsKSsVamrrIKt/HL9no+gUDTs2kWxsq6aNFmcna0lnWE7OQmVin/jRvlwI5q7h5xK1SMk9M3CiDgOQPDSJeDe03DUDRoEOSUbNqBjx4DTbuZMZGcHabxvvQXWtb//HdJNzMzARzluHGSw7tsHCCMrC6gNO0YTlpZCD05OL/ezZw2ZbNtu+QxyWlMDDtZ2psS33wYQbEBCFoOI2rqTggIwFrbOEHrnHcjm6f3HpEwGQPO999rgZk2WekyMIROQW0/HgMcDGFEfZRoKIyro9PpNm6j2DuzTZ/SR4/W1wQmimiv54VreN78lLLqaJ1NifKkytqiugS/r/+nMLWrrBiMqMSWNRztecNw5zNk13HXzw810Pr2lYdcHBHiQL3p0Uup31wdo99/R/s+QvwUgyDu/wZOvgKpGKUHkBHBhn3VABz5H+z9HIdNQwTXUWAw+a6JtFRxMhaTNhLCpTzBr11rr8g6fgRLWo73/hPp7vGfV7XBcWVvbuHcv2ci4YsL4svTYWfGzTANepnufKjzVLDME600XMtWL6/c+2usc5jwrftbd6rvtjMq4RCK4HUe1taO5uIoMZ/DB5XLRvXsUS6tia4uffEwnRo9nipjthu5C3k4uQ7ZKU6F9qL1LuAuUN3yxKWtrGQsWkk3N6jZuVNAqCF1LaBKEqrGpaurU8uFGrOPH9WFthCRNgsvlpqSk9J4y4sW0+up/TdLDpk2Ah1pjixZD0bvvgiFqyBCIL9SkHm/YAOkISUmIStUKHBAEqqkBaEWlwk6jQQxi/98CAsA42uK61RgRDx40AN7qu7nz+VDg2Mrq5e7mBunhBtkaGyFUsfVLMngwlKU2dNyyQYRt38kARmyvEW3ODYURJTm5NYt+qPQex4+O1mbc/vOMQKa6nEH/6rcEp4OpRbX8/iOYTpJ0hRHlavkT1pPtmdutQ6y9orwO5h7kyLTj71BK0a0VgGmel257r82B39foxhJUehOJmnSS0wAPqxWInoZurwab3IEvoN7xlTEo5zxqKAYnOKYiZBKcXYOVP5TFn5eEHlJlhuHMElzA1jWezACitnSBqcA/fsoanbJCjwPhMkFgPF5zQCCFZF7hOYJ/4waGYw9qH5gFmmmYgEwDTL2ivJKqkir4FXXiumZ5s1QlNWDxG5FSdOHJBa8or9E3RoeRw1qTWrdIraqvr9+8mWxGYixYqNYxY6OlkzYHOK6orGTMX0A2NSOvWDouaoxpgOmlkkudjt6mYRcnPDnvVOEpiyCLH5J+aJeYL0pJoXuPI5PMORcv6UrXisvlvPCI8mHDaa6uSkaNfpQh/RwjQpqZHKrl0mhg/NuypRMfogYj/uUvkMewezfkwxYUgOv5RTRXF6vyO7rMYICX3NiY+PZbxTffyI2NiYULDVYaru/0JJGAkC17RYXBQK1cDj8MjI3b7PHx/SJtuUd9DmDEHlXUyQOGwojC+Hj6uPGMufMkWdmdDNNfL6kwPIfOdTyQarrzzrF71P4qZs9ydYoRJSrJQ+bDn+/9bBFkMfHmRN2+jBufAnNNpwBx53vAX1hf1LNYffcErka1eZDvfNYRmBf3fozOu6KM4xgtW3r/tuDwMs7c7yqth1BNv6v3/lLwq5Uw4JCCUt534vTQM7cSCpzs+TvQg4ugUAcuk4nu3q1wd6fa2TcdOEhgmApXxdBiWjCiBilaBltOjp28Lm3dqcJTcfS4J+wnDCGjUdLIk/OkKqkaV+tXTFmJKeMq46bETnG47nCy8CRb2jnBLqFWSx8/prm5U6ysuQGBRK+hAcbjcS5eLB9uVDlqtJhSFlQWZBlk6RXlBdRLhM7cRgQB5bmn3ZrmeN0xkhLZbgkIgmCdOEFzcq7wHCFMuqMDFQ6OK+vq6BMnkY1N2P7+hFLVrmctT/snRlSrwYBXX/+cx2T7dshj0JAXvvtuJzBx8GBwMWdlaTnp3+FjbDYqLcUTE6ujo8ufPsXq6gyGt95QZalUqLy8zf6mBJcNYER9XjnDYESCaL4WQLW1Y65araA/D3vXR5pX24YgEIMrWRNWOGRL4vfns4UyPb8MXq3UnY/WDiMSBKQwx1XGzYibYRlsOSt+1q3KW7p9DdMfoEsjusSIF9xQdZuqu52L1ddXcRzSolN2A5Pigc/Rnn8ofL6qn2pOMR5aPnRY+bBh5OHPD2hWJs2+K/panM77x1WQ9HPcBOBsSRTYENVqaUEBY+5csrl57S+/YHzItGiWNU+OndwOI5oEmNiE2NiH2luHWJMCSZZBlmNujPkl5Zej+UdjaDGFrEKmiMmRcQQKgVQtVeGq7iGjElNyZByRUlTQVLAgcYFVsNW2zG00Xne1rjA+n3P2LNnUrMJzRC95cAiVSvLoEc3VlWpnz714SZNlP+nmJLNAsxOPTwgUgs611/VVqVqaUJVgFmjmHePNkXZiHVfz+cxVqyjm5rVLlsiKirSMKcSlUl7o9WdGRDdVk76lX/qTrxnHwczT3AwOwdxcqIk3axZEEw4aBM7lDz+EdBMzM2C5e+edl35VjRHxrbcga4HL7XoZ/gvudFOv+b9g9r+fKQ5gRH3W0iAYEZfLWYcOlw83ati5U7/YHX1E73UboVwVllszZAt4mdNpnZtSej3IK+qgNUbECbxZ3qzJULEKtlqavDSnIUcHOQgcyYUo0x+dMO0CI76Pro4FDpr+szVXQa2/8674ro8lv3xUN+qL8mHDaBbf1rh9STEeSjEeWu/9H6WvxeshzWGVocgFaM8/UNw68IY/87c2bN1GNjKu+n6GnAxqVGCKW5W3WurNtD5Yk7rmSP6RTembpt+e7hHh4RTmZBdqZxVsRQokkQJJbuFui5IW+eb4hlPC8xvzGyQNfAVfrBTL1LKOkPFRw6PFdxf7P/afnzjfOsR68Z3F+Y090VQRhKq2lj55CtnUrGHHTv1JaghCWV1dt3492dSMsXCRJgmGIIiYihjbEFuXMJdSTmk7Z3GPLxdTxNzwYINdqN2eR3u6elhaVFT9/YxyI+MmPz/gW+gxbp8glAyGxkkNodW9MJ32tR2x+zpcBAG1SSQSgIY0GtAWrl4N/CbvvAMpKX/9K0DDL79EkydDSkp+PjysVgNPzdtvv7QmDh4MFZNzdPnw6Goh3ujrAxjxjV6+FuEHMGKLKnQ4MAhGVNbW1vtspljbsE+f1mHs1/oohhP51TzPow9Md93ddbuU6PHL47VK2+PgSrUyMyeTSqeq1KoGScOR/CNOYU5QZC/dp4Jf0WPzlw/gGBLWo0QfdOgbyFne9UEnMHHfp1Ber12OyMsuXt9RQwkWspg7899k46EVVkN4c/6t3vwBe+qnZCOAiazvh+CU1FctNo6hrJPo8Lfooick3CCk5nI5586TjU0qx4wVJsAVhFCzvHnarWmtE1ZaohLHx4wvYoFbHydwlpT1qOFRUFnQ9szts+JmuYa72obYWgVbWQRZkAJJZoFmtiG2M+NmbsvcFlAakF2fzZKyJCqJXC1XYkoFpliXts4mxMYy2JIUSPKO9k5hpGiTN43L5cK7d8nGJmQzkrSwUD/YhIvF/KiochPTihEjxa3CUZSYcmbcTFIgaX/Ofq5MB2sVRmD5jfkOoQ4jo0bmNuR2887xQkIqRnpRbe14YWE9/oLFRaLmwEBIZ/Yc0csQzL7DiDiORCLw/7YuW6zRAI4D2pNKwfKXkQG5xl5eQGs3eDDkI7/zDhzb2kKMXWIiwMfWG0EAGco//wllRVp2f///diMi/OnhOJVKLSwsxDombLfW4MBx/9bAAEbUZ30MghGlBQU1i5dUjh7DjwJX2hux1TRLt8SUfP1bwuTTmZx+X0alR5WWsktXJq08kXsivTbdJ93HKtjKKczpUN4htkwX+yiBo9pcsBHu/QdkqwRPA66ZXR+ine+/QIrvw+nVsYipBXVOj0Ib+gGiiSI4sZZm8S3V9LumCZ8R2yHPBvvtA/a0T8HvbGzM2vITrny1JXPqC1Ho96DP5B1IISYUCkFsLNXBkebkzDpxQvPLhEBEo6TRI8JDYxoEtBdg1nLsGu6aXZ/dMfOXQIRQKSzhlNyg3tiXs29B4gLnMGdSEBgXzQLNTAMhP9o0wHRczLh1aesuFF+4VHzJPcJdAz2tgqzCyeESlbbl7zCBgLlqVflwo+pZszGpVOd1IwhpYRF9wkSqjW3j3r3tfo/dZdz9/9J8tiG2hU2F2mBWzehcGffsk7PmQeaLEhd1b4AkFIqGHTuBCmfKVPGDB+1GbzMXglBU0itHjaZYWnLOn29zS/eTPsKIGAZ15GbOBFbC+fOBgxrHYccwQIcVFejqVSiM8fnnz+th/PGPgA6/+goeDgyE6hfd2EYJAugMCwuf70VFAEYHtgGM+Pt4BwYwoj7raBCMKExMpE+aXD1nrjj9oT5CvPI2UiUWXcAcui3J6WBqfHHDKx/fwAMSBHEo75DTdSeXMBfHUEezQDOvKK+A0gAxFDjResPUUBbl6HAof3fMGKrnSZtRXQGK+gEoCTXJK/v+DYVPanN79tlpPawBHxSn3aue4k02Gsoc+R+1z0sLKPbbB5xpn5YPHfNTQJIAACAASURBVEY2MgYqk96RNusgMI6h+/shpebaOES/jwhC/DCjauo0irlF3foNWKuvX4zAmCJmCaekhFNS2Fh44daF7OrsYnZxCaekWljdTS0cAhE4geMEjuGYVCWt4FfE0+OPFhxdlrzMI8JDAxNNA03NAs1aRzp6RHg8ZD7sPnix9TQJDJNTqWQLy/Jhw3mRkboSoKrq6pr2Hyh/5ltXNULKTusNw7HFdxZbBFlsy9zWKGl/t/WTrY/JzeRZ8bPcwt2CyoJaX+/0WFFdXbN4SbmRcd3GTfKuqe0wPp97+Ur5cKOK0WMwgc7xke2G7guMqFCAqe+7755TGP7pT0DynJICrHXr1wMxzV//CtBw8GAIK/zwQzAiHjwInMkiEYBIHO/5D5cg4JmWvd2k/jtPBzDi72PdBzCiPutoEIzYHBBAc3Jmrlotp7wZqcH51c2TTmea7rzjc6NYpSt3mj5q7ts25dzyeYnzTANMNfv029Pj6fFytVx7EAB19qJ+QAe/AIAYPA0xspFKDlTYOAZFlhtK0NNoVHIDcpmVErjY/zY5hVK3YUO5kRHD5WvZqo9eGD6fU/ZgWz7kzBoCMNHUjHX8OCbR1oTWq4kyslDAeGDneeCHVFJ5WXnd2nVkY5OaRT8oOtBREMRztKdQKhISE3gCHoZjGvynvQw4gatxtQJTyNQysUrMEDLu1dw7W3R2UdIiq2CrljBH00DT00WntWVBejY8xByf8IdMDncPSF7pxhjVVlwwncYnUGztKkaMAGKszoI6Muoy3CPcbUJsHjIfKrUoyS1Xy+Pp8aRA0qSbk+rFWtREw3FhUlLV5Clkcwv26TMYvzP8RxDycnLlqNFUW1vu5cudytl2Zj2cGRwjcjhQ7uxvf2tT1G7wYMCF774LBeI0JkMLC/Trr1A5o6YG4hEVik4YrXsQfeB2Ww0MYMS2+nhTzwYwoj4r13uMSKjVTYcOlRsZN+7ahfHfAH7BWp50b3zZt1sTp5zJrGDpYmnTR8F93oYgiMN5h13CXDQIwD7UPrA0sBvLUycC0ZIhL9j3Y7AXpu5DzXSEtU3xxjGkVsCOqztp3g8uqVispsOHyRaWVWM9hdvHEdvfb+UffwETt/2TvWVp+fDhFAsL1vET6l4binqYt1qB7mxBBz5DIdNRzSNVY2PTocNkknnV1KmilJRucmxVKlVSUpJAIOjOK9rD2M9v4wSuxJRSlfSnez9Zh1i3xoiTYydn1enCaEIQaja7ctRospFx0/4D2temkxWX1CxeQrG0qt+4qatwQCWmXJu21ibEZn3a+hphTY+TqxZWb8nYYn/dfmfWzo5e+E6b43I5+9RpmrNL5egxgpibHXHT8zhRE1P6pMlqbttIvU577OmiYTGiWAyVkdvVWGvhuP7DH6C0xunTUGyNxQKroUKhPYzvaSb/9fcHMOLv4xUYwIj6rGPvMaKqqaneZzOZZM4+dbr3DGr6zEGXNnIVdqOAabU32dXv/vWcmjeokkpXsyQ3k+cmzG3xJJoFmu3L2dcg1saBToBRMGUPOjoM0lPO2KOyWCThIN2Z6rqS7dVcx2Uy7tVrNBfXCs8R3EsX8Zoi4E08+MVzU+Luv4ED/ZwL2vk+tvMz9vqZZBNjipU1wMRmXh9KWHEPWCQPfomyT+MCLjcgkObsUjFiJPfKle6d3QbEiJrZFbGKPCM92yXEmAeZnyo81RUzYqdqITBMmJBANiNRrG0kOTna5Dir2Rz26TNkM1LVtOmyJy/roHTsP68xb9SNUTYhNolViTK1rOMDLVcIgsiqy/KI8PCO8U5jprVc7/EAKMF9NlPMLWqXLJXmtQ2oJQhpUVHl6DFUB0futWu9NyI+Y0k3WJ0VgoD8krNnIZWkNS7UHA8eDB7n/HwkFneEvj1qZeCBnjUwgBF71tGb8MQARtRnlXqPEWVPimuWLK3wHMGLiNBHglfbJr+6ed7lHNOddzdEPuFLe1Uo9tUK3vloYETMP+wc5vzSRBRgOunmpAT684TZzptBqh6GmkpRyPcQLbfzAxS9DNUVIqXUIN+OXQ7aFzdwXBAXVzVpMtXWrnHffhWbDUZQMQuCJvOvoezT4CJnU1FTGYpeCiksOz9jrxhLMTWm2tqxjp9QcTrh1TOAmEoJpH7v+wSFz0e1BcKEBPqUKSChr2+PNT8MixEJgtjwYENrR7PmVTENMJ12a9pDpm4BxLhUWvvzL2QT09ply1VNPZTYITBMlJxcOXoMzd2dc+FC91GMCkyxI2uHfaj9ipQV3VM2cmScc0/OWQVbLUteJlLqkFJB4LgkJ4excCHF3KJx925V/UsntZrFYvufJJuRqmfM7HGBtHw9DGJHVCggicTXF7m6ok8+aVMDrTVYPH4c9bVZXMtZ/y4fG8CIv49lHcCI+qxj7zGi8M7dqqnTqmfMFN/X4Te9PrL2uk0DX+aXRDbanjTtbFYBg0f0usPX3gGVR50VP6vFiKj5+rcIsvB95Nsg6dqUqJSgolB01gmSlw9+BUCquarf+pG7V7IkN7d26TKKhWXd2nVyKhXhL1YVVwPLo4wHtlJNYCWvCjh9dn2g3v4Ze4kLhWRMdXAEmNgT1ulegM7vlt8Gy+Xhb1H+VemjjNqffqZYWDJXr5FTKD2icMNiRBWumhw7mRRIavkV0XLgFOYUWxGrpa+2ZZqyoiKqkzPFwpIXEYmJuwvVkJMp9Rs2UiytmKtWqxq6fhtfdF3MLp50c5JdqF0kNbIb8FfMLl6UtMgz0vNKyRUdIm6fjYLLZLzrYZVjxtLcPVoMuoAdc3MBy7q4NgcF9bhAL+Tt4f/eYESCQI2NKDISLVqETE2Bj+YvfwGm63HjIGG5XbXcoUOh6prWAaI9iD1wu6MGBjBiR528iVcGMKI+q9Z7jNgcGFTh7sFcsVL+tFQfCV5VG5Uaj35c53YozcXv/uWMKoUKf1Uj99U4BEEczT/a2ojY8vU/OXZyPD2+k4FxDDVXo6TN6IQZ2v0RuuyFqHeQlGuo78VORuzLS8qqqvotWyiWVoyFi8QZmT14PwkCCZiQaOz7b/W2T9kLrajmRsBBc/yENghGh3nIeGCX3fdvFLNMmZ/UuBOIVxjz5osfpPcg4bMxDIsRCYJIZ6ZH06KjqFHt9sSqRKaIqSvMIpTKJr9DFEsr+uTJ8vLyrsJLMKGIe/Uq1d6haspU0b17XT3WWqsKTOGX5+cc5rz4zuKnnKetb7Ucy9XyGBrQbs+Mm0nl6ZMhp2axWH6HqLZ21TNnCZOTEUKqxkbW0WMUcwvGgoUqFqtlrF4e6IcRZTJIQ96zB40ejb79Fr33Hnr/feTujg4cQOnp6PFjtHNnm1IogwahI0fAyzyw9Z0GBjBi3+n2VfY8gBH10XZvMSKOs/wOkc1Ijbt2qQ338arPTHpqU1jDWxaUb7rzzvrIJ/X87gKeeuqpv9xX4+plycssgixaoGHLgcN1h0sll9oX31NJUeV9FDoL+X2N9n2K4teDf1n9pjrcMT6fdew4zdmFPmEi/0a0pnRHz2sjakRZp5DfN+qtn7DnmFDNh9NcXFknTijr6npuq+UTxZHolA06boJlXuL4H6O5utG9x/HCwnGxVsnUhsWICCElphSrxB13mVrW/g3RboJKBqNq6jQyyZx15Kia3RkBJ0GI0x9Wz5oNEPzo0dYsP92PUM4tnxk30z7UPqA0gCfvJFq0SlC1I2uHw3WHXdm7tMmA7mQ4HJeVPGWuXkOxtKpbu1ZeVibOyKgcM7bCw4MXGmrAH0u6YsTaWnT9OlqyBOojf/IJpCoPGYKWLUMhIcBWyGKBpVCtRnQ6Onmyza5Llnkn+hi41KMGBjBijyp6Ix4YwIj6LFMvMaK6ubl+kw/Z1Ix9+rQ2NhJ9RDREG7ZIceQuhbT77rSzWelUNt4ZAYchxnmlfeAEvvHBRpsQG+9o7/2P9u9O3H0k/cjlkstXn14NI4eVclsXjyGQqBHlnEMXPSBI7pQVyjkP/uU3diOUyuaQUHAaurpxzp7TLYZMynlWQNlU9dsn7Jnf0SyG0dzc2cdPKGuZBtCHmAUxiL4fE7Gr+BcP0ydOpDk5s0+cUGvt0TY4RjTApNp1geO8sDBgAvfwBFZqRXtacmVNTeOePRQr69rly+Xl5e1ad3OqxJSnCk+5R7jPS5hX0FjQLrObIIi02jTvaO9JNyfdqb7TTT/d38IVCqDCmT6d6uRUt359w7ZtFAvL2qXLOnI3dt9P93e1xIhSKVRM8fWFsnjGxmA4/OgjNHIkXElKgjJ67WiaMAzx+W32AS9z9wvR+7sDGLH3OuwPPQxgRH1WoZcYUV5WXrt0Gc3FlRcers/wr6SNGiduPakbcyLd8UDq2bQKsaKfErjoqowGScPCxIWWQZb+j/0rmivuZ98vphbzZDyBQiBWiVX4C/4aTAm8hgkbkb85AMTQmYgcj2RvAEtRNwoRpaRUz5pNsbFt3L1HQa/S2fwj50NE5hl71W+fsr//P/bOA66pq23g1c/27W5tta21vq5aQQURZLkQB4gLQRx1tVq11tFqtTiqBfegivtVtAoyFBEZsqfKEtnICISQQAKEJISQPe695+vhaozMJISl9/zuD25uzrrPuYR/nvOMEaUTRpOnW0NMrKhsY1C13sr0hPv45ycI/9lbsXolaaJp1d690pIS9WfYCxixMaMgfctWGAz899+lVKqqZFCJhHv7Nnn2bMrcefWaB9wu5Zb+GPmjha/F5ZzLTdyuORKYW8XUx3Rr/FbNEgipzq/xXFFXx7l2rXSaFWmiaemUKeRZs+EnmE6/OrbNiBgGqFTg6wt++QVYWUFbw/ffh+7JGzaA69dBWhpUHBKJ35qtW/dcIBixe+Su61EJRtRGoh1kRH5cXLnTkvLFTvy4eG2G75I2zxi8Lb5ZBi5R2+/klPX+gIhKmXkVeFn5WzmGOGbUZEjl0vT09PLycrSJVkHMBQVBwG85ODkchoCJ3g/oGUCJj8q+etWJuKAAAorJRPrWreLsbEyhFfTLhDAw+LWZ8r3f1C4eWjrhO7L1DNbZszIaTXth8OjAZzE4/KX06pqqTatIE00rflovTE3TSMXeKxgRACB49BgGi7Gw5N65o5qVBGbm3PgzdOI+dFgLzZwCVVzPvz4rYNbSB0sf0x+rutRk12ZvjNk48+7Ma/nXmqgYNVoyVCpVcDiC5GT6b9uLxxkUGxhWrF0nys6WM5nqWiyoMR6GYUxmXUBAkuLV51MkAo8fQ/vCpUuhP8oHH0CXFFtb4OoKgoNBSQnMtkyUHiUBghF71HJoPRmCEbURXQcZsc7bmzxzVuUvm8W5udoM3/lt6kUy99gS0yOx9heTowpqXoOAiLjMqoXVqyNWm3ibXMm9whFzFApFU0bEUMAhg6QzwGM6OPYNuDYTpHuA+g4AUOcvljojyGtqalwPlphbUJct48fGouIOmJYqJKA4HHjZy/b9t9ZxCHnCKPKMmR3CxNRL4O/RyKkJtb86lU6aRFlozwsJ0RQ7egsjomJxzdFjJeYWtJWrRFnZuFeKgs2udXMrsbCk/fCDMDVNO81cOa98c9xmc1/z0xmnlZE+pYjUn+Q/9fbUNRFr8ln56jwqrdWRksnsK1fo27dDq8oxY4vHjiuzsWXs3FVz6JAgRZO44q0NAKDtYFUV5u4usbevDgxE5HJ4hUKBFofbt8Ot5K++gq7KBgbgp59g4MOkpOeZl1vvknin2yRAMGK3iV6nAxOMqI04O8SIGMY8dYpkMrHaxVWuQ5N/be6j5TYohkU+q1l4Icn0SOy5+FJu7w+IqLxPzwLPKbenOIY45rJyEVSO8KqexQcwchNRuImMAbkIUJNgiD73cdBDJWAdIIUDqQbB5JQD9agTVCRiX71aajUdbg76+SHcFtwaNJswIgfkOHB7hezP4bUO33QIE+vKwQ077NBX3B3WZdPMS6dOY3t4tOzS0eYUewsjAgAkhYW0FStJxia17u7ymhoMQXihMFYl2XoG58ZNTeFYKRUUQ32LfOcEznEMcYyhxeCONVQeFQ+geDjtcNtBtpX9tHYiK6fW3bpVc/Bgk6P2jLvwaUZrrdS/LpWCnBywaxcYNQr7z3+AhQV26BA4dQqsXg0MDcE774Avv4SKw717YXSbkhKYE4UoPVkCBCP25NVRf24EI6ovq5c1O8KIiEDA+OOPonEGrEuXOqTOeTkdHZ+RawXb7+QYuERv9csuqGrQce/d112NsOb7sO+NvY2v5l3l1uSBvDtYxG6Oh4PAeyUWfwTkB4Cn12EKuBNDwYWJINYV2iP2tuwpzaWLNYbLLps3v8TCEgasUYmB3LyyBldQFFCTQeAG2f5vax0Gk41HkWdqrk3EUPDIDZwcIfjtO+qsiaSJptWurlIKRYNpvKjaixgRIEjdTU/ydOuyuXMbYmLE+fmM7TugCeaevVJy2Ysb0uZ3ZUPlzoc7zX3Nj6QdqeRXYgCLocU4BDs4hDi0Hx++vQExmUzB5cpra5scCja7459j9fUgLAx8/z349NPnQWr69oX5Ufr3h/mUDQ0hKZ45AwPZ1NcTQQ3bW6qe8T7BiD1jHTo6C4IRtZFgRxhRWlZWuWFDibkFzLCiU3Nvbe6kWRuhVHEpgTzpeLzd2cehuVVypNcHRFTeoleBl4WfxaLgRQVlUUjcQXBuAkym59KYmPjIl9Bt2d0AHP8vuDkPZNwADe2HL1b23JNPRFlZ1JVQa8X4w1laWqrLf7AYBhiZ4MF2mYv+c0zUdNOZVQKuWEl3fU2fb0QyMqz4+WeRtoaSvYkRAZBXVdN/2w4XZecuhrNzqdX08sVODTExbSSkVucZwzAssDRwYdDCBUELQstCWSLWhewLZj5mOxJ3MAS6i1KkzlQ0qSMWQ2dkKyvQr98rUQzxnCj9+oHTp0FZGQxhQ5S2JYCiqKLHFJlMRiKRsrOzpVJpj5kUMRHNJIBhGMGIbf/RtfxuRxgRhkBbspSy0J4fG9dy7913FcPAwxKWw+UUo4PRp2NKmA2S7puLjkdmCplLHyw19ja+lufBSzgC/h79nA5xRsR/uvYHXvagNBbIO2Cup+OJd6g7GZ3O+P13GC579WrR0wyNvEDUHbi2CETtkx00fGXTuaKi/eYoAmIPIq5DmYuGlxiOxv8itNZI9S5GBAA0REVRFtqXmJuTJkwosZzEunRJweG0L7T2alQLqvcn7zf3NXd+5Hzj2Y3VEaut/a098jxUvVja66Or3xcIgIcHjHrdp0/TxMp9+8ItZjJZl19tuvr2umQ8hUIhEAg4HA6rxxQmk1lQUJCdnc1kMnvMpIiJaCaBuro6sViclJREp9OVnp0SiWT37t07duyQSFoghLe65IHXeBChUGhpaRkUFNTEG07jjtRr0BFGhFmtbGwrN0KViXqjdV0tRr14hz/cZd5wKyOnosNWa1038fZH8izwNPUxtQ+yL61MQa7NeKlBVGXEg5/BZCoSXvvd9YYaSEND7ekzJaZmZbZzGiKjtDZ0a/9e68pBwlHZEZPnLizWM2rd3WWV7QXEYRZg7ibcVd+UTvgO5nPz9lZ0wFCydzEiJpPJq6qq9v1JmmhapD+mYv0GQVISUl+PCAQd5/iI8ojFoYun+0+fcXfGeK/xa6PWZtZktr+I3VojJQXmVm7OiP/5D/j5ZyB/EZCqW+fYcwdXKBRcLpdGo1Gp1MoeUyoqKsrKyshkckVFRY+ZFDERDSRQUVFBJpOZTObDhw8JRtTs778jjFjr9neJuUX1gb9kNDV0LZrNq0O1pQr0elL5lBMJ090S72czpAqkQ931mMYYwFgi1qLgRRNuTbief51fGgXOjm9BiYjD4t0fAYvUY+au/UQwubw+MLBk0uQSy0mcGzd14KfS9lwaqkHSWdlxi8aAOKPI060hJrbhkoXIQfgfwm1DKWajSMYTmEePddBQsncxooRUwr3jz/jjj9IpU4vGjqvY+DPr8mX2teu80ND22brthQCALWYfSj1k4m2CJxDambhT6ebcXtPueV+hgAGx581rQYn49dcgN7cHmuR0j6BaG1UgENBoNDqdLhQKZTKZvGcUmUzG5/N5PJ5UKu0ZMyJmoZkEpFJpdXU1hUKJi4tjMBiEHrG1P8AWrmvNiKhMxti5q3icAfviJfVzbbUwg064lEXjOl5OGecSdTKymPFapN3DhaRAFV4FXhNuTZh/fz6VR0XJseCsQauMeGclqGk56W0niLzTusQwUUZGmY0taYJx9V8ucrWzlXRoQiIOeHpN5jat1mlYqdGoUisriImtuchU50r/GkObNqJ4nH7Fxp+lJR01lOxdjMhPTKT/tp36/YomR7WLqzhHB/GwPAs8p/tPxxlxTcSa1KrUDq1sZzZGEJgWZdcumCvlP/95BRPfew/GuOl5NtudKQ7N+0ZRtK6urry8XNgkt4zmXem2BYZhEolEJBJ1JCqnbqdE9KapBIRCYVlZGcGImsoNaM2IMjqj4qf1pAnG9f7+PcrEhiuU/RGQa+gaveLak0wq97X5XIYheYXMeYHzjLyM/nn2j0gugmrCSxbA9ZMWMPHgZyBkG2io0viB6FENMExGp1NXry4eZ1Dx41roJtwkQnjnzVbKB7l3ZGdm1S4ZUTp+FMzpfMa9BUJVSBH/LdULvyWNHV02b54wPR2TdTT/de9iRITPl9HpUiq1ySGvrtbaIlO5qmK5+FzWOUs/S5wRJ/lNOvn0JHzye17BMPCv5aqLCxg4EAwdCuzsgIkJGD9e8d13DcbG2PTpICur5026h80IQRA2m02j0WQd/iPS7Z0RjKhbeXZLb1KplEKhxMfHV1VVEXpEDZZAa0YUpqVRlywtm2PHj43VYLxOrqpAsdvpFVNOJpgeiQ3Mootkr48DoRSRehV4jfMcN+fenCpBFfxGi6EgaBM49nUzRvwEnBkLw9/0akDGMKS+vvqvv/AQx6LMzI7bt2n29MkloChMfmFe7dJvS8d/Vzp5CsREFutlJxiK0Z7W/QgBscTCsj4oSCeGkr2LEV9KoxPOspnZG6I34ICI/1wdsTq9Or0ThupQlxgGmExw8iRMqTd4MAx8WFUFiouxtDTujRupBQUKMrl3/y12SDpqN8YZsaKigmBEtWVGVFRXAjKZrBczIoZh6IvS0NBgaWl5//59uVyOdX5BEKS8vDw9PV2hUGg0GvduQJntHNradcKMDI0admplci1/0aVkvf2RB0MLKuqEnTpWV3aOoiiDz7ALtDP0Mvzn2T8SheT56JREcN7kFUZ07Q9ODMPC/8A4ZV05Q52PhQiFXF/fIv0xJFOz+pAQVCzW+RDtd4jIMcpD+ZXFrGWjSgy+K7GcVHv6jJzDwVAEkwowXrXw9PISI71iQwPmqVMKLrf9DtWoIZPJIiMjeTweiqJqVH9tq0gUknNZ56benmrgaYADooGnwSS/ScfTj0vkL57/nnH3XC524QIYORIMGAC2bcOYTDgtFEXZbHZcXFzXfJL3DEl0aBYKhYLFYhF6RHWph6iniQSUekQGg4EgCP6kisViZ2fnXuDXXFtb++zZs7zGkpaWNn78eF9fXw6Hw+v8wuVyi4qKkpOT6+rqNBqNcfJkieUk6s5d7JxcjRp2XmU2l7c7IMfAJcrm77jEZ7T6+s4bqqt7ZtYxr+deN/A0sPK1KmeW1/Oe35s0NxA7O15xcKD08DfSw0MkR4aI/h7PD93XQO0pi6KlpNhsbkIiydikcOw4iqtrfU2Nlv10vFk9t6H4YcMlpxqnEaRx38E0xCdPSKgFikwf8d19FLORxXp6pYvn1ZWW8HT0wHE4nPDwcAaDUa+jDjsug27pIa0ibW3EWlUlIn7+/YPvk6hJ3TKlFgdlMgVXrsjGjME++ECxYoUwP78Br1ZfX0+j0WJiYrrmk7zFufWui1wut7Kysry8XCwWaxb7rpNrSyQSOp1OIpE4HJj1tLUik8nYbHZFRQWFQikvL6fT6VwutzNCKorFYgaDQaVS6+vrlZOpr69nMBgCgUB5pcUTDodTWVkpkUhafPc1vigSiUpLS+Pi4shksvKjtba2dvv27b2AEc+ePTt8+PCvGssXX3zx9ttv//XXX2FhYZFdUsLCwkJDQzUbKjz86fcrCseOS9u+PebePc3adk7tiIjIQzceGP0Vprc/wtUrMriLhNc5N/NqrxGREbdCbk27Nc3Iy+jP4D/DI8Px96NCAmpPT0EODqi67JB9++gTnyNPbp9KCL0dGRnxage97VV4ePS1azlTpxaNGZu32Ck6KKjbbyAp6B+6uxNrGdxWJhmMrnIcLtvVn2Hz36LReqXG3+aeWBcTdEeHYg8JCYmI6OWL2LE1i4iI+PXur+Ze5s8Z8abhuBuG+LmZl9km/009RD4hIZG7d2d++y333XexWbOY164lqd53eHh4SEiI6hXivA0JREVFPXr0qKioSDuqrufxajlcVh1X58qBvLy8n3/+efjw4a6urkq8aMLfXC43Jyfn119/NTU1HTJkyOjRo2fMmHHkyJGioqImNTv+Mi0tzdra+osvvjh37hybzcY7PH/+/IwZM8LDw9vu/+DBg6amps+ePWu72uv3LpvNLigoiI2NVf3oCA0NXbJkSS9gRNy1nt9YampqzMzM7t27JxaLNXPv1qq2VCotKytLS0uTSCTqdyCpqaH98GPRmLGcO3fkPSMcQA1XOP/842/3RTgH5JbXNqh/Lz2/JlfEvZZ7zdDL0DbAtl5c/2LCMuSJB+b2HeY2SlESIxEJnjx5QiaTe310BplMVFlZ8cvmIv0xZBsbcWWlvGeEwFBwqLLAPazFg4v1Rxfrj6ZNHlE0Wq9Y/7uG9V+g+z9VJF+SC+peLE2HfovF4oiICA6H03Nif3TofrRqLJaKj6Udm3pnqpmP2QRPcz03u9Gn5k24aW7mYzbl9pQDSQfE0q74eGx77hKJ/MEDxZQpWL9+wN4effJEoVpf01hyywAAIABJREFUJpMxmczY2Niu+SRXHbqXnkskEiaTSaVSJRLJC9srDX7XC6VBWfSYguoGsUyDZmpUDQoKWr9+va2t7apVq5hMZvMWCoWCSqWOGTNGT0/Pw8MjNze3pKTE39/fzs4uJiZGKpUiCCKRSBoaGurr6xsaGsRiMYIgeC4ZkUjE5/MlEgmPx6uvrxcKhfhbMpkMVxMqhxOLxQKBQC6X5+fnz5o167333luxYkVGRgZewcPDY/bs2QkJCfhLuVwuEAjqGwveCkVRqVTq6uo6ceLEvLw8LpcrEokQBJFKpXw+H6/J5/NlMh1LTzn/7j2RSCRlZWXx8fG4wSv+NyIQCHbt2tULGBGolF4RQ1uUnV3utIRsPYMfF68y9247xTBw+EHh2L+ipp5MyK2sR3u1r8arUsQwjNpAtQmwMfUx9SzwfPmmkAMuT4EBtOMOAn6NQqFIT08vLy9Xemy9rNmrzhAul3XhQtFoPZKZuehpRg+aO1yJdPGu/1bbDSkarQcBUU+ves4Q0eYBoq2fy1xHYSwyAFjHJ0z4rOAy5El5ZfWUbEbR8csMvXGSb/UkB92rsuhFZG5ZvaS+43LuYA8YBkMhzpoFw2Xb2MD8y00KhmEcDicuLq5rsiE0Gb03vuygzwqDK97qm+0SUlCr06xaUqn08OHDa9euvX79+qZNm+7du9dctkKhcP369R999FFZWZnqJ7BYLJbJZBiG8fn8CxcuGBsbf/rpp2PHjnVzc2M2hvGiUCg7duyYNm3axYsXR40a9dVXX61cubK6ulqhUERFRX3wwQc0Gk3ZoZub24IFC54+ffrs2bPZs2fPmTNn1qxZ7u7u8sbI7NeuXbOxsXn48CEAQC6XZ2VlOTk5fdlYFixYkJ2djWGYj4/Pxx9/3KdPn379+uHblQwGw9vb28rK6rPPPhs4cKCdnV10dHTzG3wNrvRunxXVBegVjMgLDi6bY0dbtVqU2SPSHqSX15kcjh26O+zO00q+5PXxZQYA8KS86/nXDb0M592fJ5QJXz4qCUdhRubzxqAqBzRmonwNGBEViXhhYUUGhiSTiXWenj3LF1RSL0/8p2bekCI9CIjPDz1IisV6esyFQ5D0u0B1gV4ulWZnBCMq5VVdje36Axv4Bda3L+jbFwwYgG3egtHpOgBx5RBan+TngwULwP/9H5g8GYSFtRCUiWBETWXbnBERFBXJFGoeZbWCTd6ZfwY9o3GE7TYRy6CPpjozzMrK2rJly/HjxwsKCvbv379t27bmDevq6gYOHLh+/XqpVNpin6dPn7a0tHR1dU1NTT158qSFhcWhQ4cQBKFQKL/++uuXX365cePGJ0+e3L9/38jIaOvWrQAAiUQyePDgy5cvi8UwnyqKonPmzNm3bx+dTscZ8eTJkzt27Fi6dGlKSgoAQJURs7Oz7ezsNmzY8LSxbNmyZejQoXV1dUKh8M8//zQ2Nk5LS6usrOTxeImJiVZWVvv378/KysrJyQkMDMzueVnTWhSpphcJRtRUYs/raxf7hnX+QumUqVW790jJZC0H1l0ziRxxuJQycm/4Zp8sOles1t+97kbv1J4wgJVyS+cEzrHwtbhVeAtTqqk4ZcDdAEZGfHIFiKFO5TXQI2JyuTA9nTxjJsloQtXuPWgPi5EGBLVY/Enp7/2FvwwQbhrAXw9/wvPGQ7azP5Z8CehCv0UwIv43lZoKFi4EH34I6fCtt+DRty/44IOWlXad+mfYvPPycrB0KXj3XWBkBO7ebTnDHsGIzeXW9pUmjIhiWD6jfpxLlJrHmL+iRu4L/3ZfxJi/2m9ieiRWrF5ktOvXr69fvz4yMrKhoeHWrVv29vaFhYWqN4KiaGlp6dtvv+3m5oar9FTfBQDU1NTY29s7OztXVFQgCFJfX3/gwAEHB4fs7GwKhbJt27YpU6ZQKBQEQVgslqurq5GREQAAQZBt27bZ2dlxGxN7PnnyxMDAIDQ0VCaT4Yx49uzZ6OhoR0fHw4cP/wuUSkbkcrmXL1+eOXNmQ0MD0liqq6tHjx5948YNhUJx4sQJc3NzKpWKNZZ79+7NmjUrODhYoVAgCCKXyxHkNUlL1mQVCEZsIhB1X2rHiIxdfxSPN2KdP69QDRen7pg6rnchvnTMgUiTw7FZNK4cQXXce7d2x5Vwr+ZdnXBrgkOIQ71UZX8teCs48hX4xxawS3BlW69nRAyTFBfTVq8pNhxPW7VazqztVsG3NLiYC9KuYH99jB1o6fjrY5DtC2SCllpqdo1gRAAAjQaWLIHZSponPn7nHTB3LqBQNJOqDmvX1IC1a2Eyle++A56eQNRKSG+CETWVeXNGzKmsH7o7rDMO/QOR6kTPZbPZv/76644dO6qrq0UiUVJS0vr1693c3EJDQ0c2FhMTEw8PDxKJ1K9fv9OnT7fIiJmZmdbW1h4eHrjVAYZh165dc3R0DA8Pp1Ao27dvX7BgAU5mDQ0Nly9fHjx4MAAAw7DHjx9//vnnz549QxDk4MGDDg4OeXl5AACcEc+dO8fj8Y4ePbp48eK4uDglI9JotB07drz//vsjRozAJzl8+PD3339/3759crn8xIkTFhYWNBoNXx06nb506dKxY8euXLny2rVrTfbKNV3BnlyfYEQtV0cLRkT4fNqaH4r0x9QH3Ot4Vgkt593YDMWwoqoGk8Mxw/aEXU+iNEjkHemtp7XFMKyAUzDv/rwpt6e8okSsSAVuo8DBz0FBEHiRc6K3M6KssrLGxaV4vBFl3nxxz8xriyKAlgJODgMuzRPbfAJOjQTMQhjVvMOFYMRGgyrg7AzDDTZhxD59QP/+YMsW0F1a5vp6OPqAAWDIEHD5MqhX+eLWZOUJRmwikHZfNmFEAIBYrihh8ts+Mmh1MYU1YXlVN5LL7S8mr7z+5FYqNSyvKq6ImVXBba1taS0fRdvfc4qOjraysvr0009x3hoyZEj//v2XLFlSWVn57y5tYmJicnJyZWUli8Xq37//li1bWoz+nZ6ebmVl9c8//yg3qW/cuLF48eIHDx7g9oiOjo64cPh8/pUrV7766iv8pVQqNTAwOH36NJvNnjZt2tGjR3ErRiUjSqXS9PT0FStW7N69+8yZM7g9IplM3rJly7Rp0/AZKn+WlcGIuU0YEUEQOp0eGhrq4uJiY2NjbW3t7++vtIBsd8l6UQWCEbVcLC0YUVJYWO64uGTyFEFCQvdajAmkijX/pA/fE77q+hMGV/w6uaoAANhi9v9y/2fibbI8bDlHwnm+wCgCfJzAoc/BndWAR1fKv1czooLD4Vy/TppoSraewQsO7up8Kur/6fCZINalkRFVMfETeOXhKXzTX/3OWqtJMCIumcePwfTpr2Q9xnec/w1VffGi8sFvTYqdcl0sBrt3g6+/Bl98Af7+G+ZWacOkjWBETdegOSNCOzwMa/tQIKhEjohlCFnFHlEsQ6RyRIG21bbd6aEoevToUXt7+7Nnz/r7+9+5c+f+/fsuLi62trZxcXGyFwVBEIFAsGzZssGDB1dUVKgCFh4thEql2tnZubq6stls3NDw2LFj9vb2T548aZsRAQB79+61sbG5ffv22LFj4+PjcT2lKiNKJJJz5879u3O9cOFCnBFramqOHDliYWFBp9NfzBH+xlWVp0+fNjMzU+oRcYWlWCxmsVhPnz5dvnz577//Xlvb87Zx2l2t9ioQjNiehFp5XwtGbIiILLOdQ126TJTZPSlIERSrqhf7Pqm48ogyen+kgWt0ahn7NdtlRjE0uzZ7QdACK38rqETE/xdhCCgMAse/Ace+AeUPAfIyNXDvZUTop/LgAXnmrNJJk2vd3VGBDrZrW3nYO3wZVYA6CohxadQmfvw8vc2pkSDxOOAxAKYbOx6CEfF1evAAmJm1wIjvvgsmTABubqDxH26H11TtDuRycPQoGDYMfPIJOHgQVFa24Kei2hnBiKrSUOe8RUZUpyFeh1GvY7/mkpKSFStWODs719TUcLlcDocjFApTUlJWrVq1Z88e1YkhCJKRkTFy5MjZs2ffu3evpKSkoqIiNjZ248aNqampIpHor7/+srGxuXLlSmFhoZeXl62trbOzM5/Pb5cRMzIyvvnmm+nTpy9atKi0tBQfVJURAQC5ubk//fRT//79p0+f/vDhQ7lcHh8fb2FhsXnz5szMTDqdnpWVdfXq1aKiIgzDfH19hw8fHhcXx2azJRJJampqaGhodnZ2RUVFaGjorFmz9u3bx+fzVe/u9TgnGFHLddSCEdn/u1I6dRrj953SF4+slmNr20ymQFPLOJNPxE86Hj90d9jpGJJAomh/20Db4bqlXa2o9mLOxYk+E9dErKkVNX6rwzAgqgNXrYDrpyDsdyDiqEZa6aWMiCGIMCWFuvz7ElMzxs5d8qrqbpG2BoOiCsCvBuWPQOpFkHAEpF6CG9CCWp3sMuPTIBgRAJCRAZycoMMKrjtU/vzmGzBxInjvPbjVu2IF6LKdDAwDFy6A0aOh04yzMyCTQbuW/QQjavBn1Vi1g4zIFcpupdKCshkNYt0YHXl7e8+fP//GjRt4dMN/UQ/DsOrq6sOHD8+YMYPBYKjeoEwmS0hI2LBhg42NzeTJk21sbJYtW3bw4EEKhYJhWGlp6YEDB2bNmjV58mRra+vdu3fn5ORgGNYuI0okkilTpnzyySd///13XV0dPmITRsQdVoYNGzZ16lQ89k19fX1gYODy5cutra2nTp1qZ2f3888/43vNVVVVixcvnj59+pQpUzw8PO7fv79ly5bZs2dbWVnNnj17+/btqampqqpQ1Xvs1ecEI2q5fFowYtWevSRjk9oz7vLGCE9aDtyBZlIFGlfEHLo7bMTecPuLyXSu6DXbZUYxNL063T7YfsbdGd6F3s+ViAop9GI+9Dk4rQeqcgH6Soif3sWIqEQiZzJlNBo/PqFy8xaSsUn5kqW8sHAZnY70iq+wKAJ5nV8Df+rCBlH1r4FgxOJi8MMP4NNPgakp2LsXnD//8rh7Fzx8CPbtg/q8Dz8Elpbg+HG459upBcOAry8wNISOzL/8AgoKWnZkbjIHghGbCKTdlx1kRAWKsfhSjlCGqGFo2O5kGh2naBkZGdXV1RiGSSQSnBHlcnl5eXlKSoqombOSQqEoKSl5/PhxVFRUbGxsamoqHq4Zd1Km0WhJSUnR0dGPHj0qLy/HLRdFIlFRUVFW1vMdOYVCUVFRERcXpzq9p0+fRkZG0ul0ZaBNPp+fnp5OpVKVMFdTU/Po0aO0tDScIzEMEwgEubm5cXFxUVFRiYmJeXl5EokEj6GTn58fHx8fERFRUlLyr891Tk5OfHx8dHT0w4cPS0tL8VA7qhN4Pc4JRtRyHTVlRFQioa1eUzRmbL3/XbTZH4mWk1CvmQLB6oSyijpRQRXPNaRg6O4w/QORnilUKltYL5K9TpjIFDHPZZ0z9TH9KeqnamGjag1DAIcMLkyE+5uJJ4CsqS9l72JESVER8+RJ2o8/li9yIJlMLNIfUzJpMm3VasaO3/nxCeo9Dq9trTecESsroVPIwIFg7Fjg4QHodOgXojxEIqBQwIt+fjAyzvvvQ4Xi99+D6Oh2dn478riEh8Nd73feAStXgsxMdd1lCEbUVOYdZERNh1O/viojqt+KqNmjJEAwopbLoSkjSsvLKfaLSBNNBYmJnfip3NLdsPjSf5LK1958uvLaE4tjcUN3h327L+J7j7S1N5/ezagUy3VjDdbSyF16DcGQlKqURcGLZgfM9inyea5ElPJB3CHg2h9csgB15c11V72LEWV0ep23d/nSpUV6+qXTrBh/OLMuXmJdvMTx9BQ/e9al4u55g73JjMhmgz17oFPI8OHgzBlQU9Pq8giFIC0NHDgAvv0Wbj1PmgSOHAFVVW05kbTaV5tvpKQAKysIiPPng+Rk0KiLabPBizcJRnwhCXV/E4yorqSIeppLgGBEzWXW2EJTRuTHJ5TZ2FIW2ouysrUcUttm9SJ55LOa/UHPJp+AZojf/Rmx406OWxTJLYr0kMSSKXQQdkTbqemyXbWw2j3T3czH7JfYX6oEVbBrRA4qn4AzY8GhASDzZpNdZnzs3sWIiEDAvXu3bN78kkmTaw4dlpSWKrhcBZeL8HhoK4kKdCnint3XG8uIAgE4dgwMHQoGDYJOIRUV7QAfgoDqargL7OgIMXHQIGih+OCBBhjX9oOAYeDZM2BnBwFx6lQQGwsaE1603ejluwQjvpSFemcEI6onJ6KWNhIgGFEbqeHWCf965qenpyttHdruiPPPjdIpU+lbt3W9wwrSaG7i/7Ry4uHYYbvDxrlEPSphcQRSjkAqkiraCELR9h31qHcRDHlIf+gQ4mB7z9avyO+5ElHAAiHbYGpmz3lNXFWUk+9NjIiiwidPKjZuJJmaMXbskLyatEB5R2/syZvJiFIpjGjz3Xfg88/Brl3QKQRV70ufVAqePoUKxdGjYWY8S0vofUwmwy3pjhQUBWVlYNkyCIhGRiA4uNVY2a2NQjBia5Jp7TrBiK1JhrjecQkQjKilDDXVI1bvP0Aymcg8dUpe3dUuqCiGlTL5670yvvszYo77I0PX6MKqBi1vu6c2qxZW/53xt5mv2bb4bQx+o9+cXAyKw2GI5pPDQdGD1ibeixhRWlJa/ef+EjNz2po1gkePsXYdRFu759f0+hvIiAgCfHyAgQFMXrJxIygsbN9rWHXxURRwOLCHxYuh3/GXX4I1ayDV8XjtaCJVO1E9R1EY2ubnnyEgfvst8PYGQpVM6ao12zgnGLEN4bT4FsGILYqFuKgTCRCMqKUYNWJETKGgrfmheOw47u07aJf7n9YJZR6PKP+qD63/TryZUv7jjadUtuaf3FrKqSuaISgSXxHvGOJoF2h3u/g2VCJiGLQ+vL0CHP4C3P2xuauKclq9hREVtbWsc+dKp1lRFiysv3cP1Wj3Tnm3r/XJm8aIGAZwp5APPgDLl4PsbLW8hps/AigK2+7bB8aNg0n8cJfnggJ1XUyUHaIotIPcvRs6xHz9Nbh0SRtAxEMTczicuLg4NbdolBN4Y08IRnxjl74LbpxgRC2FrBEjymtqKPPmF483Ejx82MXqH5kCfVzKsjv72OhgjFs0qZYvSSazBdKO7SdpKbPOalYlqDr19JS5r/mOxB10Ph0OI20AWd4wYvZZQ0BNamPgXsGIqFDIvXOHMm8+2Wo6+/JlRRcHQW5DfD3prTeNEZOTYT6Vd9+Fln8pKaCD9qh8PlT7LV4M96y/+ALG0AkKgtG21bRFwTDAYkGzyP79YcK9I0eAQKBu2yYPEaFHbCKQdl8SjNiuiIgKWkuAYEQtRacRIwpTU8kzZ5XZ2MKMul1YMACobOHewPzR+yNX/5NewWka+aUL59JZQylQRTQ12jHEcd79ef4kfwxgAEVAdR64MRccGwzCd7boqqKcTc9nREyh4CcmUlesKDG3qHF1lZaVKSdPnKhK4M1hRNwpZOFCqPabNAnExWnmFKIqNNVzDAN5edA/2sgI+rKYmYETJ+CVdnXWUGtfB80iBw2C0Rl37gQNDVoCIqFHVF0RNc8JRlRTUEQ1LSRAMKIWQoNNNGLEOm+f0ilTKzdslJLJWo6nVbMGifx2esXEI7HWbonBOa9Et9eqv57YqEpQdfTJUTMfsz8e/fFciShig+Rz4PCX4MpUUJPf9qR7OiNimLiggL5lK8nUrPKXzaKMTO3/97YtiN7/7hvCiCgKKBRoOPj229ASUQunkLaXWiiEMRQXL4bmiQMGgFWrwP37cBO5DVcYHg94eYGRI6FZ5IYNHc31R+gR216g5u8SjNhcJsQVXUmAYEQtJakRI9YcPESaaFpz9GhXOqwoUCy9vG7ltSeGrtF/BuULX6/9ZXzZEBSJKI9wCHaYf39+QEkAvIjI4eby5cng5Ajw8GS7RNXDGVFeXV3jerDEwrLcaQk/JhaT6yZZlpYPfc9u9iYwIooCBgP8/jv0RB4+HHh6amnz1+5KFhbCTC3GxtCXxcgIJmXJzX3FQ1kme/6Szwf37kFa/fBD6M5cWdlu3+1UIBixHQE1e5tgxGYiIS7oTAIEI2opSvUZEUNR2o9ri8cZ1Pn4Ig1d51BcVS8+GVmstz9y6ZXU3Mp6Le+zZzerFlQfSj1k6mO65/Ge50pEHgPEHIABEW/OBfUV7U6/JzMiwudzrl4lW88gz5jJ9bvdlQ9Pu3LrgRVee0ZEUVBbCyPUvP02VPKdOdNZgIgvrlgMAgJgDMWvvgKffQaWLoUWijU1MDgOmw2jHt65A+MghoXB/e733gPz5oGiIh08FwQjairEjjEiBmRCIGABIQvIxZoO3Vr9qqqqx48fh4eHBwcHh4aGpqWlMRgMZQa81lq1eD0/Px9Pf6f0YWKz2dnZ2VQqtcX6yotcLjc+Pp7L5T4PhaZ848WJQCAoLS3FE/09ffq0SZJAqVSan58fExMTHR2dmZmJZxTEm5aXlz958iQ2NjYxMZHZ2RktX8y2u34TjKil5NVnRITHK7OdUzx2nODRoy7TA0nkSHAOw+pUwuQT8dcew+ToWt5nD26GoMiDsgeLghctCFoQWBoIZ6qQguIw4G4A42Zn3FBn7j2WETG5vCEikjJvfomZOevsua7UQKsjtx5Yp1MZUSzWLKyMzuWD2/xdvgwVe/37Q6vBrsnoWVoKYygaGcFx9fXB4cMgPh64u8MszF9+CdP6zZ4N/WamTwfp6bq5aYIRNZWj9owo5QNmAcjzB4/cwOPToOA+YJEgMna4+Pn5mZubjxo1ytLScsqUKfPnzz9y5Aid3uhQqGHn69at69ev35YtW2g0Gt40JiZmyZIl58+fb7unlJSUQYMGpaamIq2ECSssLDx8+LCtre2wYcNsbGzKy8uVHUql0pSUlCVLlkydOnXy5Mnz5s0LCwuTvvALO3PmjJOT05gxY/T19UNCQpStXssTghG1XFb1GVGck0Oebl06dZq4oEDLwTRsBk3aGbzNvll6ByK33c5m8aUadtA7qlcLqv9K/mui98T9yfsZAgYAGGCXgODN4MiX4Pb3QKyW6rSHMiKGifPyqcu/J00wZvzhLCWV9I4l6dZZdhIjoihMcxwSAnJyoN6uW75tYRj0AvH1hU7HH38M1q/vXA1ik2WUSmEWFkdHmAz6ww/hz48/Bn36gLfeev5z2DDg79+kkfYvCUbUVHZaMqJMAJ4Fght2MECYy8fwOPoV8FkCSJFA3lHvRj8/Pycnp//973+VlZXZ2dmHDh0yNTW9ePEiAEAmk1VWVubk5GRmZhYWFnK5XPx+EQSh0Wi5ubkZGRk5OTkMBkMmkwEA1q1b99lnn5mbm3t5eckbjW2aMKJqhwUFBXiHMpnM09NzwIAB169fT0tLI5FI4ma+V2Qy+e7du15eXr/88osqI2IYVllZuWjRIhsbm4yMjKKiojVr1kyYMKG8vBxXhfr6+np7e+/du9fa2ppgxOaP61vNL/WEK0Kh0NLSMigoSKmR7tRZqc+I9QH3Siwn0VavkVFefk3p1LnVi+WXEsnjXKLsLybHFdd26ljd1TmCIUHkIPtg+wVBC4LJwXAachHI9gUnhoOLZqBQ3e92PZMR5Uwm9FMxNqF+v0KUkYG14S/QXQvQ88aVy+UhIdE8XoMOteYyGdw/3bgRqu6mTIGGd2x2NygUhUIQGgqz7X3wAfQm6UKLlZfLTCZDf5T33oNoqHr06QP++19w9aoOU/lhRHzEl3JX46xlRsRQmJ6+jaM4HFye9JwOcUaEPz+B1Eh52FZDNabk5+e3bNkyb29viUTC5/PDw8Otra1/++03mUyWk5OzZcsWCwuL8ePH29ranj9/XtgYaZ1MJq9bt87CwsLQ0HDSpEnHjx+vbDRuXbdunZ2d3YwZM37++Wdyo9OnKiPKZLK8vLytW7fiHdrY2Jw9e5bP51dVVRkZGfXr12/o0KGjR49ev359SUnL37T5fL6bm5sqI8rlclwHGRcXh98rlUodOHCgv7+/6n60r6/v3LlzCUZs/jgQjAhloj4jMk+cJJlMrP7LRV5d01yaOr+CoFh0Yc3CC0kmh2PcokhyRL3MXDqfRyd3yBQy9ybtnXBrgmuqa7WwGqp3GJnAbzmMdxO8BW46q1d6ICMiQiHz+PEScwvyjJnQT+XFBod6N/SG1sIwUF2tOHo0g0QSyuU6sKzAVXeJicDcHIaYwXVmgwZB743yci2jVWu3NhIJSEiAAa7ffRfMnAlTLXdLqakBmzeDfv1eAUQcFvv2BWPGgFb+BWs8WUKPqKnIWmBEuRjUFrZ11DwDPk7g8MBmjPgxOPIVCNoE96Bb7IFV3JaL+4up+/n5OTg4uLu7FxcXp6Sk7Nu3b9SoUQcOHCgtLd20adOSJUtSU1PLysq8vLy++uqr0NBQBEF27tw5ZcqUmJgYGo2WkZGRkJDAbgwEu27duo0bNx45cmTRokWXL1+Wy+WqjEihUDZt2rR48WK8Q29v7y+++CIoKEgqlUZGRn755ZcRERE1NTU8Hq815VFzRuTz+Tdu3BgyZAhfJeGFsbGxi4uLUusJACAYcceOHRKJ5MWav/xNMCKUhfqMWLFhY7GBIeemJ8LjvZRip51ROULne3kj94VvvJVBYQk6bZzu7BjF0MDSwAVBCxYGLQynhMOpSBpAygUY78ZjBqClqD+5nsaImELBvXu3dOpU0gRjro9v1zwz6ourZ9aUywGNBlatQt99F8ydiz59CkP6qW4KYxj8v6ZQQLaTSqHGSyyG27UCAdTJ8XiAy4UR/thsGAiayYSeGRUV4NQpuLf7f//3kor69oVZ5n74Ae47d41uVy4Hqalg8mQ4rrk5KC3tzhW4cQNm2Ovb96VAcHT+9FOwbt0rAu/ILAlG1FR6TRkRQ+EX5peqwcZ9ZF29PDpIHYNFPz8/Y2PjAQMGDBky5PPPP3///fdnzpyZlpYWFRVlaGgYHx9f01goFMqKFSsEz3rFAAAgAElEQVSWLl0qlUo3bNiwfPnygoICHo8nlUqVDi44I6ampu7YsWPlypWFhYVKRkQQJDY2dty4cXFxcXiHVCoV71AkEjWxR5TJZBwOB6/W0NCgNFJszohcLvf06dMjR45UXYhZs2b99ttvOLbi1wlGJBhR9Qlpeq4mI2IyGXnW7CL9MTDDSqN1RdOOdPpahqD/JJWbHI61OfMoMEsbA2GdTqezOqsV1f7x8A8jL6MjT47UCGvgfydKIrg+G6ZmjvlLo39WPYsRMUyUk0OeObN47LiaY8cIP5V2HyAMg8CXkgJGjwb9+mFvvQX69sWGDgW3b0PU4/OfIyCTCchkkJUFEhOhZaG3N8wUd/w4DO+yeTMMAbhwIfS6MDaGDPTFF88Vh6o7qqrnffrAhjWdvyuAIDBL3vz5kFMNDEBGRrvy6NwKFArcbm7OiGPGgCdPdDY0wYiairIFRqzKhjsqbRxHBwHX/q1y5MHPwNFBLTf/+7s2UpsqZ47rEc+cOZOXl3fjxo3169dfuHCBy+X+888/b7/99hdffPHli/L5559Pnz5dIpE8fPjwXxeQCRMmbNq06e7du9XV1TjG4YxYWlr64MEDBwcHNze3yMhI3GdFIBB4enr269dPtcPPPvvMyspKKBQ2YcRHjx7Z2Njgw+7bt4/BeB4wuEVGPHPmzMiRI1WtVmbOnLl9+3aCEfEllkgku3fvJhhR+cC3cKImI0pKS0unTCWZTJQUk1roRdeXUss4K6490dsfeTC04LUMiIgL7C7p7rz78xYGLYyiRsErQhaIc4WWNF4LAatlo5PWJN2jGFFRV0dxXFw8dhxt7VqpipNda5MnrotEML3Hu+++ou3r0wdyzJdfgmHDngMf7mCBK7369IGeFnidvn1hzf/7v5dHv35wO7VfPxhfpsV91bfegjZ527aB4mKolVTVVup2OTAMDvHjj3Cqo0aB6Gjddq9NbxgGIzIOH/4SE/v0gYlV1q7VpRwIRtR0bZoyItznQqC2r42jMh1cndYqI3o7gKqcVpqL1FlsVXtEoVAYFBTk6Oh4+/btS5cujRkzJiUlpUyl0Ol0nMbq6uoCAwO3bNny3//+d8mSJQWNXp5KRmxoaDhw4MCiRYtOnDiBMyKPx7ty5Yqenl5ycrJKf2WVlZUoijZhRLFYTKfT8WpsNlu59dycEQUCgZeX1zfffFNf/9zxEcMwQ0PDw4cPE3vN+MNJMGL7f6RqMiIvLLzE3KLcaYnshd9++11rW4MrlLmGFHy7L3zNP+lZtOfOYtp21nPbsUSs3xJ+M/AyOJF+olbU6JFTEAQuTATu40DqBejdrEnpOYyIIQjj11+LDceTZ8wU5+Z1cV5vTWTWU+pKpZCcVPeCVbV9Sq9bpc3chx+CwYOh5ZylJbC1hQH/NmwAu3aBQ4fAuXPg5k2YUCQ+HmRmQqVjbS0ID4d7zU36VPY2cCAMGR0ZCTesO6OUl4Pt2yGNjRgBFZ+dB6MaTb6sDHrwqMrE0BDuhuuwEIyoqTBbYMR2u0ARcG8dNM5pvgd99GsQtQ9SZgeKKiOKRKKysjJnZ+cVK1aEh4fr6+s/ePAAe7Uoh0JRFEGQwMBAExOTiIgI3K9548aNpY1mFvHx8U5OThYWFosXLz5//rxCoYiKiho9enRoaOir/cH/Ak+fPv3666+TkpKUOKisoxwOANCcEREEycjIGDRoUFhYGF6ztLS0f//+wcHBquZ3xF4zoUdUfZCanqvJiLXuZ0nGJlXOuxWdHGkTw7Db6RXT3RInHY/3TKEiXWMt1VQqXfH6Nun23MC5i4IXxdHi4LfPOgoI/RUc/Bz4rwENVZrOoKcwIoax/3eFZGxSPN6IHxODNgvToOl9vQn1MQxu+I4f3wIm9ukDvvkGnD0LkpNhnOeKCsDhQLtDPh8inUAAjRFFImiVKJFAC0WZDCoF5XJos4gg0NYQw+BLW1vw/vvPI7w0bmRDH96lS6Fp4HvvQV3jRx/BvMZubhArdYhxVVXgr7/gEP/9LwxG2HPS66AoFObjx+DRo+dHbi4Umg4LwYiaClMbRgQAlD8CV63g9ssrmPgJ8FoE6E81nUOT+k0YUS6XBwYGTps27dSpU2vXrjU1Nb1//z6FQsnMzLx69aqfn59CoXB3dw8KCiouLiaRSL/99tvkyZMfPXrUhBEFAsGpU6c++eQTfX19PD4ihUJZt26diYlJYGAghULJysq6evWqr6+vXC6vqqoaOnToiRMnKBQKn89XGiAqpyqRSCoqKtLS0n7//fdJkyZFRESQSCRcU1hdXb1y5UpjY+PHjx9nZ2fb2tqam5tXv/AXq6qqKiwsPHHixNSpU8+fP5+fn89kMpv3rxyoV58Q8RG1XD41GbFy85ZiA0P21avIC621luO116ygirfeK2PUnxF77+dX1essXH57w3b1+7Wi2q1xW8d7jXfLcINKRBSBsbJP64FLFiD3NozXoGHpCYyIIYjg0aMSU7MiPX22hwd8VHSIGxoKpHdVl0hgpmBVtZby/OBBmLZOLn/OfNrdV1gYGDTolf537gQkEjR2DA+HG8Fffw23pD/6CBoyrl0L9Zodx3s2G7rLfPYZ7PzAgc7SU2onkEZ3PShV5aFbQAQAEIyo6dJoyYiIDJDjwC0HGFAWx8SjX4O7PwBaKsxo2rHShBExDHv27NnatWudnJzy8/P/+OOP8ePHDx48eMyYMY6OjvHx8QiCnD592srKavjw4d9+++3s2bMDAgJ4jV6eyr1m/NlISUmZO3fuiBEjcEZEEIRMJjs7OxsZGQ0ePFhfX3/RokVxcXEKhQJF0ePHj5uYmAwePHj58uVFzbIAPXv27F9Dyc8///yDDz545513PvvsMxMTEx8fH5jSFUFKSkrWrFkzYsSIIUOGLFiwIDMzU6mPdHZ2Hjly5EcfffTOO+98/PHHAwYMOHr0aEO3hKTq2DKp05pgRHWk1EIddRgRQxCyjW2R/hh+XBzakot4C/1qdUkiQ05EFo93jXb6X2pCcS2KarbfqtWY3dPIt9h3zr05jiGOiZWJKIaCqmxwZxU0r36wHYjqtJhT9zMiikrLysizbYr09Kt27YL6ZgIQ1V7IxpA3UNWnRENc2zdqFHRkaSW9gtq9Awh8cXEwNqHyoFKh2gzDoPaRzYYb0ydPPo+P88EHcC/b2hpcuAD9rLUrDQ3QwnLIEGhJuX07HOJNKwQjarriWjIinpiKXwMd/jJugiwvGBFCUAsQGLm6g0UgENTW1vL5fIlEgmexk8vlbDabyWQqFAoul1tZWVleXk6j0WpqavANXB6Px2AwqI2lurpamfuOxWKx2Ww8ejYAQCqVMpnMyspKnCBxnmvSoTJcdkNDA51OLy8vr6mpwSNyq96XTCarra2lqJTKykplvBsEQVgsFpVKLS8vZzKZygkAANhsNpVKVWlHqaurUzpiqw7xGpwTjKjlIqrDiDI6vcTcothwvIRE6tRQGeH51fPPJ004FPO/h2V8iU43frQUT6c0qxHWbIrdNOHWBPdMd6aICeQS8PhvcHIYuG4DSqO1UCLCD0mFIj09XRlAv1Pm3UanGKZgsSp++qlIfwzFwUFaVkaYIbYhreZvyWSQ3pp42v5riXjwIFT16aRIpZAU8UMiacqdCgWMm0MiwUQjK1ZAR5l33oF4N3489GtJTNRsm1gshmaRenpQibh+PdzVfQO/LxCMqOlzqz0j4iMppEDKB1KBTuhQdfIYhikZUfU6cd6LJEAwopaLpQ4j8hMSSCYTy+bNl79ws9dysDab0bmirX7Z3/0Zsf1ODqmG/9qqEAHwLvS2CbBZHLL4Mf0xgiEwGYDnAhjvJv4w/IzTqnQvIyINDcyjR0njjUosJwnT0rosnbdWouqJjVgsGLOmb18YIMbDQ7FrV96VK6JbtzAaTcdGcm3fPIZBA0caDUKhiwswMYEb0P37w4g8CxaAa9cgsLZLe3I5BE1TU/DJJxA3Cws79Xtl2zfUne8SjKip9DvKiJqOp3Z9ghHVFlXPrUgwopZrow4jQi+E8Ub0X39TsDprxwhBsUsJZItjcbbujx7kVcsUGhvkaXn/Xd6sWli9IWaDsbfx+ezz0BJRzAVRf8IIXj5OoDJd6+l0IyOiQiHX37/EwrJ4vBHX3x/rTGsEreXTkxsKhTAUy/vvQ+/jp08BhyO/fz+mqqqBz+82baxcDnEwIwP88w9Mmte/P4zLM2wYDIK9dy/c/m5xkWtroTLywQO4T/3RR2DRIhhuUOd2fj15KVXnRjCiqjTUOScYUR0pEXW0kwDBiNrJTa08K/TtO4rHGbDOX0A6zZo1rYyz5H+p41yizsSQavktZMXR8va0akaqI51IP5HJzJTpwqJFdQrlvPL9yfsn+U1aHLI4tSpVgSpAYTC4Mg2cHgPSLnUkA313MSImlQqTk8vs7IoNx9ccOUrkU1FdbnXOURSUlUGt2zvvgB07oHWgXC6PjIzk8XiqkW/V6UrndVAUOlAXFsJ98F27YBq9Pn3gBvTEiTBHi48PzKeH20rK5bDOypUQKC0twccfQ0/q2Fh4O29sIRhR06UnGFFTiRH11ZcAwYjqy+qVmu3qETEMK7ObW6Q/piEiopMcVrgimfO9vHEuUes8n2bSuGi7u1mv3IGOX2AYdij10NQ7U3c+3Pk8bKGORsAw7HTm6Wl3phl4GlzIvsASsQCPDpMyH/0a3FsPaos6Mk63MCKGIJKiItratcWG4ys2bJRVVHTkFt7MtvX1MCjMe++BkSOhOWBjqJqewojKFVEooE1hYiKc6vz5EAE//BAGaFywAGZ5iY4Gx46BSZPgxf/8B8KuiQkkSKFQ2cGbeEIwoqarTjCiphIj6qsvAYIR1ZfVKzXbYUQMU3A4JJOJxWPGSoqKOmPrCw+IaHUKBkS8m1EpkHanqwoMbcB+NvPuTAMvg0l+ky7nXA4vD4+mRuvk8Cf5z78/f7zX+HGe424+u1kvroPxbs6bwLjZOX5A0SGVSzcwIobJ6PSq/ftJE4wpC+1FTzsaiuyV5/LNeIEgMGOyoSGkq4MHn9vt9Rw9YvNF4PHgBvStW2DTJuiS8u670HPZ3Bz+fPvt507ZffrAaIj79gEKpXkHb9AVghE1XWyCETWVGFFffQkQjKi+rF6p2Q4joqgwPb3YwJBsPUPeOYldSTUNK68/0T8Q6RJSUFEnemVyXf5Cjsp/S/gNx7hxnuNmBcxyDHF0CnXSyTHv/rwJtyaM8xxn4GmwOW5zUfF9cHsFODoYhP8BuNqGGHkhoq5nRAWbzb5ytcRyEtnamnf/PvbG2p29WAItfrNYwNUVkpaJCaBSn3fQkxkRn6JCAUpLYcLorVvh1rNqvB78vG9faLx49CiM+P3GFoIRNV16ghE1lRhRX30JEIyovqxeqdk2I2IIUufpVTzOoGLDRoSr+7R4EjlyNLxowqGYRZeSk8lsOdKdrioKVJHMSJ7oPXGc5zjlMTdw7qrwVT9E/tDBwzHEEQdEnBEn+U266+8gOKMPrk4HpAiAdlR72sWMiPD5vJDQMts5JRaWrHPn0U7K4/bKo/q6vZDJYIaP0aNhgJhz517eXc9nROVcyWQwZw7cKFcmksYZsU8f6NT8xx+g0wyYlVPouScEI2q6NgQjaioxor76EiAYUX1ZvVKzHUaUy6v27C0eM7b2lBvK1zIsyyvjvfoirog56/RDo4MxN1OoXKEOQp6+2r1mr/gy/oboDUo6xGFu2YNl90vvp1alduRIqUrZGrd1os9L+jTwHLftyujC0yNAwjEg0EEEvK5kREwqFaSkUFetJplMrHLe3akRkTRbwl5Vm8GATirvvgtmzABVKskXexEjAgCuXIGJmJuoEvv0gZ4rDx70qvXQ9WQJRtRUogQjaioxor76EiAYUX1ZvVKzbUZEpVLKIoci/TG84BCdO6zU8CQbvDL09kdu88sm1wq61VMFSBFpOCXc6JZRE0acdmdafEW8RNEhV2sGn7E4ZLFq5wae4ybfGHPHb56AEt9+xLlXVqzlF13GiBiKSoqKGDt3koxNKn5cK8rJaXlCxNU2JSCRgLAwuCH79dcw3LRq6V2MWFkJPVfee+8lJvbpA51adu4ELJbqbb1x5wQjarrkBCNqKjGivvoSIBhRfVm9UrMtRsQwRV0dydikSH+MuKBAtw4rCIp5PKZMOBRjdSohvpgpkSOvTKtrX2AYViWoWv5guSogKs/3J+2vaOiQx+61vGvmvubKDpUnv4atKqh6opN77TJGlFXSa93cSszNKYsWNYSH6wRwdSKB3tVJWRn46ScYE9HevqnRXu9iRADA5cvQKVu53YwrEUNDe9eC6H62BCNqKlOCETWVWHfVxzCMzWZ7eHgIuzt4AZ1ODwkJyc3NBQDU19ffv3+/vLy8RbEQjNiiWNq/2AYjYggizssr0tMvMbdQ6Nr4PJ/Bsz37SP9ApHtsCYvfIZfe9m+yvRoiuegu6a6Bp4GS3lRPbAJsMpmZWgerQ1Bk+YPlRl6vaCjx/q39rSPKI7TuWfW2uoYRFXV1dV63yDNmkmfM5Fy/rnPVsuodvcbnQiG4fRsMGgS+/Rbcu9f0RnsdI/6bDObPP2FkREdHeCxeDDM16yqFYFPp9J7XBCNqulYdZMQGWUMmMzOflS+U6yzqEplMDggIuHLlysWLF69cuRISElJSUqJdRuOHDx96eHhkZGQoEy7T6fSYmJhnz561LSgGg+Hj40OhUBQv/AJpNFpoaGhBQYFCoSgqKoqNjaUqXd6a9SUSieLj4/39/T08PCIjI1XzNQMAOBxOfHy8l5fXrVu3kpOTuS+8DoRC4bNnz4KDg2/evBkYGFjzqseqTCa7efPmrFmzuFyu8v9XaWlpSEjIjRs3PD09ExMTOa8yg0gkSk9P9/T0TElJaTbHVi/U1dUFBwf7+vpWtBJYLSEhYcGCBRcvXgQA0On0LVu2HDlyRDkl1X4JRlSVhgbnbTGiTMb1v1ukp09bsVK3xogCieKPgDy9A5HLrqYV1/C7NyCiAlUU1RU5hToZeRn9EPnD5rjNTY49j/eU1JW0+NipI2gFqjgas3Xr1TGbL49scjgHzH9SkYBiOvDU6QJGREWihojIcqclJZaWNUeOdl7SHXWk2nvrYBjIzwdLl8JMJKtXwyDVTUqvY0QAQG0tzOBHpcKDRgP19U3u6U18STCipqveQUZMYiT9EvvLzoc7s2uzNR26tfp+fn6TJ082MzNzfFF2795NIpFaq9/G9XXr1vXr1++nn35SNo+JiVmyZMn58+fbaAUAKCwsnDZtmouLS3V1NYZhQqHQzc1t0aJF9+/fl0qlHh4ey5YtCw4ObrETuEVWVbV27VpHR8dvvvlmwYIFfJVPHLFYfP369eXLl9vb2y9cuHDlypX37t3DK1RWVl6+fHn58uVmZmYmJiZJSUnK/jEMYzKZFhYWfn5+SmzNz8/ft2/fqlWrli5d+v333x8+fLi4uFjZBEGQ9PT0NWvWjBgxYvv27crrbZ/I5XJfX9/Jkyfr6+s/aMW6WZURxWJxeHi4qakpo6WkwQQjti3tVt9tgxFRsbjm0OGi0Xo1Bw+hInGrXWj+RlhetdHBGONDMaG5VUJZR116NR//lRYcMcc903281/jFIYuzmdl0Pr3JwRFzYEIUrQuG8eIPMU4MoR/u/+rxGctviYyuff491Rl1NiNiCoXo6dPKTb+QjE3o27dLtPqUVJ3wG3ve0ACuXoVp9wwNYfTp5qU3MmLzuyCuEIyo6TPQnBExDENQRJ2jXlJ/PP24ha/F5NuTr+ZebZA2tNtKnen5+fk5OTldvXq1qqqqoKDAzc3NwsLC3d0dACAWi/Py8sLDw4OCguLj45VcIpfLc3Jy8Ovh4eEFBQUiEYzptm7dukGDBpmZmXl4eEgac1k2YUSxWJyfn6/aoVIx4enpaWlpGRAQwOfzY2Ji5s6de+rUKSaTWVFR4ezsPGnSJGdn54CAgLS0NOmrqY0wDKurq7t+/XpkZKR9Y1FlxIyMDGtr6927d2dlZaWlpa1evfqHH37IyMgAALBYrISEhAcPHhw/frwJI8pkspiYmK+//prFYuEzFAgEGzduXL16dUhISEVjKSwsrKurU0q4oqLixIkTdnZ2c+fOxRkRRVEWixUdHV1WVgYAwDevg4KCqqqqlGrajIyMH374wcHBYerUqUpGRFGUTqcnJCSEhIQ8evTI19dXqUcEAFCp1MmTJ9+4cUM5tPKEYESlKDQ7aYsRBQLqylVFo/W4d/wxmW6cjjEAqnli+4vJo/6M2BOYx+rutHtSRJpET5ruP33qnakBJQGayU7N2kIOOGsAXD8FLh83PY5+DdI9gFwH/N25jIhh0rKy6v0HSCYTaatX8x8+VPPWiWpNJICiMIXx3LkwA/LmzS2nqiMYsYnQeulLghE1XbgmjIgBjCflxdJi1Tm8CrycQp1wG54fI3/0LfJtu1VCRYI63/z9/PyWLVvm7e0tkUh4PF5QUNCUKVN+++03kUj0+PHjDRs2zJs3z9bW1tHR0cXFhcPhYBiWlZW1atWquXPn2traLliw4PTp03Q6HWfEBQsWzJ0796effsL3l1UZUSwWJyUlbdy4cd68eTY2Ng4ODgcOHGCz2TiESSSSzZs3Ozk53b9///vvv9+wYUN+fj4AIC4uzs7O7ssvvzQ0NJw5c+bBgwfrW9Hhy2SyH374YdGiRaqMiHNbamoqvlJ37txZuHBhE8AKCAhowogNDQ3Ozs5z5sxRwtyTJ0/Gjh1748aNxMTEhISEzMxMDoejfLehoeHGjRs7duy4ePHiTz/9hDOiQqHIzs62s7P7/fff/+1QLBZfunRp9OjRycnJ+G44k8nctm2bm5vbyZMn7ezslIzIYDBOnz49u7GsWbNm7dq1M2fOxPeacbTdunXrsmXLmj97BCM2l4laV1plxMYMKyUWlkWj9UQ5ObpyWJEq0NMxpFF/Rkx3Syio4ilQTK1Zdk4lFEOpDdTfH/5u4m2yJW6LSNEZEbwxUJYAjg5qSodKXoxwBvWVHb+/TmVEBZvNOne+dPIUytx5XH9/XT0MHb/rXtdDXR34+2+4y2xpCZKTW54+wYgty6W3XSUYUdMVa8KIKIbms/JVTcN1eG7qYyqSt/+B7+fnt2DBgv3798fGxgYEBPzyyy96enrHjh0rKipau3btxo0bs7OzaTTavXv3RowYge+9bt++3dra+uHDhwwGIz8/Py0tDdeorVu3buPGjadPn3ZycnJ3dxeLxaqMSCKR1q5du379+qysrIqKiqCgoGHDhvn4+CjNB4uKiqZNm2Zubj516lSlWaFMJjt//ryDg4OPj09dXZ1AIFCqHpsIv0VGXL9+/YYNG4qKnqeBTU9Pt7e3P378uGonzRmRw+HgbKekwLNnzxoaGm7YsMHJycnW1tbBweH69eu4CaNcLo+Ojv7111+9vLwyMzOVjAgAEAqF9+7dGz9+vK+vb3Jy8nfffXf27FlcDyqRSM6dO7d+/fqCggJvb28lI6IoeuvWLTs7OxcXl4KCgoiICAcHB319fSUjNjQ0uLu76+npNbl9AADBiM1lotaV1hgRpuItLCwarVc83kjBrdeJ+yqCYjkV3PEHo/X2R3qmULt9l5kv498ruTfRe+LcwLlPqnXjX9xM6BgoCgVHvmqVEUN/AxyobO9g6QxGxBAElUqR+nqu3+0yu7klFpa1bm6K2lpUIiEwUYv1QhAQHw+mTYO5SfbseZ55r3k/BCM2l0lvvEIwoqar1pwRyVzy0gdL2z2s7lgpk2PhHGl0y2jm3ZltNFwTsUadiGZ+fn5mZmYjR440MTH59ttvBw4cuHDhwqysrLCwMH19/du3b2c2lqSkJHt7e0dHR6lUun37dgcHh4SEBCqVWl9fjyDPQ3bgjPjkyZO9e/euWLEiMzNTyYgKhSIqKmr06NF+fn54hykpKXiH+D41AEAul2/btm3AgAE7duxQ9VBpYo/I4/Fyc3MzMzNxeFUuQYuMuHTp0m3btpHJZLzas2fPHBwcXFxclGAKAGjOiCwWy8TERBUl9+3bN3DgQJzksrKy9uzZM23atICAAIVCQSKRdu3adejQIS6Xm5WVpcqIuMfMn3/+qaenN2fOHEdHR/xmMQx79OiRnZ1dbGysRCLx8fFRMqJQKNy5c+eKFStwrpXL5X5+fgYGBkpGFAqFN2/e/Pzzz5ViV5UAhUKJj49X3c6WSCS7d+/esWMHvvuvrIyfvNXkdQ95KRQKLS0tg4KClNagnTqxVhlRKuUFhxTp6VPsF2GvmjhoNx8MAxyhbN3Np8P2hK26ns4RyrpThQgAgv0/e+cBF8W1/v2b/L3vvYlJzE1i7vXGJFdjiwIq2I1gAUVEqWJBxQrYG2JDpUgRARHFFhRUqoCodOlFepG6S186u5RdtrBldua8GUZXquwsC4LO+czHTHlOmd+ZwJfnnPMc4Wva680hmxd7L7ZN6/aXk2Qv2E8uBNRlA5uf+mZEi3+BaAvAovaTF8ftoWBEQWMjKzm52c2tUndj8fQZVXqbWtw9GGFhrKQkQX0DjsYRpp0KUKng4kU0aLayMuiM1dC3LgQj9q3LaLtLMCLeHuvBiAAAGIG5EPf9B51Lv/Tq0mLvxaLAFLIesst8ll3Pvs7gMt6Tt6u3rL+ment7a2trOzs7FxcX+/n5YaOfDQ0Nbm5uX3zxxaxZs2Z3Jjk5uVmzZuno6PB4vNTU1BUrVigpKRkbG9+9e7eoqAjzjWGMWFpa+vLlSz09vcuXLz9//hxbs8JkMt3d3XsUOHPmTB0dHREjFhQULFu2bOrUqerq6klJSSI86MGICQkJK1asmD179tKlSy0sLETv1Scjbtmy5eDBg6WlpZhZXl6elpaWhYWFqPA+GZFKpc6ePdve3l4koJmZ2XfffRccHIyRVnV19bp16ywsLKhU6tWrV3V1dSbde7EAACAASURBVL28vAoLC/39/bW1tbdv315eXt7Rgc6wgmG4uLj4p59++uabb7Kzs7ECBQKBqqrq0aNHExISCgsL7ezsli1b5urq2tjYSKFQ9uzZc/jwYdH668jIyK5jzRwO5/Hjx99//32PeZmEH1H0JeA+6Y8RYRaryf4qaeas+tNnEIEAd7m9MnAFwieZNb+eDpG5FJFFafuwo8wAgCZO0/Xs67Mfzt4csrmWic4XGarEpAH738Clcb0wcRxwmgUKg6Tiox0KRmTFJ1B2GJBk5Ypn/E6WVyhdpliqqFSqqEQx2MmMjh4quT7ScoVC8OIFui/zxInA1vZ9fU4w4sfxCRCMiLcfezOiOCVkNGZsCt7Uexja8KVhPg2dtDeY1HU+IpvNDgkJ0dPTe/Dgwd27d2fOnJmUlETpkrB1x1igvvDwcDMzs9mzZ2tpaWHR+0SMyGQyra2tNTU1L168qKur6+Li0t7e7ubmNmPGjMTExC7lUUQFslgsAwMDHR0df39/ZWXlc+fOUSgUjKh6MGJHR0dtbS2FQqmpqekafaZPRjxy5Mj27duxqY0AgPj4eA0NDScnp66K9fYjtrS0KCsrnz59WjTW7OrqOmHChPT0dKxJHA5n48aNp06d+stDeenSpZ9//vnXzjRhwoSxY8d+/fXX6urqWKVsNtvX1/eHH3746aefHjx4gEUF+mtdzpIlS3755Rcs1/fff//Pf/5z/PjxlpaW2dnZhoaGBw4coHUG6EcQJCwsTElJSeRHZDKZLi4ukydP7voK2Dkx1txbE7Hu9MeIQjq9ep8haZZMq8dD5G1YJrFK7MsIhpFyGmuJbcxv50Jtw4r5kBSivfRVj7j3BLAgtiZ2ud9yZX9lH5KPuNlw2yGAxwIhJ4HlD+Dyv4HFd+8w0fxfwPonEGUBGNLB06FgRHRT5pCQSt2NZHmFRmvrjoICLpnMJZN5VVXCT3kjXtyfAZqhthYcOwbGjEGDZldUvK8IghHfp87oeUYwIt6+koAREQSxSrVa7L24NyMq+ireyr0l8nXhbQxm35URORwOhUIxMzPT09N7/vz57Nmzvb29uVwuBEECgYDNZmO+MRaLhd2EIMjPz09BQSEsLAxbs2JoaIg57ZKSkrZs2aKgoLBhwwYXFxehUBgTEyMrK+vp6dnR0dG1QHRlt1Do5uYmJyf38uVLHo/n7u6uqKjo4eGBuRjd3d03bdr05MkToVDY38tCEMRms7dv375hw4bW1laBQIBZurm5LV++PCwsjMfjcbncmzdvamlp+fujazexegUCga+vr7y8fFxcHARBGBS2t7cfPXp0w4YNIkZMS0ubMmWKl5cXnU4XCAQFBQWqqqr29vZ0Op1KpZLepsDAQF1dXQMDg6qqKkyi7Ozs+fPnHzt2zMHBYeLEiYWFhXBnqqioeJuJZG9vr6ioeOfOHSqVyuFwzMzMdHR0Xr16xefzGQzG7du3Z8yYIWLE5ubmY8eOaWpq9u5ughF7ayLWnf4YEaLRSpevIMnKsdPT+505JVYNqFErm28WVDDpTOgKhzg65wOPMiMAKW0rNYk3UXiscDjmcIc0lhX3rQSfDeLsgMW/gNV4lBTvKgLbn1FYvPwfcE0WJDiA9rq+M+K/OxSMiAgEVAdH8vwF1fv2cbKy8DeKyPFGARgGXl5g+nQwdSq4fXsAWQhGHECgUfKYYES8HSUBI0IwdC7p3B8+fyzwXNDjUPRVdMx0FGfx8nva2YMRhUJhcHCwkpLS5cuXDx48KC8v//Dhw5ycnLi4OCcnp0ePHkEQZGdn99cyi/T09IyMjP37969atQqLGi3yIwIAsDUZ33777fTp07H4iNXV1YcPH54zZ46Hh0fXAvl8/l9xvGfNmmVjY9Pc3AwA4PF4hw8f1tLSio+Ph2H4+fPnWlpaZmZmJBKJSqWKuE30Unw+PyMjIzY2VlVVddmyZX8NziYlJWE429jYqKampqenFxgY6OXltXLlysOHD2OTHXk8XmVlZVJSkpWV1fTp011dXdPS0igUCtaAgICAiRMnisbBYRjetm2bkpLS48ePExMT9+7du2bNmqioKFEbsJOu8xERBKmqqtqzZ8+qVatYLBaHw1m9evWaNWtaW1t7kG7X+YgAgJCQkHXr1u3ZsycqKsrNzW3p0qWzZs0SMWJ1dbWysrKzs3OPqomx5t6CiHunb0aEYV5JCbZgRchgvG9gTIx6eBAcT6ZOORf6+4Xwl0WNH3ZfZnQ5lYDtS/Kd+2iu5jPN1IZUMd5AIhNBB8hwQx2H5t+ChKuAzwawEJ2bWPQcXenMbhmkqj3aNBSMyMnKpmzbTpor3/ynm7SCH/Vo9idyWVYGdu8G//d/QF9/4A1ICEb8OL4KghHx9qMEjAgAaOO2ldHLiluKexwVjIp2XjveNvSw9/Hx2bp1q5eXF5fL5XA4CIKQyWRjY2Ntbe2/WOrSpUvTpk376quvfv755w0bNiQmJgqFwmvXri1atOj7778fP368iopKZGQkxlL79u3bv3+/aIFIVlbWxo0bp02bJuKbpqYmCwuL6dOnjx07duLEierq6vHx8X8t+9i8efPatWsxPsOaRyKR1NXVz5w5U1dX19zc7ODgMH369C+//HLz5s3YIGzXt6ivr580adLfu6eucxB37NgxYcKEiRMnHj16tKioCMtbV1d36tSprpkmTJhw8eJF7Olf+21NmjQpJCRENHORRqOdOHFi0qRJEyZMWL9+fUxMTO8ZgTk5OYaGhidPngQAMBgMNze36dOnZ3V6HxAEqaio+M9//nPt2jURemJ1YUvLQ0NDsUs+nx8QELB06dIffvhBRUXFxMRES0vr1q1b2LKexMTEX3/9tb6+HjPu+i/hR+yqBo7zPhkR5nLbw8KLf59ZvlZt8ChDaWFjAREPemXDHzTYDaZLRmPGlpAtS32W2qXbSWWPkz7kFnBBQSCwHA/Mx4GwU4D/NsgCggAEHrykvWuUOiMiMNx0xZ48f0GNoSEnO7t3jcQdMRVAEHRH459+QoNme3sPnIlgxIE1Gg0WBCPi7SXJGBEdGEV/pPZx4G1Ab3sYhoWdScSI2CAsNrArFAqxcWGBQABBEOYAg2G4900AAFaOyEmGlSMawMWq7rNA7KYoIzYQDEGQaHBZVGPvxbwiY0H3JCpNNKYsEAhEBXYda+6aT1Q+j8dzdnZeu3Yt5o/s0XiRFD30FEmH3cea3bUlAoGgtx+0hxm20gVTGBNBKBRiuRoaGk6dOmViYiIqs2sDCEbsqgaO8z4ZUdjeTnO5QZKRrTt2fJBA08bm34wt++1s6GLbmMoWqW2jieMNu5s2shsdMx3nPJqzM3wnpR31nEs/QVxQGgnsJqETEJ/sAlwm+kNsiJPUGZGTnU3R30aeM7flgTuxL/Ngeu/1a6CrC/7xD7B/P3i7G+r7yiMY8X3qjJ5nBCPi7SuJGRFvRXjtEQQRMSLevB+lPYIgTCbT0tKy99DwB3xfGo12+/Zt0YY3PVpCMGIPQcS97JMRoebm2iNHSbPnNN++I25Bvez4EFxUz7j4rEDB6qWceeS9hIoPuy8z+pccLAytDFXxV1kbuNaH5DMkTkSIDyoT0Y1VLH8Aj7UBq3kYABEAIF1GRITCJlvbkgULawyNODk5g/w7oden8QndgCBgZwfGj0eDZr94IZaQBCN+HN8HwYh4+5FgRLyKfUB7BEFYLFZvt98HbBIMwxwOp78mEYwoYdf0yYiC+vpytXVkeQVmXJyE5QLA4kEBWbUzL0ZMNwvb5pbG4EhnNz+J24Nujt5SdDL+5ALPBacTTrdx2wZTVN95hQJQkw5uL0UXqdxfDVorxYKCvsvCd1e6jMjJzq7avIU8V7714SO4c7NRfK0hrN8qkJwMVFXBN9+As2eBmGvBCUZ8K97o/i/BiHj7j2BEvIoR9uIrQDCi+Fp1s+yDETsXrJBk5UrmLxD0NfezW/7+LxoZXNsw0q+nQ5bYxiSXNQ/5aGv/LcGesPisBwUPFnsv3hKyJbEusc8pCwOV8d7nsBDU5wD3dejK5buKoCEPnXo4XEmKjIgIhY02NiULUSdix+vXw4a5wyXV8NXT0YGi4b/+BVRUQFycuEISjDh8PTSUNRGMiFddghHxKkbYi68AwYjia9XNsjcjwlweMzoaXbCyRlWCyIg8CG5kcMuozKDcWsUrsb9fCN/3MLOwnlHZzKZ/UFdiYm3itrBtSn5K17Ovi7NTZzeZBrxAYNBYAHy2oFszuy4GlQkAhgbMJEUDKTIiJzunSm8TWV6hzdMTZrGk2MhPraiICPDHH+hAs50dEF9IghE/ju+EYES8/UgwIl7FCHvxFSAYUXytuln2ZkQhg9F870+SrFzN/v3dTMW7KKOyrEOL1V2SlK7GTT4bOvlsqIJVlLpLku7tlCeZNeKVIX2rela9TZrNAs8FB6IPkFvJUq4AQQCVBJ4aA5uJ4MY8dINmiCflKgYqTlqMiDoRL1uXLFxUY2jYkZcnru9roOZ9gs/pdHDwIDrKrKUFMjJwCEAwIg6xRrApwYh4O4dgRLyKEfbiK0AwovhadbPszYgQlVp/+gx5rjzV6Vo3U/EuWli8WBLVPoKs7pL06+kQBaso69Bi9+Sqx6mU/Fq6eGVI2QqCocDSQLWnauuD1vuR/fhCac+MbCkDYabA7n/AeQ7I8URDIQ57khYjduTmVurokhXmtfn4wEzmsL/Hx1NhQACQl0d33nN1BWw8XwTBiB/HR0AwIt5+JBgRr2KEvfgKEIwovlbdLHszIr+6unKjXsmChe0hId1MxbsQwgiHL0wua9ZyTf71dMgKh7gsSlt7h6CdK+B9oC34CpoLjsUeW+S1yDzFvIHdIN57iG1Fp4AYK3B1KrgmA1JcQccQLIURoy1SYcROJ+LlkgULq/fu4xYUEk5EMYTv26SpCRgYgLFjwfbtoKCgb5v+7hKM2J8yo+s+wYh4+4tgRLyKEfbiKzC6GRGCIC6X29GZmpubFy5cGBgYyOVysaibQ/qvQCCoqKhIS0vj8XhoRRDELiwkL1hYsmQpm0SSrGoIgmKKGudZRf16OkTZMZ7cwJCsHKnkYnQwXHNclXyVtoVui6XECiA0UqjUEr0WTnQC12QQx9/hGGsho15qJeMsiMfjpaWllZeXY6FQceZ+Y87Oza3Q0CQrzGvx8ubT6ZIVQuSCIOH9+/CMGeC33xAPD5jFwicJl8sNCwtra2sTRYjFl5+wHhkKQBBEpVKjoqKG5yf5yHjpQbWCz+dTqVQKhcLj8ZCRlGAY7ujoYLPZMAzjatezZ89cXFzKy8tx5Rp+Y+zv0jNnzuzatcvf33+k6S8VQbhcbnl5eUxMTE1Njei3JJvNPnXq1PHjx7lcbm/c/FvvWx/qTnBwsLGx8a7OtG3bth9//NHR0TEjIyNn6FN2dnZCQkJkZGRWVlZOTk5uenq+u0fx7zMLFJWykpMlqz81M/tq4KvfzobKmgUb3AiPSEyXrJzB58rOzn6c8nhj0MbFjxaffXE2LjVu8GWKSijMiKeGWMPX5bmXf6Hc25YT+0z0aPhPsrKyIiMjExISsrOzJaw9K6vE1JQ0b162hmaWv3+OxOVIWP3Hky0igrRmDfvLLxFNzbrAwNd4XywrK+vFixdpaWmSdyXeKgn7IVAgOzs7JSUlJCQE+9E6BDV8bEViH3xJSQmDweCMjNTW1paUlHT16tUjR44cOHDAzMzM09OzoqJCzNbFxMT4+PiUl5eLaU+hUE6dOmXYV3JxcampqRGzHLxmmZmZO3fu1NfXv3jxYmRkZHt7O94SRr49nU4vLi6Oiop69eqV6Edramrqzp07RwEjvnr1ysHBwbYzmZub//LLL66ursXFxSVDn8hkclpaWkxMDIlEKikpIWdlFdrZFcvKlWzbLnHliVkFJx4m/n4hfJfbq9ic0kK04A+T4nPiDz0/NP/R/AMRB6ILoqXYiNL8zKqgy4wrcsiVyVx/44a8OCkWLkFRJBIpJiYmLS2NTCZLkL2kpCT/aVDBqlWkufIVd++W5eVJVgiRi0wuMTGp+c9/uLNmwffuUYuKyvBqQiKRgoOD8/Pz8WYk7EeaArm5uWFhYdiP1pHWthHYHjKZXFRUVFZWxmQyufhTW1tbfn4+iURiMBj4c/edIywsbN++fTt27DA1NT1z5syJEyfMzc1TU1P7tu51l8lkYrzb60nfN+rr6x0dHc3NzS9evLhjx47PP//8+PHjly5dMjc39/LyamxsxLJxOJyOjo6+i5Dorre3t5qa2p07d6hUqvjiS70ZWNvZbLZ03w4rtr29nUwmR0dHZ2VliX5LFhQU7Nu3bxQwolAo5PP5vM7U2tq6aNGiwMBAHo8HD32CIAgba+bz+TAM8+rr6y9cJCvMa7SxlbjyvJq2PR4Zi2yi78SXS1zI4DPyIb5vse+6p+vUg9QDSwM7BB2DL/NNCVwmnBeA/KmMrlMJ3IfUZsOdW0ZKrXz8BfH5fGysGdsAFG8BQoGgwcqKrDCvetfuDjIZ2wETbyGEPQzDRUWwsjLy1VfgzBmEQpFEEh6Ph401E70giXwjJg8EQTQaLSoqanh+ko+Y95a8IYMca66qqvLz8wsKCqqvr5fK6ORfvxMvXLigqakZEBBQVVVVXV1NIpEyMzPr6uqam5ufP3/+4sULBEF4PF5cXNyFCxfInT85EQS5e/dufHw8m82OjY318vKqqalBECQ+Pt7X1zckJMTNze3y5cv3798vLi7u0U6hUMhms1ksFp1ODw4OHjNmTHFxcXt7e11dnY2NDeaVtLa2fv78eX19fUpKiqurq6Wlpa2tbWBgYG1tLVYahUJ5+PBhcHBwQECAlZWVg4NDQkKCqKL4+HgnJ6eLFy9aW1v7+vrSaLSIiIjNmzdPnz5dV1fXwcEhJydHIBAUFhbeu3fPwsLiypUroaGhDAYDQRAOh5OYmGhvb5+Xl+fk5HTu3LnGxkYXF5fw8PDAwEA7OztbW9uEhAQajRYXF+fo6HjlypWYmJj29nasdiaTmZKS4uzsbGFh4eLiEh8fz+fzEQRhs9kODg4xMTFPnjyxsrLy9PRkMpmiBkvrhMfjYWPNtbW1ot+Sf7k/R8dYc9cxbjabvXjx4qCgIAgajgB7Pdas8CsrKTsMShYvofv7d20VrvOEEtoqh/jV1xLiyFRcGaVrXNxSfDD64GLvxbbptrXMWqkVDnEBORx4bAB2vwBffUB5NZyxsvt7i0GuWeEWF5evXUuWV6D7+xPLmfsTecD7EAQsLcGECWD+fBAdDST7P5hYszKgzqPCgFizgrebeq9ZQRBkwBmOXC4Xc9dh9OPi4pKens5gMJhM5ptJ9v0UMWDz+Hz+0aNHdXR00tLSsLFU0c4LtbW1ZmZmurq6CILQ6fT9+/d/8803d+7cgSCIxWLJyMh4eHgwmczLly/r6Oikp6cDAOzs7JSUlAwMDExNTQ0NDTU0NMzNzWk0Wp/NgCAoOjp6zJgx1dXVMAzX1tZOmzZNS0vrWGfy8fEpLS318PA4fvz4sWPHDA0N9fX1b9y4QaejkUOSk5OVlJTWr19/9uzZI0eObNq0SUNDo6qqCgBAJpN1dHT27NlzpDP95a2srKwMDg7W0tL67bff1q9fb2VllZGRkZ+ff+bMGS0tLSMjox07dmzZsuXhw4cwDLe1tV29enX8+PFnzpwxMTHZv39/bW3tnDlz1qxZc+LEiePHj69fv37r1q329vY2NjYnT57U1tbeuXNnbGwsAIDH40VFRRkbGxsZGR0+fNjQ0HDPnj0vX74EALS0tEyaNGndunVYIbdv324Xc0+qPrXr5+boXrPS9aU+JCMiCLegsFRRqUxpeUdubtdWiX8uEMIB2bW/XwjfeDulto0jfkbpWrIF7OvZ15f7Ld8etj25LllqWzPDAlARD7z0gO0v6HbMpVHDHCu7P5UGw4jocmZra7K8AmWHAa+igljO3J/IA97PzQWLFqExEW1tQVPTgOZ9GxCM2Lcuo+0uwYh4e6wHIyIIwmQykwdKsbGx4eHhYWFhd+/etbS0tLKyevDgQVhYWERERGxsbH+5U1JShELh+1uIIMiDBw/U1dWNjY1v3rwZEBCQl5eH4QuTyXz06JG8vDyNRmtqalqwYMGaNWv09fV5PF5WVtbkyZPT0tIgCOrBiHJyciYmJvn5+WVlZRcvXlRXV4/rZ7fbPhlxxYoVL168qK+vZ3Sm/Pz8wsLCpqYmEol07ty5zZs3p6SkYIy4cOFCZWXlxMTE+vr6sLCwyZMne3h4AAAePnw4efLk+Ph4Go1WW1ublZXFYDB4PN6dO3fWr1/v4+PDYrGYTOZfnL127do///yTQqGkp6cfPnxYVVW1qqqqra3N3t5+3LhxlpaWVVVVVCqVz+fLy8vPmTMHc2S+ePFCXl5eWVnZ19eXQqE8e/ZMTU3N2tqaz+eXlJScO3du7969OTk5jY2Nr169MjQ01NPTEwqFLS0t//vf/2RlZf+CyKampubm5gG75v0d1+dTghH7lGXgm139iIhAwEpIIM2SKV+rBnX+RTJw/l4WLWy+c3Tp1PNhB72yBcLh24yuR0MSaxM3BW9a5rvsQcEDOk9KcRkRGNRmAL8dwO5X8GDtB4mV3eM1RZeDYURuSUmZsgp5rjw9IIDYWEUkKd4THg+YmIDvvweKiiAtDcCSfvsEI+JVfmTaE4yIt196M2JdXZ350CQbGxs+f+BAubW1tW5ubgYGBpqamps2bTpw4ICbm1tdXR0Mw8nJyfLy8i9fviwsLPz1118DAgKmTJnS3t5+8+ZNRUVFzG/XgxFVVVWfPn2KyRIYGKitrf3o0aM+VeqTEa2srKjUN0NzCIJQKJTIyEhPT88HDx4cPHhw9erVDx8+xBhx1apVpqamWMlUKnXVqlUmJiYAgBcvXsjKyt64cSM6Gp2d39HRgdm4u7traWk9e/YMAFBbW3vgwIFdu3ZhPk4IgkJCQrCxTYwRJ0yYUFdXJ2q2vLz8vn37GhsbAQBsNnvlypW7d+8mk9GNKurq6nbt2nX06NHW1tbQ0FA1NbWdO3fe70w3b97ctWvXtGnTWjrT5MmTjYyMhnTslGBEUZfhO+nKiML29lZPL5KMLMVgp8ipjq84AEqamMd9cxWsohwipb2didhNoXFoZ5POLvZefCLuRFFLkdj53muIIOhue0+N0TmId5eDPD8g+GBe0t4NlZgRsd2ZSbPnULZt41dXE07E3tqKeSc1FcycCb79Fg2a3doqZqY+zAhG7EOUUXiLYES8ndabEVtbWwPESN7e3thSDxFPOjs7+/j4vCfrs2fPxCQSoVDY0NAQGxt769YtAwMDJSWle/fuAQBIJJKmpubFixf9/f2XLVvW2tr6448/FhYWbt269fDhwxjM9WDELVu2REdHY7IEBwdv3Ljx7t27farUJyO6u7uLBmFramquXLmyefPmTZ1p2bJl8+bNu3nzJsaI69atc3R0xEqm0WiampqGhoYAgNbWVlNTUz09vb1795qYmHh7e9NoNARBujIiiUQyMDA4duwY/PbP3KSkJGVlZTc3N2ysefLkyV3xQF5e/uLFiy0tLVh1q1evNjU1ralB91RraWkxMjIyNjZuaGjw8fGRk5NbunQp1uBNmzZt3LgRe9TS0jJlypQrV64MhftQJC/BiCIp8J10ZURBQ0PjZWt0wYqFJb5Suli/KkejZ69yjA/KefenRpfnQ34qhIV+ZL+1gWtVA1RDK0N5Qilti9dSDkJOAPvfwM2FIOsh4LYP+ZvgqUBCRkQQXkVF6fLlpNlz6IGBMK79QPA076O35XDAvn3oKPPatbiDZvcQh2DEHoKM0kuCEfF2XA9GBAAgCAKJkWg02uPHj0WAaG5uHhgY2Nra+v6sXUHn/U1FEITL5XI4nPT0dF1d3R07dmBOstOnT69YseLcuXOmpqZ8Pl9FReXWrVtTpky5f/8+s3OTqh6MqK+vHxMTg9WFMeKdO3f6rLpPRvT09GS93ffd29t77dq1FhYWeXl5tbW19+7dU1FRcXFxwRhRXV3d2dkZKxljxH379mGXfD7/9evXnp6ee/funTt3bkREBJ/P78qIlZWV+/btMzY2xl4BhuGoqChFRUUfHx+MEadPn961zfLy8hYWFq1v/yxevXr1mTNnamvRBQCtra3YBMT6+vonT56sWbPGycmpsUui0WgQBGGM6OzsTDBiV2H7Pf+A8xF5ZeXV+wxLl/7R+tiz3/a99wGMIM9f1ytYvdS5/aqgjvFe26F6WEGv2BWxa6HXwquZV+tYUuLU9nrw8gJwmAac5UDqbcB58zfTUL0D/nIlY0QEgpps7UgyslWbNgsaGggnIn7h3+SIiQG//AL+9S/g5QUGuYUhwYgS98KIykgwIt7u6M2IYpbAYDB8fHxsbGycnZ2dnJysra1fvHiBIY6YJfRpJhQKKysrSSQSjUZrbm6ur68PDw/fuHHj/v37AQBMJtPDw+O7775TUVHBvJKWlparV6/+6quvMjIyMCfl0DHijRs3tLS0/Pz82tvba2pqzM3NFRQUBmTEurq6mpoaLPxhWlqajIyMu7s7i8Xqyojt7e1WVlYaGhpRUVF0Op1CoVy9enXZsmW5ubmDYUQsEuHBgwcrKiqYTCa2WLusrAxzN06ZMoVgxD4/wj5ufkBG7HidV7Z6TdnKVezOqa99NG6gWxy+8G5CxeSzoYaPspjc4ViX3aNFXIjrlOWk6Ku4OWRzZmOmdJaqcFpAwlXgNBNlxEQHwJT2bn493kGiS0kYEYZ5VVUlS5aS5GajTsS3c1Mkqv+TzsRkAl1d8OWXQE8PVFQMVgqCEQer4MjITzAi3n6QmBF5PF5SUlJQUFBaWlpycnJgYGBmZqY40w3f30IOh+Pq6nro0CEXFxd3d3dXV1cjI6P169f7dwb9EAqFaWlpX3/99f/+97/a2loYhuPi4saOrRv+ywAAIABJREFUHTtt2rSGhje/I4aOESMiIrS1tY2MjNzd3e3s7NauXTt//vwBGdHb29va2vrBgwc+Pj6mpqYrV66Mj4+HIKgrIwIAYmNj9fX1t2/fji0DWrdunZmZmVAoHAwjMhiM+/fvr1mzxsTExMPD4+HDh/b29nZ2dgQjvv8j7OPpB2NEPp+VkEiSm12xTl3QOf+0j8YNdIvSwjELKpC9FGkRLKVZgAPV2ON5RmPG+qD1C70WehV7MXjScGTymCDtLrgmi65TibYA9OoeNY6QSwkYEeZym+yvFv8+s1JHF2puIZyIEnfl8+foUpXvvgNhYaCvLZ3wFUwwIj69Rqo1wYh4e0ZiRgQAYFEZsRq7nuNtQ1d7oVCYkJBw5swZTU1NRUVFFRWVw4cPR0RECAQCzKy6unrz5s3bt2/HLtvb25WUlExNTRmMN796Hjx4cObMmaIi9Lfhw4cPL168mJmZiRknJSWdPXtWtISla70AAKFQmJGRsXjx4sbGRgRBqFSqrq5ueHi4aJVJR0eHl5eXnp7eqlWrjh496ujoeP78eT8/PwBAXl7eiRMnfHx8sDLpdPqpU6dsbGwAAImJicbGxsrKykpKSvr6+sHBwdgEx5CQEFNT04SEBCwLn8+Pj483NDRcvnz5+vXrr127hk2vZDKZnp6eGzdu7Nra7du3u7m5iV758OHDrq6umD2DwcCCJjY3NwMA6HT68+fPd+zYoaSkpKKiYmxsjL0+g8HQ1tb29fUVzYDsWr60zon5iBIqKZqPyKcz2nz9SDNnVelvQ95OVsVbaGZV64776Ur2sY9TKXjzDt6eyWceiz22wHPB0dijZXTUiT3YJOgA+U/A9dnA5r8g1AS0lA+2wCHLj5sRYZhXWUletIgkI0N/+hThSWnW5pC9oAQFwzAQY+WiBAV3y9LeDlasAP/4Bzofsb6+2yPJLghGlEy3kZaLYES8PTIYRsRbFy570XxE8acw4iqfMB4GBQhGlFBkESNya+ua7K+SFeY1nDsvYVkAhOY3LL8ap+X6Krkc/bthOBOMwIGlgSuerFD0VYyrieMLB45r0G/zIC7gswGPBUoigYsCuPxvELgX0Ej92o+AB3gZEWaxqA4OxTN+r9iwQfj2r94R8B5SawKPhw77xsWhS4wRRGrF9igIQcDjx+Crr8APP4DUVPDWv9DDCt8lwYj49Bqp1gQj4u0ZghHxKkbYi68AwYjia9XNUsSIbBK59tDh0j+Wtbi5dbMQ+wISwg+SKqedD9vjkdnAeBN4SezcgzVs4jRtfLFR/rG8U6YTlSPZ/i4IgLiA2QiKg0HmfZDiCq7JAcvvgacuGvVm6EBjsK+O5sfHiDDMq6goWbyYJCNLfxqESLYfiDSaPRRlIAi6auTlS9S999134PBhUFcn4ZYnAzavvR3IyIAxY4CpKXgb/GHATAMYEIw4gECj5DHBiHg7imBEvIoR9uIrQDCi+Fp1sxQxIjMzq0JDs1xlNfPt4vxudmJcUNu5ViFFU8+FnQ3Mh4eXqGAEdsh0WOS1aEPQhuLWYgRI5DgScECOJ3CcDszHgUvfvDmcZqG77cEfYP2NGJK/M8HFiML2dqqTU/HvMyvWqSODn0D3rhUf/gyG0Q1OXF3BTz+Bzz4Df/sb+Oc/weLFIDtbOk6+rm/I4wFnZ/D//h/4z39ASYnkQbO7lgkAIBixhyCj9JJgRLwdRzAiXsUIe/EVIBhRfK26WWKMmJaWRo+NI82Vr9igwa+s7GYh9kV+LcPocdYim+g7CYNe2yl2pZhhUUuRkq+S7EPZp6VP2QI2ztyd5hAXBcRLXejwDSaOA/FXAEsyx6QkDZEsDw5GhGFeeXnJ4iXkzpiII9w/ilcNMhkYG6Pc9vnnKCBix5gxYPx4dFBYKERJDobRlx7MXzEIAng8dEfmf/8bJVE7O/A2bBne9vZhTzBiH6KMwlsEI+LtNIIR8SpG2IuvAMGI4mvVzRJjxNT4+BZf3+IZv1O2bEUknVT1sqhpnUuSuktSRCG6Lc+wJRiBjV4azX0090D0gXqWpKsGmI3A8fd37kORH/HSOHB1KqhKGhRTDL0W4jOisI1OveZMmjmrYv0GZBjWdAz9u4tqoNHAxYvd6FCEiZhDcetWcOUK8PRE5ymWlKBgJ8HqLBhGB6/19dEh5r/9DQ2L2Ngoza+DYERRh47qE4IR8XYfwYh4FSPsxVeAYETxtepmiTHiqxcvGh0dyfIK9adPd3uM5+JxKmW2RaTBg3RyIxNPvsHavih/schr0QLPBRmNGQL4TVQCfIVCXHQOYtch5neM+A16P+Um4AxiezV8rZHEWlxGhGFucXHpH8vICvPonVG+JKlspOaBYeDvj0IbNsrcFRCx87//HR16/vJLMHYs+PprdFuUX34BCxYADQ3U+2hpCf78E4SEgJwcFPv65GceD+VLWVl0ITNW5oQJID1dmgPZBCOO1O8LX7sIRsSnV2fAl+bm5urq6sGHNsRb9fvtiXXN79dnVDwlGFHCbsIYMcnLq+b48dI/ljXfui1ZQSweZB9Bnnw29OST1x38YZq9hwCEzqWve7pO7qGcY6ZjG7dNssYDPgtdpNKVC3ucR1uC9pEYOlv0vmIyItTSQrvmTJKRrdTWgaU4Pipqxwc9KSsDx46hq4x70+EXX4Ddu8GRI2DjRrBsGZg6FTX77DPU6ThmDAp8X3yB3hk3Dt0r5YcfwI8/gl9/BfLyYN06sGcPMDMDN2+CBw/QEv79b3QsW1TF3/8O/vtfcO/eYLdXESlHMKJIilF9QjAi3u4j/Ih4FSPsxVeAYETxtepmiTFi/J07lboby9eotoeFdXss9kUZlXXMN3eOxctrUSWDmekldoWooQAWOGY6zn00d93TdZWMSsl3VRF0gILA9zFi0jXAHu5oPrikEIsRYbgjL69s+YqShYvafP2kOT6Kq61DYNzaigLcH3+grsExY8Df/97NlfjPfwIlJdDcjMbBodFAQwOorQWVlSAvD0RFoUPPDg7g1CmwYwdYvRrMnv2GAj/77A0+jh2LsuN336Hs+PXX3UrGSPGzz9AY2lIJoE2sWRmCr+PDFEkwIl7dCUbEqxhhL74CBCOKr1U3S5QRKytj7e1LFi+u1NbmFhd3eyz2RWIpTe9OiopTQkA2upn3MCQhIsxvzl/qvVTGQ+Zp6VMuxJW8UlgImoqAxb/6wsRx6A4rpS9H+NJmcRgRotGo166R5GZXbd4spNMll2sk5RQIQGwsOjvwv/9FfYFz5qA+P0PDd36+v/0NXbDS57g6DKNLT9hsQKe/YcfqalBeDshkkJsLYmKAjw+4fh2cOwf27gXr16OFd/UgilyJn38Opk8HJJIksxt7a0n4EXtrMhrvEIyIt9cIRsSrGGEvvgIEI4qvVTdLGIYppaVx582KZ86ibN8hlHT80S+jZqldzNY/0zKqhnzeHk/IS61PPRF3Ym/kXhkPGeMo4+aO5kFFwO+gg5cX3y5q7rq0eRx6M/TUiN2CT9SXAzIiIoQ5WdllyiqlS5e2ent/BE5EBEFhzswMRbevvwY//wyOHgUpKYBKBcXF4NGjd0dAAGhvF0kl1gmCoPMR2WzQ1oYG06mtRSNyp6eDM2e60afIj3j1KpBWJHKCEcXqoRFvRDAi3i4aRYzIZDIDAgI2b97MZksURgOvNIT9oBUgGFFCCWEYrsnLSzp4kDxnbt2pU5J5QgRC+FpUydTzYcd8c6ntg/DnifcSTeymg9EH53nOm/d43gLPBZmNmUJYKF7Wvqz4bJAfAOynAMvxIHAfsJ/8Fha/QT2IoSagqRAIJVoK01dtQ3RvQEaEmpqoTtfIs+dQ9LdBnbtnDlFLhqfY1lZw/z5YuxYdF/72W7BhA/DzAzU1b9aOQBC6ZpnJRA8WC0U9qSQIAmlpYPLkbkunP/8cnd1YXIwG1pFKIhhRKjJ+8EIIRsTbBYNnxOZmdExA6olKpTo7O2/cuBHbEBkA0NbW5urqKiMjg+13LEGNCQkJ27ZtO3ToUH5+Ppa9ra3t/v37hw8fHrC0Cxcu3Lx5s7FxWOOHDNiqEW5AMKKEHQTDcF1aWuqWraVL/6C5uEhWSgODezogb8aFcLtwEiSUKH612BVzIW50dfRCr4UyHjKzH84+GnOUI+CInbuXoVAAajPAHUVg9SMIMgYtZaAiDiQ7g6hLIMEBkMNBG2XkA+KA+6wgQiE7La1cdW3pMsU2L69R7USEIHQUeM8eMG0aukJ53jxw9Sp4/VqaEQp7fSXvbtBo4MKFblMSsfiITOkt5ScY8Z3co/mMYES8vTcYRhQIQHg4MDBAAxQkJUl5X6WEhAQjI6NFixYdOHCA1TnUNnhGDAgImDFjxi+//GJpaSns/PuyqanJzMzsjz/+GFA3bW3tY8eOVVVVDWhJGIgUIBhRJAW+ExiGG2PjstauLV+jygh6hi/zW+vMqlaD++l/XIl9nEp5e2+o/lvPqj8ae1TWQ/avaYhyD+UMXxoKJHbyIQhorQT+u9Edmf9UBtTOuZgIAjgtoL0OsGkjfA5iV4nf70cUNDZSnZzIc+ZW79wpaGrqmnF0nZeUoBFq/vgDXUTyyy/g4EEQEYEOLksQ5lCyF4cgNLCivX23g0KRmhORWLMiWb+MwFwEI+LtFIkZsaUFDTuwbBm6ZO2779CVZ48eSc2hCEHQjRs3du/efeHChb179yYlJfX2IwqFwsLCQjMzM319/X379t2+fZtKpSIIkpOTY2pqGh0d3dGBbk6bnJxsaWkZEhICQVBAQMCKFSvmzZunpqaWmZkJAOjBiAiCZGZmnjt3Tl9f39jY2N3dvbkZnVJ148aNSZMmTZ06de3atQYGBhEREXh1/jTtCUaUsN9hGKaFhuYtWlSpo8vJyZGslGe5dauvJejefhVPHtr9SDqgjihK1GLvxTIeMjIeMrIesn/4/FHYXChEJBrnY1FBwlV0QPmaLCh+Mcq9a1B6enplZSXcC5cQoZCV/Kp8nXrZ8hWtjz1H6WsyGOjPfV1ddG3KuHHo4PKDB6CsrO8ohpJ9xmLmEgrR9dFdj16Si1lS32aEH7FvXUbbXYIR8fZYb0bEVpXxeOjasv6OnBxgYoIuGhOFLP3nP9HoBObmoKio31w8nrg/CMvLy0+ePHn27Nn4+PhTp05dvny5ByPCMFxZWampqXns2DEHBwdbW1sNDQ17e/vm5ua6ujpDQ8Ndu3ZlZ2dXV1cfPXp0165dKSkpMAwHBARoamoaGRlt3rz5zJkzAoGgKyPCMFxcXKyurn7q1CkHBwcrK6sNGzbcvn27ubn55cuXCgoKy5cvNzc3v3fvnmioGq/an5o9wYgS9riQz2/28S2aJUMx2CnZNDUEAa5xZbPNIw96ZZdTWRK2Q7xsNcyaE3EnMCciholyD+XMU8w7BOhfafgSjwkKAsD1OeDKJBBvDwYzYI2v4iGxfo8fUdDQQHV0JM+Vr967T1Av6T40Q9JqsQoVCkF8PBqYUFYWjYCtoAAsLEBqqtTiEYrViGE0IhhxGMUewqoIRsQrbg9GRBA0QNXu3QMcqqpo4IKue29icU8nTgTq6v3m3b8fxUdxUmBgoKGhoZeXV2Nj482bN7ds2VJXV9d1rJnFYjk5Oa1evTovL49Opzc1Nd24cWPhwoX5+fkIgqSkpGhqap49e9bExERHR8fLy4vDQSdHBQQEaGtrX79+3dXVVUVFJSkpqSsj8ng8U1NTPT09rMz6+npLS0t1dfW8vDw+n6+hoXHo0CESidTR0QFBwxSNWBytRrINwYgS9o6gpaXJ5QZJVq7uxElEoq+N0SEwCyqYej7MKriIzRvC77UD6oisilzqgwa7ER2yHrKKvor5tHwIxlO1UACqU4CHOrD5CQTsBYxhitcjYSeJka0/RkSdiAkJFes3lK1c1fr4sbh/O4tR4zCYYL8kHByAsjIa4HriRDQGzdOnwzq4PAyv2aMKghF7CDJKLwlGxNtxPRgRhtFIAqIIU9I9GTtWrKVsf80+vHTp0sGDB4uKithsdnh4uL6+vr+/f1dGbG5uXrNmjYKCgqmp6enOZGBgMG7cuMjISD6fLxAI3NzcVq9eLSMjY2Nj09DwZi8GjBEfPnyYnZ29ffv2Q4cOVVVVieYjslis33//XUlJ6eTJk1iZurq6EyZMiIuLg2GYmI+I99MCABCMKIFoaBZueXnd2XMli5c0OTpKVgSpoX3fo0wFqyi3pMohjZ5dxagyTTAV0aHoRNZD1jrNmskXe9UAgoDmUvDiCLD5L7i/BoXF0Z/6Y0TUiejgQJaXrzEy5teOGhRGEHQ6kb8/Ogl9wgR0bYqqKnBxAaWl0tz1bmR2O8GII7Nf8LaKYES8ivVgRARBN0a/dGmAY98+NO5Vb4KcPh3s399vXmtrsaapZGVlaWpqLlq06MSJE6dPn961a5eCgsKhQ4eoVKpoXXNTU9Ps2bOXLVuGwRz278mTJ/Pz8wUCNCBGRETEggULJk6c+PjxY5HbD2PER48eMRgMd3f35cuXe3l5iRiRyWSOGzdOTU3NxMQEK9DU1PTkyZNkMplgRLzfFWZPMKJkugFOVhZl566y1WtafX0lK+JlUZPGzeR1LknhBUO4FB9BkKymLGV/ZREaik5kPWTXBq5tYou9FIPVBJKcwdWpwEUe5DwGg4mbI5lkQ5CrT0ZEhEJmbGyFhmbZKuVR5ETkctEwh2ZmYO5c9Ee/nBw63ygxEXRO+x4C7UZYkQQjjrAOkbA5BCPiFa4HIwKADnvw+QMcVVXoNOUvv3wXbeCzz9CAqfv3o4jZX3aBYOAxFQRB7ty5s3r1al1d3T2dydDQUF1dXU1NLTk5WcSINBpt5cqVf/kCW7onPp+PIEhzc/PJkye1tLSWLFliYmJSUlKCySJiRABAUVHR7t271dTUjh49iq1rZrFYkyZNOnXqVH19fddSMejU0dEh1jXj/boIRsSrWKc9DLeHhZWuXFWmsrrFywuRKMLb/aTKRTbR+x5m5tUOQWSqt6+FIEgZvexY7DG5h3LzPecbRxmfTjwtOuzS7eg88Wrns9BpiLeWgKtT0AA3XMbbGkb3f/tkRHQ5s/1VsrxC7YGD/OrqkfmGXO67ANcCARqq+t49dFOTL79EYx9u2gS8vNBA1kPqoh5RyhCMOKK6Q+LGEIyIV7rejChmCW5uYMaMbow4bx4ICBAzd79mVCp1//79RkZGOTk5VVVVFRUV9fX1L1680NbWtrCwEDEii8WytbWVk5OLiYlpampqa2urrKxMTExkMpkQBLm7u69bt87d3f3PP//U1tZ2dnZubUW3mejKiH+NLPv5+U2bNu2PzoSO73G5x48fX7JkSVxcHJVKbW1tLS8vT09Px8IxGhgY7N69Oysri5iP2G/n9XpAMGIvSQa6gfB4HQUF9WfPFc+SISvMq96/n5WQAOMMN8yHYMvgoulm4RefFTQzxZsDPFDD+ntO59EfFz2WfySv/Vw7n5bfwG4QHQweQ6zNmmEIVKcCLz10GqL/TnTE+WNJvRkRdSJGRVdqapUpq7Q+GokzEWEYjXrt7Y0OIufmotuZhISg4WwmTgRjx6I7LF++jO6MJ91VwyO/wwlGHPl9JE4LCUYUR6WuNhIzYk0NuopZRwdoa6OHjg64dg0MPsJ0eHj4hg0bnJ2d+Xw+l8vlcDgIglRUVJiYmCgrK9va2mIxtIVCYWlp6aZNm7Zt23bp0iUbG5sLFy6YmprW19enpaVt2LDB3Ny8urq6ra3Nyspq06ZNL1684PP5XRkRAFBRUbF9+/YvvvgC8yP+NaCcn5+voaGxe/fuS5cuWVtbm5mZWVtb19TUAACuX7+uo6Nz8uTJmzdvvn79uquGxHl/ChCM2J8yfd8X0hmsuPjaY8fICvOKp88onj4D3cZXT4/u7y/A8/9WbVvHAc/s3y+E344vF8JDGz27ilF1Iv7EYu/FNuk2Eu6811KObqxnMxHcVwWlUX1LMzrv9mZEQWNjk90V8lz52sNH+JQhj1uJVzYeDw18feECGrTihx+Anh64eBEsWIAGsPj9d3TD5djYT44OMQ0JRsT7LY1Me4IR8faLxIwIAGhuBhQKqKpCDwoFHXkYfIqKinJ0dExLS0MQRMSI2MqVU6dOeXl5nT17Fgt8CMNwWVmZvb29kZHRvn37zpw54+fnx2AwXrx4YWVlVVBQgIUkKyoqcnR0DAwM7OjoyMzMvH79enJyMtbOjo6OhISEXbt2YbF1OsfZkYKCAltbW8POdP78+RcvXtA7t5GprKx0dXU1NjY+cOBAdHT04N/0UyiBYEQcvQxzue3h4VWbtxTPnFU843eMEdGTmbNKFZWab98Wf9fm5LLmjXdSVlyNC8qpw9EC/KYCWJBYm7jCb4VaoFpqQyr+AgAaGfuVC3D8HZ2GmH5vVOyeIv5r9mBERChsj4ys1NIuU1Fp9RxxMRHpdPDyJdi+Hd1G77PP0EmHWLiKL74AS5agm+xJa+9j8QUcOZYEI46cvhhMSwhGxKveYBgRb1247LsyIq6MhPHIUYBgRBx9AbW2NdnYkORmv6HDTj/iG2/izFmVOrr8OnGj6HmnVS+/GrfNLS21ogVHC/Cb0jpoN3Nvyj+WN44y7oDwR0OEuKDwKbi3AlyZDCLOA/bQthb/+w02Rw9GhKjUJmsb8py5tceO80bYlk1cLggKAoqKYMyYd1OIsGWJ338Pjh37aAMfitnHBCOKKdQINyMYEW8HEYyIVzHCXnwFCEYUXyvUkhEcUrF+wzsn4ltMLFm0uMn+qpgjuTCC2IaRZC9FnA7Io7Sw8bUAjzUCkNe01/qh+iufrHxc9BhP1k5bBAa1WcBHH1yeAJ7sBI0FuEsY8Rm6MiICw+0REagTUVmldeTtzkylgsOHUUDsHa7i//4PyMujgXM/5UQw4sfR+wQj4u1HghHxKkbYi68AwYjia4VaChoaGi2tSDKy3VyJM2dV6m7kkt8szh+wREaH4JB3zm9nQ12iSzv4Eu2GN2AdnQYdUEdQWZDCY4XNIZsrGfgJglELwkyB7c/ATQWQQj7KJbJdGRGiNTdaWZFnz6k7cZI/wpyIPB6orgYnT6LBKXow4mefoRMTjx37KPtHvA+904pgRBxijWBTghHxdg7BiHgVI+zFV4BgRPG1emPJCAktV1vX1ZWIRtK+ckVMJyIAIK+WsfVe2rzLUU8y0cVWQ5cqGBXnks4t8lpk/spc/Oa9aQ+fDV7dANdk0CP1FhDyh66dH7Dkd4wIQe1h4Z1OROVWHx/ccg3ZOwiFoKUFXYmyaxf48UfUj/h//9cNEzEnYm7ukLVglBRMMOIo6agBmkkw4gAC9XpMMGIvSYgbUlOAYETcUgrqG6hXHUoVlUhLlxYtWlyqqFS9Zy+3mCR+Qc9z69ZcS9ByTY4voYmfC68ljMDxNfFrAtZsCNoQUx2DLzsMoY7DP1cB6/+i0xBZYsfZxlfNh7cWMSK/ubnB3JwkN7v+lOkIcSIiCLrtVXExunJ50iR05fLEiWhk7J9/frfLKuZEPHr0U3cioj5+gSA8PJzBYIwcvv/w3/cobAHBiHg7jWBEvIoR9uIrQDCi+Fq9s4RaWztIpPLY2MyAAHZxMb+2FtevJefo0nmXo4745JAa298VKu2zVm7r7de3Zz+cbRxljGPDPSxIP7UIeG8Blj8Avx2g/mP2UL1hxIoKenAwGhNx5ao2Pz9cvSntfntTHp+Pbq987x6YMwelw2++QXfVe/YMFBWhI84//PDuWL4c5OQMUStGU7EEI46m3uq/rQQj9q9N308IRuxbF+KuNBQgGFFCFWEYrqqqSk9PF+0jKWZBEIwc982dci7sagS5lT2EA7g51Jw9EXtWPVnlVuAmZtvemHEZIOQkGg3xjiIoDsaXd7RZY4xYlptbe/YcSUa2/vTpD+5EhGF097yXL4GKChoT+x//QH2Hrq4oMmKJRkNDJIqO8nLCiYgKQzDiaPufr+/2EozYty793yUYsX9tiCeDVYBgRAkVlJgRKS3sbW5pM8zCvdKqh26fNAiGAksD5z+evy10W3FLMY6XROA30xCvTAbpdwHExZF3FJpijJjn6lqxQaNsxco2/4AP60SEYVBWBnbvRiMgfv45GD8emJqim6YM3acyCjut7yYTjNi3LqPtLsGIeHuMYES8ihH24itAMKL4WnWzlJgRY8lUdZckZaf4l0VDOMmvqr3q0qtL8z3nX3x1Uazd9kQvVx4D7i4H5t+CSDPQLm64R1HuUXcCQVBmQkLGtu2kWTIN5859WCcikwmsrcGECeiqlDFj0D2XMzIAj0cAolifFcGIYsk04o0IRsTbRQQj4lWMsBdfAYIRxdeqm6XEjOiWWLnULmaPR2ZuDb1biVK9iK2O3RC0QfOZZmhFKI6C6TXAcyOw/B74bAV1WZ8Cm0AQVHz3bu7y5aUrVtKDgpAPtMmxUAh8fdEx5S+/RONjL1mChstuaQHCIYyMhOO7GBWmBCOOim4asJEEIw4oUQ8DghF7CEJcSlEBghElFFNiRjz7NH/mhQjL4KI6Ov5dT8RrbDuv/fbr23MezTkUc6i5o1m8TAAdVg45Cex+BTcXguKQj2zPvf5E4NPpVUePFc2SaTAz+yBORAgC6elATQ3861+o+/CXX4CzM7pxKuE+7K/L+rtPMGJ/yoyu+wQj4u2vkcaIDx480NfXDwoK6roXX2tr682bN9XU1Kqqqtrb2729vTU0NKZPnz5p0qSlS5ceOXIkMzNTIBBg7w5B0LNnz3bs2CEnJzdlypQFCxYYGxtHRESwWKze4jAYDC8vLy0trRkzZvz222+FhYU95gsVFxcfP358zpw5U6ZMWb58eWhoKN5VBL0r/XTuEIwoYV9Lxoh0Dt/gQfrks6Eer6p4gqHyEeVSc/dH7V/5ZOXdvLs4BprT7wJnOWD7C7opc8cQ+jglVFyq2SAGg1dZyS0tpbmSm69bAAAgAElEQVTdL1u9pmTpH7Tbdzo6l6jDHI5Uq+q3MKEQVFSAo0fBf/+LLkz58ks0DnZ+Prql3gfyZvbb1FHxgGDEUdFNAzaSYMQBJephMNIYMTU1dcOGDRcuXGAymVwul8PhIAiSm5urr6+/e/duCoViYmIyderUEydOBAQEJCcnh4WFWVhYbNu2raUF3etVIBCYmZnNnj3b0NDw0aNHsbGx4eHhdnZ2Z86ciYuL6/HuAICWlhY3N7fz58+bmZmNHTv29evXXRmxuLh47dq1xsbGvr6+0dHRPj4+BQUFQmKApreO/dwhGLEfYQa6LRkjZle3adxMXmQTHV7QOESrEGAE9iP7LfNdtjN8Z3ZT9kDv8fY55RW4qwQsvgcRZ0Fb1Uc/yswIDqnaurVMZXXJ4iWkWTKkWTKlS/8oU1ldZ2LCyR7yQDIIApqawLVrYPZsMG4c6j7U1AQxMehN4mfX2y8S938JRsQt2YjMQDAi3m4ZaYzI4XBMTEz09PRSU1MxRhQIBIGBgUuWLLl7966Pj8/06dPt7Oyampo4HI5AIOjo6KDRaFVVVZh77+nTp7KyspaWliUlJSwWi8fjcbnclpaWhoYGJpPZWxyhUNjW1tbY2BgXF9ebEY8cObJ3797MzEw2m83j8bACu0Jk7wKJO10VIBixqxo4ziVjRL/MmuVX4zbdTc2oasVRGR7TGmaNeYr5As8FlimWHIF4LjFmI/DeDC7/G3jqgtoMAEN4KhyVtrzKqvaISKqTU9nKVQWycjVmF9qePqU/e8ZKSoZoQxjYHN3ymwECAsDatejalH/8AygoAA8P1KHIH8I4SKOyj/A2mmBEvIqNTHuCEfH2S29GRGAY5nKH6BgQsBAE8fb2Xrdu3e3btzs6OjgcDoVCOXv2rKqq6qtXr4yMjOTl5Zua+l2yuW/fviVLliQmJuLy9kEQlJGR0YMRGQyGvLz8iRMnDh8+rKGhsX379idPnmDeSrwif7L2BCNK2PWSMeLl0OI5li/PBOZXNLMlrHigbNHV0RtfbNR4pvGs7NlAtp3PhQIQcQ5c+R+4PheNhigmVopV9Mg1QiAI5nCaXW+VKiplrVWrDw+HmEyYzYa5XESqrry2NnTpCZY6OkBSEti3D0ydigY+/N//gLk5Gv66r7+NR650I7ZlBCOO2K7B1TCCEXHJBQDoyYgwzCsvp2zVH4qjevcemDtwQLSysrKdO3caGxuXl5dzOJy4uDgtLa0LFy7k5uaqqqquX78eA00+n+/t7a36NlEoFBiGlZSUtLS0ioqKMB2ePn26Y8cOVVXVrVu3PnvW7y+1PhmxuLh4ypQpM2bMOHbs2J07d06fPr169Wp3d/c+5zXilf0TsScYUcKOloAReRC8xyPjt3OhdxMqGB1vJudKWH0/2dgCtmuu63zP+cdij1HaKf1Ydb+d641OQ7T+Cd2UmfMWZ7qbfJRXMJtde+gQSVYu6cCB6tevYWnPAYQgEBeHEuHu3SA8HOTloUS4YAG6NmX8eLB3L4iMBA0NH/2o/vB9OwQjDp/WQ1kTwYh41e3NiB15ecXTZwzFQZ4rL86MbT6fb29vr6GhERgYSKPRbt26tXLlytjY2NevX69cuVJXVxd7R6FQmJeX5+7ufvbs2a+//rqwsBCG4YULF+rp6ZHJZMymqKjoyZMnJiYmK1ascHFxqa2tvXHjhnZnMjU1raysxMz6ZMTs7OzJkyerqqomJia2trZWVlbu3r3byMgoLy8Pr8ifrD3BiBJ2vQSMWEFja9xMlrkUEZLXIIQRCSt+b7Z8Wv6hmEOKvop38u4IYDEwtD4X3FuBBrsJPg5aKwECv7f4j+ohOy2tYoNGybJl8ba2VWVl0mXEtjbw4AFYtQoNhT1uHJg3DyxfDn76Cb1UU0MHl0tKAPTxD+kP6wdDMOKwyj1klRGMiFfanoyIIFBbG+P5i/cfbT6+LffuNd+61eNocXOj+/n1l7c9NBQR7ydXVFSUtrb2+fPnU1JS9u/fv337dgaDUVxcrKWltWLFCtE4skAgYLFYkZGR48aNw1aTrFu3TlVVVYRxAoGAw+E8f/5cR0fH2dm5ra0tNjb2dmcKDAxsbn4TuKNPRiwrK5s6daqpqWl9/ZtYv/b29lu2bImOjsYr8idrTzCihF0vASOGFzSudIhf65yYWjEk7joYgX1IPir+KgbhBq/qXw38YpxW8GQHsPoRPFiLTkMUfkIT4hAEoTo4lixeUn3gQOKjR5WVlVJkxL/+AL50CcjKgn/+E/ztb+jx2WfoMWECOHgQjXTDHqqJBgP3+UdsQTDix9G5BCPi7ceejAgAQBAEgt5/wB0dQjodamnpcQjpdHTKTf/ZxWxeU1PTiRMndHR0Ll26tG7dOldXVwBAU1OTpaXl1KlTExISupaTmJj47bffYoxoZWUlIyPj7+/f0fEuPFxkZKSenp6zs3PnTEsuszNxOBwRa/bJiGw2e+HChcePH6+pqcGqs7Ky0tfXj4+P71o7cf4eBQhGfI8473skASNejy6dfznqkFc2ubGPxVnvq0y8Z43sRmxvFes061buQGtiYCGIs0E3ZXaaCYqeAb54q1vEa8nIt4JoNMoOA5KsHO3+/ZSXL6XIiDQaOHsWdRl+/jnKhRgjYv9++y06xNz/XO2RL9uIbiHBiCO6e8RuHMGIYkv1xrAPRsRbxBDYC4VCDw+PFStWyMrKamhoFBYWAgD4fH5ycvKqVavU1dWDgoLKy8tbWloqKyvt7OzGjh2LjTUXFhaqqalt2LDBw8OjqKiosbGxsrLSyclp5cqV169f791SGIbb29urqqqCg4O//PLLiIiI6upqBoOBTXk8f/78ypUr/fz8qqurk5KSNDQ0Tp8+XVVV1bsc4k6fChCM2KcsA9/Ey4gIAg56Zc8wC3d6WUJl8gauAL9FbE3s1pCt656ue1r6tO+lZxAPtJSBhjz03+JglA6t/g0SroKONvy1je4c7ZGRZcoq5avXtCclpaemSpER6XRgaAi++qobHWKuxLFjwbZtoO2TE3uYPhWCEYdJ6CGuhmBEvAKPTEYEAGRnZ2/evHn8+PGnTp3ivl3p0t7eHhQUtGPHjk2bNhkYGBgaGhoZGenr6x85coRKpSIIIhQKIyMj9+/fv3nz5h07duzZs8fIyMjAwMDU1DQlJaW3OEwm89mzZ1u3blVVVR0zZoyampq+vr6vry9WY3Fx8cGDB7ds2bJnz55t27YZGRnFxMTweEPyK7h32z6COwQjStiJeBmxhcXTcn019XzY0+w6nkD60/64ENclx2WJ95LjccdL2kp6vpWgA9SkgzhbELAH3WcvYA/4cxW6KbP/bkCv/qSmIaLKwHCDmRlZYV79ufOcior09HQpMiIA4MYN8NtvfTDirFng8eOePUNcS0sBghGlpeSHLYdgRLz6j1hGbG9vDwkJcXJySk1N7fpSXC43Jyfn4cOHV69etbW1dXFxefr0KYVCEQ0cC4XCwsJCX1/fa9eu2dnZXb9+3d/fv7i4uE+243A4ycnJl7un2NhY/ttwYtiyGAcHh7t372ZkZLCJuT5dO2Ogc4IRB1Kon+d4GTGtsmWlY/xi25hXZc1DsVyF3Eo+GH1wifeSe3n3uFD32AQCDiiPBV4bgfUEcOmbbkeOFxC8m/PRz7t+bLf5NTWVWtqkufL0p0H89nbpMmJ9PTh9Gp162HWU+bPP0GA327ahC5mJNEQKEIw4RMIOc7EEI+IVfMQyYte9+PC+FGE/QhQgGFHCjsDLiB6vqhbaRG93Sy+sb5ewyv6zIQjiR/ZTC1TbHrY9sTaxpyGtBPht74aGIlJ8fuSj33avpxoAtPn5lS5TrNDU6sjPhyBIiozY1AQcHNDwh999B77++h0mfvYZkJFBlzMTaegUIBhx6LQdzpIJRsSrNsGIeBUj7MVXgGBE8bXqZomXEc8E5stcirB4UVTXJn2/XRu37cKrCws8F9im2zaxu8evh7igMAhY/7cvRhwHbH8G9bmfwsYqos5D+Hw0LOLsOVT7q4KmJikyYnMzuH4dTJsG/v1vNCbiwYNARwdoa6OHjg6wtga1taJWECfSV4BgROlr+iFKJBgRr+oEI+JVjLAXXwGCEcXXqpslLkbkCoR6d1KmnAvzSqtmcqUfFi+pLkk/VF/FXyWoLAjuEeOQTUNXpYgch71PXvt8InurYP3HJZHLlFXI8+YzY+MQHk9ajNjaCm7dQgFx/HhgZATy89HtVSgUUFWFHhTKu91Wun1GxIX0FCAYUXpafsiSCEbEqz7BiHgVI+zFV4BgRPG16maJixHLqKyVDvEylyISS5thRMrTEQWwwCXbRdFX8Xjc8aKWN/sXvWsrswmNcdMbDUV3sh4C/icUr6/51u2SBQspO3bwKtAA/VJhRAYDuLmhgPjdd6gHMS+P2D3l3Qc4bGcEIw6b1ENaEcGIeOUlGBGvYoS9+AoQjCi+Vt0scTHi89f1i2yi199IKqhjdCtFGhfV7dX7o/bP95x/P/8+W9CL9nhMkOUBLH/oGxOtxqPLWT6Z6Nkwh1O1VZ8kK9fi5iak06XCiCwWulp56lR0D5Vt21BAlPauftL4Sj6BMghG/Dg6mWBEvP1IMCJexQh78RUgGFF8rbpZ4mJE2zDSbIvIk09eU1qkH6o6oCRA/am6XrBeYl2v1SpokxFQlw3uLAOXxvXCxHHg/hrAonZ7sY/6gpOZWbJ4ScmixZycXEQoHDwjcjjA3x8FxG++AXp64PVrAhA/2AdEMOIHk16qFROMiFdOghHxKkbYi68AwYjia9XNUnxGhBHE4EH6tPNhdxMqWtlS3u+OI+CcSzo333O+TZpNLbOfNREdbSDDDd1SRTS+fOkbYDkeXJ8DyOEA+mSiiSJIk7U1ec7c2sNHBG+D0AxmrJnLBcHBYMoUNGK2hgbqQezEzm7fCXExbAoQjDhsUg9pRQQj4pWXYES8ihH24itAMKL4WnWzFJ8R29j85VfjfjsXGkOi8oVSjp6d1ZS1JWTLMp9lz8ufCxHUMdZ3opHBfVVg8S9g/xtw/B04ywGPDaA0CsCCvu0/xrtCFqtcdS1plgw9IBB+G0ZVYkbk80F0NJg8GXzxBVizBl2kQgDih/1qCEb8sPpLq3aCEfEqSTAiXsUIe/EVGN2MiCAI/DYxmczFixcHBQUJBAJk6JNQKKysrExPT4cg6P21JZc1L7SJXmIbU1CH7iApxQQj8I2cG8v9lh+MPphPy++3ZFgIql6hdGg/BUlxRcjhSG0WAgv7tf9IH7S/jCLLK5QuU+RWVCAwjL2liBGFQhyC8PlISgoKiP/4B1BURPLzkYG+go9U05H0Wl0ZcSS1i2gLPgVgGG5ubo6Ojh6en+T4GjcirSEIam5urq6uFu0sIj4BDKklEUN7SOUdnsJ5PF7F/2fvPOCjqtK/j7rurq+rrq6u7uraCy2E3lUsFFdEQBAQC6i4/i2rrKwUBdI7pJFOSSMJSUjPpJPey6RPJm2SSSZleq/33vPuzcgwSWYmM5NJuBPO/cwH7j31Ob/nJvPNqT09BQUFg4OD6M3vTZlM9vPPPx89elRzxKK2MfO0H27vPYfD6erqoo5dZDJ52bJlMTExPB5PNPOXQCCgUCjl5eV8Pt9wbf55FFu7nE/Dylv7Rw2nNDV2gDNwmHTYNsI2sC6QwWHoyy5m9isLPTH7R5RBm0Q8tr5kczxcKOz/4UfKYhva8RP8frqmsXw+v7y8nEKhCAQCTaDhGx5PXFGhePZZ7He/w2xt5TU1oqleAcPlwVjLKMDj8Ugk0tDQkFAotEyJsJTboYBQKKTT6bm5ubPzm/x2NNHCdfL5/IGBgd7eXqlUiph1qZRKlVJpVlbdmUQiEZuNf9dIpVKxWKxSqdTplEqlRCJhsVhDQ0MMBmNkZITL5crH9iDTFMTlctU/xUqDJimVSpFIxGQyh8au0dFRPp+vUCgQBJFKperC1Y/qktlsNo/Hk8vlCILw+fyhoSEOh6NJIJPJOBwOj8fTmAFv1ApIJJKurq78/Pyenh7NtySLxTo6dhGdEb28vJ544okHx64HHnjgnnvu+fXXX1NTUzNm5UpPTzemrt2e6S+dzPhXQEZssoXNckhw2BS56c3oN72TvQ0UXRwfyPRcq3B8ihp2xECyuR2VGRvXsnRZ+4KFN7y8MlNStBubmpqanp6uHWLgPiUl08fnxuOPi+++G7zwgjg4uCgtLdNAehg1mwqkjPfsbFYN67KgAkb+arVgjVZdFIlEKiwsbG9vZ7FYfFMvHo/HYrGamtjt7Tw229Tc+tJfvHhx165doaGhvLFLnYzL5fb29l65cmXLli3/+Mc//vrXv9ra2n7++edlZWVcLleT5tChQ4899pi7uzuNRtNXPpfLbWtr8/Ly2rBhw9/HrjVr1hw7dqypqYnH42VmZt5///0vvPBCQ0ODpuQdO3Z88803ZDKZz+efOHHiwQcf3L9/f0NDg7qKkpKSgwcPfvvtt/pqvGPDWSxWS0tLbm5uhtaVnJy8Z88eIvYjYuM3F5TL5UKhUDB2DQ0NrV69OjExUSqVKmf+ksvlXV1dlZWVMpnMQG0yueJNr8LnTmSm1NMFEkMpDRSiM0qhUPy36L+rolfZl9v3cHt0psEDZRJVSyrm8Cjmt1w12Kg32dyOkMlY0Vcpi2263/mnlDGk3VaZTFZZWdnV1SWXy7XDdd5LpcqGBuVLL2F33QVeeAFraVEakUlnSTDQ8gpIJBISicRmsxUKheVLhyXOlgIKhWJkZCQvL292fpPPVrNmsB6ZTDYyMkKj0WQy2c25V8b+rxKLOVevdm97p2fXbl56BiKVGpvTYLro6OgPP/wwMjJS3Y+IIAiKogwGw9HR8fHHH//iiy8KCws7OzuLi4uPHTu2f/9+6c166XT6qlWrDhw48PXXX5PJZH2VUCiUr7766plnnjl58mR5eTmVSs3IyPjqq69OnTqFIMiNGzfuv//+++67z8XFhc1mqwvZvXv3jz/+2NXVhaLo2bNnH3300RdeeMHf319tW11d3aFDh44ePaqvxjs2XCaTdXd3FxQU9Pf3a74lhULhsWPHiMiIdDod6LnEYrF6PqJKZfmDTCbXiaKoZj7i5FhNSMewYKVT3sLTWWOTETXBFrihcCgfpH2wImoFqZekNLD0hEcHWSeA0+Mg7iCYcASLBaywjiIwhYJ28GD7goVMH19UJNI2WjMf8X+/OLTDJ98jCGhtBTY24O67wdNPAwoFLlKZLNLtDNGej3g77YB1T08BDMPU8xFn5zf59IwlRG6z16woh4eHTp+hrlnbPn9B+4KF1A0bR8+fV7FY029VTEzMvn37oqKiZDKZRCLBMAxBkPT09JdeeunYsWPak78RBGGz2Zren4CAgM8++yw7O3vLli0pKSmIrpWAYrE4MDBwwYIFgYGB2kUplUoul4thWFFR0f333//1118vWrSopaVFXfju3buPHj3a3d0NALCzs9u2bdv69ev37dvX1oYfPNHQ0HDo0KH//Oc/02/7HCtBMx+RwWBoviVlMtnx48eJyIhyud6NWmafEWk0mnrNioF3IqGObmuXszOgjMaetLu1gWxGRIU0hmy6tulIzpFWdquh5P2VIGAtOL8I1EcaSjaH41BU3tVFWbiofcFCaVu7eltETXONZEQEwVcur1kD7r0XPPssIJMhIGokJMoNZESieGJ6dsB1zabqN5kR8bWcUqnhj6i4uO/jTyhjM3DaX5mPfxYs7Fi2nP5/34hragzk1fCcATsnMyKDwThz5szy5cvr6+snZNQUiGHY1q1bL1y4wGKxvv76a0dHx/7+/gmJAQCtra2fffbZ1q1bR0ZGJsSq1xSpGbGmpmbFihWnT59WJ5vAiAcOHPjll1927drl7u6OYRhkxAlKah6tbF2z5mXSNEBzQ0xGPJ3SsuB01qmkllGBXrrVNMH4G7FSfCjrkG2E7aWWS1wZV29GuQjUXQH2j4CQTUAwpDfZnI7AZDJWQED7K/P7Dn6M8Ceec2MMIyIIvvfhpk34KuYXXgDl5WBWuqrntFdmoHGQEWdA1NtQJGREU0WfyIgoKmtr69yw0fCHunoNZdHi3+hQzYhj/1JsllDXrNGXt+vtzahUOqWFkxmRSqV+8cUXGzdu5I0dcKWzhKqqqmXLltXU1CAIEhsbe/DgwaKioskpy8vL//nPfx44cEDTraWdRtOP2NHRERISsmzZsoqKCgRBJjDiRx99RCKR7O3td+3aVVtbCxlRW0PteytjRG3TJ9wTkxF3Xih74WTm1ap+ocySI+D5/fnbErdtTthcNVSFGhhBHm0HiV8At2cA6fgdO9CM8Pk9/3y3/ZX5nKhobFI/9JSMiKJ4r+HWrfg+iC++CAoKgPIO2lNywg8ZoR8hIxLaPUYbBxnRaKl+SziZEaVNTZPhzyIhHcuWo5KpTwubzIgdHR2HDh169dVXhUKhvgYeP3788OHDfX19AIChoaF33303KChIJBKlpaXt3Llz0djl4uJSWlq6bdu2gwcP6ixHw4hUKpXL5W7evPnYsWN0On0yI5aXlxcUFOzbt+/06dO1tbVwrFmnnpARdcoydaAxe2izRPIVjnnPn8ys7+OqUGzqQo1LgWHYqdJTa66uOV12mi7UO0ETh8IOEvCaDy6sBtRs48qea6kwpVJUXkFZbNOxbLlicHDySXmGGVENiDt2gPvvBy+/jJ+qMgky55pi1tseyIjW6zttyyEjaqthzP1ERsQwVCKRNjcb/vCTk3ve2zEZHPsOfizIzNSXV9baOmG6jk4LJzMinU7/+eefV61a1dHRoTOLQCCwtbV99NFHFyxYsGTJkkWLFj3wwAMHDx5saWlhMBhlZWVZY1d7e3tjY+P+/fu3b9/OnzQuhB8+e3M+IpVKRRAkJiZm9erVWVlZ27dv156P+NFHH1VUVAgEAi8vr+3bt/v4+EBG1OkXyIg6ZZk60BhGLOoYXXQm+zWPG5Y9ppnGp+1M2bk8ajmplyRV6e/2F42CQlfg+FcQvRfIJo6xTt3COZECFQqHHRzbFywc+P57VBffGWBEFAUNDWDvXvDAA+CVV0BiIjDi7+c5oZp1NgIyonX6baLVkBEnKjLV80RGHAMl/O9hgx9EJBo6c6Zj5Sp8wYp6rHn+AuradaM+vnhPoYG8U9kDAJjMiFKpNCYm5pVXXvHw8JhQgFAoxDDs+vXrNjY2vr6+sTcvOzu7zZs3JyUlqVQqhULxv3USMplMpVJxOBw3NzdbW9v4+HjtojAME4lE2oyIoiifz9+zZ893331na2s7mRExDKuoqPjkk0/eeOONAwcOwDUr2nqq7yEjTtbEqBBjGNEnr/OVX7O+jqpjCi05GTGiLeLVuFcPZh6kcCgY0N89Sa8GEe+Dc/NByTkwfs8go1o4BxJhmHJgoPONNymLbQQ5OTr//NXHiBiGA+LBg+Chh8D8+SA6GoxfDz0H1JlrTYCMODc8ChnRVD/qYETjihCVlPbu2avdldj/+ReSuolrSowrbFyqmJiYXbt2eXl5tba2Njc3d3Z20mi02tra7777zsbGxt3dvbGxkcFgtLS0BAUFnT59WqFQ7Nu377PPPuvp6RHfvPr6+nbt2nXmzJnh4WHt0hEEqaqq2rdv3/82RwwNDW1raxscHKypqTl37lxQUNAERgQApKSkbNy48YEHHvj3v/+tWdes7kcEAAiFwqCgoGeeeWb+/PmQEbV1Vt9DRpysiVEhxjDioSvVL57KvHCjSyC12BQ2OSI/lH1oWeSy4MZgjoyj11aVAjREAbenQdhbYNACP/N6KyJwBCqV8tPSKIsWd731torP1wnKOhkRw/A5iIcPg0cewQHx8mWga0yDwC2/I02DjDg33A4Z0VQ/ms2IiFAkLCjgREZxIiPHPlHi8nJjphtOaWFMTMyaNWtefvnl9evXr1u3bsOGDXv37o2Ojm5ubnZ0dNyxY8fmzZu3bt364Ycffv/995mZmVQq9emnn75y5YpI629xBEFOnjy5f//+kpKSCTWKxeKysrKff/55+/btb7/99jvvvHPgwIETJ05UVVVNZkQ+n3/o0KGHHnrou+++m8yI6kXNe/fufeyxxyAjTtAZAAAZcbImRoVMyYhyJbLGJf/ZExlF1FGFaoq994yqcixR1VDVm/Fvvn7t9ZrhGhWqfx0Mpxdk/ASc/w5SvgGKqacYG2+AFaVUsVgDPx6l2CwZsrPTZ/ZkRsQwfBXzV1+BRx/FATEoCHD0o7i+YmH47CsAGXH2NZ+JGiEjmqqq2YwIAEClUkQg0HxQmczU2nWmV5+mmJCQEBMTEx0dHR8fTyKRurq6VCoVg8EoLS1NS0tLTk7OyclpaGgQiURcLjc1NXVoaGjChogdHR3l5eUT+hHVNcrl8t7e3hs3bqSMXfn5+W1tbeqj4ZhMZnJysnoIW524qakpLS2NTCaLxfgmdG1tbdXV1Ww2Wx0rFovJZHJaWlpTU5PO5tzJgZARzfS+YUbEMNA+JHjl1yxbuxwaS2xgyx5Tq3eodFgVveqnop8YIoahvJ25IPhV4L8CNNyh2yJiCCJrbaWu39CxYqW4qlqfVpMZsbkZfPstePxxfA6iry9gMvVlheHEUgAyIrH8Ya41kBFNVW46jGhqXSalxzBMs4e2SRlhYuIoABnRTF8YZkQExa5W9b94irQnqIIlsthkxBHJyHvJ7y2NXJreky5R6u8dlAlAmQ/eiRi1G7DxbeXvwAsRCDgREZRFi3v37EXFerWawIitreCHH8Df/oYD4rlzYPw0mDtQRWtqMmREa/KWflshI+rXRncMZETdusBQSygAGdFMFQ0zohJBj8U3Pn8y0yG9TSCz2GTE653X115duzNlZzev29C2iENNIP4QcH8O5J0FiMVqN1Op25RNMTDQf+hQx/IVTD9/AyaoVKqCggYKpR9FUQoFHDsGnnwSvNAlObcAACAASURBVPQScHcHg4MG8sEowikAGZFwLjHLIMiIpsoGGdFUxWB64xWAjGi8VuNSGmZEmRJ561zRsycyUsiDMiUyLqe5D0pUeSTnyLLIZd713jw5T28xGAqa4oDPEhC6CVCz9Cab0xGYQiEqK6OuXNX52uvStnZ9bVWpQHEx+q9/jTo6CjIysJ9/xg9ifvFF4OQE9B8Mrq8wGH6bFYCMeJsdYKHqISOaKiRkRFMVg+mNVwAyovFajUtpgBFRDKNzJC//QnrpFIk6LEQssXs2BrA2dtvG2I1rr66tHa5Vovp7B0WjIOdX4PQEuH4ECCceZzmuDXP3QcVmj3r7UGyW9H/5JabQrRWPB65dAzt2YA8/jD3zDLZhA/b00+C554CdHaDR5q40c7dlkBHnhm8hI5rqR8iIpioG0xuvgFwu7+npKSgoYDAYmsMP/7dT5fHjx48ePapeJDShtHkTngnySJyz+JQImtM6/OzxjE0ehTyJwiL6oBh6vu78sshlX+V+xZKyDJXZWwIi3gPnF4Jyf527vRjKOzfiMEzW0dH7wR7q2nXcq1d1tqmnB3h7g2XLwB//CObN++1z111g+3ZQUaEzBwwkugKQEYnuIePsg4xonE63UqEoymazaTSahGC7/MM1K7ecZLV3Uqm0u7s7Pz9/cHAQMqIJbjTQjyhTIu5ZlGeOZ/w7tkEs1789jdG1YQDjyDjvJb9nG2Gb1Jlk6GwVRAEqA4HHiyBiB6DrXcxrdM1WmRCVSgUkEsV2afe77yrGjv6c0AwuF5w6hS9MuececNdd4xhx+XIQGQm3y54gmHU8Qka0Dj9NZSVkxKkUmhiPYZhAIKDRaKOjo3K5XKVSIcS4VCqVWCwWCoXEMYkYwliNFSqVisViQUac+CNnzLMBRhTJVQdCK585nnG5jCa3xM6IKlSVS8u1jbDdnLCZLqAbWq3CpeEbIjo9AUjHgVzv0enGNNB60ygHB4fOnu1Ytnzwv//VuevQwABYvx7ce+8tOlR3Jd51F/h//w/89BPcENEqnQ8Z0SrdNsloyIiTJJk6QKFQjI6O9vb2MhgMJpPJIsbFZDIHBwcHBgaIYxIxhLEaK5hMZk9Pz+Dg4I0bNwYGBmA/4tQ/ipoU+hgRw8CIQLbMPvfZExn1fVyLTEYUK8XfF3xvE2HjVOkkVuJbgOq92lJB8GsgYA1ojNWbZm5HoKikrq5727bO1zfxSSSdbcUwcOYMvgOidifivHn44/LlICFBZyYYSHQFICMS3UPG2QcZ0TidJqZSKBQsFotOp/cT5urr62tpaSGTyTQajTBGQUNMU2BwcFAoFJaWlkJGBCZd+hhRhaDVvZxnj2csscvhSZT6T1M2tjYUQzu5nWuurlkRtaJ6uNrQ2SoKCShwBC5PgfjPALPD2ArmVjpEKOTGxFIWLaZ9uE/F0jtxs7gYP0NFMxNRDYj33Qd+/BEwDO5NPrfUmlOtgYw4N9wJGdFsP2IY9r/z6xSEuWQyGYVCaWhokEqlhDEKGmKaAiiKqlSqsrIyyIim/WDqY0SJAgkr6XnuROb+0AqLDDRLVdKQphCbcJt9GfvECoOdiEONIOYAcH0aFHvcsdsiyru6Bn74kbp6zYirmz6PstnAxwc89dRERly6FHYi6tPMCsIhI1qBk4wwETKiESJZRxIURalUakNDw4QT9qzDemjlTQUgI95UwpT/9TEiX6r8d2zDCycz3bMoSmS6xzRjABuVjO5J22MbYRvdHm1oyxsMBXVXgO8ycHEz6MwxpSlzJy2GIMKios5XX+ve9o64rFxnw3g8cOECvlH2n/+M75W9aBH2/PPSl19WLFoE7O3hvtk6NbOOQMiI1uGnqayEjDiVQlYTDxnRalxl0FDIiAbl0ROpjxFHhbI3vApfPEXKbRuZ/mREBaIoHSy1CbfZELNhWDSscwXGbwZKeSDtB+D4GEg/CgRDeqye48EqNpsVGERZbNP/+ReoVDq5tUIhCA7GZyI++CD48ktQUACam1VxcU25uQOtrejNE94n54MhVqAAZEQrcJIRJkJGNEIk60gCGdE6/DSVlZARp1JIV7xORkRQjDIseP5k5sLT2aNCGTbt2YhcGfeXsl+WRi79ufhnBDN4XktPIbi8DXjNBzWXdNl7R4RJm5v7D3/e+epr7JCQyQ2WSMDFi+AvfwH33w8OHwa9vXiSCec1T84FQ6xFAciI1uIpw3ZCRjSsjxXFQka0ImcZMBUyogFx9EbpZESJArleP/Dcicwt54unzYcAxdBuXvfG2I1rrq4pHSg11ImIoaDYE3i+CK5+COg1eo2e0xGYUilIz+hYvqJ39weylpYJbZXJQEQEPr78xz+CTz8F/f2/7S8OGXGCUNb7CBnRen2nbTlkRG01rPoeMqJVu09jPGREjRQm3OhkRK5EYZ/W9tIvpP8mNE2fEYUKYXR79JKIJTuSdxiaiQgA4A+CuE+A/cOgwAnIRSY0Yw4lVQ4Ojri4UmxtB44exZBxfa5yOYiJwfc+vPde8NFH+MplTRcvZMQ58wpARpwbroSMODf8CACAjDg3XAkZ0Rw/6mTEYb5sT1DFgtNZV6v7zCl0fJ5B0eCnWZ+uil4V1Bg0PmbSU0siCFyPb4vYljIp7k4JEFdW9n6wp2vzFu61eO02y+X4ucz33gvuvhvs3QuYTO1IONY8Tg2rfoCMaNXu0xgPGVEjhbXfQEa0dg+q7YeMaI4fJzMiBkAPU7zoTPbis9ltDL45hWrlUaLKCkbFkvAlr8a9ShfQtWIm3WIoyDwGnP4Gkv8PMKmTou+IAFQu58TEtC9a3PfxJwr6LblkMhwQ1Ycy794NWKxbPYhqXWA/4px5PyAjzg1XQkacG36E/Yhzxo+QEc1x5WRGlCvR/PbR505krnctmP6uN0wJ06XaZUXUih8KfjB0+B4AYLgFRLyHn79XFXwnb4vIOH6CunLVsKMTQH/bckgiAXFx4KGH8HOZd+7UAYhwzYo5rz5R80BGJKpnTLMLMqJpehE4NexHJLBzTDANMqIJYmmSTmZEnkThX9D50i+kLyNqNcnMu8EARuFQNidsfjXu1czezCkKqQoGPkvwRc09RVOknLvRwrz87q3bet7bIcj+bW9IkQifg/jXv4Lf/x4HRCZzYg+iWgzYjzhnXgrIiHPDlZAR54YfYT/inPEjZERzXDmZEYf40q+j6hadyfbN7zSnRK08AoUgjhK3LHLZ7tTdAoVAK2bSrUIMEg4Dh0dBzmkgvEO3RUQEAlZgIGWxDf3/vlGNbXIoFILoaPD3v4P77gO7d49bpDJBQciIEwSx3kfIiNbrO23LISNqq2HV97Af0ardpzEeMqJGChNuJjNiN1P0mvuNpfa5RdTxyyJMKBVPKlQIU7pStiZuXR+z/nzdeQwYXCHdUwhCNgGvl0FzPEDHLeY1sVorTi5taqJ/803nxleZAQEARfl8HBCffRbfB3H3bkCj6e5BVDcYMqIVO3686ZARx+thrU+QEa3Vc5Pshow4SRKrDICMaI7bJjCiCsEqe9gvniKtcclnieTmlHgzTxu77ePMj5dELNmauLWZ2XwzWM//+fbA4wUQ+xFgkPWkmOvBKMq7fr3z1ddo+w+IKyt5PBAZiR+y98AD4IMPQGenIUCE8xHn0ssBGXFueBMy4tzwIxxrnjN+hIxojisnMKJAqoys7HvxFGlvcMV0juATyAUxlJgVUSsWhy/emri1idlkyDgBA0TuBA6PgXI/IJvuSmpDFRE4TjkyMuLiQrFdyjh+gt0viIgA8+fjR+3t2QNaW6cARMiIBHasyaZBRjRZMkJmgIxISLeYYxTsRzRHNeLlgYxojk8mMOIQX3YqqXnRmWy7tFZziruZp4XV8nn254vDFy8OX7wuZp17tbuh41WaE4DfCnBhFejKA9hvi3lvlnSn/C8uL+/7+JOutzf3+EdHhGM2NvhC5j17AJmsWd9sSAo41mxIHauKg4xoVe7SayxkRL3SWFsEZERr85hueyEj6tbFcOgERuwaFe0KKF/umJtYN2A4o4FYgVxwtf3q6ujVaka0jbB9P+X9Lm6X7iwoAlK+AS5PgrR/A3a37jRzPRRTKjlXrlDXrGn98MtLp1qXLsVP29uzB9TVGQWIsB9xLr0gkBHnhjchI84NP8Kx5jnjR8iI5rhSmxFRDKvr4y6xy1nvWtAxbHAZssGqmphNR3KOqAFR/e/aq2s9azx1dyWOtoPQN3BGJEcDpcRgwXM2UkHrY5w42bZ0xeVXXVculjz8MH6SSlWVsYAIGXEuvRmQEeeGNyEjzg0/QkacM36EjGiOK7UZUaJQJTcMvnAyc7tfqVRp5uJigVwQ1Ra19upabUa0jbDdnrS9h9ejw8SKAHBuPri0BQzU6Ii9M4IE2Tm9u3Znz99x4O9pjzyCA2J5ORh/VvMUQsCx5ikEsp5oyIjW4ytDlkJGNKSOVcXBsWarcpdeYyEj6pXGQIQ2I44IZO5ZlAWns36MM39xMXmU/K/cf2kDovp+VfQqfAccbPwOOHIRuPohcPwrKHC6Y7dFRCUSpq8vZflK7yd/XPrX3r17QUmJaYAI+xENvOFWFwUZ0epcptNgyIg6ZbHGQMiI1ui1yTZDRpysydQh2ozYNSr6/ErNcsfc0GJdHX5TFwZQDCX1kjZd2zSZEW0jbPem7VWhqnHF0MqA33Lg+SLoyAKIYlzUHfPAb2jvOfJtxYtrf34u8MAeRVGRyYAIGXEuvSyQEeeGNyEjzg0/wrHmOeNHyIjmuFKbEev7uRvdb2xwKyjrYplTFgAYhjUxm44WHl19dfX6mPVf5X51uvy0+nO2/GwgORCZsD92zq/A7Rl8W0QmxbwarT2XgI+1+caT129NfuWA14HCGzeAajxFG9lAONZspFDETwYZkfg+MsZCyIjGqGQVaWA/olW4aUojISNOKZGOBBpGlMgVWS3DL/1C2uZTMiqU6UhqXJBEKYnviF97de3etL0VjIoR8chvH8mIUCEcV4ZoFIS9hQ80V4cCKW9c1J3xIBCAjFh+yruO9S8vv7H3TH3OsHmACPsR59L7AhlxbngTMuLc8CPsR5wzfoSMaI4rNYw4ypcEFna//Avp8ys16IRZg6YUzJKy/Br8VkStOFZ0TKYyyJqtycDrFeBjC+jVd+C2iEIhuHYNfP9mTcSzn7WtfY1x8apSbv7ekLAf0ZSXlNBpISMS2j1GGwcZ0WipiJ4Q9iMS3UPG2QcZ0TidxqfSMGLnMP8/18jLHHLds6Y17NvMav4m/5u3E96+1HxpfFXjn1AVuP4lcP4bSP8R8M3fi3F8oVbwJBDgo8kiEUhIABvXI1/99VLhC6/TPv9SVFM3HeshI05HPULlhYxIKHeYbQxkRLOlI1pGyIhE84h59kBGNEc3DSPW9rLe8y/d6HYjtZFhTkFjeVAMzaZlv53w9v6M/TXDBvey4fTiPYhOT4DW5DtkW0QEAS0tICQEZGWBiAiwdi149iHm+af/22azbNTTS8Xlmi07HGuejnREywsZkWgeMc8eyIjm6UbAXJARCegUM0yCjGiGaEDNiJWVVbmtDJuzOVu9i6kj42cNmlKqQC4IaQpZFrnsx8If+XKDJy9XBgG3p0HI64BJNaUGa00rFoOiInDgAH4E88KF4O9/Bw88AA4tLMi13du9ZQs/LW2aDYP9iNMUkDjZISMSxxfTsQQy4nTUI1ReyIiEcofZxkBGNEc6NSMWlJRfKet5/mTm/tBKucr8WXEUDuWnop9ev/b6BfIFQ9aoZCD8PeDwKCh0A2Iz11AbKp9gcaOj+NRDW1vw+9+DefN++zz5uDL0tfMda9YNHv2PjDKt8X3Yj0gwh0/LHMiI05KPMJkhIxLGFdM1BDLidBUkRn7IiOb4Qc2IidlFp5ObbexyfkluNqeUsTwYwPL68nYk7/gw/cNCeqGhcgYbgNuzwPlJ0F8JUKWhlNYfJxYDFxfwyCPgnntuAeK8eeDZP/aH/OOrdpulrJAwVDLdQwhhP6L1vym/tQAy4txwJWTEueFHuK55zvgRMqI5rlQz4sWk3INhletdCyIraOaUMpZHppJdarm0PGr5v2/8e1g8rL8cDOT8is9EvLoXCAb1J5sjMe3t4K9/BXfdNQ4Q580D7z+YlP7cu5R/7ubmGuRp42SAjGicTlaQCjKiFTjJCBMhIxohknUkgf2I1uGnqayEjDiVQrriURTt7aV5RWeudy3Y6l1c3cvRlcqosB5ezy+lv6yLWedV6zXxzD3tAhRi4Lsc2D8C6sKBXKQdMyfvVSqwadO4UeZ588C9dyntHz9d9/LyoTNnFX190284ZMTpa0iQEiAjEsQR0zQDMuI0BSROdsiIxPHFdCyBjGiOeiiKdvXQToWlPX8y88PgCo7Y/APxCumF+9L37U7dndmbqdcUDAMdJOD0OPB4AbB7wDQ2YtRbBZEiFApAoeBLmO+9d1w/4vw/tEc9fbDddgUn9hpm9sbZWi2FjKglhnXfQka0bv/dtB4y4k0lrP5/yIhW78KxBkBGNMePKIo2UmlH/NLm/5r1YxzZnCLG8iAoEt4avjp69bf53/bw9R/3jKpA/GG8EzHteyCd1m4vZps6OxkxDEgkIDMTPPUU+N3vwH33gbvvvoWJnz1yJf/5N/s++VRSU2sReyAjWkRGIhQCGZEIXpi+DZARp68hQUqAjEgQR0zTDMiI5giIomhZK22nR9pq5/wLN7rMKWIsD0PEsKuwWx613KXaBcEQ3eVgGBCNAKe/AbuHQFc+QMzvs9RdPmFCMQzweODsWXydyt13gwULgLc3+NvfcFjEefF3cr8nv2t+efHoeW/V6KhFrIaMaBEZiVAIZEQieGH6NkBGnL6GBCkBMiJBHDFNMyAjmiMgiqLZZNp6+/TN54tzWg0sNJmi8PLB8s9In21P3p7Ymag3KaLAj2a2fxj4rwJipt5kVh6BIIBKBVu34oB4111g/34wNISfrdLUBKqr8U/t5aqWzbuoa9cJsrMtNdoOGdHK35pb5kNGvKWFNd9BRrRm742zHTLiODms9gEyojmuQxA0oYb28sn0PUEVPUwzV5BgGBbdHv1q3Ktf533dwmrRa4dCDMLexjsRC92AQqw3mTVHiMUgORm89BI+AfHBB4G/PxAKf+NAFAUIgn+Gvbyp6zYMfPudrK3NUm2FjGgpJW97OZARb7sLLGIAZESLyEiEQiAjEsEL07cBMqI5GnLFcr986gsnM7+KqlUiZu6ezZFxnKucl0Yudap0kij1bPWHqsBgPXD4Cz4ZcZQC9I1Hm9MIouQZGgJnzoBHHwV/+AO+Y3ZhIT4lccKl4vH6Pv2sfcFCzpUriEAwIdbsR8iIZktHtIyQEYnmEfPsgYxonm4EzAUZkYBOMcMkyIhmiAY6R4THrpGXOeS6ZLabk38sT+1w7ZHcI1sSt8RQYjCA6S5HIQZ5Z/FOxIj3gcLMDkvdJRMgVKkENTVg927w0EP4IXuffIIPNyt0zbcUZGd3b93WvWWruKwcoGZC+eQWQ0acrImVhkBGtFLHTTAbMuIEQaz3ETKi9fpO23LIiNpqGHtf0c3aG1T+hmfhtep+Y/NMSnet49qWxC1f5nxZM1wzKVIdMLZaxXcpPhmxIQogc+psFT4fxMSAlSvBn/4E/vEP4OUFGAzd+IdhGOPXXztWrGScOqWgmb9d+WSRISNO1sRKQyAjWqnjJpgNGXGCINb7CBnRen2nbTlkRG01jL1Pa2Sscsp7z6+0hGrmAluxUuxW7bYscpl9hT1HpmcLbpUMtKfhA80eLwDhiKUWahjbyJlM19MDTp8Gzz+PA+KGDSAlBbDZeutT0Om9H+yh2CzhJSWhUqnedKZHQEY0XTOC5oCMSFDHmGgWZEQTBSNucsiIxPWNKZZBRjRFrbG0MiUSVtLzwsnMvUHlzQNm7lbYymr9Jv+b1+Nej2iL0LvrjYQNrn+FM2Ly1wBVmWwoITMolaCkBBw8CJ54Ap+DePgwvmZ58gREbdu5cdc6X3u9d/cHUjLZsqAMGVFbZ6u+h4xo1e7TGA8ZUSOFtd9ARrR2D6rth4xosh8HudKzqa3PHM84EFrZNWLm+onkruQdyTs+IX1SOliq2wIMASNteA+i0xOg+4Zl2Uh3jTMfyuGAiAj8kL0//xm88gpwdcUnICJ69oVE+HwFnS7v6e3/8ghliS3j5ClxTa2ir0/JZGI6Jy2abj9kRNM1I2gOyIgEdYyJZkFGNFEw4iaHjEhc35hiGWREE9SSKZFRgSyrZfijsMpnjmfsvFBW1DHSz5EweFKRzIR+PgWi8Kr1WhW96nTZ6UHRoG4L5AJQHYIvZw7aCORC3WmsKpRKBXZ2YNEifIXKm2/ikxGHhgw1gJ+RQf/6675PP+tYuap9/oLuLVv7Dn7cd+gQ08/fUrMSISMacoBVxUFGtCp36TUWMqJeaawtAjKitXlMt72QEXXrojO0jSFwz6LsDChbap/zzPEMW/ucvUHlh6/U/BTfeINiwsTEXn7vv2/8e13MukstlxT6zk3h0UHEDrwTscBRpzFWFKhUghs3wBdf4GtTnngCH1++cQPfAdHwJamrZ4WEdm3dRlm4qHfv3hE3N+aFAOaFAAGJBM9ZMSzdHRgLGXFuOB0y4tzwIwAAMuLccKUVM6JKpZLdvFgs1po1a65fvy6Xy5EZu3pGhTFVNDdS2+nkpp0XSte55P83vsGN1BZQ0FlHYxtfLamHtCd1z960vbm0XN25FFK0swC4/gPzeBEZJOtOYyWhTCYSHo5u3QoefhgsXIidPYuSyYgxXlKKxaKGhu5t71CWLGFFRkr7+uQslpzFUvD5KmPyG6GPQqGoqqrq7u5WKpVGJIdJiKuATCYjkUhcLlelUhHXSmjZVAqoVKrR0dG8vLwZ/U0+lRUw3gIKKJVKCoVSX1+vUCgsUBws4jYpIJfLS0tL+/v7Nd+SYrH4v//979GjR2Uy2WQOnjc56HaFZGdnHz169Jux68iRI0888YS3t3d9fX3TjF11DeSSqrob5TXJBZXfXSzY5pkTnVV+o7ymqKK2uq7ByGrJjeQzuWfWX13/ZdKXaeVpOnO11xZzE46idn9h+25qqq/VmYb4gY2NTSRS94kTwiVL0AceQGxtmT//TCGRmhobjbW908OTsmIlefNmcnJKI5lsbDaj05HJ5Nzc3NLS0kbjbTK6cJhwNhUgk8np6em1tbXQlbMpu8XramxsrK6uzszMJM/Az7vFrYUFGlCgsbGxuLg4Pz8futKASsSPIpPJ2dnZ5eXlml+tNTU1hw8ftgJGLC4udnR0PD12HT9+/KmnnvL3929paWmf+auyoeVUTNlOn/y8ykZTayuqLzqcfHhl1ErXQtfGNp3Z27rKUwUeS1CXpzk5XqaWT5D0zc3tISEd27cPPPqo9IknsI8+Ul29yqyv7zLevNaKiqZt77QtXNTj6dlRW2t8RuNTtrW15efnV1RUtLW1GZ8LpiSgAq2trenp6WQymYC2QZNMUqC+vp5EIrW2tpqUCyYmmgJtbW1lZWWFhYXwtyvRXGOSPa2trbm5udXV1ZpcjY2NX375pRUwIoIg8psXh8NZu3btTI81a/p6OUJpeHHHsauVdJZQE2jkTWF/4f70/duTtpN6SLqzSAVoYxxwfBz4r0bZvbrTEDJ0ZARRj9my2Uh0NPLPf2J//jO+SOWXXzAyGTV1fJibnt6xanXXW2+LyY3IzIxWwLFmQr5H5hgll8vVY83mZIZ5CKMAHGsmjCuma4hSqezo6IBjzdPV8XbnVygUpaWldDpdM41HIpFYx1iz9hi3WCxet25dcnKySmXC+mLtEky6lytVVa3d8flVIqmuk+P0l4VhWFBj0BvX3jhaeLSN3aYjoVIK6NUg4TBw/jtI/sZatrxRKkFeHjh1CqSmgoYG/NCUJUvAgw+C118HISFgUM/SbR3NvxmEyuX9R76iLLYZdnZRGdhf+2Z68/6H65rN042AueCaFQI6xQyT4JoVM0QjZha4ZoWYfjHVKites6Ld1FlmRBRFaTRadXW1qUjKl/N/KvppRdSKC+QLPDlPuwlAIQaD9aA6FFw/AtyfAy5PgbQfAH9gXBriPWAYfkRKZCR47TVw771gxQrw4Yfg8cfxz759IDt76vXLOtqEYZK6+o7Va6hr1oqrqiy1G+LkiiAjTtbESkMgI1qp4yaYDRlxgiDW+wgZ0Xp9p205ZERtNYy9N5sR60bqDmYefDP+zYyeDAzDbtWnEIOuPBD7Ed59ePZB/GP3MDi3AOTZAb7pvXC3yp3ZO5UKUCj4Vth//zu4+24wbx64667f/t2xA9TWAvN6dTGVinHyJGWxzcD3389cJyIAADLizL4fs1g6ZMRZFHsGq4KMOIPizm7RkBFnV++Zqg0yojnKms2I4a3hmxM2f533NXmUPK5iRgMOiGo6vPXvQzgyFnsSc8QZRUF/PzhyBO8+VAPivHk4IM6bhz/u3g1qaoBSOa6VRj2gqJxGo65bR7FdKszNxeRyo3KZlQgyolmyETETZEQiesV0myAjmq4ZQXNARiSoY0w0CzKiiYKNJTePEWUq2fGS4yujV3rXeY9KtPbcVkpBTditHsRbjPggsPsz8LYBYrY5Vs5wHqUSVFTgkw7VfYcaQFT3Jv7pTyAqCojFJhuBKRRMP/92fN/sD1VM5ozyMWREk91D1AyQEYnqGdPsgoxoml4ETg0ZkcDOMcE0yIgmiKVJah4jdnA6PiZ9vC5mXWp3KoJqnVLMo4OsE5M6EcdGnM8+SOTzmjkc8O67Ohjx7rvx0/YaGzWCGX2DYcqRka7NW9oXLuLGxKK6tug0uqypE0JGnFojK0kBGdFKHDWFmZARpxDIeqIhI1qPrwxZChnRkDr64sxjxHhq/DvX3/k069O6kbpxJXN6QPqP+hnxcdCWCjB0XBZiPAgEwMHht/FlTT/iXXeB0y5hIAAAIABJREFU++4DYWGAzzfZSkwu5yVeb39lfuemN5TDwzPaiQjnI5rsHgJngIxIYOeYYBpkRBPEInZSyIjE9o+x1kFGNFYp7XRmMCKCIafLTq+5usat2m1QOH4ZimgU5Dvgw8rao8y/3T8EXP+Br3fWXuCibcrtu5fLQUkJePFFcM894zDx7rvBq6+C1lbTLcMwFYtFO/BR+/wFo97eMzoTUW0c7Ec03UkEzQEZkaCOMdEsyIgmCkbc5JARiesbUyyDjGiKWjfTmsGIQ+Khg5kHl0UuS+pKkiPj12FgKGiIAs5P6GBE+7+AS1uA9sD0TRtu7/9KJb4P4po14He/A/PngyefHPeJiAACgckGYgqFqKSk/ZX5HStWynt7ATrjXaeQEU12ElEzQEYkqmdMswsyoml6ETg1ZEQCO8cE0yAjmiCWJqkZjJjZm/lu0rsfpH5QM1yjKee3GxkflJ4Hjo/h+93c6k18CNj/BV+w0lUwMf3tfkYQ0N4Otm/HexBfeQWQyaClBTQ3//ZpaQESiTkmqjicgaNHKYsWD/50DEO05muaU5hReSAjGiWTNSSCjGgNXpraRsiIU2tkJSkgI1qJo6YwEzLiFALpjDaVETGAOVc5r49Zf7b8bJ+gb1yZGAoomSBoI3B9ClxYhUOh0xPA6XF8iPnSFtCVPy4xAR4wDPT24lve3H03eOopkG8hAzGVStrcTFli27F8haRulsbWISMS4IWyjAmQES2j4+0uBTLi7faAxeqHjGgxKW9rQZARzZHfVEYUKoQHMw8uCV8ST42XKMd3sjE7QPLXePdhzH7ApeHb3HTfwBepDNYTcIgZAMBggF9/xScgPv44vruNpS6Eyx1xc6csWkz7+ONxu4tbqgJd5UBG1KWKVYZBRrRKt00yGjLiJEmsNWBGGREbu6xVGquyGzKiOe4ylRFLB0vfTXp3S+KW6uHqcfUppaDUG7g8CYI2gNYkAMZOXsEwfBUz8RapAIAfu+fjA37/e/DYY/jxKhabMYhh8s6uzg0bO1as5KeljZNoJh8gI86kurNaNmTEWZV7xiqDjDhj0s52wTPHiFKptLGxMTMzk80m4s7Bsy30DNcHGdEcgU1lRO9671djX/2p6KduXve4+iiZIPQN4PYMyD0DlNJxUcR7EAjAlSvgL38BjzwCfvgBSC1nL8Lnsy9fpixa3PPudtS8yYxmyQUZ0SzZiJgJMiIRvWK6TZARTdeMoDlmjhGHhoZiY2N9fX1raiZN7ieoGFZsFmREc5xnEiMqUeVnWZ/ZRthGtUXx5Vp7BrK7QPL/AYe/gLiDYLTdHDtmMY9UChISwPPPg4ceAp98gncoWvCS9/T07N7dsXIVKyR0NjtQISNa0Im3tyjIiLdXf0vVDhnRUkre9nIszohyuZzD4YyMjFRWVrq5uTk5OUVHR4+MjIyOjgqFwtve3rlqAGREczxrEiM2MZveTXp3Q+yGSkYlqtkKWykDJeeAx4v4KHPTNYCqzLFjtvIolSAzEyxfDh54ALz/Pr5mxYIj4ahYzEtOodgs6dq8RTk0NFttwuuBjDibas9oXZARZ1TeWSscMuKsST3TFVmcEWtqas6fP3/u3Dl3d3d7e3s7OzsnJ6fzY9elS5dmujnTLx/DsOHh4evXrzMYDNRi87Smb9cUJUBGnEIgndEmMeLF5ouvxb32r9x/dfG6bpXWQQIXN+OjzPn2QMq9FU68OwwDhYXgrbfAn/4E3n4b3xbRsq+3gkaj/983HStWDjs6glnZ8kajMWREjRTWfgMZ0do9qLYfMuLc8CMAwOKM2NPTEx4ebqfrcnFxSU1NbW5uFolEhBVQpVIVFBS4uLjk5eUpFArC2jnBMMiIEwQx6tF4RkQx9F+5/1oetTy4MZgtvTlAy6Xha5mdHgdxHwMG2ZKdckaZb1qiqiqwdy8OiBs24DvdKJWmZTecGpXLhXl5HStWdr35lrSpyXBii8dCRrS4pLerQMiIt0t5y9YLGdGyet7G0izLiGw2Ozs728PDYwIiOjk5eXt729vbu7q6ent7BwcHp6SkkMlkHo9HkL46FEUFAgGTyezr6/P19bWzs/Pz8+vt7R0dHRUIBIiFukU4HE5+fn5/f79KZeExSciI5vwQGc+IND7tn0n/XBW1qnSwVImO4RWiwNcyn1sIAtaCxligkpljwWzlaWkBX30F/vxnsGIFiI+35DoVdQuUAwNDp890LFs+ePQ/qHz88TMz30bIiDOv8SzVABlxloSe4WogI86wwLNXvKUYUf1te/36dU9PT3d3dy8vL21M9PX1bWlpaWpqSk9PDwgIsLOzc3V19fX1DQsLS05Orq+vZ7FYluIwk7TDMEyhUIyMjNTX14eFhYWEhAQGBjo4ONjZ2Tk4OAQGBoaEhISFhSUmJmZlZd24caOioqKhoaG9vb23t5fBYHA4HIlEYrzlVVVVPj4+2dnZFp+aCRnRJL//lth4RkygJrwW99pHmR/dGmjuzAOXtgHXp/FRZuGwOdXPVp7eXvDf/+Lb3CxaBIKDAV9rvY1FTMBUKnFZWeemTV1vvCnIybVImSYVAhnRJLmInBgyIpG9Y7xt1suIXC63pKRkcHDQ4h05xqtHqJQWYUS5XE4mk8PDw11dXQMCAgoLC7Ozs728vC5dupSYmOjj43Pp0iU+n69QKLhcLp1Ob2pqyszMDA4OdnR0dHFx8fX1vXTpUkpKSm1t7fDwsNKyo2CT5FapVFwut6urq7KyMiMjIzo6+uLFi35+ftpQO+He2dlZDb7e3t5+fn4BAQHBwcFhYWGXL1+OiIi4evVqfHx8WlpaTk5OUVFRVVUVmUymUCg0Gm1oaIjD4TDHLg6HEx4e7ujo6O/v39XVxeFwhEKhpd5DyIiT/GxEgJGMiGHYT4U/rYxa6VXrxZQy8YL5A/gos8uTIPYAGKjB90Ek6jU8DJycwNNP42uZXV3B6KjlDVWOjIx6e1OWLuv/8oiKx7N8BVOVCBlxKoWsJh4yotW4yqChM8eIKIoymczi4mIOhzMTu/TX1tb6+fnl5eUReUqcQe0tHDl9RuRyuUVFRYGBga6urpGRkc3NzQKBgM1mU6lUOp0+Ojra3d3d29urDUNqSuvv729sbCSRSBcvXnR2dnZxcfHz87ty5UpqampNTQ2DwZBbaMwKRVGhUNjf308mk2/cuHH9+vXIyMiQkBAfHx9XV1cHBwd3d/ewsLCEhITExMQJdJiZmVlWVqam3tTU1Pj4+KioqIsXLwYEBJw/f16d3d7eXg27Hh4e586d8/HxuXDhQlBQkAYiw8euiIgIV1dXdeKwsLCIiIioqKj+/n6LeBQyojkyGsmITAlze9L2pZFLC/oL5IgcIEpQ7ge8FwP/FYAcAxRic+qelTw8HvDzw89ifvJJcOIE6Bt/fKBlTMAwSU1tz/s7O1/fxLHggS2mGAcZ0RS1CJ0WMiKh3WO0cTPHiAqForS09Pz585WVlZaaqYZhmEQi4Y1dkZGRjo6OgYGBPT09PB5PJBIZP1BotDzWlHA6jIhhWH9/f1pa2vnz5z09PVNSUnp7e9Vgp33Civb9BGnUsEij0RoaGrKysi5fvuzm5qbuWQwPD09LS6uqqqLT6dLx2/yqVKqhoaGamhq+nlEzDMOkUunw8HB7e3t5eXlmZmZcXNzly5cDAgI8PT3VPBcQEBATE5OVlVVZWdnW1qbu82tubp7AiO3t7aKxi8fjsVis4eHhgYGBvr6+7u7ujo6O1tbWxsbGmpqasrKygoICEomUnJx87dq1yMhINUd6e3u7ubmp13dPKNne3v7q1atDFtokBDLihFfLqEcjGTG3L3dj7Mb3kt7r5HZiAAO9JeDSVvwg5jw7vEORqJdUCsLD8Z1uHnsMfPMNaJ+ZrRsRLpd96VLHsuV9H3+soNNvixiQEW+L7DNRKWTEmVB19su0OCOiKCoWi/l8/vDwcGhoqL29/cWLF5lMJovF4nK5IpFIKBTyeDw2m81kMoeHhwcHB+l0Oo1G6+7uplKpFAqltbW1qamJTCbX19fX1NRUVlaWl5eXlJQUFhbm5+dfv3792til/sJ2cnKKiIi4du1aYmIig8GYfQGJU6PZjKhQKFpaWmJiYtzc3C5cuFBYWDg6Omo2cCMIwuPxaDRafX19dnZ2eHi4h4eHs7Ozj49PREREWlpaZWUljUYTi/EuG5FIVFBQEBgYSCaTNUoiCMLhcHp6eurr6/Pz85OTk6Ojo0NCQry9vZ2dnZ2cnHx8fMLDw5OTkwsLC+vr66lU6uDgII/H0yxeRhCETqe7ubn5+PgkJib6+vq6ubn19fUZbhSGYSqVSiaTiUQiLpfLZDKHhobodHpvby+VSm1ra2tqaqqtrc3JyXFyctLGxKSkJBqNpqld0xDzbiAjmqObkYxoV263KnrV2fKzo5JRIBwByd/ggBi9F9CrAIaYU/HM51GpQFISePVV/DCVgwdBba2Fd7rRtEDa1NR/+PPODRuZvr4zVYemMj03kBH1CGN9wZARrc9nuiy2OCNyudyUlBQ1yTk7O9vZ2Tk7O8ePXQkJCcnJyUlJSYmJifHx8XFxcTExMdHR0ZGRkeHh4ZcvX7548WJoaGhwcHBgYGBAQIC/v7+vr6+3t/e5c+fU6ydcXV21v5s19/b29hEREZARqVRqQ0ODYRKa8BYIBILy8vLQ0FBXV9fw8PC6ujqBQGCRuQEIgvD5fBqNVldXl52dHRkZee7cOfWyaDUslpWVVVRUBAUFqXfn7uzsbGhoKC0tJZFICQkJV65c8ff3Vw8Be3p6hoaGXrt2LTs7u6Kiorm5ube3l8lkSiQSnV3UGIaJxeKamprm5uaRkZGWlpba2lqRSDT9dmEYNjg4OOE9rKurs9RgunoX4bKysoGBAU3TZDLZ8ePHjx49KpPpWHE7b4JHCfIoFovXrVuXnJysPTVh5mwzhhFFStH7ye/bRthm9GRIFEJQFQLOLwY+S/C1zHKCbgqPYfjuNu+8gy9k3rED3xZxhub4omIxNy6OunoN7cMPpc3NM+cpwyVDRjSsjxXFQka0ImcZMNWyjIhh2NDQ0IULFzT0NuHG0dHR2dnZzc3Nw8PDy8vL29vb19fX398/MDAwODg4NDT04sWLV65cUU/wiomJiYuLS0hIuH79enJyclpaWkZGBolEun79uqOjo3bJISEhra2tFvyeNqAYYaPM6EdkMBjZ2dne3t4eHh6JiYmdnZ06KWSaTVZPIqTRaLW1tVlZWVFRUefPn3dwcPDw8PDz83N0dFTvpHPp0iV/f38PDw/144ULFyIjI1NSUgoKCmprazs6OhgMhklLQzSMpd48cpqt0GRns9nnxq6oqCg/Pz83N7fm5mZLdSJCRtTobNqNMYxYM1yz9uraN6690cntROlV4OIWfKlKzq+AZ5mZpKZZbFzqmhrw4Yfg4YfBG2+A9HTL73SjsULe0TH400/U1auHHRxmf8sbjRmQETVSWPsNZERr96DafksxIoqifD6/vb09JydHJyMmJibm5+cXFRWVlJSUl5dXVlZWV1fX1dU1NDQ0Nja2tLS0tbVRKBQqlapeGNHX1zcwMMBgMEZGRphMJpvN5vF4AoFAJBLRaDQXFxdtRgwODq6srOTxeNPvKLJet5rEiCqVikqlJiQkqHeuyc7OHhoamukeHxRFRSJRX19faWlpaGiotgfV9/b29mFhYZmZmaWlpU1NTTQajcPhKJVKQrlVLpeXl5dXV1f39fWRyeTS0lImk6nNo9N8heBYszkCGsOI5+vOr4ha8eONH1nsDpD6PT7KHL4dH2VGCTrK3NEBjhwBjz4KVq4EMTFAIDBHGWPyYAoFPzW1c9MbPe/vFBUVG5NlhtJARpwhYWe/WMiIs6/5TNQ4fUZUKpWjo6NNTU0kEikkJMTZ2dnLyyswMHACAXR3d5s0BmqgsSwWy3Psunz5snqOmr29va+vb25u7uDg4Ezvt2LAsNsbZTwjisXi+vp69RrksLCwiooKPp8/mxwmlUpbWloiIiK0XxInJ6fk5GQKhSKVSmfTGDO8hqKoxkLtezOKmpwFMuJkTaYOmZIRFajiw7QPbSNs49pjxNXB4NwCcG4+aIwB8hkjr6mtNpRiYADfCvGJJ/C1zMHBgMUylHiacQo6fdjeoWPpMsbPPyP82ykIZMRpupI42SEjEscX07HEbEZULzgdGBiora1NSkry9fV1cnLy9/ePj48vLi6uqKhQw+Lly5c9PT2dnZ3pdLql+lpkMll+fn5xcXF3d3dlZWV2drZ66z53d/f4+Pj29nb1eojpyGKNeY1hRAzDWCxWUVGRereXq1evtre3z8T48pQCymSy2tpabUZ0c3MbHib0BsZTNsoiCSAjmiOjYUbEMKyL17UqetXaq2vb268joZuA898A6WfAvz2rd39rIYZhSiU6fqm/OorNxndAfOop8I9/AA8PMKOr8TAEEebm9mx/r+ef7/KTks1R33J5ICNaTsvbXBJkxNvsAAtVbwYjqs866+npKSsri46O9vDwcHV1DQkJUR+zwWazURTlcDgkEqm4uLinp6ewsDAzM9NSKyHU7dZ03mAYpranoqLi4sWLLi4uoaGhlZWVajMsJJJ1FDMlI6pUqr6+vtTUVCcnp3PnzqWkpAwNDVmqc9dUjRQKBZlMdnFxOXfuXEhIiHpfa9aMdpaYauJtSg8Z0RzhDTMigiJXWq4sjVx6KOMjTuJhfBpi6JtgsB6gFj5I0SjTx/Z+UAwMSGprealpvIREeU8PIhAgAgEqkwF8vRUICwPPPYfvdHPiBKDRjCrV7EQqFmv03DnK0mUD//5BOaM0aoSJM8qISqWSxWIxmcw7drDJCA9YLAlkRItJeVsLMokRlUqlekfl/Pz80NBQFxcX9QkcmZmZFApFIpFoN0Ub42YBRFQqFYVCuXbtmqen5/nz5zMzM+l0ugVXEmg3jZj3BhhRva9kW1vblStX7Ozs1AeoWGSdr9lSIAgyMDCQnp5eXFxMoVByc3NJJNKE3RPNLtyqM0JGNMd9hhlRhsgOZx1eErEkLONLsetTwP05QI6+LaPMmFwu7+3lJScPOzr17P6gfbENZYkt48QJTmQkJzJSUl8vFyuTk8H8+fhC5iNHAJVqjhom5MEwUWkp7aOPut54k335igkZZybpjDIik8nMysrKyMgYGRmZGfNhqbcUgIx4SwtrvjOSEWUy2ejoaGtra1pamo+Pj2a7uxs3btDpdOL8VTYyMpKTk+Pn5+fq6hodHd3a2np7SWg2Xw19jIiiKJfLraqq8vb2dnJyunjxYlNT00wvTzGm4eo+YPXEPgzDZuEPCWOsuu1pICOa4wIDjIhi6KBocGXUyuURto0XbFWOj4GU74BgdjdTHVuvpejtFRYUDJ0527FmbfvCRdS167o3b6GuWt3+yvz2+Qu6t2xlXYksypEuXQr+9Cewaxdobp7xbQpRkZgVGNSxYiX9q3/JKBRzpLdonplgRARBFAqF+pjRgICACxcu1NXVKcYu+EvHot4bVxhkxHFyWO2DYUZU7zM3PDxcV1cXGxvr7u7u6urq5+cXGxtbVVXFZrM1M/eJI4BUKq2trb18+bKrq6u/v39JSQmbzb4TfhXoZESVSqXe4MbZ2dnDwyM2NnZoaIiAXiPO+3PbLYGMaLILMARRiUQ9ra3VVVWT//pRIIqkriSbcJsd4cv5Dg8D/1VgqGnWRpkxlQrhcmUUCu/69YFvv6WuWdthu7TrjTdpBz4acffgp2cMnz3bsXJV+6LFo17n2vN6N65D7rsPvPYavle2auZHwiUNZPq/vqauXcf088OQ27++eyYYcWhoqKWlhUwmx8XFOTo6Ojk5xcbGNjY2Njc3Dw4Omvy2zW4GFEWlUimXyyVOT4yRAlgpI6pUKvX+KXcCNBjjSn2MiCCIUCgcGBgoKSlRr1Z2d3e/cOFCUlJSW1sbwReFqPsUEhMT1TtvJyUl0en0Ob974gRGxDBMJpN1dXVFR0c7ODj4+PhkZWVNmA9gzBsC08yyApARTREcRTGFQslg8LOzKUFBdQkJsv5+FZuNisUa4hErxUcLjy4OX+zh96zU5e+gPnJ2zmXG5HIVkyklk1lBQb0ffEBZYtuxYmX3li0D337LT01FOBx1OxGBAO9ZXLqMYrv07GvJf7lPuHgRVlwMLHTEuSExMaWSEx7euWFj3yefiquqDCWdrbiZYEQSiaQ+zkF7iZydnZ16J4XZapmZ9Uil0vr6+ri4uIEB4p4VqbNtVsqIo6OjGRkZxcXFPB5PZ7vutEAURYeHh0kkkmZxq1KpFAgENBqNRCKpD8bw8PAICgrKzs4m1LDylJ7i8XiFhYW+vr7Ozs6hoaHNzc0SiWQOd6FpM6J6HU99fb2/v7+Tk1NQUFBdXZ2l1pVPqTxMMB0FICOaoJ6Kw5E0NLDDwnp3f9D+ynzKylW9+/cPOTjwrl+XtbUjPB4qk46KRzbGblwSvrjC7XFV/GdAwjahAjOSoigqkShHRoSFhUMnT3W+9jplsQ119Zqe93YMOzpKamsxrZNSMAwoFAARitq++Klx/tKqF1fteJSUnSyWSjAzajY1i7y7e/Cnnyi2S0dcXXUurza1wOmnnwlG7O7uvnTp0gRAtLOzu3DhQm1trUQiIWCPkXryDYIgw8PD6pWhBQUFyNhlLb/HrYsRURRFEESlUtXU1Pj5+V28eJFKpaoFn8PQYMwPrHoLkqCgIPWBswKBoK2tLTY2Vt0l7+npefHixfLyci6Xay1vpnarFQpFa2vr5cuX1etn8/LyeDweAX8haNts9r1KpWpra6upqZHJZEwmMy8vz3XsioyM7O8n7kESZrd3rmaEjGiCZyU1tQPffkddu466dh1l1eq2sd44yqLF+Gy/118fsrNjp6eU1SatDV78VvACkcfLYLR95nbMxhAEFYsV9AHutWt9n3zasXwFxWYJdc1a2kcHORERCjp9wpcNgoDRUVBUBEaGgd0JSfDTXzfNt21evkGQX4hKpCaoYF5SFOXGx3dt2dK7Z68wN8+8Miyey+KMKJVKb9y4ce7cuQmMaG9v7+Dg4OnpmZqaSqPRZDIZob4YJBJJf39/V1dXWVmZs7Ozg4NDUFBQ99g1NDRkcdlnokDrYkQmk9nb29vZ2RkZGeng4ODs7Ewikbq7u2k0Gp/Pnwl9CF6merkAgiAsFismJsbV1TUtLa2ysjI4OFh9wrKHh0dMTExbW5umf5HgLdJnHoZhIyMjqamprq6uzs7OkZGRAwMDVje1Q1/rtMO5XG52dnZCQkJ9fX1sbKyDg4OXl1daWppQSNCjaLWNh/caBSAjaqSY+gYVi+X9/TIKRdLW1pOVVe3pyXBw7N23v2P1mg7bpZTFNu0LFjYuWRS7bUHE5y+IE5wQHhuTyzGVCmCW7KjDVCp81lhr66iXV9dbb1MWLabYLOncsHHgxx+FhYWISDShJeruw+Zm8P774N57wbp1YN488Jc/8Apf+6xt0ZLO1zeJy8qwGR5sVjGZQ6d+aV+wcOjsWdXNge8Jds7+o2UZUS6X5+XleXl5OTs7Ozk52dvbO45d9vb23t7e6lMEHBwcXF1d4+Liuru7FQrFbe8LQVFU3Zs1AWo1j56enrPvFzNqtC5GjIiIsLe314isfZOZmYkgyIQ/8MwQxLqyyGSyoaEh9RG6rq6udnZ2Gn0cHBzS09MZDMZt/2GxoKQSiaS6utrb29vBwcHb21u9rG1uOB27eVGp1LCwMBcXF3d3d3t7ez8/v8rKyskz+C2oKixqJhSAjGiOqiiK9vbSqqqqVSoVhqIqJpOfmck4eZK6aVPLgvmt8/GFw+2vzO/aum3Izl6Yl6/icHBSRNHpwiKKojKZsKCA/s23HStWts9fQFm4qHvrttFz52RUqmZOpHaTMAyIRCAlBTz7LLj7bpwO1Z99+wC7m0nbt5+y2KZ78xZJTY32qLR2CRa5F5Cyenft7t66jZeUZJECLVKIBRlRoVBkZ2d7eHg4OTmRSKTr168HBARkZGSQSKTAwMCMjAw+n9/V1RUTE6M+M97JyenKlSsUCuV2AcHYlurKwcHBnJwcf39/bUzR3Lu5ubW2tlpE6pkuxLoYsa2tTechwuqtQKqrqzkczu16MWbaUzrLb2lp0bx1E24cHR0J1emu034zAhEE6e/vDw8Pt7e3d3FxSUpKEovF1o6JmoXng4ODWVlZTk5OatwPDAysra2FPYhmvCe3PQtkRHNcgKJoS8tgenrzrb+KMEwhYtXlnt7pssjhyMLuvbvaFy/GSXHBQsrCRR2rVvcf+Yp9+QpOcub22KnYbPblyz3vbqfYLMFLXrS479PP+MnJKiYTp0M9XZX/Gyo8exb8v/8H7rnnFiDedRf44x/xM/d4lP6eDz6gLFrc8/5OSX29Tso0R6DxeVCZbNjRibLYhvHzz4qZ3qR7fNWGnyzFiEqlMjMz093d3cnJqbCwUCgUqsYudOxS3wMAMAxTKBT9/f2JiYlqUnR0dAwJCWlsbLz1Ihm22BKxGIZxOJzKykp116a6w8bDw2MyKXp5efX09Fiizhkvw4oYUSAQxMbGTl7YpOl1tre3d3d3j4qKqq+vvxO+VqVSaUNDg05odnFxaWxstHZy0vf2YxjG5/Nzc3MdHR0dHBwCAgKsd6Ke+siAjo4O9fQJBwcHTU+wGvrt7e0jIyP1SQHDCasAZESTXaNUgtxc7K23kPnzEV9f9DfkQ5QCepVfwPzlV5b8EP8+IhHjy59TUxknTnRtegMfDl64CF9rvGx5z/s7hx2dhPkFKhZLH9iNswlBpM3NQ2fPUjdspCyxbV+wsGPt2qFfT4trahE+H+/800OHAAA+H4SGgj/84RYdavoR580D990HcrJRPrm9Z9duymKbvo8OSshkDEXH1W6JB3F5ed/Bg50bNnKiomeifLNttAgjKhSK9PR0d3cb0JtKAAAgAElEQVR3Z2fnkpISoVBo+CsNRVG5XM5gMDIyMlxdXe3t7Z2dnQMCAiorK2d6naNEImlpaYmLi1OvD3VwcHBzc4uOjiaTycPDw6WlpRO6cOzt7T08PKziS9paGJHJZEZERDg5Obm7uzs6OmoLnpyc3NHRUVxcHBoaqoYG9Rll165da2pqmpO7hAgEgurqau2/VbQFcXNz6+/vn5OdiJpfWeodYdra2nx8fOzt7d3c3EpKSmbzL0aNJcbfqDsL6XQ6mUwuKChISEgIDg729PR0cXFRz2bWdqL63t7ePjg4mDrjhzQY3wiY0lgFICMaq5Q6HYcD/PzAK6+AP/wB+93vwN/+hn35JaD3A8DrH4798KPgl1dFr4ptjcITYxgml6NCoYrJFFdWMS9c6Pv4k44VK/FuRdul1FWru97eTP/mW054hKyt/SZpahmDYYhAwE9N7f/iS+qatRTbpe3zF/TseJ8VdlHe3Y0IhcZMc0RRUFoKXnpp3CizGhPvuQfY2ICBAYCqEEltbc/OnZQltv1fHpE2NxuATi37jL3FEGT03PmOVasHvvlW2tRsbLZZSTd9RpTL5SkpKeq9fMvKyqYERE2zxmYN4GdF5OXleXh4qOcp+vv7q7dBsezUK5VK1dvbm5WVFRAQ4Obmpl4iGhoaWlJSwmAwpFKpSqVSKBSNjY3nz5+PjIzMy8sLCAg4d+5cRESEnZ2dm5tbUVERwafVWwUj9v//9s4DvJGr3PvZEEgIsAtJ2L2XC88HeeBLSLLJppNKEsglQEK7gbvUD8gltEsugbQLJGtb1ZIt23KV3GR53Xtdt/Wu7XVdt3WRJcvdclGzrN7nfMiTKFpXaTySR847T57saOac97zn946tv8+c8575+fT0dDqdnpCQ0NfXd/bs2cTExJqamuLi4oSEhNbWVrPZbLfbjUbj3Nxcc3NzampqZGQknU5ns9nx8fEVFRUSieQQ7OeGYZhKpbpw4UJaWhqLxaLRaDwer6qqqq6uzldesNnslZUV74/MIT5xOp0rKyuFhYURERFMJjM/Pz80+cDX19fb29sHBgZ2STCJDxDKZLLu7u76+vq8vLzExMSYmBj8lx6TyaTT6VFRURERESwWKyUlpbCwsKqqSiAQ+IYyOzt7aWnpcMv9w/p8gkYMILJjY+gPf0AnTnhWfuBK69pr0bFj6JnHTY3xJcOcz96bfeej+Y8uGjbnlsMcDlwsWiUTupLSpbfemnr23yc2dsaTPfTw5Fefmj19epXFNrS0OJRKt91hk0+pEhOnv/d9zwLqk3dPnLx78Q9/1J9rcCiW3EZjQNuhrKygiIjtxxEzMhC+oynmcBjb2qa/892Je04tvvKKhdQpaJaxsfmX/kt63/3q9HTPDtFUOvapEa1Wa3l5eXR0NJvN7u7u9l8gehngSlGtVre3tyckJNBoNDabnZiY2NzcrFQq9/krFcMwpVLZ0dGRlZUVGxvLZDLxmeN1dXWTk5Pr6+s2m80rRjf+orFptVqDwWC1WtfX17UbR21tLS4Ta2pqqDyURX2NKJFIkpOT8dkFk5OTNptNr9frdDqz2WwymdbW1nxHkV0ul9Vq1el0crn83LlzSUlJ+Hgzl8tNSkqqra3FLXgfpHA5cbvdi4uL9fX1ycnJuDpMTk6+ePHi8vKywWAYGRmJjY1NSUlJS0tLSkpKTEz84KzyxjMIdnZ24ivekpKSxsbG8D/MtFptS0uLRCIhfU332NiYUCg8e/bs3NwcQsjtdhsMhoWFhStXrly8eLGysjI7O5vP5/N4PDz7N64IIzcOHo+XnZ1dUVHR1tZ25cqVhYUFrVar1+tNJpNSqSwvL/fViGKxWEuZpYrh8sNCET9BI/obiJUV9NprHkV45MhVkuvIEXT9R1z33TbK+ttjp8Snfnnuly5sxx1E8IQ1TpXKPj1tvHBBFR8/9/NfyB56eOLOu6QPPDj51aemn39h9vSPp77xnGfs8K6Tk48/sXwmwtzf71hZcVusBEb4nE7U2urZbc/3LfOHPoTuvBMpFO/bw6xWff256edfkN5739Ibb1olEn+57FoOwzC1QDj55FfnfvELU1f3++3tWitkN/ejES0WS1lZGXvj6O3t3c82rBiGWSwWlUrV3d0tEAjwcaOkpKS6ujpiWYJNJtPQ0FBRUVFiYiKHw6HRaBwOp7i4eGhoaHV11WQy7fQyy/ctOb48Ua/Xt7W10Wg0FotVVFSk0Wi8sjJkYfKnISprRAzD+vv7+Xx+VFSUWCyenZ31c1AWwzCn02kymdRqtUQiwfcmjoyMZLFYPB4vPT29qalpeno6LHbscDgck5OTFRUVSUlJeNqXzMzMnp6e1dVVi8Xidrvxt66rq6vT09P19fWrq6sqlYqaD5s/DySBMvjvAblcnpaWRqPRYmNjGxsb19fX+/v7k5KSysrKlEolAbO+VfAp0SqVampqCk88yWQyWSxWZmZmfn6+UChMTEyMj4+PjY2Njo5mMpn4tGkWi5WamlpQUHDu3Lnu7m6JRLK0tKTRaHQ6ndFotFgsm1I0WCyW5ubmuLi4lI0jISGhtLR0l6FKXw/hnGoEQCP6GxG7HXE4nkHEzRrxGuxjHzE9dFfjr5MfeDjv4dThVL8sbozbODUa++ys+fJlFT9x6tl/x3dSltxxJ74sWnL7l6UPPKhOTfO8ViZ66PUoK+uqBSvXXOPpQlra5r1V3CaTrqx8+lvflj7w4PI7Z2yTk0TbfL+efXFx8Q9/nLj7HlVCgnNt7f0b1DgjrBHNZnNpaSmbzY6Oju7r69uPQPSS8CrFy5cvi0QiJpPJZrOTkpKqqqqmpqb80QF2u10ul9fX1wsEgri4OHxAQiQSdXR0zM3N6XQ6m83mqwK9Te9ygs896u/vx+cb4enc9jnAuUtzhG9RViM6nc62tra4uLjIyMiSkhKFQrGTQN+l7/gidL1ev7y8PDw8XF5eHhMTQ6PRoqOj+Xx+Tk7OhQsX5ufnfR8Sk8k0PDw8MDBg3JIMa5eGgnHLYrGMjIzgf7HgT3VeXt7g4KBSqbRarZseSLfbrVarW1paHA7HplvB8I2CNp1O5+rqanV1NYPBiI6OFovFqampDAaDx+MNDg6q1WqdTofPN8BnNhuNRq1Wu7Kygqc4HR8fHxoa6u3t7ejoaG1tbWhoqK6uLi0tzc/PF4lE6enpAoEgOTmZz+fHx8fj86EjIiLw+Sf4xIa4uLisrKyysrLz58/39/fL5fKlpSWVSrW2tmYwGCwWy56hcbvdOp1OoVBcvny5o6NDoVBQ9m9LCj4AVHMJNGIAEentRd/5zlUDcvjg3Bdumo382cuPie55svDJEVXAU+4wl8uhWDK0nF8rKNAI01dZbFVK6lpR0VpRkWcHl30M6WEYGhhATzzhGUd84QXP+hX8v/R0pFJtM6jn0uvX8vKmvvlN2Ve+sspg2mZmAqCzXVFdcfHUN56b+e73DOfPB/SKfDtj5F8joBExDDMYDCUlJSwWi8PhXL58mfSMFVarZ57i4OBgfn4+/iI7OTm5vLxcIpHgb3utVqtUKu3t7dXr9Qghh8OxtLTU0dGRm5ublJQUHR0dERGRnJx87ty5iYkJfOBwn+MxVqt1bGwsMTGRwWBkZmbKZDKqzYqjpka0WCyNjY0xMTGRkZG1tbWrq6v7lNf4ONDa2trCwkJfX19RURGXy6XT6TExMfhUsEuXLikUCrvdPjs7m5+fLxaL5XI5+T85/lnU6/V9fX15eXl8Pp/BYMTExJSVlY2OjqpUqp3+XNlpv2b/GjwkpTAM0+l0MTExuHrDB/OioqL4fL5AIEhPTxeLxWfPnhWJRFlZWRkZGUKhMC0tLSUlJSkpic/nJyQkxMXFxcbG4i+I8VFb76zBiIiIrYuO8ffCQqGwr69PoVAolUpcERLO9o9v3SSTyQYHBz0Z4nZeWHlIYnZ4uwEaMYDYrq3ZaTTrzTe7fIYSsRs/bH76VHtK6k/uFZ86XXPa4iSyZ4nnHbTF4jIYnFqtY3nZqda4jEaX0eg2GjG7PQAXry66vIwiI9EnPoFOnUI9PUivf/+/nX5mXVqtJiNz6t+/MfnY48qYGPs+9u116XSKV/8ycfc9qwyGQ6G42jVKfApUI+K/u0tKSphMJpfLHRgY8J1DRm6XbDabUqm8cuVKaWlpTEwMi8VKTk4uKysbHh6WyWTl5eXp6end3d2Dg4MVFRXp6emxsbE0Gi0mJqa0tHRgYGBhYUGn0xEYstqpF3a7fXJyEl+CmpaWNjQ0ZLEQedR3sr/P61TTiHhak+rqavxdf0tLC7lDKfibWfyl4aVLl/Lz87lcLj7aJBQKS0pKcnNzORwOl8ttbm7WarU6nY702Ww7hcwzw0Stxv9oiY+Pp9FoCQkJdXV1EolErVbv/tcFaEQv1ba2Ng6H4zurz3setXHgH/FJzLGxsYmJiWlpaZmZmWKxuLCwsKysrLq6uqGh4fz58x0dHd3d3QMDAyMjIxMTE5OTk4ODg6mpqV6DERERZ8+elcvlJP5Q++7X7O0UnIQdAdCIAYRsaGj4b3+ruvPOKR+NiD59k+pnP8p7m//Hr+R9JbovOgBzQS5qt6P6enT77egzn/G8JffZt3mPhh2rq6rkFPnXvj751FMqfqJjmeDSQkNLy/QL35E/8zV9bW1QE3Tv0Z+dbwekEd1ut0ajKSkpwUdEBgYGLBZLsP8+ttvtKpVqZGSkqqoqLi6OyWQmJSUJhUJ8Nxc+n5+YmMjcOMRicVtb2+TkpFKp3P1reGcee9xxOp346BTuRmdnJz6QuUe1kNymlEZ0u91KpRKfrhodHd3R0bG+vh6kR8WbtXhiYqK1tRVPcknfOPAdIOPj43NycsRicUNDw+rqavD+qsEXPSwuLp4/fz4nJ4fH4+GbOjY3N8tksrW1NX/+YgGN6P1xMRgM/f39mzb2zMrKampqunTpUm9v7+Dg4OjoqEQikclkcrl8ZmZmbm5ucXFxaWkJn82JTxk0GAwmkwmfNegd0tNqtSKRyFcj1tTUkJuMEzSiN5RhfQIaMYDwTUxMJCXl/PxnuU8/3frkkxdvu01y7bWuT9+i+o+fZZ/mn3666Om2xbYAzAW5qFSKXnrJM4j4wgso0C3U7YuLSh5P/tRT8q8/q04TOFXqQJ3FbLblt9+R3v/A0ptv2g7ubdfubvuvEd1ut0qlKi0tZTKZ+MSgkI3K4G+T1Wp1RUWF7+9033M+n7+4uEjKtMjdieHrUvF0PwkJCS0tLWq1OkjqZ3dPNt2ljkZ0Op0LCwuFhYUsFisuLq63tzc0s/XxRak9PT3Jycmb0hfjjwqHwxGLxUVFRdXV1a2trX19fRKJhKzxZrvdPjU11djYmJ2dzeVyo6KiMjMzL168KJfL19fX/Z/qABrR98FWqVSbMts3NjaqVCqz2Wyz2ZxOp/9gfc0ihAwGQ0FBQWxsbG5ublZWVkxMTFNTE7mJC0AjbmIeph9BIwYQOPPqtKSEmfn3l994g/Paa9yf/jT31lunbrjB8qWvnH848bkXq15cs1JlWcb6OkpPR//6r55UjkVF20w93LPb9pmZVTZ78oknp577piYzyxXgihPzwODMf7wo+8ojutJSN5VeSvp23E+N6HK5VlZWcIGYkJAwODgYpIE6X9+2nkskEqFQuPXrPyYm5sKFC1vLB+kKhmGrq6uNjY2xG0dtbS0V9tLVaDRisfjAUy7jy4Zyc3OZTGZycvLg4KDvOpIgRcTXrNFoHB4eTk9P9/0TgsvlZmZmpqam4uotKiqKw+EkJCQIBIKcnJyioqLKysrm5uaurq6RkZGZmRmlUmk2m3eaOmm32+fm5sbGxvCZuCaTSSKR1NXVZWZmstlsBoORm5t76dKlmZkZAlN1QSP6RlOn0wmFQh6Pl5eXl5aWxuFwuru7Sfnr1Ol0Tk1NjY6OLiwszMzMjIyMKBSKnSLu65L/56AR/WdF5ZKgEf2ODoah0TJj6rMNZ76z8fv3zFtvsb773YqjR9dvuEXx5d9w/tHxDwxhfpsLYkEMQ52d6BvfQDfd5EnoGKC6e88xDLNNTq5ERU0++tj08y+s5eW5DIb37u31r9ut5MbIHnl04eXfWkZH9yq9x32j0TgyMrKysuLPu6o9bF192x+N6HK5lpaWcIGYmJg4ODjoZ+KSq5si4RO+S8qmN0RxcXGdnZ1rBGNM3CutVtvW1sbn87lcbllZ2ezsLOnRCci5y5cvc7ncCxcukDihKiAHEEL4yh6RSISv7BkdHT2QR2V9fb2srMxXI2ZlZY2Ojkql0qGhoa6urpaWlqqqqvz8/PT09ISEBCaTiadu5vF4qamp2dnZhYWFlZWVjY2Nly5dGhoakslkCoUCX06Lp7+uq6vLyckZGBgYHh6uqakRCoVMJpPD4RQVFXV3d29aYR0QRtCIvrgcDsfo6Ojw8PDCwoJMJhsYGFhZWSFLyeHJrfDmfM99HdjPOWjE/dCjTl3QiH7HwqxB596yRH2u9cxz0WfeTD3zh6wz//XWK6yHH+q+7iO2z94xycgpITzy77cTfhVcWvLs0fypT6HHH0eXLvlVZftCbrd1XLL893/IvvLIzPe+7xkRxJNub1/6/aueRZU//on03vu0OWLX+vr7NwidjY+PZ2RknD9/nvSEuntqRKfTubi4iAtEfFjoQL71vdiMRmNjY6Pv179QKFSrA54J4DW4nxODwdDb25uWlhYdHZ2fny+VSkM8ZoZnC9Lr9QaDITc3l0ajCYVChUJhMBjMZnOIfxiNRuPAwEB6ejqTyczNzZVKpWR9lwcaI6PRWFNTw+FwhEJheno6h8MpLS31TjVzu90Wi0Wj0SwuLspksuHh4e7u7vPnz9fU1BQVFWVnZycnJ+PDjXhazcTERDx5XkVFRUNDQ1tbW11dHZ/PZ7PZAoEgJSWFwWDExcWVlZX19vbufy8N0Iibwo1njsQvBkPJbWqOxI+gEUmEeYCmQCP6DV8pQcX/z3nmU7Nn7ug888zYmQfkZ+5ufvvZ/33p9Vv+j/zGG63f/vZYb+/YAQ5j4D1xOFBFBbr3XvS5zyEmc3MSRL97+25BzOWyXLmieP0N2UMPz7z4w/WaGsyPvVI0WdmTTzw58+IPzQMDRN5zbzRus9mMG0dlZSWLxRIIBHK5HE/ZSta37+4a0el0zs/P46uYU1NT8SQOgQIkt7zFYmltbWWz2cnJyRkZGVwuVyQSkS6d/ffZYrEMDw9nZWWx2WyRSBTibYVtNltjY2NtbW1dXR2bzY6IiGAwGGVlZXV1dQ0NDRqNxv+O7KckvoS5q6srNTWVzWYXFxdPT08f4BxNp9Mpk8m6uromJiakUmlXV5dEItn9bxuHw7G+vr68vDw1NTUyMtLT09Pa2lpXV1dSUiIWi73pNiMiIuh0Or5hj/cPlaioKIFAoFQqSekyaMT9PIqUqgsakVLhIOwMaES/0SnHUdEv0Jmj2Jlj7jPH0Jmj6MzRlaibYmn3/t+fxnz0Y7qbblr//e8b29raDmpcB++JVIp+8xt09Ch68UUklfrdu50LYk6neWBg8ZVXpA8+NHv6tKGpefdFyk6NZv7Xv56455QqMcmpUu1seI877e3tjRsHnn+YwWAUFxc3Nja2tLQs/XOklIxjF43ocDjm5uZwgSgQCKggEBFCTqdzenq6ra0Nz4DT0dHR399/IJMjvfgdDsfExEReXl50dLRAIPBmbfQWCNKJw+FYXFzkcrleseJ7kpiYuLCwEKSmfc3imubixYt8Pp/D4VRWVi7uI12Ur+X9nPsOOPme+2/T7XabzWaVSjU7Ozs+Pt7X11dbW7tp/QQOnM1m19TU+G9595KgEXfnE0Z3QSOGUbB2cRU04i5wrr5lVKG611DULbg6xP8/zrjll6lfuo/zjSceqvrwh5233jr95psp1dXVBzU9y2hEKSno859Hd92FcnMJD+Fd3XGEMLvd1NO78NvfSh94YO5nPze2t2OuHfcb1NfVyZ96Wv71Z01d3bsU29zGls/5+fl0Ot33ix8/j42NHRkZIeVN4k4a0eFwzMzMFBcXM5lMoVA4ODhI1sjlll4GfAHDMG/ffc8DNkReBZfLNTMzU1payuFwEhMT29vbtVotKaNKm3zEN5VWKpUymay7u7uioiIuLm7rExIRESEUCjs6OuRyuVar3X0IbVMTAX10u92rq6tNTU08Hi82NhbfQS4gC2FUWK/X9/T0pKWl+QLncrnk9ho0Yhg9Eru7Chpxdz7hchc0ot+RwjB0pRAlPYTeG0R0RhxtjT7xWOYdL2Q9ls3kfvnL2PXX2595pu2dd+hZWVkjIyMElvX57c02BTHMM/vw299Gn/wk+tOfPDupkHhgNpups3Pul7+S3v/A/C9/ae7rw9zurfbdFsviK/8jPXXvCo3m2N9on1wuj42N3bqMNzk5ubGxcWxsbHFxUa/X72epxLYa0W63T09PFxYWMpnMjIyM4eFh6gjErcApcgXDMIVCUVtby9s4GhsbV1dXvVp2n07i+aKVSuXk5GR3d3d5eXlKSgqeOjglJSUzM9NXtUREROApx5lMpkAgqK2tHRgYmJubW19f38+jsrULTqdToVDU1NRwuVw8DVDoVw5t9SqoV7ZOhxUIBOS+NgGNGNQIhtI4aMRQ0g5eW6ARA2G7rkAXo1HCKRR1MzpzVBP1SUHcZ+/LueeP1f+5Khnm8dAnPoHdfLPplVeK6XQ6j8fr6OhQqVQhUxgqFfrHP9DNN6Onn0bnzwfSL//Kui1WY1vb7OkfS++7f+E3L3sWLG/ZrcV8+bL86WdkD3/F2NqK2Wz+Gd6mFL4eYqtG5G4c+IYiYrG4ubn5ypUr8/PzWq2WwIKJrRoRT/NWUFDAZDIzMzOvXLkSsvBtQyHcLuE77cbHx+NvXfeZTQNfXaFUKuVyeXd3d1lZWWJiIr5JcUpKytmzZxsaGkZGRmQyGYPBwPfOxnOv1NXV1dbWisViPME4m83OyMhobGzEE3wYDIb9xxSfilBWVhYdHZ2UlNTe3u5dFBJuQQvAX7PZfP78eTxFaGJiIovFyszMJFcZg0YMIB7ULgoakdrx8dc70Ij+knq3nF6B+tJR3o/siY8MxN75J8EdTxc8kdYXg2FoYQE9/zz68Iexp54ypqaWcLlcGo1WVVU1OzsbghljTicqLUUPPoj+7d8Qi4X8WFgSYMc3irvNZs/uKd//gfTe+xb/+N+bkmNjLtfyO+9I77t/8ZX/sQeatvs9dzAM02q1ra2tLBaLzWbT6XQWi5WYmIhvNVZRUdHU1FRUVCQUCuPi4hgMhu9w0ezsrFqt9n8niU0aEU9ul5eXx2Qy8ZFgskbC3uvc4f9Xr9d3dnYmJSWx2eyCgoLZ2dlAX/V6Z8JNTU11d3eXlJTg+7lxOJyUlJTc3NyGhobx8XF85xIMw4xGY1lZWW1tbW5ubnV1dXl5+fLystPpVKvVQ0NDVVVVWVlZCQkJDAYjOjpaJBK1trZKpdL9bGNts9nkcnl+fj6LxUpLS+vt7T3wlWqhebAcDsf4+HhlZSWeE6e2tra1tZWUdH1e/0EjelGE+wloxHCPIO4/aMTA44hhbqNy6XKV8Oyfvp7/+Pervt+30ocQstvRhQueje8+/GHE49nq6lqSkpLw/QZGR0eNRmNQBcf0NPrVr9DHP45+/GO074yEuzFxm0z6c+emnvum9NS9ir/81XdDZ/vcnPzrz0pP3bteXe02mXezssM9PFt1dXV1ZGRkTExMdXV1UVFRVVXV8PBwS0tLSUnJ1NSU0+m02WyLi4v42BKe4w1Xk/Hx8SUlJd3d3TMzMyqVymg07j5i5KsR8f2I8ezH2dnZY2NjQY3XDgAOw2WLxTI4OJiWloaPM8lkMn+GeHFpqFarZ2Zmurq6ioqKeDwenU7ncDhJSUlisbipqUkqlRoMhq0zHV0ul91uP3fu3Pr6usvl8i3gcrmUSuXly5dLS0sFAgFuMzo6Ojc3t6OjY3p6WqPRBLSnotVqlUgk2dnZ3qkIgYrgsI6x7xRY33OyOgUakSySB24HNOKBh4AUB0AjEsHodrsl05LXi16/J+ee3zb91mg34lYMBhQRga6/3rPByfAwNjw8mpGRwWQyY2Ji2tvbVSoVuTOivK5brSghAd16K7rjDiQWb30D7C1IzonbaFyvrJQ/9fTEPaeW//4Ph1LpsYthqqQk6f0PzP7nf9pmZwm05HA45ufnc3NzIyIi4uLi2trabDab9ysf/0Ly/fpHCLlcLo1GgyfyzcjIwNeW0mg0FouVk5PT2to6OTmpUqn0er3dbt9UFyFks9na29ulUqnZbJ6cnMzJyWEwGCKRSCKRgEAkEEFvFYfDIZVKMzMz8e1GRkZGcB1ms9nUarWvqMKloVarnZ2d7ezszMvL43A4NBqNw+Hw+fycnJzm5ubJyck9t7Pbcy8+p9O5srLS1dVVUFCQlJTE5XLpdHp0dHRBQUFPT8/i4qJOp9tTy+K5fgQCAZPJzMnJmZiY2P2PEC8QOPGTAGhEP0FRvxhoROrHyB8PQSP6Q2lzGbfb3TPV89O8nz5R+ASvn+e9jWFoZQU99BC65hr0k594Vo0olaqSknffO5eVlc3NzW0rVrwWCJxgGOrrQ889h268Ef3lL2h1lYCNgKu4jca1wiLZo49OnLx7lcVy6XQunW7q+ecn7jqpFYtden1AFvFFCZOTk6mpqVFRUQkJCYFOBMQwzGQyyeXylpYWkUiUkJCAi4CoqKiUlJTa2trR0VGlUqnX6202m1f/LS0t5eXlNTY2Xr58OTs7m8Fg5OTkSKXSrWoyoO5AYVy+z8/Pnz17lslkxsbG9vT06PV6XDhOT087nU6LxaLT6ebn5zs6OsRiMZvNxucaxsfHi0Si8+fPz8zM+P8ec0+N6A2Kw+FQKBRtbW1isTg+Ph5vl8PhlJSUDA4O4sPPvirW6XTq9Xqr1WdxEyQAAB4WSURBVGo0Gnt6evA5jgUFBTMzM/CceKmSdQIakSySB24HNOKBh4AUB0AjEsHocrsaZY3PiJ/5XuX3WuZbfE04HKi5GX3iE+jIEZSXh8xmz2DVhQsX8On2AoFgZGSE3E0gjEb02muebfeeftrT9E4HhmEOh2PP1687Vd963W00akQi6QMPTtxxpyoxcS0vT3rf/fJnvmabmgpoJBOXd0NDQzExMXQ6PS0tbX5+fj/fvg6HY3l5uaurKz8/Py4ujsPhMBiMyMhILpdbVFTU19e3vLys1+stFsulS5fi4+NxQUmj0bKzs2Uy2X6a3krpg3wF37cN36WGzWbX1taWlpZGRUVVVFTMzc1dvHgxKyuLTqfjK5RjY2NFItGFCxcWFhYIzN/1XyN6I2K32+fn51taWoRCYUxMDJPJjIqK4nK5FRUV4+Pja2trFosFX7xcXFzc09Nz7tw5Ho/HZDLLy8vJytDpdQZOcAKgEQ/NkwAa8XCEMow1Ip4bFv+/wWB45JFHKioqfAcAghcho80oGhHdI7rnpcaXlOaNN60+jdnt6L//G33kI+iLX0QSCXK5EIZhExMTGRkZ+Pyq1tZWjUbjfYvqUzXgU7cblZej++/3aMTYWGSx7GgBf/0nFotJzC3sNplUfP7E3fdIbrtd9uhjki/fscrhOtVqzOHArp4Wtq1b+Ovj9fX1jo4O5sYhFou1Wu22hQlcdLvder3+ypUrFRUV8fHx0dHRDAYjKioKV6LV1dWpqak0Gg3PnJKUlNTZ2XmAe5YQ6CD1q+Bf+fn5+ThknHZUVJQ3Ww2+jqS9vX15eXk/P7wENCJOD8+5OD09XV9fjy+1odPpkZGRPB6vtrZWLpc3NjZyuVwOh0On0xkMRl1dHbnZXqgfxFB66Ha78dXx+3kYQukwtLUTAZfLJZPJKLL7wE5OwvU9CWyrEd94441XX3112/c81+xpMWQFDAaDQqFY3DikUun9999fWFiIjw9Zgnz0LPT8puE3D+Q+8NaFt7Y2ZTZbFArLrbc6r70W/e53rvl5q9nsKaVQKIqKilgsVmRkZF5enlwuN5lMW6sHdGV+3vbDH7quvx47fdrR17d9VfPGoVJ53nrT6fTa2lr8ihl3a/tKfl01G4368fH53/9BcvuXJbfdLrnjTnVBwfqlS+tdXQap1KzT7W7FbDYvLS3hK1SYTGZhYaFWq929CuG7er1+fHy8traWz+dvm5o7IiIiMjKysbGRcBNQcVsCcrl8a5JLXCNGRUXJZDJ8f8Vt6/p/Ua/X19fXK5VKwk+12WxeX18fHR0tKSnBd/bDnfQ6HxUVVVpaOjExodvrwfbfbSi5iYDZbFYoFE1NTQaDYdMt+BheBIxG49jY2OXLl0n5AQ+vvh8mbw0GQ1tb2/T0tFeurK2t/eUvfwkDjchisY4dO/bhjeO66647cuTI3/72t/Ly8qogH5VVlW8XvX2f6L5TolM/zftpZWXltg3+7//2fexjzuuuc//97z0lJbV4mYqKivT0dFwmstnszMzMfTr861+PHj9u/pd/Mb/+ev+2blRUVBQWFubl5YlEInwUh8Fg5G0c+JLhbWv5ebGmpKTz97+fuOPOiTvulGz8Hz+fuOPOnl/84lx29i52Kisr8/PzY2Nj8W12BQLBTiR3MULsVlZWFh4C72gWLhATEhIKCwuJ2YRaOxEoKysTCoW+Y4degZiRkVFRUbFTxUCvk/j8VFRUMBgM38fDex4ZGZmVlRWob1A+IAIkhjKgdqEwEAACWwls+nksLS39wQ9+EAYa0WKxaLVazcYxPz//4IMPFhcXm0wme5CPac105KXIu0R33SW663TN6aHloW0btFjsp0+7P/pRdM89ritX7Dbbu6WsVqtMJsvOzo6MjGSxWDU1Naurq9ta2PPi4KD9iSfcR45gb77p2pjEdVUNq9W6trbW3d0d+d7h+z2HX1Or1VfVCfCDzWIxz8/rBwb0/f3qoqL1zk59f7/n48CAaXraZjTuZM9sNo+NjaWkpOBLmPv7+61W606FSb9us9mWl5eFQqEXSERERF1dnUajsXnjRHqrH1SDNpvNZDKNjIz40o6IiJDJZGazmSzgJpOpvr5erVaTYtBmsw0NDXE4nE0+R0ZGVlVVraysfFCDGfR+W63W5eXl5ubmEPwmD3pnPtgNWCwWiUTS399vNps/2CTCu/dms7m9vX12dtb7Ha3X6//617+GgUbcSLfy7qTEf24SFZr5iBiGVcornyl65i7RXSdFJx8veJzVy9pplcPMDPrSlzzpEv/2N896Z+/hdrs1Gk19fX10dDSNRhOLxVNTUzsZ8dbadOJyeTbc+9Sn0Fe/6snL6HK5DQbD7Oxsf39/Q0PD2bNn+Xw+i8Xa5b3qxYsX90z2sanRrR8xt9sz9dDlencOIn7ucnl26tuyCwte3Wq19vf3JyQk0Gg0oVA4PT0d+gQiarU6PT3dVwE0NDR8ELbK2BrBEFxxOBwTExO+tCMiImZmZkiMO+H5iDt13+VyLS4u8ng8X7cvXry4bYLGnYzA9UAJYBgG8xEDhUbN8t75iCT+mFOzp4fbqzCej+gbGJPJhGvEICUg9La1ZFyid9PvzrkbH0c8mXPydO1piUbiLeB74nYjgQB9+tOe/fFqaq7a+wTDMLPZfPny5eTkZBqNlpyc3NnZads4pFJpfX29RqPxNbXpHMOw4mLLXXe5brzR9fLLQxkZRcnJyTExMdHR0SwWi8Fg0Gi0yMjIqKgoHo+XvXH4ftXh59HR0XV1daurq6H8GTYYDBcvXsSXkebn5y8vL4eydS9Go9GYn5+fmJiYtnHEx8e3t7fvXzF77cOJLwGXyzU/Px8TE5Oent7e3p6amsrlcknc0BkhRLpGRAgplcq4uDjfH5xLly59QLZU8Q1fKM9hXXMoaQe1LVjXHFS8ITO+rUZ88803w2Mc0YspZBqxdrr2+fLnT4pOvqsR9xpKNBjQiy96tj959lk0MuL113OCYZjdbp+eni4sLKTT6TExMVVVVVKptLy8PD4+vqenx1sawzC9Xj8zMzMwMNDU1FRYWMjjZd1///z117vvuefKn/4koNE8KzFpNFpcXFxOTk5NTU1XV5dUKl1ZWVlfX19bW+vv7/f9qouIiODz+VFRUfjWq5WVlfPz8yFYSKhUKmtqaqKjozkcTk1NjVar9aYq9HY2NCc4Uo1G09HRMTY2ptFo/N/BLzQeHrJWnE6nVqvF81Pq9Xp8XT+JfQyGRtTr9QKBICkpqaGhIScnh8fjDQ4OEsjLQ2I3D70p0IiHJsSgEQ9HKEEjBhDHJeMSrZt2SnwKF4j4/+/OuftHNT+a0E7sZKivz7P9ycc+huj0q9444+WdTqdKpWpubuZwOP9chYPn86PRaGlpae3t7bW1tQUFBUKhMDExMS4uLiYmhs1mMxiMb33r3LFj6zffbPjrXy9VVNRfunRJIpEoFAqNRrO+vm40Gq1Wq9PpxN9fO53OqampmJgYoVDY3NycnJzM4XBmZmaGh4fFYjGdTmcymfHx8WVlZTKZbNvV7Dt1zf/rGIbNzs7iy7rj4uIuXLiA77frvwXSS2IY5t2L70DGMknvEcUN+s6m8D0nxe1gaEQ8D4tGozGZTDqdTqlUBrRrHyn9+qAZAY14aCIOGvFwhBI0YgBxrJmq+U7Fd3wFIn7+WMFj7F72Tl97djuKjvbsznfrrai62rOt86bD7Xb39/d7F37iuTZoNBqXy8W3IcbfGickJIjF4urqapGo5/bbtR/6kOutt5wTEwY83Y/D4dhpTA7fxUShUOB7SCiVSoVC4XQ67Xa7VqsdGxvDpRuTyUxISCguLh4dHd1z67NNXdj9o8vlGhsbE4lETCYzNTUVz4awE67dTZF716sRd0JHbnNgLXgEgqER8cF+r89UeGK9zhzWE9CIhyayoBEPRyhBI/obRxfmSh9JfyT/ka0a8T7xfS83vex0O3eytbSEvvc9z+YrP/whunJlm1JLS0sFBQXeTGze98J0Or2kpOTKlSszMzNLS0sqlUqj0b38suXYMfejj6KODuTcsc3Nrfh+w/me2+12jUYjkUgqKirwaYJ8Pr+wsHBgYICUhNJWq7W3t9e7xe34+Dh1ZnSBRtz8lITt5yBpxLDlEa6Og0YM18ht8Rs04hYkYXkBNKK/YcMQJtVKyyfLz0rO5o7n8jv4jHMM8Zj4rORsobSwQ9HhK7w2GcUwdO4cOnnSsxsKl4uUm3dm8cy4X1xcrK6u9qrDiIgIDofT39+Pp6fxGm9sRLff7pGbAgHS6Ta1Q/yjw+HQarUTExO1tbXx8fH4mGJBQUFPT49arfa2HmgDer0e34eQxWIVFxdPT09Tal0IaMRAA0rZ8qARKRuagBwDjRgQLioXBo1I5ej47xtoRP9ZIafbaXKY9Ha9zqobnRy90HVhzbymt+uNdqPdteUV8tWGjUb09tvoM59Bp0551jg7HFffRshisXR2dvpqRB6Pt7q66ltufd0zHnnjjehHP0ITE8jt9r1JwrnL5dJqtVKptKGhITk5GZ+nmJeX19HRsbKyEugLWaVSWV9fz+PxuFxubW2tQqEIwbKYgCiARgwIF5ULg0akcnT89w00ov+sKF4SNCLFA+Sne6AR/QR1VTG32z07O9vb2xtQqh2pFH33u+joUfSrX6HR0asMIoTsdnt/fz+Hw0lLSysqKoqLi0tOTtZdPVSYno5OnECf/axnXqPZvNkCWZ9dLpdOp5PJZC0tLfg7Yh6Pd/bs2YsXLy4uLvqzvANfoVJWVsbhcOLj41tbW1UqlT8VyeqCn3ZAI/oJivrFQCNSP0b+eAga0R9KYVEGNGJYhGlPJ0Ej7olomwLENKLbjYqK0N13e9av8HhIq73KMp5Ye3h4WC6XLy8vj20cvgNv09Po4Yc9GbnfeGOb9dFX2SLjg9vt1uv1k5OTra2t+OZ1MTExYrH4/Pnzs7Ozvo5tas3lco2Pj+fl5bFYrLS0tO7ubp1OR/ht9Sbj5H4EjUguzwO0BhrxAOGT2DRoRBJhHqwp0IgHy5+s1kEjEiFJTCMi5NGFb7zhGQt87DFUX49crqtaxzeNwS9hGOb7btftRm++6XnLfN99qK9vm1fVVxki7wOGYUajcWpq6uLFizk5OdEbR05OTnNzs1wu902Uo9frBwYGlpeX+/r6MjIyGAyGSCQaHh4md4k0eT3zWAKNSC7PA7QGGvEA4ZPYNGhEEmEerCnQiAfLn6zWQSMSIUlYIyKE+vvR88+jT34S/e53SCr1q3UMQ52d6POf9yRZTElBer1ftUgshGGYxWKZmZlpb2/Py8vjcrlMJjMrK6upqUkqlZo3XnsPDQ0lJycXFxfz+Xwmk1lYWCiTySi1QmUrENCIW5mE6RXQiGEauE1ug0bcBCR8P4JGDN/Y+XoOGtGXhr/n+9GITifKykJ33om+8AXE5+8t+DDMU+aHP0TXXYe+/W00N0f+UhV/u42QzWZbWFjo6OgoKCiIjY2l0Wjp6ekNDQ0jIyM5OTk0Gi0qKorFYhUUFExOTlJcIMI4ov9xp35J0IjUj5E/HoJG9IdSWJQBjRgWYdrTSdCIeyLapsB+NCJCaHkZvfqqZxPnr30NnT+/h+ZzOFBhoWcE8fhxVFt71abP23gWkksOh2Npaamrq6ugoCAiIiIyMpLP59PpdHxRNovFKioqam5u1m6acRkS3wJqBMYRA8JF5cKgEakcHf99A43oPyuKlwSNSPEA+ekeaEQ/QV1VbJ8aESHU3o6eew596lPoT3/yDA3udLjdCF+qcuQI+sMf0Pr6TgUP4Lrb7V5eXs7KyvLN14OfR0ZGCgSCpaWlA3ArkCZBIwZCi9JlQSNSOjx+Owca0W9UVC8IGpHqEfLPP9CI/nG6utT+NaLN5plZ+MUvehJip6Uhi+XqBt77ZDR6dnk+cgR96UuedDmb1ri8V+rA/nW5XDMzM3l5eZtkYnZ29tjYmO+KlgNzcdeGQSPuiiecboJGDKdo7ewraMSd2YTZHdCIYRawHdwFjbgDmF0v718jIoRmZjyDiMeOeQYUu7oQhm1u0uFA3d3oc59DH/2oJ1fO1o2eN1c4iM9ut3txcXHTLoIjIyN2arp7NSLQiFfzCONPoBHDOHg+roNG9IER3qegEcM7fu95DxrxPRKB/EuKRkQINTWhp59Gt9yC/vznzRv0YZhn2uKvf40+9CH0+OOepDlbRWQgLgerLIZhy8vLdDqdxWIlJSVFR0fT6fTx8fFdEigGy5XA7YJGDJwZRWuARqRoYAJ0CzRigMCoWxw0InVjE4hnoBEDofVeWbI0osnkWdr8b/+G7roLiURXZT00m1FZ2btLVWpq9ljX8p5fB/AvhmEGg6GwsLC6unp8fPzcuXPFxcVLS0u+yR0PwC3/mgSN6B+nMCgFGjEMguSHi6AR/YAUHkVAI4ZHnPbyEjTiXoS2u0+WRkTIkyLxt7/1aMFvfev9DfpcLiSReIYYb7gB/fzn1BWIXjYulwvfSQXDMO+59y5lT0AjUjY0gToGGjFQYtQsDxqRmnEh4BVoRALQKFgFNCKRoJCoETHMs+HKQw95Utu89hoyGj2KcGUFxcaia6/1LGoZHyfiIdTxhwBoRH8ohUUZ0IhhEaY9nQSNuCeicCkAGjFcIrW7n6ARd+ez/V0SNSJCnhTZ8fGexSsnT6KCAiSXo+RkdOut6KabEI22vQNwlRQCoBFJwUgFI6ARqRCF/fsAGnH/DCliATQiRQKxTzdAIxIBSK5GRAiNjaFf/hJdf71nw73HHkPXXONZqnLyJFKribgHdfwkABrRT1DULwYakfox8sdD0Ij+UAqLMqARwyJMezoJGnFPRNsUIF0jOp2opAR95jMedYj/d9116O670eDgVQtZtnEFLu2DAGjEfcCjVlXQiNSKB1FvQCMSJUe5eqARKRcSQg6BRiSCjXSNiK9cue669zXikSOeDZqPH0e5uRTNekMEHMXqgEakWECIuwMakTg7KtUEjUilaOzLF9CI+8JHmcqgEYmEglyNqFSit9/2rFDxDiL6nhw75hlNpGZyRCLsqFQHNCKVorEvX0Aj7gsfZSqDRqRMKPbrCGjE/RKkRn3QiETiQK5GdLtRaSn6whe2kYnXX4+efBI5nUSchDp7EgCNuCeicCkAGjFcIrW7n6ARd+cTRndBI4ZRsHZxFTTiLnB2vEWuRsT35XvllW3GET/5SVRVtaMbcGOfBEAj7hMgdaqDRqROLPbjCWjE/dCjVF3QiJQKB2FnQCMSQUe6RnQ6PbuqfP7zVw0l3nCDJ4222UzEQ6jjDwHQiP5QCosyoBHDIkx7OgkacU9E4VIANGK4RGp3P0Ej7s5n+7uka0SE0PQ02jSUePy4Z7EzHMEjABoxeGxDbBk0YoiBB6k50IhBAht6s6ARQ888GC2CRiRCNRga0W5HExNILH7/v7IyT3ptOIJHADRi8NiG2DJoxBADD1JzoBGDBDb0ZkEjhp55MFoEjUiEajA0IkKetSlGIzIYPP8ZjchkIuIb1PGfAGhE/1lRvCRoRIoHyE/3QCP6CYr6xUAjUj9G/ngIGtEfSpvLBEkjbm4GPgeZAGjEIAMOnXnQiKFjHcyWQCMGk25IbYNGDCnuoDUGGpEIWtCIRKhRrw5oROrFhKBHoBEJgqNYNdCIFAsIcXdAIxJnR6WaoBGJRAM0IhFq1KsDGpF6MSHoEWhEguAoVg00IsUCQtwd0IjE2VGpJmhEItEAjUiEGvXqgEakXkwIegQakSA4ilUDjUixgBB3BzQicXZUqgkakUg0QCMSoUa9OqARqRcTgh6BRiQIjmLVQCNSLCDE3QGNSJwdlWqCRiQSDdCIRKhRrw5oROrFhKBHoBEJgqNYNdCIFAsIcXdAIxJnR6WaoBGJRAM0IhFq1KsDGpF6MSHoEWhEguAoVg00IsUCQtwd0IjE2VGpJmhEItEAjUiEGvXqgEakXkwIegQakSA4ilUDjUixgBB3BzQicXZUqgkakUg0QCMSoUa9OqARqRcTgh6BRiQIjmLVQCNSLCDE3QGNSJwdlWqCRiQSDdCIRKhRrw5oROrFhKBHoBEJgqNYNdCIFAsIcXdAIxJnR6WaoBGJRAM0IhFq1KsDGpF6MSHoEWhEguAoVg00IsUCQtwd0IjE2VGpJmhEItEAjUiEGvXqgEakXkwIegQakSA4ilUDjUixgBB3BzQicXZUqgkakUg0QCMSoUa9OqARqRcTgh6BRiQIjmLVQCNSLCDE3QGNSJwdlWqCRiQSDdCIRKhRrw5oROrFhKBHoBEJgqNYNdCIFAsIcXdAIxJnR6Wah0ojlpWV2Ww2d/APp9M5NTXV3d1tt9uD3xq0ECwCdru9u7t7amrK6XQGqw2wGxICNputrq5ubW3N5XKFpEFoJCgEnE6nUqlsamoKzW/yoPQBjG4QcDgcExMT/f398C0Z1k+E3W5vb2+fn5/3fkuazebXX3/91VdftVqtW9XsNVsvUeGKwWB45JFH4uLiBgYGrgT/GBoaqq+vP3v27ODgYPBbgxaCRWBwcDAvL6++vn5oaChYbYDdkBAYGBhITk7u7OwcHh4OSYPQSFAIDA8Pt7W1CYXC0PwmD0ofwOgGgaGhoerq6qKiIviWDOsnYnBwUCQSNTU1eb8l+/r6fvWrX/35z3+2WCxb5R9FNaJarX7uuedOnDjxLyE5Tpw4cfTo0euvvz5kLYakWx+4Rk6cOHHDDTccPXoU4hjusT9+/Pi111578803QyjDOpQnTpy46aabrrvuuuPHj4d1R8D5EydOfPzjH//oRz8KP5Jh/TAcP378Ix/5yLFjx7xxPLFxvPnmm3q9Pmw0otvtVqlUa2trhpAcGo3mn2OWL7zwwurqakgahEaCQmB1dfWFF16IjY3VaDRBaQCMhorA0tLSLbfc0tXVtb6+Hqo2oR3yCeh0unPnzn3xi19cXl4m3zpYDCEBtVr9zjvv/PznP1cqlSFsFpoimcDKysoTTzyRlZWl1Wpx03q9Xq1Wr6+vYxgWNhpxq6NBvWK329PS0r7//e+bzeagNgTGg0rAbDb/4Ac/SElJsdvtQW0IjAebgMFgOH78+MjIiNvtDnZbYD94BFwuV3t7+2233WY0GoPXClgOAQGbzcZkMl966aVt30iGwAFoghQCJpPpqaeeKiwsdDgc/hik6Ltmf1wnsQxoRBJhHqAp0IgHCJ/cpkEjksvzoKyBRjwo8qS3CxqRdKQHYhA0IhHsoBGJUKNeHdCI1IsJQY9AIxIER7FqoBEpFhDi7oBGJM6OSjVBIxKJhsvl6urqys7O9nP0lUgbUCf4BBwOh0gk6uzsdLlcwW8NWggiAZvNdubMmeXl5W2nyASxYTBNKgG32z09Pc1ms/8ZUFINg7FQE3A6nS0tLUVFRfAtGWr0pLZnt9tTUlKGhob8/JaEd83v4rfZbEajEb6QSH0aQ20MwzCj0QjfRqHmHoT2MAzT6XR+/hYLQvtgkjQCTqdTr9fDr1bSgB6cIavVajabIZQHFwESWsYwzGAw+D9lHzQiCdDBBBAAAkAACAABIAAEDhkB0IiHLKDQHSAABIAAEAACQAAIkEAANCIJEMEEEAACQAAIAAEgAAQOGQHQiIcsoNAdIAAEgAAQAAJAAAiQQAA0IgkQwQQQAAJAAAgAASAABA4ZAdCIhyyg0B0gAASAABAAAkAACJBAADQiCRDBBBAAAkAACAABIAAEDhkB0IiHLKDQHSAABIAAEAACQAAIkEAANCIJEMEEEAACQAAIAAEgAAQOGQHQiIcsoNAdIAAEgAAQAAJAAAiQQAA0IgkQwQQQAAJAAAgAASAABA4ZAdCIhyyg0B0gAASAABAAAkAACJBAADQiCRDBBBAAAkAACAABIAAEDhkB0IiHLKDQHSAABIAAEAACQAAIkEAANCIJEMEEEAACQAAIAAEgAAQOGQHQiIcsoNAdIAAEgAAQAAJAAAiQQAA0IgkQwQQQAAJAAAgAASAABA4ZAdCIhyyg0B0gAASAABAAAkAACJBAADQiCRDBBBAAAkAACAABIAAEDhkB0IiHLKDQHSAABIAAEAACQAAIkEAANCIJEMEEEAACQAAIAAEgAAQOGQHQiIcsoNAdIAAEgAAQAAJAAAiQQAA0IgkQwQQQAAJAAAgAASAABA4ZAdCIhyyg0B0gAASAABAAAkAACJBAADQiCRDBBBAAAkAACAABIAAEDhkB0IiHLKDQHSAABIAAEAACQAAIkEAANCIJEMEEEAACQAAIAAEgAAQOGYH/D+V4H8KlL4UzAAAAAElFTkSuQmCC;" vertex="1" parent="1">
          <mxGeometry x="30" y="50" width="865" height="520" as="geometry" />
        </mxCell>
        <mxCell id="FIYXRa1nBwu99BXQIc-x-3" value="0" style="text;html=1;align=center;verticalAlign=middle;whiteSpace=wrap;rounded=0;fontFamily=Times New Roman;fontSize=19;" vertex="1" parent="1">
          <mxGeometry x="89" y="537" width="60" height="30" as="geometry" />
        </mxCell>
        <mxCell id="FIYXRa1nBwu99BXQIc-x-4" value="20" style="text;html=1;align=center;verticalAlign=middle;whiteSpace=wrap;rounded=0;fontFamily=Times New Roman;fontSize=19;" vertex="1" parent="1">
          <mxGeometry x="240" y="535" width="60" height="30" as="geometry" />
        </mxCell>
        <mxCell id="FIYXRa1nBwu99BXQIc-x-5" value="40" style="text;html=1;align=center;verticalAlign=middle;whiteSpace=wrap;rounded=0;fontFamily=Times New Roman;fontSize=19;" vertex="1" parent="1">
          <mxGeometry x="395" y="535" width="60" height="30" as="geometry" />
        </mxCell>
        <mxCell id="FIYXRa1nBwu99BXQIc-x-6" value="60" style="text;html=1;align=center;verticalAlign=middle;whiteSpace=wrap;rounded=0;fontFamily=Times New Roman;fontSize=19;" vertex="1" parent="1">
          <mxGeometry x="546" y="535" width="60" height="30" as="geometry" />
        </mxCell>
        <mxCell id="FIYXRa1nBwu99BXQIc-x-7" value="80" style="text;html=1;align=center;verticalAlign=middle;whiteSpace=wrap;rounded=0;fontFamily=Times New Roman;fontSize=19;" vertex="1" parent="1">
          <mxGeometry x="700" y="535" width="60" height="30" as="geometry" />
        </mxCell>
        <mxCell id="FIYXRa1nBwu99BXQIc-x-8" value="100" style="text;html=1;align=center;verticalAlign=middle;whiteSpace=wrap;rounded=0;fontFamily=Times New Roman;fontSize=19;" vertex="1" parent="1">
          <mxGeometry x="847" y="535" width="60" height="30" as="geometry" />
        </mxCell>
        <mxCell id="FIYXRa1nBwu99BXQIc-x-9" value="0.2" style="text;html=1;align=center;verticalAlign=middle;whiteSpace=wrap;rounded=0;fontFamily=Times New Roman;fontSize=19;rotation=-90;" vertex="1" parent="1">
          <mxGeometry x="29" y="470" width="60" height="30" as="geometry" />
        </mxCell>
        <mxCell id="FIYXRa1nBwu99BXQIc-x-10" value="0.3" style="text;html=1;align=center;verticalAlign=middle;whiteSpace=wrap;rounded=0;fontFamily=Times New Roman;fontSize=19;rotation=-90;" vertex="1" parent="1">
          <mxGeometry x="30" y="410" width="60" height="30" as="geometry" />
        </mxCell>
        <mxCell id="FIYXRa1nBwu99BXQIc-x-11" value="0.4" style="text;html=1;align=center;verticalAlign=middle;whiteSpace=wrap;rounded=0;fontFamily=Times New Roman;fontSize=19;rotation=-90;" vertex="1" parent="1">
          <mxGeometry x="30" y="340" width="60" height="30" as="geometry" />
        </mxCell>
        <mxCell id="FIYXRa1nBwu99BXQIc-x-12" value="0.5&lt;span style=&quot;color: rgba(0, 0, 0, 0); font-family: monospace; font-size: 0px; text-align: start; text-wrap-mode: nowrap;&quot;&gt;%3CmxGraphModel%3E%3Croot%3E%3CmxCell%20id%3D%220%22%2F%3E%3CmxCell%20id%3D%221%22%20parent%3D%220%22%2F%3E%3CmxCell%20id%3D%222%22%20value%3D%220.4%22%20style%3D%22text%3Bhtml%3D1%3Balign%3Dcenter%3BverticalAlign%3Dmiddle%3BwhiteSpace%3Dwrap%3Brounded%3D0%3BfontFamily%3DTimes%20New%20Roman%3BfontSize%3D19%3Brotation%3D-90%3B%22%20vertex%3D%221%22%20parent%3D%221%22%3E%3CmxGeometry%20x%3D%2230%22%20y%3D%22410%22%20width%3D%2260%22%20height%3D%2230%22%20as%3D%22geometry%22%2F%3E%3C%2FmxCell%3E%3C%2Froot%3E%3C%2FmxGraphModel%3E&lt;/span&gt;" style="text;html=1;align=center;verticalAlign=middle;whiteSpace=wrap;rounded=0;fontFamily=Times New Roman;fontSize=19;rotation=-90;" vertex="1" parent="1">
          <mxGeometry x="29" y="270" width="60" height="30" as="geometry" />
        </mxCell>
        <mxCell id="FIYXRa1nBwu99BXQIc-x-13" value="0.6" style="text;html=1;align=center;verticalAlign=middle;whiteSpace=wrap;rounded=0;fontFamily=Times New Roman;fontSize=19;rotation=-90;" vertex="1" parent="1">
          <mxGeometry x="29" y="210" width="60" height="30" as="geometry" />
        </mxCell>
        <mxCell id="FIYXRa1nBwu99BXQIc-x-14" value="0.7" style="text;html=1;align=center;verticalAlign=middle;whiteSpace=wrap;rounded=0;fontFamily=Times New Roman;fontSize=19;rotation=-90;" vertex="1" parent="1">
          <mxGeometry x="30" y="140" width="60" height="30" as="geometry" />
        </mxCell>
        <mxCell id="FIYXRa1nBwu99BXQIc-x-15" value="0.8" style="text;html=1;align=center;verticalAlign=middle;whiteSpace=wrap;rounded=0;fontFamily=Times New Roman;fontSize=19;rotation=-90;" vertex="1" parent="1">
          <mxGeometry x="30" y="70" width="60" height="30" as="geometry" />
        </mxCell>
        <mxCell id="FIYXRa1nBwu99BXQIc-x-16" value="训练轮数" style="text;html=1;align=center;verticalAlign=middle;resizable=0;points=[];autosize=1;strokeColor=none;fillColor=none;fontFamily=SimSun;fontSize=24;" vertex="1" parent="1">
          <mxGeometry x="435" y="557" width="120" height="40" as="geometry" />
        </mxCell>
        <mxCell id="FIYXRa1nBwu99BXQIc-x-17" value="平均准确率" style="text;html=1;align=center;verticalAlign=middle;resizable=0;points=[];autosize=1;strokeColor=none;fillColor=none;fontFamily=SimSun;fontSize=24;rotation=-90;" vertex="1" parent="1">
          <mxGeometry x="-43" y="260" width="140" height="40" as="geometry" />
        </mxCell>
      </root>
    </mxGraphModel>
  </diagram>
</mxfile>
